<svg width="25" height="25" viewBox="0 0 25 25" fill="none" xmlns="http://www.w3.org/2000/svg">
<path opacity="0.4" fill-rule="evenodd" clip-rule="evenodd" d="M12.3262 8.23828C12.7404 8.23828 13.0762 8.57407 13.0762 8.98828V12.2383H16.3262C16.7404 12.2383 17.0762 12.5741 17.0762 12.9883C17.0762 13.4025 16.7404 13.7383 16.3262 13.7383H13.0762V16.9883C13.0762 17.4025 12.7404 17.7383 12.3262 17.7383C11.912 17.7383 11.5762 17.4025 11.5762 16.9883V13.7383H8.32617C7.91196 13.7383 7.57617 13.4025 7.57617 12.9883C7.57617 12.5741 7.91196 12.2383 8.32617 12.2383H11.5762V8.98828C11.5762 8.57407 11.912 8.23828 12.3262 8.23828Z" fill="var(--iconPrimary)"/>
<path fill-rule="evenodd" clip-rule="evenodd" d="M12.3262 3.73828C7.21754 3.73828 3.07617 7.87965 3.07617 12.9883C3.07617 18.0969 7.21754 22.2383 12.3262 22.2383C17.4348 22.2383 21.5762 18.0969 21.5762 12.9883C21.5762 7.87965 17.4348 3.73828 12.3262 3.73828ZM1.57617 12.9883C1.57617 7.05122 6.38911 2.23828 12.3262 2.23828C18.2632 2.23828 23.0762 7.05122 23.0762 12.9883C23.0762 18.9253 18.2632 23.7383 12.3262 23.7383C6.38911 23.7383 1.57617 18.9253 1.57617 12.9883Z" fill="var(--iconPrimary)"/>
</svg>
