<svg width="24" height="24" viewBox="0 0 24 24" fill="none" xmlns="http://www.w3.org/2000/svg">
<g clip-path="url(#clip0_24476_97811)">
<path d="M5.184 6H6.1704C7.7112 6.1512 9.1368 6.9264 10.1928 8.0424C12.384 10.3416 13.5888 13.5864 16.3776 15.2976C18.3936 16.536 21.2136 15.5232 22.2048 13.4328C22.7088 13.4232 23.2152 13.4232 23.7192 13.4256C23.0256 15.5496 21.0048 17.076 18.7944 17.28H17.9808C16.62 17.1672 15.2976 16.644 14.268 15.7392C12.7728 14.472 11.8128 12.7344 10.6512 11.1864C9.6528 9.8184 8.6328 8.28 6.9792 7.6584C4.9368 6.8928 2.4408 8.0904 1.6968 10.1256C1.0416 11.8008 1.5744 13.8792 3.0384 14.952C4.1352 15.8016 5.664 16.1184 6.9816 15.624C8.4456 15.096 9.5328 13.896 10.3656 12.624C10.6944 13.0944 11.0136 13.572 11.3304 14.052C10.0344 15.684 8.2368 17.0856 6.0984 17.28H5.2224C2.5272 17.0928 0.1848 14.8032 0 12.0984V11.2128C0.1752 8.5128 2.4864 6.1968 5.184 6Z" fill="#DE3F6B" style="fill:#DE3F6B;fill:color(display-p3 0.8706 0.2471 0.4196);fill-opacity:1;"/>
<path d="M17.9256 6H18.744C21.4632 6.1776 23.7768 8.5128 24 11.2176V12.6048C21.756 12.6264 19.5096 12.612 17.2656 12.6144C17.268 12.2088 17.268 11.8056 17.2656 11.4C19.0392 11.3952 20.8104 11.4072 22.5816 11.3952C22.4568 10.6776 22.2936 9.9432 21.8688 9.336C20.832 7.752 18.6408 7.104 16.8888 7.7904C15.492 8.3088 14.4408 9.444 13.6296 10.656C13.3176 10.2072 13.008 9.7536 12.708 9.2952C13.9872 7.6392 15.7728 6.2064 17.9256 6Z" fill="#DE3F6B" style="fill:#DE3F6B;fill:color(display-p3 0.8706 0.2471 0.4196);fill-opacity:1;"/>
</g>
<defs>
<clipPath id="clip0_24476_97811">
<rect width="24" height="11.28" fill="white" style="fill:white;fill:white;fill-opacity:1;" transform="translate(0 6)"/>
</clipPath>
</defs>
</svg>
