<svg width="25" height="24" viewBox="0 0 25 24" fill="none" xmlns="http://www.w3.org/2000/svg">
    <path opacity="0.4" fill-rule="evenodd" clip-rule="evenodd" d="M12.0303 8.4687C12.3232 8.76159 12.3232 9.23647 12.0303 9.52936L10.3107 11.249L16.5 11.249C16.9142 11.249 17.25 11.5848 17.25 11.999C17.25 12.4132 16.9142 12.749 16.5 12.749L10.3107 12.749L12.0303 14.4687C12.3232 14.7616 12.3232 15.2364 12.0303 15.5293C11.7374 15.8222 11.2626 15.8222 10.9697 15.5293L7.96967 12.5293C7.82902 12.3887 7.75 12.1979 7.75 11.999C7.75 11.8001 7.82902 11.6093 7.96967 11.4687L10.9697 8.46869C11.2626 8.1758 11.7374 8.1758 12.0303 8.4687Z" fill="var(--iconPrimary)"/>
    <path fill-rule="evenodd" clip-rule="evenodd" d="M12.5 2.74903C7.39137 2.74902 3.25 6.89039 3.25 11.999C3.25 17.1077 7.39136 21.249 12.5 21.249C17.6086 21.249 21.75 17.1077 21.75 11.999C21.75 6.89039 17.6086 2.74903 12.5 2.74903ZM1.75 11.999C1.75 6.06196 6.56294 1.24902 12.5 1.24903C18.4371 1.24903 23.25 6.06197 23.25 11.999C23.25 17.9361 18.4371 22.749 12.5 22.749C6.56294 22.749 1.75 17.9361 1.75 11.999Z" fill="var(--iconPrimary)"/>
</svg>