<svg width="25" height="25" viewBox="0 0 25 25" fill="none" xmlns="http://www.w3.org/2000/svg">
    <path d="M11.6583 20.6011C11.8033 20.7323 11.9939 20.8017 12.1894 20.7944C12.3849 20.7871 12.5698 20.7038 12.7047 20.5621C12.8396 20.4204 12.9138 20.2317 12.9115 20.0361C12.9091 19.8405 12.8305 19.6535 12.6923 19.5151L6.44128 13.5611H21.1753C21.3742 13.5611 21.565 13.482 21.7056 13.3414C21.8463 13.2007 21.9253 13.01 21.9253 12.8111C21.9253 12.6121 21.8463 12.4214 21.7056 12.2807C21.565 12.1401 21.3742 12.0611 21.1753 12.0611H6.44128L12.6923 6.10605C12.8305 5.96761 12.9091 5.78065 12.9115 5.58505C12.9138 5.38945 12.8396 5.20068 12.7047 5.05901C12.5698 4.91733 12.3849 4.83397 12.1894 4.82669C11.9939 4.81941 11.8033 4.8888 11.6583 5.02005L4.23829 12.0871C4.07589 12.2411 3.97019 12.4455 3.93829 12.6671C3.91998 12.7625 3.92032 12.8607 3.93929 12.9561C3.97141 13.1773 4.07708 13.3812 4.23929 13.5351L11.6583 20.6021V20.6011Z" fill="var(--iconPrimary)"/>
</svg>
