<svg width="25" height="25" viewBox="0 0 25 25" fill="none" xmlns="http://www.w3.org/2000/svg">
    <path fill-rule="evenodd" clip-rule="evenodd" d="M 5.6791 9.9551 C 5.6792 6.2272 8.7012 3.2053 12.4291 3.2053 C 16.157 3.2053 19.1791 6.2273 19.1791 9.9553 L 19.1789 10.0044 V 10.7053 C 19.1789 12.8284 19.9799 14.7627 21.2974 16.2251 C 21.4639 16.41 21.528 16.6653 21.4684 16.9068 C 21.4088 17.1483 21.2333 17.3446 21 17.4307 C 19.456 18.0007 17.8396 18.4211 16.1687 18.6745 C 16.1756 18.7672 16.1791 18.8609 16.1791 18.9553 C 16.1791 21.0263 14.5002 22.7053 12.4291 22.7053 C 10.358 22.7053 8.6791 21.0263 8.6791 18.9553 C 8.6791 18.8609 8.6826 18.7673 8.6895 18.6745 C 7.0184 18.4212 5.402 18.0008 3.8578 17.4307 C 3.6245 17.3446 3.449 17.1483 3.3894 16.9068 C 3.3298 16.6653 3.3938 16.41 3.5603 16.2251 C 4.8779 14.7627 5.6789 12.8284 5.6789 10.7053 L 5.6791 9.9551 Z M 10.1813 18.8545 C 9.433 18.81 8.899 18.703 8.899 18.721 C 8.899 21.337 11.159 22.423 12.405 22.441 C 13.74 22.405 15.876 21.284 15.911 18.917 C 15.894 18.579 15.983 18.703 14.79 18.846 C 13.9363 18.9212 13.1865 18.9553 12.4289 18.9553 C 11.6714 18.9553 10.9217 18.9212 10.1813 18.8545 Z" stroke="var(--iconPrimary)"  stroke-linecap="round" stroke-linejoin="round"/>
</svg>