<svg width="25" height="25" viewBox="0 0 25 25" fill="none" xmlns="http://www.w3.org/2000/svg">
<path d="M12.9302 12.9561C12.9302 13.3703 12.5944 13.7061 12.1802 13.7061C11.766 13.7061 11.4302 13.3703 11.4302 12.9561C11.4302 12.5418 11.766 12.2061 12.1802 12.2061C12.5944 12.2061 12.9302 12.5418 12.9302 12.9561Z" fill="var(--iconPrimary)"/>
<path d="M7.68018 15.9561C8.09439 15.9561 8.43018 15.6203 8.43018 15.2061C8.43018 14.7918 8.09439 14.4561 7.68018 14.4561C7.26596 14.4561 6.93018 14.7918 6.93018 15.2061C6.93018 15.6203 7.26596 15.9561 7.68018 15.9561Z" fill="var(--iconPrimary)"/>
<path d="M8.43018 17.4561C8.43018 17.8703 8.09439 18.2061 7.68018 18.2061C7.26596 18.2061 6.93018 17.8703 6.93018 17.4561C6.93018 17.0418 7.26596 16.7061 7.68018 16.7061C8.09439 16.7061 8.43018 17.0418 8.43018 17.4561Z" fill="var(--iconPrimary)"/>
<path d="M9.93018 15.9561C10.3444 15.9561 10.6802 15.6203 10.6802 15.2061C10.6802 14.7918 10.3444 14.4561 9.93018 14.4561C9.51596 14.4561 9.18018 14.7918 9.18018 15.2061C9.18018 15.6203 9.51596 15.9561 9.93018 15.9561Z" fill="var(--iconPrimary)"/>
<path d="M10.6802 17.4561C10.6802 17.8703 10.3444 18.2061 9.93018 18.2061C9.51596 18.2061 9.18018 17.8703 9.18018 17.4561C9.18018 17.0418 9.51596 16.7061 9.93018 16.7061C10.3444 16.7061 10.6802 17.0418 10.6802 17.4561Z" fill="var(--iconPrimary)"/>
<path d="M12.1802 15.9561C12.5944 15.9561 12.9302 15.6203 12.9302 15.2061C12.9302 14.7918 12.5944 14.4561 12.1802 14.4561C11.766 14.4561 11.4302 14.7918 11.4302 15.2061C11.4302 15.6203 11.766 15.9561 12.1802 15.9561Z" fill="var(--iconPrimary)"/>
<path d="M12.9302 17.4561C12.9302 17.8703 12.5944 18.2061 12.1802 18.2061C11.766 18.2061 11.4302 17.8703 11.4302 17.4561C11.4302 17.0418 11.766 16.7061 12.1802 16.7061C12.5944 16.7061 12.9302 17.0418 12.9302 17.4561Z" fill="var(--iconPrimary)"/>
<path d="M14.4302 15.9561C14.8444 15.9561 15.1802 15.6203 15.1802 15.2061C15.1802 14.7918 14.8444 14.4561 14.4302 14.4561C14.016 14.4561 13.6802 14.7918 13.6802 15.2061C13.6802 15.6203 14.016 15.9561 14.4302 15.9561Z" fill="var(--iconPrimary)"/>
<path d="M15.1802 17.4561C15.1802 17.8703 14.8444 18.2061 14.4302 18.2061C14.016 18.2061 13.6802 17.8703 13.6802 17.4561C13.6802 17.0418 14.016 16.7061 14.4302 16.7061C14.8444 16.7061 15.1802 17.0418 15.1802 17.4561Z" fill="var(--iconPrimary)"/>
<path d="M16.6802 15.9561C17.0944 15.9561 17.4302 15.6203 17.4302 15.2061C17.4302 14.7918 17.0944 14.4561 16.6802 14.4561C16.266 14.4561 15.9302 14.7918 15.9302 15.2061C15.9302 15.6203 16.266 15.9561 16.6802 15.9561Z" fill="var(--iconPrimary)"/>
<path d="M15.1802 12.9561C15.1802 13.3703 14.8444 13.7061 14.4302 13.7061C14.016 13.7061 13.6802 13.3703 13.6802 12.9561C13.6802 12.5418 14.016 12.2061 14.4302 12.2061C14.8444 12.2061 15.1802 12.5418 15.1802 12.9561Z" fill="var(--iconPrimary)"/>
<path d="M16.6802 13.7061C17.0944 13.7061 17.4302 13.3703 17.4302 12.9561C17.4302 12.5418 17.0944 12.2061 16.6802 12.2061C16.266 12.2061 15.9302 12.5418 15.9302 12.9561C15.9302 13.3703 16.266 13.7061 16.6802 13.7061Z" fill="var(--iconPrimary)"/>
<path fill-rule="evenodd" clip-rule="evenodd" d="M6.93018 2.45605C7.34439 2.45605 7.68018 2.79184 7.68018 3.20605V4.70605H16.6802V3.20605C16.6802 2.79184 17.016 2.45605 17.4302 2.45605C17.8444 2.45605 18.1802 2.79184 18.1802 3.20605V4.70605H18.9302C20.587 4.70605 21.9302 6.0492 21.9302 7.70605V18.9561C21.9302 20.6129 20.587 21.9561 18.9302 21.9561H5.43018C3.77332 21.9561 2.43018 20.6129 2.43018 18.9561V7.70605C2.43018 6.0492 3.77332 4.70605 5.43018 4.70605H6.18018V3.20605C6.18018 2.79184 6.51596 2.45605 6.93018 2.45605ZM20.4302 11.4561C20.4302 10.6276 19.7586 9.95605 18.9302 9.95605H5.43018C4.60175 9.95605 3.93018 10.6276 3.93018 11.4561V18.9561C3.93018 19.7845 4.60175 20.4561 5.43018 20.4561H18.9302C19.7586 20.4561 20.4302 19.7845 20.4302 18.9561V11.4561Z" fill="var(--iconPrimary)"/>
</svg>
