<svg width="24" height="25" viewBox="0 0 24 25" fill="none" xmlns="http://www.w3.org/2000/svg">
    <path d="M17.5 12.5C18.9587 12.5 20.3576 13.0795 21.3891 14.1109C22.4205 15.1424 23 16.5413 23 18C23 19.4587 22.4205 20.8576 21.3891 21.8891C20.3576 22.9205 18.9587 23.5 17.5 23.5C16.0413 23.5 14.6424 22.9205 13.6109 21.8891C12.5795 20.8576 12 19.4587 12 18C12 16.5413 12.5795 15.1424 13.6109 14.1109C14.6424 13.0795 16.0413 12.5 17.5 12.5ZM17.5 14.5L17.41 14.508C17.3101 14.5262 17.2181 14.5745 17.1463 14.6463C17.0745 14.7181 17.0263 14.8101 17.008 14.91L17 15V17.5H14.498L14.408 17.509C14.3081 17.5272 14.2161 17.5755 14.1443 17.6473C14.0725 17.7191 14.0243 17.8111 14.006 17.911L13.998 18.001L14.006 18.091C14.0243 18.1909 14.0725 18.2829 14.1443 18.3547C14.2161 18.4265 14.3081 18.4747 14.408 18.493L14.498 18.501H17V21.004L17.008 21.094C17.0263 21.1939 17.0745 21.2859 17.1463 21.3577C17.2181 21.4295 17.3101 21.4777 17.41 21.496L17.5 21.504L17.59 21.496C17.6899 21.4777 17.7819 21.4295 17.8537 21.3577C17.9255 21.2859 17.9737 21.1939 17.992 21.094L18 21.004V18.5H20.504L20.594 18.493C20.6939 18.4747 20.7859 18.4265 20.8577 18.3547C20.9295 18.2829 20.9777 18.1909 20.996 18.091L21.004 18.001L20.996 17.911C20.9777 17.8109 20.9293 17.7189 20.8573 17.647C20.7853 17.5752 20.6931 17.5271 20.593 17.509L20.503 17.501H18V15.001L17.992 14.911C17.9739 14.8109 17.9258 14.7187 17.8539 14.6467C17.7821 14.5747 17.69 14.5263 17.59 14.508L17.5 14.5ZM13.925 3.00399C14.317 3.00396 14.7023 3.10637 15.0426 3.30106C15.3829 3.49576 15.6664 3.77599 15.865 4.11399L16.679 5.50099H18.75C19.6118 5.50099 20.4383 5.84326 21.0477 6.45254C21.6572 7.06182 21.9997 7.88821 22 8.74999V13.31C20.791 12.1467 19.1778 11.4978 17.5 11.5C17.084 11.5 16.677 11.539 16.282 11.614C16.0393 10.8635 15.6036 10.1899 15.0185 9.6608C14.4335 9.1317 13.7197 8.76564 12.9486 8.59929C12.1775 8.43294 11.3763 8.47215 10.6252 8.71299C9.87402 8.95383 9.19936 9.38784 8.66878 9.97154C8.13821 10.5552 7.77034 11.2681 7.60205 12.0388C7.43375 12.8094 7.47094 13.6107 7.70988 14.3625C7.94882 15.1142 8.38112 15.79 8.96348 16.322C9.54583 16.8541 10.2578 17.2237 11.028 17.394C10.8937 18.8351 11.2434 20.2799 12.022 21.5H5.25C4.38805 21.5 3.5614 21.1576 2.9519 20.5481C2.34241 19.9386 2 19.1119 2 18.25V8.74999C2 7.88804 2.34241 7.06139 2.9519 6.45189C3.5614 5.8424 4.38805 5.49999 5.25 5.49999H7.33L8.205 4.07599C8.40619 3.74821 8.68804 3.47747 9.02364 3.28963C9.35925 3.10178 9.7374 3.00309 10.122 3.00299H13.925V3.00399ZM12 9.99999C12.6318 9.99997 13.2474 10.1994 13.7592 10.5698C14.2709 10.9403 14.6527 11.4628 14.85 12.063C14.0301 12.4301 13.295 12.9626 12.6906 13.6272C12.0863 14.2918 11.6258 15.0741 11.338 15.925C10.6202 15.7603 9.98811 15.3373 9.56204 14.7367C9.13596 14.1361 8.9457 13.3997 9.02749 12.6678C9.10927 11.9359 9.45739 11.2597 10.0055 10.7679C10.5537 10.2762 11.2636 10.0032 12 10.001V9.99999Z" fill="var(--iconPrimary)"/>
</svg>