<svg width="25" height="25" viewBox="0 0 25 25" fill="none" xmlns="http://www.w3.org/2000/svg">
    <path d="M5.34215 3.43185C7.41678 3.1625 9.53204 3.02362 11.6794 3.02362C13.8265 3.02362 15.9415 3.16247 18.016 3.43177C19.9382 3.68131 21.3074 5.29299 21.4214 7.15857C21.0956 7.04976 20.7503 6.97758 20.3891 6.94761C19.0005 6.83236 17.5964 6.77362 16.179 6.77362C14.7617 6.77362 13.3576 6.83236 11.9691 6.9476C9.61078 7.14333 7.92908 9.13829 7.92908 11.3818V15.6673C7.92908 17.358 8.88376 18.9063 10.3619 19.6515L7.70941 22.304C7.49491 22.5184 7.17232 22.5826 6.89206 22.4665C6.61181 22.3504 6.42908 22.077 6.42908 21.7736V17.7441C6.06557 17.7052 5.70325 17.6623 5.34216 17.6154C3.33374 17.3547 1.92908 15.6069 1.92908 13.6363V7.411C1.92908 5.44034 3.33373 3.69261 5.34215 3.43185Z" fill="var(--iconPrimary)"/>
    <path d="M16.179 8.27362C14.8032 8.27362 13.4404 8.33064 12.0931 8.44246C10.5538 8.57022 9.42908 9.87644 9.42908 11.3818V15.6673C9.42908 17.175 10.557 18.4819 12.0983 18.6078C13.3421 18.7093 14.5991 18.7648 15.8675 18.7727L18.6487 21.554C18.8632 21.7684 19.1858 21.8326 19.4661 21.7165C19.7463 21.6004 19.9291 21.327 19.9291 21.0236V18.6337C20.0394 18.6255 20.1497 18.6168 20.2598 18.6078C21.8011 18.4821 22.9291 17.1751 22.9291 15.6674V11.3818C22.9291 9.87645 21.8043 8.57023 20.265 8.44247C18.9177 8.33064 17.5549 8.27362 16.179 8.27362Z" fill="var(--iconPrimary)"/>
</svg>
