<svg width="25" height="25" viewBox="0 0 25 25" fill="none" xmlns="http://www.w3.org/2000/svg">
    <path d="M20.6791 8.59642C21.5631 8.88087 22.1791 9.72459 22.1791 10.6936V14.9792C22.1791 16.1158 21.3317 17.0797 20.1988 17.1721C19.8599 17.1998 19.52 17.2239 19.1791 17.2446V20.3354L16.1791 17.3354C14.8253 17.3354 13.4847 17.2802 12.1593 17.172C11.861 17.1477 11.5825 17.0629 11.334 16.9304M20.6791 8.59642C20.5277 8.54771 20.3684 8.51539 20.203 8.50167C18.8763 8.39155 17.5342 8.33539 16.179 8.33539C14.8239 8.33539 13.4819 8.39155 12.1552 8.50166C11.0241 8.59554 10.1791 9.55862 10.1791 10.6936V14.9791C10.1791 15.8164 10.6389 16.5599 11.334 16.9304M20.6791 8.59642V6.7227C20.6791 5.10128 19.5273 3.69603 17.9194 3.4873C15.8769 3.22215 13.7941 3.08539 11.6794 3.08539C9.56441 3.08539 7.48141 3.22217 5.43871 3.48738C3.83081 3.69613 2.67908 5.10137 2.67908 6.72277V12.948C2.67908 14.5694 3.83081 15.9747 5.43872 16.1834C6.01569 16.2583 6.59587 16.323 7.17908 16.3772V21.0854L11.334 16.9304" stroke="var(--iconPrimary)" strokeWidth="1.5" strokeLinecap="round" strokeLinejoin="round"/>
</svg>