<svg width="25" height="25" viewBox="0 0 25 25" fill="none" xmlns="http://www.w3.org/2000/svg">
<path fill-rule="evenodd" clip-rule="evenodd" d="M12.0082 2.45605C11.0916 2.45605 10.3094 3.1187 10.1587 4.02281L10.0672 4.57207C10.0203 4.853 9.81725 5.08013 9.55052 5.18C9.38828 5.24075 9.22871 5.30696 9.07202 5.3784C8.81276 5.49661 8.50839 5.47968 8.27653 5.31407L7.82317 4.99023C7.07732 4.45749 6.05564 4.54204 5.40752 5.19016L5.1643 5.43338C4.51619 6.08149 4.43163 7.10318 4.96438 7.84902L5.2882 8.30238C5.45382 8.53424 5.47075 8.83861 5.35253 9.09787C5.28109 9.25456 5.21488 9.41414 5.15413 9.57639C5.05425 9.84311 4.82713 10.0462 4.5462 10.093L3.99693 10.1846C3.09283 10.3353 2.43018 11.1175 2.43018 12.0341V12.378C2.43018 13.2946 3.09282 14.0768 3.99693 14.2275L4.54619 14.3191C4.82712 14.3659 5.05425 14.569 5.15412 14.8357C5.21487 14.9979 5.28108 15.1575 5.35252 15.3142C5.47073 15.5735 5.4538 15.8778 5.28818 16.1097L4.96433 16.5631C4.43158 17.3089 4.51614 18.3306 5.16426 18.9787L5.40748 19.222C6.05559 19.8701 7.07728 19.9546 7.82312 19.4219L8.27651 19.098C8.50837 18.9324 8.81274 18.9155 9.072 19.0337C9.22869 19.1051 9.38827 19.1714 9.55051 19.2321C9.81723 19.332 10.0203 19.5591 10.0672 19.84L10.1587 20.3893C10.3094 21.2934 11.0916 21.9561 12.0082 21.9561H12.3522C13.2687 21.9561 14.051 21.2934 14.2016 20.3893L14.2932 19.84C14.34 19.5591 14.5431 19.332 14.8098 19.2321C14.9721 19.1714 15.1316 19.1052 15.2883 19.0337C15.5476 18.9155 15.852 18.9324 16.0838 19.098L16.5372 19.4219C17.283 19.9546 18.3047 19.8701 18.9528 19.222L19.1961 18.9787C19.8442 18.3306 19.9287 17.3089 19.396 16.5631L19.0721 16.1097C18.9065 15.8779 18.8896 15.5735 19.0078 15.3142C19.0793 15.1575 19.1455 14.998 19.2062 14.8357C19.3061 14.569 19.5332 14.3659 19.8142 14.3191L20.3634 14.2275C21.2675 14.0768 21.9302 13.2946 21.9302 12.378V12.0341C21.9302 11.1175 21.2675 10.3353 20.3634 10.1846L19.8142 10.093C19.5332 10.0462 19.3061 9.84313 19.2062 9.5764C19.1455 9.41416 19.0793 9.25459 19.0078 9.09791C18.8896 8.83865 18.9066 8.53428 19.0722 8.30242L19.396 7.84902C19.9288 7.10318 19.8442 6.08149 19.1961 5.43338L18.9529 5.19016C18.3048 4.54204 17.2831 4.45748 16.5372 4.99023L16.0838 5.31408C15.852 5.47969 15.5476 5.49662 15.2884 5.37841C15.1317 5.30697 14.9721 5.24076 14.8098 5.18001C14.5431 5.08013 14.34 4.85301 14.2932 4.57208L14.2017 4.02281C14.051 3.1187 13.2687 2.45605 12.3522 2.45605H12.0082ZM12.1802 15.9561C14.2512 15.9561 15.9302 14.2771 15.9302 12.2061C15.9302 10.135 14.2512 8.45605 12.1802 8.45605C10.1091 8.45605 8.43018 10.135 8.43018 12.2061C8.43018 14.2771 10.1091 15.9561 12.1802 15.9561Z" fill="var(--iconPrimary)"/>
</svg>
