<svg width="35" height="36" viewBox="0 0 35 36" fill="none" xmlns="http://www.w3.org/2000/svg">
<path d="M17.5 7.51797C23.024 7.51797 27.502 11.996 27.502 17.52C27.502 23.043 23.024 27.52 17.5 27.52C11.976 27.521 7.49799 23.043 7.49799 17.52C7.49799 11.996 11.976 7.51797 17.5 7.51797ZM17.5 9.01797C16.3758 9.00578 15.2603 9.21667 14.2182 9.63845C13.1761 10.0602 12.2279 10.6845 11.4286 11.4751C10.6294 12.2658 9.99486 13.2071 9.56181 14.2446C9.12876 15.2821 8.90578 16.3952 8.90578 17.5195C8.90578 18.6437 9.12876 19.7568 9.56181 20.7943C9.99486 21.8318 10.6294 22.7732 11.4286 23.5638C12.2279 24.3545 13.1761 24.9787 14.2182 25.4005C15.2603 25.8223 16.3758 26.0332 17.5 26.021C19.7388 25.9967 21.8776 25.0903 23.4521 23.4986C25.0266 21.9069 25.9098 19.7584 25.9098 17.5195C25.9098 15.2806 25.0266 13.132 23.4521 11.5403C21.8776 9.94864 19.7388 9.04226 17.5 9.01797ZM13.962 20.303C14.3829 20.8387 14.9201 21.2718 15.5331 21.5692C16.1461 21.8667 16.8187 22.0208 17.5 22.02C18.1806 22.0208 18.8524 21.8669 19.4648 21.57C20.0772 21.2731 20.6141 20.8409 21.035 20.306C21.0961 20.2287 21.1717 20.1642 21.2577 20.1162C21.3437 20.0681 21.4383 20.0375 21.5362 20.026C21.634 20.0146 21.7331 20.0225 21.8279 20.0493C21.9226 20.0762 22.0112 20.1214 22.0885 20.1825C22.1658 20.2435 22.2303 20.3192 22.2783 20.4052C22.3263 20.4912 22.357 20.5858 22.3684 20.6836C22.3799 20.7815 22.372 20.8806 22.3451 20.9754C22.3183 21.0701 22.2731 21.1587 22.212 21.236C21.6507 21.9486 20.935 22.5244 20.1187 22.92C19.3025 23.3157 18.4071 23.5208 17.5 23.52C16.5917 23.5207 15.6952 23.3149 14.8782 22.9182C14.0612 22.5215 13.3451 21.9442 12.784 21.23C12.7204 21.1529 12.6729 21.0639 12.6442 20.9682C12.6155 20.8725 12.6062 20.772 12.6169 20.6727C12.6275 20.5734 12.6579 20.4772 12.7063 20.3897C12.7546 20.3023 12.82 20.2254 12.8985 20.1636C12.9769 20.1018 13.067 20.0563 13.1633 20.0297C13.2596 20.0032 13.3603 19.9961 13.4593 20.009C13.5584 20.0219 13.6539 20.0545 13.7402 20.1048C13.8265 20.1551 13.9019 20.2221 13.962 20.302V20.303ZM14.5 14.27C14.667 14.2652 14.8334 14.2941 14.9891 14.3547C15.1448 14.4154 15.2868 14.5067 15.4066 14.6232C15.5265 14.7397 15.6217 14.879 15.6868 15.033C15.7518 15.1869 15.7853 15.3523 15.7853 15.5195C15.7853 15.6866 15.7518 15.852 15.6868 16.006C15.6217 16.1599 15.5265 16.2993 15.4066 16.4158C15.2868 16.5323 15.1448 16.6235 14.9891 16.6842C14.8334 16.7449 14.667 16.7737 14.5 16.769C14.1747 16.7598 13.8659 16.6241 13.639 16.3908C13.4122 16.1574 13.2853 15.8449 13.2853 15.5195C13.2853 15.1941 13.4122 14.8815 13.639 14.6482C13.8659 14.4149 14.1747 14.2792 14.5 14.27ZM20.5 14.27C20.667 14.2652 20.8334 14.2941 20.9891 14.3547C21.1448 14.4154 21.2868 14.5067 21.4066 14.6232C21.5265 14.7397 21.6217 14.879 21.6868 15.033C21.7518 15.1869 21.7853 15.3523 21.7853 15.5195C21.7853 15.6866 21.7518 15.852 21.6868 16.006C21.6217 16.1599 21.5265 16.2993 21.4066 16.4158C21.2868 16.5323 21.1448 16.6235 20.9891 16.6842C20.8334 16.7449 20.667 16.7737 20.5 16.769C20.1747 16.7598 19.8659 16.6241 19.639 16.3908C19.4122 16.1574 19.2853 15.8449 19.2853 15.5195C19.2853 15.1941 19.4122 14.8815 19.639 14.6482C19.8659 14.4149 20.1747 14.2792 20.5 14.27Z" fill="var(--iconPrimary)"/>
</svg>
