<svg width="24" height="25" viewBox="0 0 24 25" fill="none" xmlns="http://www.w3.org/2000/svg">
  <path d="M2.03575 13.2565C1.96666 13.0492 1.9666 12.8248 2.03556 12.6175C3.42392 8.44381 7.36098 5.43408 12.001 5.43408C16.6389 5.43408 20.5744 8.44101 21.9645 12.6117C22.0336 12.819 22.0337 13.0434 21.9647 13.2507C20.5763 17.4244 16.6393 20.4341 11.9993 20.4341C7.36139 20.4341 3.42583 17.4272 2.03575 13.2565Z" stroke="var(--iconPrimary)" stroke-width="1.5" stroke-linecap="round" stroke-linejoin="round"/>
  <path d="M15.0002 12.9341C15.0002 14.5909 13.6571 15.9341 12.0002 15.9341C10.3433 15.9341 9.0002 14.5909 9.0002 12.9341C9.0002 11.2772 10.3433 9.93408 12.0002 9.93408C13.6571 9.93408 15.0002 11.2772 15.0002 12.9341Z" stroke="var(--iconPrimary)" stroke-width="1.5" stroke-linecap="round" stroke-linejoin="round"/>
</svg>