<svg width="25" height="24" viewBox="0 0 25 24" fill="none" xmlns="http://www.w3.org/2000/svg">
<path opacity="0.4" fillRule="evenodd" clipRule="evenodd" d="M12.7512 4.75C11.7163 4.75 10.7817 4.87735 9.94154 5.09792C9.78353 5.1394 9.62879 5.1842 9.47727 5.23211C9.08232 5.35697 8.66093 5.13803 8.53607 4.74309C8.4112 4.34814 8.63014 3.92675 9.02509 3.80189C9.20021 3.74652 9.37872 3.69485 9.56064 3.64709C10.5292 3.3928 11.5921 3.25 12.7512 3.25C16.4667 3.25 19.1584 4.71662 20.9164 6.54227C22.6446 8.33695 23.5012 10.515 23.5012 12C23.5012 13.0899 23.0407 14.5321 22.1478 15.9082C22.0307 16.0887 21.9057 16.2688 21.7727 16.4476C21.5255 16.78 21.0556 16.849 20.7233 16.6018C20.3909 16.3546 20.3219 15.8847 20.5691 15.5524C20.6829 15.3994 20.7896 15.2456 20.8895 15.0918C21.6718 13.886 22.0012 12.7242 22.0012 12C22.0012 10.985 21.3577 9.16305 19.8359 7.58273C18.344 6.03338 16.0356 4.75 12.7512 4.75Z" fill="var(--iconPrimary)"/>
<path fillRule="evenodd" clipRule="evenodd" d="M3.22065 2.46967C3.51354 2.17678 3.98841 2.17678 4.28131 2.46967L7.10708 5.29545L11.1599 9.3483L15.4026 13.5909L19.4555 17.6439L22.2813 20.4697C22.5742 20.7626 22.5742 21.2374 22.2813 21.5303C21.9884 21.8232 21.5135 21.8232 21.2206 21.5303L18.8247 19.1343C17.2292 20.1062 15.2121 20.75 12.751 20.75C9.03544 20.75 6.34377 19.2834 4.58574 17.4577C2.85752 15.663 2.00098 13.485 2.00098 12C2.00098 10.3097 3.11517 7.67946 5.43959 5.74927L3.22065 3.53033C2.92775 3.23744 2.92775 2.76256 3.22065 2.46967ZM6.50545 6.81513C4.40233 8.50541 3.50098 10.7939 3.50098 12C3.50098 13.015 4.14443 14.837 5.66622 16.4173C7.15818 17.9666 9.46652 19.25 12.751 19.25C14.7696 19.25 16.4152 18.7655 17.7277 18.0374L14.8189 15.1286C14.2262 15.521 13.5149 15.75 12.7509 15.75C10.6798 15.75 9.00089 14.0711 9.00089 12C9.00089 11.236 9.2299 10.5247 9.6223 9.93199L6.50545 6.81513ZM10.7201 11.0297C10.5794 11.3235 10.5009 11.6523 10.5009 12C10.5009 13.2426 11.5082 14.25 12.7509 14.25C13.0985 14.25 13.4274 14.1715 13.7212 14.0308L10.7201 11.0297Z" fill="var(--iconPrimary)"/>
</svg>
