<svg width="150" height="150" viewBox="0 0 72 72" fill="none" xmlns="http://www.w3.org/2000/svg">
<g id="LNLOMS996EESD 1" clip-path="url(#clip0_25784_7730)">
<path id="Vector" d="M66.3472 7.7439H5.23096V67.1858H66.3472V7.7439Z" fill="black" style="fill:black;fill:black;fill-opacity:1;"/>
<path id="Vector_2" d="M4.78766 0C2.13867 0 0 2.13865 0 4.78766V72H59.5729C61.5864 72 63.5226 71.2003 64.9482 69.7747L69.7747 64.9482C71.2003 63.5226 72 61.5864 72 59.5729V0H4.78766ZM47.011 9.25765L23.5921 32.6765C23.014 33.2544 22.2241 33.5819 21.4053 33.5819C20.2109 33.5819 19.1126 32.8885 18.602 31.8093L9.52732 12.6293C8.78559 11.0592 9.93192 9.25765 11.666 9.25765H47.011ZM9.25765 62.7424V39.9592C9.25765 38.7454 10.2403 37.7627 11.454 37.7627H34.237L9.25765 62.7424ZM36.1252 33.5819H28.5821L51.2787 10.8858C52.3189 9.8452 53.735 9.25765 55.2089 9.25765H62.7518L40.0556 31.9538C39.0154 32.9944 37.5991 33.5819 36.1252 33.5819Z" fill="#00F58C" style="fill:#00F58C;fill:color(display-p3 0.0000 0.9608 0.5490);fill-opacity:1;"/>
</g>
<defs>
<clipPath id="clip0_25784_7730">
<rect width="72" height="72" fill="white" style="fill:white;fill:white;fill-opacity:1;"/>
</clipPath>
</defs>
</svg>
