<svg width="24" height="24" viewBox="0 0 24 24" fill="none" xmlns="http://www.w3.org/2000/svg">
<g id="Fuelet 1" clip-path="url(#clip0_24270_105502)">
<path id="Vector" d="M12 24C8.9613 24 6.1887 22.8684 4.0743 21.0063L10.8876 16.1442C11.307 15.8451 11.8839 16.1787 11.8332 16.6917L11.5647 19.4163C11.5092 19.977 12.1875 20.2977 12.5859 19.8993L16.2426 16.2426C18.6372 13.848 18.5847 9.9333 16.0851 7.6053C13.7043 5.388 9.9561 5.5584 7.6557 7.8591L4.1118 11.4027C3.7122 11.8026 4.0365 12.4827 4.5987 12.4239L7.3254 12.1386C7.8393 12.0849 8.1765 12.663 7.8762 13.0839L2.9937 19.9257C1.1316 17.8113 0 15.0387 0 12C0 5.3727 5.3727 0 12 0C18.6273 0 24 5.3727 24 12C24 18.6273 18.6273 24 12 24Z" fill="currentColor" />
</g>
<defs>
<clipPath id="clip0_24270_105502">
<rect width="24" height="24" fill="currentColor" />
</clipPath>
</defs>
</svg>
