<svg width="25" height="25" viewBox="0 0 25 25" fill="none" xmlns="http://www.w3.org/2000/svg">
  <path opacity="0.4" fillRule="evenodd" clipRule="evenodd" d="M11.6514 4.01563C11.6514 3.32527 12.211 2.76563 12.9014 2.76563C13.5917 2.76563 14.1514 3.32527 14.1514 4.01563C14.1514 4.70598 13.5917 5.26563 12.9014 5.26563C12.211 5.26563 11.6514 4.70598 11.6514 4.01563ZM12.9014 1.26563C11.3826 1.26563 10.1514 2.49684 10.1514 4.01563C10.1514 5.53441 11.3826 6.76563 12.9014 6.76563C14.4201 6.76563 15.6514 5.53441 15.6514 4.01563C15.6514 2.49684 14.4202 1.26563 12.9014 1.26563ZM3.65137 12.0156C3.65137 11.3253 4.21101 10.7656 4.90137 10.7656C5.59172 10.7656 6.15137 11.3253 6.15137 12.0156C6.15137 12.706 5.59172 13.2656 4.90137 13.2656C4.21101 13.2656 3.65137 12.706 3.65137 12.0156ZM4.90137 9.26563C3.38258 9.26563 2.15137 10.4968 2.15137 12.0156C2.15137 13.5344 3.38258 14.7656 4.90136 14.7656C6.42015 14.7656 7.65137 13.5344 7.65137 12.0156C7.65137 10.4968 6.42015 9.26563 4.90137 9.26563ZM12.9014 18.7656C12.211 18.7656 11.6514 19.3253 11.6514 20.0156C11.6514 20.706 12.211 21.2656 12.9014 21.2656C13.5917 21.2656 14.1514 20.706 14.1514 20.0156C14.1514 19.3253 13.5917 18.7656 12.9014 18.7656ZM10.1514 20.0156C10.1514 18.4968 11.3826 17.2656 12.9014 17.2656C14.4201 17.2656 15.6514 18.4968 15.6514 20.0156C15.6514 21.5344 14.4201 22.7656 12.9014 22.7656C11.3826 22.7656 10.1514 21.5344 10.1514 20.0156ZM19.6514 12.0156C19.6514 11.3253 20.211 10.7656 20.9014 10.7656C21.5917 10.7656 22.1514 11.3253 22.1514 12.0156C22.1514 12.706 21.5917 13.2656 20.9014 13.2656C20.211 13.2656 19.6514 12.706 19.6514 12.0156ZM20.9014 9.26563C19.3826 9.26563 18.1514 10.4968 18.1514 12.0156C18.1514 13.5344 19.3826 14.7656 20.9014 14.7656C22.4201 14.7656 23.6514 13.5344 23.6514 12.0156C23.6514 10.4968 22.4201 9.26563 20.9014 9.26563Z" fill="var(--iconPrimary)"/>
  <path fillRule="evenodd" clipRule="evenodd" d="M4.90137 2.76563C4.21101 2.76563 3.65137 3.32527 3.65137 4.01563C3.65137 4.70598 4.21101 5.26563 4.90137 5.26563C5.59172 5.26563 6.15137 4.70598 6.15137 4.01563C6.15137 3.32527 5.59172 2.76563 4.90137 2.76563ZM2.15137 4.01562C2.15137 2.49684 3.38258 1.26563 4.90137 1.26563C6.42015 1.26563 7.65137 2.49684 7.65137 4.01563C7.65137 5.53441 6.42015 6.76563 4.90137 6.76563C3.38258 6.76563 2.15137 5.53441 2.15137 4.01562ZM4.90136 18.7656C4.21101 18.7656 3.65136 19.3253 3.65136 20.0156C3.65136 20.706 4.21101 21.2656 4.90136 21.2656C5.59172 21.2656 6.15136 20.706 6.15136 20.0156C6.15136 19.3253 5.59172 18.7656 4.90136 18.7656ZM2.15136 20.0156C2.15136 18.4968 3.38258 17.2656 4.90136 17.2656C6.42015 17.2656 7.65136 18.4968 7.65136 20.0156C7.65136 21.5344 6.42015 22.7656 4.90136 22.7656C3.38258 22.7656 2.15136 21.5344 2.15136 20.0156ZM11.6514 12.0156C11.6514 11.3253 12.211 10.7656 12.9014 10.7656C13.5917 10.7656 14.1514 11.3253 14.1514 12.0156C14.1514 12.706 13.5917 13.2656 12.9014 13.2656C12.211 13.2656 11.6514 12.706 11.6514 12.0156ZM12.9014 9.26563C11.3826 9.26563 10.1514 10.4968 10.1514 12.0156C10.1514 13.5344 11.3826 14.7656 12.9014 14.7656C14.4201 14.7656 15.6514 13.5344 15.6514 12.0156C15.6514 10.4968 14.4201 9.26563 12.9014 9.26563ZM20.9014 2.76563C20.211 2.76563 19.6514 3.32527 19.6514 4.01563C19.6514 4.70598 20.211 5.26563 20.9014 5.26563C21.5917 5.26563 22.1514 4.70598 22.1514 4.01563C22.1514 3.32527 21.5917 2.76563 20.9014 2.76563ZM18.1514 4.01563C18.1514 2.49684 19.3826 1.26563 20.9014 1.26563C22.4202 1.26563 23.6514 2.49685 23.6514 4.01563C23.6514 5.53441 22.4201 6.76563 20.9014 6.76563C19.3826 6.76563 18.1514 5.53441 18.1514 4.01563ZM19.6514 20.0156C19.6514 19.3253 20.211 18.7656 20.9014 18.7656C21.5917 18.7656 22.1514 19.3253 22.1514 20.0156C22.1514 20.706 21.5917 21.2656 20.9014 21.2656C20.211 21.2656 19.6514 20.706 19.6514 20.0156ZM20.9014 17.2656C19.3826 17.2656 18.1514 18.4968 18.1514 20.0156C18.1514 21.5344 19.3826 22.7656 20.9014 22.7656C22.4201 22.7656 23.6514 21.5344 23.6514 20.0156C23.6514 18.4968 22.4201 17.2656 20.9014 17.2656Z" fill="var(--iconPrimary)"/>
</svg>