<svg width="25" height="25" viewBox="0 0 25 25" fill="none" xmlns="http://www.w3.org/2000/svg" xmlnsXlink="http://www.w3.org/1999/xlink">
    <g opacity="0.4">
        <path fillRule="evenodd" clipRule="evenodd" d="M12.6879 1.97462C13.4342 1.85725 14.1896 2.12222 14.699 2.68006C15.0821 3.09963 15.1868 3.70752 15.2358 4.28526C15.2875 4.89536 15.2875 5.70799 15.2875 6.72489L15.2875 6.763L15.2875 8.52113C15.2875 8.95354 15.2881 9.23275 15.3055 9.44525C15.3221 9.649 15.3504 9.72454 15.3693 9.76162C15.4412 9.90274 15.5559 10.0175 15.697 10.0894C15.7341 10.1083 15.8097 10.1365 16.0134 10.1532C16.2259 10.1705 16.5051 10.1711 16.9375 10.1711L17.544 10.1711L17.5819 10.1711C18.349 10.1711 18.9765 10.1711 19.4616 10.2152C19.9407 10.2587 20.4336 10.354 20.8203 10.6627C21.3558 11.0901 21.6673 11.7383 21.6666 12.4236C21.6661 12.9183 21.4326 13.3627 21.1672 13.7641C20.8986 14.1704 20.5066 14.6604 20.0274 15.2593L20.0038 15.2889L19.1232 16.3897C18.8644 16.7131 18.3925 16.7655 18.069 16.5068C17.7456 16.248 17.6931 15.7761 17.9519 15.4526L18.8325 14.3519C19.3411 13.7161 19.6895 13.2793 19.916 12.9368C20.1501 12.5827 20.1666 12.4525 20.1666 12.4219C20.1668 12.1935 20.063 11.9775 19.8845 11.835C19.8606 11.8159 19.7486 11.7474 19.3259 11.709C18.917 11.6719 18.3583 11.6711 17.544 11.6711L16.9375 11.6711L16.9086 11.6711C16.5132 11.6711 16.1722 11.6712 15.8913 11.6482C15.5947 11.624 15.2998 11.5705 15.016 11.4259C14.5927 11.2102 14.2485 10.866 14.0328 10.4426C13.8882 10.1588 13.8347 9.86391 13.8105 9.5674C13.7875 9.28647 13.7875 8.94539 13.7875 8.55003L13.7875 8.52113L13.7875 6.763C13.7875 5.69936 13.7869 4.9509 13.7412 4.41202C13.7186 4.14554 13.6872 3.96312 13.6513 3.83849C13.6196 3.72857 13.5928 3.69351 13.5909 3.69103C13.4211 3.50544 13.1695 3.41732 12.921 3.45641C12.9216 3.45632 12.9219 3.45626 12.9219 3.45626C12.9219 3.45627 12.8794 3.46507 12.7824 3.5337C12.6765 3.60859 12.5381 3.73144 12.3539 3.92541C11.9816 4.31766 11.5135 4.90169 10.8491 5.73226L9.52318 7.38965C9.26442 7.7131 8.79245 7.76554 8.46901 7.50678C8.14556 7.24802 8.09312 6.77605 8.35188 6.45261L9.67779 4.79521L9.70159 4.76546C10.3368 3.97139 10.8445 3.33682 11.266 2.89273C11.6652 2.4722 12.1267 2.0629 12.6879 1.97462Z" fill="var(--iconPrimary)"/>
        <path fillRule="evenodd" clipRule="evenodd" d="M12.6879 1.97462C13.4342 1.85725 14.1896 2.12222 14.699 2.68006C15.0821 3.09963 15.1868 3.70752 15.2358 4.28526C15.2875 4.89536 15.2875 5.70799 15.2875 6.72489L15.2875 6.763L15.2875 8.52113C15.2875 8.95354 15.2881 9.23275 15.3055 9.44525C15.3221 9.649 15.3504 9.72454 15.3693 9.76162C15.4412 9.90274 15.5559 10.0175 15.697 10.0894C15.7341 10.1083 15.8097 10.1365 16.0134 10.1532C16.2259 10.1705 16.5051 10.1711 16.9375 10.1711L17.544 10.1711L17.5819 10.1711C18.349 10.1711 18.9765 10.1711 19.4616 10.2152C19.9407 10.2587 20.4336 10.354 20.8203 10.6627C21.3558 11.0901 21.6673 11.7383 21.6666 12.4236C21.6661 12.9183 21.4326 13.3627 21.1672 13.7641C20.8986 14.1704 20.5066 14.6604 20.0274 15.2593L20.0038 15.2889L19.1232 16.3897C18.8644 16.7131 18.3925 16.7655 18.069 16.5068C17.7456 16.248 17.6931 15.7761 17.9519 15.4526L18.8325 14.3519C19.3411 13.7161 19.6895 13.2793 19.916 12.9368C20.1501 12.5827 20.1666 12.4525 20.1666 12.4219C20.1668 12.1935 20.063 11.9775 19.8845 11.835C19.8606 11.8159 19.7486 11.7474 19.3259 11.709C18.917 11.6719 18.3583 11.6711 17.544 11.6711L16.9375 11.6711L16.9086 11.6711C16.5132 11.6711 16.1722 11.6712 15.8913 11.6482C15.5947 11.624 15.2998 11.5705 15.016 11.4259C14.5927 11.2102 14.2485 10.866 14.0328 10.4426C13.8882 10.1588 13.8347 9.86391 13.8105 9.5674C13.7875 9.28647 13.7875 8.94539 13.7875 8.55003L13.7875 8.52113L13.7875 6.763C13.7875 5.69936 13.7869 4.9509 13.7412 4.41202C13.7186 4.14554 13.6872 3.96312 13.6513 3.83849C13.6196 3.72857 13.5928 3.69351 13.5909 3.69103C13.4211 3.50544 13.1695 3.41732 12.921 3.45641C12.9216 3.45632 12.9219 3.45626 12.9219 3.45626C12.9219 3.45627 12.8794 3.46507 12.7824 3.5337C12.6765 3.60859 12.5381 3.73144 12.3539 3.92541C11.9816 4.31766 11.5135 4.90169 10.8491 5.73226L9.52318 7.38965C9.26442 7.7131 8.79245 7.76554 8.46901 7.50678C8.14556 7.24802 8.09312 6.77605 8.35188 6.45261L9.67779 4.79521L9.70159 4.76546C10.3368 3.97139 10.8445 3.33682 11.266 2.89273C11.6652 2.4722 12.1267 2.0629 12.6879 1.97462Z" fill="var(--iconPrimary)" fillOpacity="0.03"/>
    </g>
    <path fillRule="evenodd" clipRule="evenodd" d="M9.40579 6.33625C9.72923 6.59501 9.78167 7.06698 9.52292 7.39042L6.24233 11.4912C5.73369 12.127 5.38524 12.5637 5.15881 12.9062C4.92472 13.2603 4.90824 13.3905 4.9082 13.4211C4.90796 13.6495 5.0118 13.8656 5.19031 14.0081C5.21419 14.0271 5.3262 14.0956 5.74893 14.134C6.15782 14.1712 6.71653 14.1719 7.53076 14.1719L8.13726 14.1719L8.16617 14.1719C8.56153 14.1719 8.90261 14.1719 9.18354 14.1948C9.48004 14.2191 9.77496 14.2725 10.0587 14.4171C10.4821 14.6329 10.8263 14.9771 11.042 15.4004C11.1866 15.6842 11.2401 15.9791 11.2643 16.2756C11.2873 16.5566 11.2873 16.8976 11.2873 17.293L11.2873 17.3219L11.2873 19.08C11.2873 20.1437 11.2879 20.8921 11.3336 21.431C11.3562 21.6975 11.3876 21.8799 11.4235 22.0045C11.4552 22.1145 11.482 22.1496 11.4839 22.152C11.6536 22.3374 11.9048 22.4255 12.1531 22.3867C12.1562 22.386 12.199 22.3754 12.2924 22.3093C12.3983 22.2344 12.5367 22.1116 12.7208 21.9176C13.0932 21.5254 13.5612 20.9413 14.2257 20.1108L17.9516 15.4534C18.2104 15.1299 18.6823 15.0775 19.0058 15.3363C19.3292 15.595 19.3817 16.067 19.1229 16.3904L15.397 21.0478L15.3732 21.0776C14.7379 21.8716 14.2303 22.5062 13.8088 22.9503C13.4096 23.3708 12.9481 23.7801 12.3868 23.8684C11.6406 23.9858 10.8852 23.7208 10.3758 23.163C9.99264 22.7434 9.88799 22.1355 9.83899 21.5578C9.78725 20.9477 9.78726 20.135 9.78726 19.1181L9.78726 19.08L9.78726 17.3219C9.78726 16.8895 9.78668 16.6103 9.76932 16.3978C9.75267 16.194 9.72441 16.1185 9.70552 16.0814C9.63361 15.9403 9.51888 15.8256 9.37776 15.7536C9.34067 15.7348 9.26513 15.7065 9.06139 15.6898C8.84888 15.6725 8.56968 15.6719 8.13726 15.6719L7.53076 15.6719L7.49284 15.6719C6.72579 15.6719 6.09828 15.6719 5.61324 15.6279C5.13406 15.5843 4.64117 15.489 4.25454 15.1804C3.71901 14.7529 3.40746 14.1047 3.4082 13.4195C3.40874 12.9248 3.64219 12.4803 3.90754 12.079C4.17615 11.6727 4.56816 11.1827 5.04736 10.5837L5.07103 10.5541L8.35161 6.45338C8.61037 6.12994 9.08234 6.07749 9.40579 6.33625Z" fill="var(--iconPrimary)"/>
    <path fillRule="evenodd" clipRule="evenodd" d="M9.40579 6.33625C9.72923 6.59501 9.78167 7.06698 9.52292 7.39042L6.24233 11.4912C5.73369 12.127 5.38524 12.5637 5.15881 12.9062C4.92472 13.2603 4.90824 13.3905 4.9082 13.4211C4.90796 13.6495 5.0118 13.8656 5.19031 14.0081C5.21419 14.0271 5.3262 14.0956 5.74893 14.134C6.15782 14.1712 6.71653 14.1719 7.53076 14.1719L8.13726 14.1719L8.16617 14.1719C8.56153 14.1719 8.90261 14.1719 9.18354 14.1948C9.48004 14.2191 9.77496 14.2725 10.0587 14.4171C10.4821 14.6329 10.8263 14.9771 11.042 15.4004C11.1866 15.6842 11.2401 15.9791 11.2643 16.2756C11.2873 16.5566 11.2873 16.8976 11.2873 17.293L11.2873 17.3219L11.2873 19.08C11.2873 20.1437 11.2879 20.8921 11.3336 21.431C11.3562 21.6975 11.3876 21.8799 11.4235 22.0045C11.4552 22.1145 11.482 22.1496 11.4839 22.152C11.6536 22.3374 11.9048 22.4255 12.1531 22.3867C12.1562 22.386 12.199 22.3754 12.2924 22.3093C12.3983 22.2344 12.5367 22.1116 12.7208 21.9176C13.0932 21.5254 13.5612 20.9413 14.2257 20.1108L17.9516 15.4534C18.2104 15.1299 18.6823 15.0775 19.0058 15.3363C19.3292 15.595 19.3817 16.067 19.1229 16.3904L15.397 21.0478L15.3732 21.0776C14.7379 21.8716 14.2303 22.5062 13.8088 22.9503C13.4096 23.3708 12.9481 23.7801 12.3868 23.8684C11.6406 23.9858 10.8852 23.7208 10.3758 23.163C9.99264 22.7434 9.88799 22.1355 9.83899 21.5578C9.78725 20.9477 9.78726 20.135 9.78726 19.1181L9.78726 19.08L9.78726 17.3219C9.78726 16.8895 9.78668 16.6103 9.76932 16.3978C9.75267 16.194 9.72441 16.1185 9.70552 16.0814C9.63361 15.9403 9.51888 15.8256 9.37776 15.7536C9.34067 15.7348 9.26513 15.7065 9.06139 15.6898C8.84888 15.6725 8.56968 15.6719 8.13726 15.6719L7.53076 15.6719L7.49284 15.6719C6.72579 15.6719 6.09828 15.6719 5.61324 15.6279C5.13406 15.5843 4.64117 15.489 4.25454 15.1804C3.71901 14.7529 3.40746 14.1047 3.4082 13.4195C3.40874 12.9248 3.64219 12.4803 3.90754 12.079C4.17615 11.6727 4.56816 11.1827 5.04736 10.5837L5.07103 10.5541L8.35161 6.45338C8.61037 6.12994 9.08234 6.07749 9.40579 6.33625Z" fill="var(--iconPrimary)" fillOpacity="0.03"/>
</svg>