<svg width="25" height="24" viewBox="0 0 25 24" fill="none" xmlns="http://www.w3.org/2000/svg">
    <path opacity="0.4" fill-rule="evenodd" clip-rule="evenodd" d="M12.3828 3.99642C14.64 1.66786 18.3095 1.66786 20.5667 3.99642C22.8111 6.31189 22.8111 10.0566 20.5667 12.3721L18.872 14.1204C16.7658 16.2932 13.341 16.2932 11.2348 14.1204L10.9615 13.8384C10.6732 13.541 10.6806 13.0662 10.978 12.7779C11.2754 12.4896 11.7502 12.497 12.0385 12.7944L12.3119 13.0764C13.8287 14.6412 16.2781 14.6412 17.7949 13.0764L19.4896 11.3281C21.1701 9.59437 21.1701 6.77412 19.4896 5.04044C17.8218 3.31986 15.1277 3.31985 13.4599 5.04044L12.7492 5.7736C12.4609 6.07102 11.9861 6.07841 11.6887 5.79012C11.3913 5.50182 11.3839 5.027 11.6722 4.72959L12.3828 3.99642Z" fill="var(--iconPrimary)"/>
    <path fill-rule="evenodd" clip-rule="evenodd" d="M12.6881 10.9236C11.1713 9.35879 8.72194 9.35879 7.20508 10.9236L5.51039 12.6719C3.82987 14.4056 3.82987 17.2259 5.51038 18.9596C7.1782 20.6801 9.8723 20.6801 11.5401 18.9596L12.2508 18.2264C12.5391 17.929 13.0139 17.9216 13.3113 18.2099C13.6087 18.4982 13.6161 18.973 13.3278 19.2704L12.6172 20.0036C10.36 22.3321 6.69049 22.3321 4.43334 20.0036C2.18889 17.6881 2.18889 13.9434 4.43334 11.6279L6.12803 9.87962C8.23422 7.70679 11.659 7.7068 13.7652 9.87962L13.2267 10.4016L13.7652 9.87962L14.0385 10.1616C14.3268 10.459 14.3194 10.9338 14.022 11.2221C13.7246 11.5104 13.2498 11.503 12.9615 11.2056L12.6881 10.9236Z" fill="var(--iconPrimary)"/>
</svg>