<?xml version="1.0" encoding="UTF-8"?>
<svg version="1.1" viewBox="0 0 24 24" xml:space="preserve" xmlns="http://www.w3.org/2000/svg">
<style type="text/css">
	.st0{fill:#FE005B;}
	.st1{fill:#FFF1F8;}
</style>
<path class="st0" d="m20.934 4.5419-6.9447-4.0076c-1.2297-0.71238-2.75-0.71238-3.9798 0l-6.9447 4.0076c-1.2297 0.71238-1.9899 2.0257-1.9899 3.4465v8.0192c0 1.4208 0.76014 2.7341 1.9899 3.4465l6.9447 4.0116c1.2297 0.71238 2.75 0.71238 3.9798 0l6.9447-4.0116c1.2297-0.71238 1.9899-2.0257 1.9899-3.4465v-8.0192c0-1.4208-0.75616-2.7341-1.9899-3.4465zm-3.4226 8.254-2.0655 3.5778c-0.28256 0.49349-0.80789 0.79595-1.377 0.79595h-4.135c-0.56911 0-1.0944-0.30246-1.377-0.79595l-2.0695-3.5778c-0.28256-0.49349-0.28256-1.0984 0-1.5919l2.0655-3.5778c0.28256-0.49349 0.80789-0.79595 1.377-0.79595h4.131c0.56911 0 1.0944 0.30246 1.377 0.79595l2.0655 3.5778c0.29052 0.49349 0.29052 1.0984 8e-3 1.5919z" stroke-width=".039798"/>
<path class="st1" d="m17.523 12.81-2.0655 3.5778c-0.28256 0.49349-0.80789 0.79595-1.377 0.79595h-4.135c-0.56911 0-1.0944-0.30246-1.377-0.79595l-2.0695-3.5778c-0.28256-0.49349-0.28256-1.0984 0-1.5919l2.0655-3.5778c0.28256-0.49349 0.80789-0.79595 1.377-0.79595h4.131c0.56911 0 1.0944 0.30246 1.377 0.79595l2.0655 3.5778c0.29052 0.49349 0.29052 1.0984 8e-3 1.5919z" stroke-width=".039798"/>
</svg>
