<svg width="27" height="24" viewBox="0 0 27 24" fill="none" xmlns="http://www.w3.org/2000/svg">
<g clip-path="url(#clip0_2263_21430)">
<path d="M25.7576 0L14.7729 8.128L16.8156 3.3379L25.7576 0Z" fill="#E17726"/>
<path d="M1.37012 0.00976562L10.2883 3.33867L12.2279 8.19147L1.37012 0.00976562Z" fill="#E27625"/>
<path d="M21.3368 17.2861L26.1918 17.3785L24.4951 23.1427L18.5708 21.5116L21.3368 17.2861Z" fill="#E27625"/>
<path d="M5.76512 17.2861L8.52072 21.5116L2.60642 23.1428L0.919922 17.3785L5.76512 17.2861Z" fill="#E27625"/>
<path d="M11.9641 6.95508L12.1626 13.3634L6.22559 13.0933L7.91429 10.5455L7.93569 10.521L11.9641 6.95508Z" fill="#E27625"/>
<path d="M15.0762 6.88379L19.1662 10.5214L19.1874 10.5458L20.8762 13.0936L14.9404 13.3636L15.0762 6.88379Z" fill="#E27625"/>
<path d="M8.69441 17.3047L11.9362 19.8306L8.17041 21.6487L8.69441 17.3047Z" fill="#E27625"/>
<path d="M18.4081 17.3037L18.9213 21.6482L15.166 19.8298L18.4081 17.3037Z" fill="#E27625"/>
<path d="M15.2485 19.5918L19.0592 21.437L15.5145 23.1216L15.5513 22.0082L15.2485 19.5918Z" fill="#D5BFB2"/>
<path d="M11.8522 19.5928L11.5613 21.9902L11.5852 23.1205L8.03223 21.4372L11.8522 19.5928Z" fill="#D5BFB2"/>
<path d="M10.7514 14.2002L11.7472 16.293L8.35693 15.2998L10.7514 14.2002Z" fill="#233447"/>
<path d="M16.3501 14.2002L18.7559 15.2997L15.3545 16.2926L16.3501 14.2002Z" fill="#233447"/>
<path d="M8.95356 17.2832L8.40556 21.7872L5.46826 17.3817L8.95356 17.2832Z" fill="#CC6228"/>
<path d="M18.1484 17.2832L21.6338 17.3817L18.6855 21.7874L18.1484 17.2832Z" fill="#CC6228"/>
<path d="M20.9622 12.8389L18.4257 15.424L16.47 14.5303L15.5337 16.4987L14.9199 13.1138L20.9622 12.8389Z" fill="#CC6228"/>
<path d="M6.13867 12.8389L12.1822 13.1139L11.5683 16.4987L10.6318 14.5306L8.68647 15.4241L6.13867 12.8389Z" fill="#CC6228"/>
<path d="M5.96777 12.3086L8.83757 15.2207L8.93697 18.0957L5.96777 12.3086Z" fill="#E27525"/>
<path d="M21.1372 12.3027L18.1626 18.1L18.2746 15.22L21.1372 12.3027Z" fill="#E27525"/>
<path d="M12.0415 12.4854L12.157 13.2124L12.4424 15.0234L12.2589 20.586L11.3914 16.1175L11.3911 16.0713L12.0415 12.4854Z" fill="#E27525"/>
<path d="M15.0589 12.4756L15.711 16.0716L15.7107 16.1178L14.841 20.5975L14.8066 19.477L14.6709 14.9908L15.0589 12.4756Z" fill="#E27525"/>
<path d="M18.53 15.1045L18.433 17.6023L15.4055 19.961L14.7935 19.5286L15.4795 15.9951L18.53 15.1045Z" fill="#F5841F"/>
<path d="M8.58252 15.1045L11.6225 15.9951L12.3085 19.5286L11.6965 19.961L8.66892 17.602L8.58252 15.1045Z" fill="#F5841F"/>
<path d="M7.45264 20.8857L11.3258 22.7209L11.3094 21.9372L11.6334 21.6527H15.4669L15.8027 21.9362L15.7779 22.7193L19.6266 20.8903L17.7538 22.4379L15.4893 23.9932H11.6024L9.33944 22.4315L7.45264 20.8857Z" fill="#C0AC9D"/>
<path d="M14.9716 19.3477L15.5192 19.7345L15.8401 22.2949L15.3757 21.9028H11.7281L11.2725 22.3028L11.5829 19.7347L12.1307 19.3477H14.9716Z" fill="#161616"/>
<path d="M25.0322 0.224609L26.3508 4.18031L25.5273 8.18001L26.1137 8.63231L25.3202 9.23771L25.9166 9.69831L25.1269 10.4174L25.6117 10.7685L24.3251 12.2711L19.0481 10.7346L19.0024 10.7101L15.1997 7.50231L25.0322 0.224609Z" fill="#763E1A"/>
<path d="M2.06958 0.224609L11.9022 7.50231L8.09938 10.7101L8.05368 10.7346L2.77668 12.2711L1.48998 10.7685L1.97438 10.4177L1.18518 9.69831L1.78038 9.23831L0.974977 8.63111L1.58348 8.17851L0.750977 4.18051L2.06958 0.224609Z" fill="#763E1A"/>
<path d="M18.7901 10.3994L24.3814 12.0274L26.1979 17.6259H21.4055L18.1035 17.6675L20.5049 12.9867L18.7901 10.3994Z" fill="#F5841F"/>
<path d="M8.31176 10.3994L6.59666 12.9867L8.99836 17.6675L5.69786 17.6259H0.914062L2.72036 12.0274L8.31176 10.3994Z" fill="#F5841F"/>
<path d="M17.0896 3.31162L15.5256 7.53552L15.1938 13.2415L15.0668 15.03L15.0568 19.5988H12.0456L12.0358 15.0386L11.9084 13.24L11.5764 7.53552L10.0127 3.31152L17.0896 3.31162Z" fill="#F5841F"/>
</g>
<defs>
<clipPath id="clip0_2263_21430">
<rect width="25.6" height="24" fill="white" transform="translate(0.750977)"/>
</clipPath>
</defs>
</svg>
