<svg width="25" height="25" viewBox="0 0 25 25" fill="none" xmlns="http://www.w3.org/2000/svg">
<path fill-rule="evenodd" clip-rule="evenodd" d="M5.80518 1.70605C4.76964 1.70605 3.93018 2.54552 3.93018 3.58105V20.8311C3.93018 21.8666 4.76964 22.7061 5.80518 22.7061H18.5552C19.5907 22.7061 20.4302 21.8666 20.4302 20.8311V12.9561C20.4302 10.885 18.7512 9.20605 16.6802 9.20605H14.8052C13.7696 9.20605 12.9302 8.36659 12.9302 7.33105V5.45605C12.9302 3.38499 11.2512 1.70605 9.18018 1.70605H5.80518ZM7.68018 15.2061C7.68018 14.7918 8.01596 14.4561 8.43018 14.4561H15.9302C16.3444 14.4561 16.6802 14.7918 16.6802 15.2061C16.6802 15.6203 16.3444 15.9561 15.9302 15.9561H8.43018C8.01596 15.9561 7.68018 15.6203 7.68018 15.2061ZM8.43018 17.4561C8.01596 17.4561 7.68018 17.7918 7.68018 18.2061C7.68018 18.6203 8.01596 18.9561 8.43018 18.9561H12.1802C12.5944 18.9561 12.9302 18.6203 12.9302 18.2061C12.9302 17.7918 12.5944 17.4561 12.1802 17.4561H8.43018Z" fill="var(--iconPrimary)"/>
<path d="M13.1514 2.02196C13.9481 2.94253 14.4302 4.143 14.4302 5.45605V7.33105C14.4302 7.53816 14.5981 7.70605 14.8052 7.70605H16.6802C17.9932 7.70605 19.1937 8.18809 20.1143 8.98486C19.2264 5.58593 16.5503 2.90983 13.1514 2.02196Z" fill="var(--iconPrimary)"/>
</svg>
