<svg width="25" height="24" viewBox="0 0 25 24" fill="none" xmlns="http://www.w3.org/2000/svg">
<path d="M5.26782 8.25C5.26782 7.65326 5.50487 7.08097 5.92683 6.65901C6.34879 6.23705 6.92109 6 7.51782 6L18.0178 6C18.6146 6 19.1869 6.23706 19.6088 6.65901C20.0308 7.08097 20.2678 7.65327 20.2678 8.25L20.2678 14.25C20.2678 14.8467 20.0308 15.419 19.6088 15.841C19.1869 16.2629 18.6146 16.5 18.0178 16.5L7.51782 16.5C6.92108 16.5 6.34879 16.2629 5.92683 15.841C5.50487 15.419 5.26782 14.8467 5.26782 14.25L5.26782 8.25ZM4.51782 18C4.31891 18 4.12814 18.079 3.98749 18.2197C3.84684 18.3603 3.76782 18.5511 3.76782 18.75C3.76782 18.9489 3.84684 19.1397 3.98749 19.2803C4.12814 19.421 4.31891 19.5 4.51782 19.5L21.0178 19.5C21.2167 19.5 21.4075 19.421 21.5482 19.2803C21.6888 19.1397 21.7678 18.9489 21.7678 18.75C21.7678 18.5511 21.6888 18.3603 21.5482 18.2197C21.4075 18.079 21.2167 18 21.0178 18L4.51782 18Z" fill="var(--iconPrimary)" />
</svg>
