<svg width="24" height="24" viewBox="0 0 24 24" fill="none" xmlns="http://www.w3.org/2000/svg">
    <path d="M6.75 3H5.75C5.02065 3 4.32118 3.28973 3.80546 3.80546C3.28973 4.32118 3 5.02065 3 5.75V18.25C3 18.9793 3.28973 19.6788 3.80546 20.1945C4.32118 20.7103 5.02065 21 5.75 21H6V15C6 14.4033 6.23705 13.831 6.65901 13.409C7.08097 12.9871 7.65326 12.75 8.25 12.75H15.75C16.3467 12.75 16.919 12.9871 17.341 13.409C17.7629 13.831 18 14.4033 18 15V21H18.25C18.9793 21 19.6788 20.7103 20.1945 20.1945C20.7103 19.6788 21 18.9793 21 18.25V8.286C21.0001 7.85905 20.9161 7.43625 20.7527 7.04178C20.5894 6.64731 20.3499 6.28889 20.048 5.987L18.013 3.952C17.4121 3.351 16.5998 3.00925 15.75 3V7.5C15.75 8.09674 15.5129 8.66903 15.091 9.09099C14.669 9.51295 14.0967 9.75 13.5 9.75H9C8.40326 9.75 7.83097 9.51295 7.40901 9.09099C6.98705 8.66903 6.75 8.09674 6.75 7.5V3ZM14.25 3V7.5C14.25 7.69891 14.171 7.88968 14.0303 8.03033C13.8897 8.17098 13.6989 8.25 13.5 8.25H9C8.80109 8.25 8.61032 8.17098 8.46967 8.03033C8.32902 7.88968 8.25 7.69891 8.25 7.5V3H14.25ZM16.5 21V15C16.5 14.8011 16.421 14.6103 16.2803 14.4697C16.1397 14.329 15.9489 14.25 15.75 14.25H8.25C8.05109 14.25 7.86032 14.329 7.71967 14.4697C7.57902 14.6103 7.5 14.8011 7.5 15V21H16.5Z" fill="var(--iconPrimary)"/>
</svg>