<svg width="24" height="24" viewBox="0 0 24 24" fill="none" xmlns="http://www.w3.org/2000/svg">
    <path d="M6.75 3H5.75C5.02065 3 4.32118 3.28973 3.80546 3.80546C3.28973 4.32118 3 5.02065 3 5.75V18.25C3 18.9793 3.28973 19.6788 3.80546 20.1945C4.32118 20.7103 5.02065 21 5.75 21H6V15C6 14.4033 6.23705 13.831 6.65901 13.409C7.08097 12.9871 7.65326 12.75 8.25 12.75H13.063C14.2656 11.6235 15.8522 10.9977 17.5 11C18.7405 10.9981 19.9554 11.3528 21 12.022V8.286C21.0001 7.85905 20.9161 7.43625 20.7527 7.04178C20.5894 6.64731 20.3499 6.28889 20.048 5.987L18.013 3.952C17.4121 3.351 16.5998 3.00925 15.75 3V7.5C15.75 8.09674 15.5129 8.66903 15.091 9.09099C14.669 9.51295 14.0967 9.75 13.5 9.75H9C8.40326 9.75 7.83097 9.51295 7.40901 9.09099C6.98705 8.66903 6.75 8.09674 6.75 7.5V3ZM8.25 14.25H11.87C11.2985 15.2377 10.9983 16.3589 11 17.5C10.9981 18.7405 11.3528 19.9554 12.022 21H7.5V15C7.5 14.8011 7.57902 14.6103 7.71967 14.4697C7.86032 14.329 8.05109 14.25 8.25 14.25ZM14.25 3V7.5C14.25 7.69891 14.171 7.88968 14.0303 8.03033C13.8897 8.17098 13.6989 8.25 13.5 8.25H9C8.80109 8.25 8.61032 8.17098 8.46967 8.03033C8.32902 7.88968 8.25 7.69891 8.25 7.5V3H14.25ZM23 17.5C23 18.9587 22.4205 20.3576 21.3891 21.3891C20.3576 22.4205 18.9587 23 17.5 23C16.0413 23 14.6424 22.4205 13.6109 21.3891C12.5795 20.3576 12 18.9587 12 17.5C12 16.0413 12.5795 14.6424 13.6109 13.6109C14.6424 12.5795 16.0413 12 17.5 12C18.9587 12 20.3576 12.5795 21.3891 13.6109C22.4205 14.6424 23 16.0413 23 17.5ZM14.5 17C14.3674 17 14.2402 17.0527 14.1464 17.1464C14.0527 17.2402 14 17.3674 14 17.5C14 17.6326 14.0527 17.7598 14.1464 17.8536C14.2402 17.9473 14.3674 18 14.5 18H19.293L17.646 19.646C17.5521 19.7399 17.4994 19.8672 17.4994 20C17.4994 20.1328 17.5521 20.2601 17.646 20.354C17.7399 20.4479 17.8672 20.5006 18 20.5006C18.1328 20.5006 18.2601 20.4479 18.354 20.354L20.854 17.854C20.9006 17.8076 20.9375 17.7524 20.9627 17.6916C20.9879 17.6309 21.0009 17.5658 21.0009 17.5C21.0009 17.4342 20.9879 17.3691 20.9627 17.3084C20.9375 17.2476 20.9006 17.1924 20.854 17.146L18.354 14.646C18.3075 14.5995 18.2523 14.5626 18.1916 14.5375C18.1308 14.5123 18.0657 14.4994 18 14.4994C17.8672 14.4994 17.7399 14.5521 17.646 14.646C17.5521 14.7399 17.4994 14.8672 17.4994 15C17.4994 15.1328 17.5521 15.2601 17.646 15.354L19.293 17H14.5Z" fill="var(--iconPrimary)"/>
</svg>