<svg width="24" height="24" viewBox="0 0 24 24" fill="none" xmlns="http://www.w3.org/2000/svg">
  <path opacity="0.4" fillRule="evenodd" clipRule="evenodd" d="M2.24902 3C2.24902 2.58579 2.58481 2.25 2.99902 2.25H20.999C21.4132 2.25 21.749 2.58579 21.749 3C21.749 3.41421 21.4132 3.75 20.999 3.75H2.99902C2.58481 3.75 2.24902 3.41421 2.24902 3Z" fill="var(--iconPrimary)"/>
  <path fillRule="evenodd" clipRule="evenodd" d="M11.4687 7.46967C11.7616 7.17678 12.2365 7.17678 12.5294 7.46967L16.5294 11.4697C16.8222 11.7626 16.8222 12.2374 16.5294 12.5303C16.2365 12.8232 15.7616 12.8232 15.4687 12.5303L12.749 9.81066V21C12.749 21.4142 12.4132 21.75 11.999 21.75C11.5848 21.75 11.249 21.4142 11.249 21V9.81066L8.52935 12.5303C8.23646 12.8232 7.76159 12.8232 7.46869 12.5303C7.1758 12.2374 7.1758 11.7626 7.46869 11.4697L11.4687 7.46967Z" fill="var(--iconPrimary)"/>
</svg>