<svg width="69" height="69" viewBox="0 0 69 69" fill="none" xmlns="http://www.w3.org/2000/svg">
<path fill-rule="evenodd" clip-rule="evenodd" d="M25.2105 11.5712C27.5506 8.88004 31.0039 7.17383 34.8559 7.17383C38.7077 7.17383 42.1609 8.87987 44.5009 11.5708C48.0589 11.3222 51.7076 12.5576 54.4317 15.2816C57.1557 18.0057 58.3911 21.6544 58.1425 25.2123C60.8331 27.5524 62.5389 31.0053 62.5389 34.8569C62.5389 38.7091 60.8325 42.1626 58.141 44.5027C58.3891 48.06 57.1537 51.7081 54.4301 54.4316C51.7065 57.1552 48.0585 58.3906 44.5012 58.1426C42.1611 60.8337 38.7079 62.5399 34.8559 62.5399C31.0041 62.5399 27.551 60.8339 25.2109 58.143C21.653 58.3916 18.0041 57.1563 15.2801 54.4322C12.556 51.7081 11.3206 48.0593 11.5692 44.5014C8.87865 42.1613 7.17285 38.7084 7.17285 34.8569C7.17285 31.0051 8.87883 27.552 11.5696 25.212C11.3213 21.6543 12.5567 18.0059 15.2805 15.2821C18.0044 12.5582 21.6528 11.3229 25.2105 11.5712ZM45.1066 29.7062C45.7901 28.7492 45.5685 27.4192 44.6115 26.7357C43.6545 26.0521 42.3245 26.2737 41.6409 27.2307L32.4547 40.0915L27.8438 35.4806C27.0122 34.649 25.6639 34.649 24.8323 35.4806C24.0007 36.3122 24.0007 37.6605 24.8323 38.4921L31.2207 44.8805C31.6633 45.3231 32.2782 45.5486 32.9021 45.4969C33.5259 45.4453 34.0954 45.1218 34.4592 44.6124L45.1066 29.7062Z" fill="url(#paint1_linear_30048_2564)" style=""/>
<defs>
<linearGradient id="paint1_linear_30048_2564" x1="33.1257" y1="31.3965" x2="19.2842" y2="14.0946" gradientUnits="userSpaceOnUse">
<stop stop-color="#706C64" style="stop-color:#706C64;stop-color:color(display-p3 0.4392 0.4235 0.3922);stop-opacity:1;"/>
<stop offset="1" stop-color="white" style="stop-color:white;stop-opacity:1;"/>
<stop offset="1" stop-color="white" style="stop-color:white;stop-opacity:1;"/>
<stop offset="1" stop-color="#706C64" style="stop-color:#706C64;stop-color:color(display-p3 0.4392 0.4235 0.3922);stop-opacity:1;"/>
</linearGradient>
</defs>
</svg>
