<svg width="25" height="25" viewBox="0 0 25 25" fill="none" xmlns="http://www.w3.org/2000/svg">
    <path opacity="0.4" fillRule="evenodd" clipRule="evenodd" d="M12.6738 7.75C13.088 7.75 13.4238 8.08579 13.4238 8.5V11.75H16.6738C17.088 11.75 17.4238 12.0858 17.4238 12.5C17.4238 12.9142 17.088 13.25 16.6738 13.25H13.4238V16.5C13.4238 16.9142 13.088 17.25 12.6738 17.25C12.2596 17.25 11.9238 16.9142 11.9238 16.5V13.25H8.67383C8.25961 13.25 7.92383 12.9142 7.92383 12.5C7.92383 12.0858 8.25961 11.75 8.67383 11.75H11.9238V8.5C11.9238 8.08579 12.2596 7.75 12.6738 7.75Z" fill="var(--iconPrimary)"/>
    <path fillRule="evenodd" clipRule="evenodd" d="M12.6738 3.25C7.56519 3.25 3.42383 7.39137 3.42383 12.5C3.42383 17.6086 7.56519 21.75 12.6738 21.75C17.7825 21.75 21.9238 17.6086 21.9238 12.5C21.9238 7.39137 17.7825 3.25 12.6738 3.25ZM1.92383 12.5C1.92383 6.56294 6.73677 1.75 12.6738 1.75C18.6109 1.75 23.4238 6.56294 23.4238 12.5C23.4238 18.4371 18.6109 23.25 12.6738 23.25C6.73677 23.25 1.92383 18.4371 1.92383 12.5Z" fill="var(--iconPrimary)"/>
</svg>