<svg width="24" height="20" viewBox="0 0 24 20" fill="none" xmlns="http://www.w3.org/2000/svg">
<path d="M23.455 2.96027C22.62 3.33027 21.723 3.58027 20.78 3.69327C21.753 3.11106 22.481 2.19474 22.828 1.11527C21.9139 1.65826 20.9134 2.04047 19.87 2.24527C19.1684 1.49614 18.2391 0.999597 17.2263 0.832744C16.2136 0.665892 15.1741 0.838062 14.2693 1.32252C13.3644 1.80698 12.6448 2.57663 12.2222 3.51197C11.7996 4.44732 11.6976 5.49602 11.932 6.49527C10.0797 6.40227 8.26765 5.92082 6.61345 5.08218C4.95924 4.24353 3.49986 3.06643 2.33002 1.62727C1.93002 2.31727 1.70002 3.11727 1.70002 3.96927C1.69958 4.73627 1.88846 5.49151 2.2499 6.168C2.61135 6.84449 3.13418 7.42131 3.77202 7.84727C3.0323 7.82373 2.3089 7.62385 1.66202 7.26427V7.32427C1.66195 8.40001 2.03406 9.44265 2.71521 10.2753C3.39636 11.1079 4.34459 11.6792 5.39902 11.8923C4.71281 12.078 3.99336 12.1053 3.29502 11.9723C3.59252 12.8979 4.17202 13.7073 4.95239 14.2872C5.73276 14.8671 6.67494 15.1884 7.64702 15.2063C5.99686 16.5017 3.95891 17.2044 1.86102 17.2013C1.4894 17.2014 1.1181 17.1797 0.749023 17.1363C2.8785 18.5054 5.35736 19.2321 7.88902 19.2293C16.459 19.2293 21.144 12.1313 21.144 5.97527C21.144 5.77527 21.139 5.57327 21.13 5.37327C22.0413 4.71424 22.8279 3.89817 23.453 2.96327L23.455 2.96027Z" fill="var(--iconSecondary)"/>
</svg>