<svg width="25" height="24" viewBox="0 0 25 24" fill="none" xmlns="http://www.w3.org/2000/svg">
    <path d="M6 7C6 6.33696 6.26339 5.70107 6.73223 5.23223C7.20107 4.76339 7.83696 4.5 8.5 4.5C9.16304 4.5 9.79893 4.76339 10.2678 5.23223C10.7366 5.70107 11 6.33696 11 7C11 7.66304 10.7366 8.29893 10.2678 8.76777C9.79893 9.23661 9.16304 9.5 8.5 9.5C7.83696 9.5 7.20107 9.23661 6.73223 8.76777C6.26339 8.29893 6 7.66304 6 7ZM8.5 3C7.43913 3 6.42172 3.42143 5.67157 4.17157C4.92143 4.92172 4.5 5.93913 4.5 7C4.5 8.06087 4.92143 9.07828 5.67157 9.82843C6.42172 10.5786 7.43913 11 8.5 11C9.56087 11 10.5783 10.5786 11.3284 9.82843C12.0786 9.07828 12.5 8.06087 12.5 7C12.5 5.93913 12.0786 4.92172 11.3284 4.17157C10.5783 3.42143 9.56087 3 8.5 3ZM16 8C16 7.60218 16.158 7.22064 16.4393 6.93934C16.7206 6.65804 17.1022 6.5 17.5 6.5C17.8978 6.5 18.2794 6.65804 18.5607 6.93934C18.842 7.22064 19 7.60218 19 8C19 8.39782 18.842 8.77936 18.5607 9.06066C18.2794 9.34196 17.8978 9.5 17.5 9.5C17.1022 9.5 16.7206 9.34196 16.4393 9.06066C16.158 8.77936 16 8.39782 16 8ZM17.5 5C16.7044 5 15.9413 5.31607 15.3787 5.87868C14.8161 6.44129 14.5 7.20435 14.5 8C14.5 8.79565 14.8161 9.55871 15.3787 10.1213C15.9413 10.6839 16.7044 11 17.5 11C18.2956 11 19.0587 10.6839 19.6213 10.1213C20.1839 9.55871 20.5 8.79565 20.5 8C20.5 7.20435 20.1839 6.44129 19.6213 5.87868C19.0587 5.31607 18.2956 5 17.5 5ZM4.75 13C4.15326 13 3.58097 13.2371 3.15901 13.659C2.73705 14.081 2.5 14.6533 2.5 15.25V15.528C2.50118 15.5975 2.50585 15.6669 2.514 15.736C2.59658 16.4801 2.86404 17.1917 3.292 17.806C4.11 18.974 5.672 20 8.5 20C9.869 20 10.941 19.76 11.776 19.38C11.6241 18.8761 11.5341 18.3556 11.508 17.83C10.863 18.21 9.913 18.5 8.5 18.5C6.078 18.5 5.014 17.65 4.52 16.945C4.23974 16.5411 4.06353 16.0743 4.007 15.586C4.00398 15.5597 4.00165 15.5334 4 15.507V15.25C4 15.0511 4.07902 14.8603 4.21967 14.7197C4.36032 14.579 4.55109 14.5 4.75 14.5H12.232C12.481 14.023 12.787 13.581 13.141 13.183C12.8596 13.0618 12.5564 12.9995 12.25 13H4.75ZM23.5 17.5C23.5 16.0413 22.9205 14.6424 21.8891 13.6109C20.8576 12.5795 19.4587 12 18 12C16.5413 12 15.1424 12.5795 14.1109 13.6109C13.0795 14.6424 12.5 16.0413 12.5 17.5C12.5 18.9587 13.0795 20.3576 14.1109 21.3891C15.1424 22.4205 16.5413 23 18 23C19.4587 23 20.8576 22.4205 21.8891 21.3891C22.9205 20.3576 23.5 18.9587 23.5 17.5ZM18.5 18L18.501 20.503C18.501 20.6356 18.4483 20.7628 18.3546 20.8566C18.2608 20.9503 18.1336 21.003 18.001 21.003C17.8684 21.003 17.7412 20.9503 17.6474 20.8566C17.5537 20.7628 17.501 20.6356 17.501 20.503V18H14.996C14.8634 18 14.7362 17.9473 14.6424 17.8536C14.5487 17.7598 14.496 17.6326 14.496 17.5C14.496 17.3674 14.5487 17.2402 14.6424 17.1464C14.7362 17.0527 14.8634 17 14.996 17H17.5V14.5C17.5 14.3674 17.5527 14.2402 17.6464 14.1464C17.7402 14.0527 17.8674 14 18 14C18.1326 14 18.2598 14.0527 18.3536 14.1464C18.4473 14.2402 18.5 14.3674 18.5 14.5V17H20.997C21.1296 17 21.2568 17.0527 21.3506 17.1464C21.4443 17.2402 21.497 17.3674 21.497 17.5C21.497 17.6326 21.4443 17.7598 21.3506 17.8536C21.2568 17.9473 21.1296 18 20.997 18H18.5Z" fill="currentColor"/>
</svg>