<svg width="25" height="24" viewBox="0 0 25 24" fill="none" xmlns="http://www.w3.org/2000/svg">
<path d="M15.2018 1.30505C14.7981 0.891859 14.3158 0.56354 13.7834 0.339383C13.2509 0.115227 12.679 -0.000244141 12.1013 -0.000244141C11.5236 -0.000244141 10.9517 0.115227 10.4193 0.339383C9.88686 0.56354 9.40459 0.891859 9.00083 1.30505L8.06783 2.26205L6.73283 2.24555C6.15496 2.23871 5.58155 2.34749 5.04632 2.56548C4.5111 2.78348 4.02487 3.10629 3.61622 3.51494C3.20757 3.92359 2.88476 4.40982 2.66676 4.94504C2.44877 5.48026 2.33999 6.05367 2.34683 6.63155L2.36183 7.96655L1.40783 8.89955C0.994642 9.3033 0.666323 9.78558 0.442166 10.318C0.21801 10.8505 0.102539 11.4223 0.102539 12C0.102539 12.5778 0.21801 13.1496 0.442166 13.6821C0.666323 14.2145 0.994642 14.6968 1.40783 15.1005L2.36333 16.0335L2.34683 17.3685C2.33999 17.9464 2.44877 18.5198 2.66676 19.0551C2.88476 19.5903 3.20757 20.0765 3.61622 20.4852C4.02487 20.8938 4.5111 21.2166 5.04632 21.4346C5.58155 21.6526 6.15496 21.7614 6.73283 21.7545L8.06783 21.7395L9.00083 22.6935C9.40459 23.1067 9.88686 23.4351 10.4193 23.6592C10.9517 23.8834 11.5236 23.9988 12.1013 23.9988C12.679 23.9988 13.2509 23.8834 13.7834 23.6592C14.3158 23.4351 14.7981 23.1067 15.2018 22.6935L16.1348 21.738L17.4698 21.7545C18.0477 21.7614 18.6211 21.6526 19.1563 21.4346C19.6916 21.2166 20.1778 20.8938 20.5864 20.4852C20.9951 20.0765 21.3179 19.5903 21.5359 19.0551C21.7539 18.5198 21.8627 17.9464 21.8558 17.3685L21.8408 16.0335L22.7948 15.1005C23.208 14.6968 23.5363 14.2145 23.7605 13.6821C23.9847 13.1496 24.1001 12.5778 24.1001 12C24.1001 11.4223 23.9847 10.8505 23.7605 10.318C23.5363 9.78558 23.208 9.3033 22.7948 8.89955L21.8393 7.96655L21.8558 6.63155C21.8627 6.05367 21.7539 5.48026 21.5359 4.94504C21.3179 4.40982 20.9951 3.92359 20.5864 3.51494C20.1778 3.10629 19.6916 2.78348 19.1563 2.56548C18.6211 2.34749 18.0477 2.23871 17.4698 2.24555L16.1348 2.26055L15.2018 1.30655V1.30505ZM15.6323 10.281L11.1323 14.781C11.0627 14.8509 10.9799 14.9063 10.8888 14.9441C10.7977 14.9819 10.7 15.0014 10.6013 15.0014C10.5027 15.0014 10.405 14.9819 10.3139 14.9441C10.2228 14.9063 10.14 14.8509 10.0703 14.781L7.82033 12.531C7.7506 12.4613 7.69529 12.3785 7.65755 12.2874C7.61981 12.1963 7.60038 12.0987 7.60038 12C7.60038 11.9014 7.61981 11.8038 7.65755 11.7127C7.69529 11.6216 7.7506 11.5388 7.82033 11.469C7.89006 11.3993 7.97285 11.344 8.06396 11.3063C8.15507 11.2685 8.25272 11.2491 8.35133 11.2491C8.44995 11.2491 8.5476 11.2685 8.63871 11.3063C8.72982 11.344 8.8126 11.3993 8.88233 11.469L10.6013 13.1895L14.5703 9.21905C14.7112 9.07822 14.9022 8.9991 15.1013 8.9991C15.3005 8.9991 15.4915 9.07822 15.6323 9.21905C15.7732 9.35988 15.8523 9.55089 15.8523 9.75005C15.8523 9.94921 15.7732 10.1402 15.6323 10.281V10.281Z" fill="var(--iconPrimary)"/>
</svg>