<svg width="25" height="24" viewBox="0 0 25 24" fill="none" xmlns="http://www.w3.org/2000/svg">
<path d="M3.76782 8.25C3.76782 7.25544 4.16291 6.30161 4.86617 5.59835C5.56943 4.89509 6.52326 4.5 7.51782 4.5L18.0178 4.5C19.0124 4.5 19.9662 4.89509 20.6695 5.59835C21.3727 6.30161 21.7678 7.25544 21.7678 8.25L21.7678 15.75C21.7678 16.7446 21.3727 17.6984 20.6695 18.4017C19.9662 19.1049 19.0124 19.5 18.0178 19.5L7.51782 19.5C6.52326 19.5 5.56943 19.1049 4.86617 18.4017C4.16291 17.6984 3.76782 16.7446 3.76782 15.75L3.76782 8.25ZM10.5178 8.73L10.5178 15.27C10.5178 15.645 10.9288 15.8745 11.2483 15.6795L16.1368 12.6915C16.2554 12.6192 16.3533 12.5176 16.4213 12.3965C16.4893 12.2754 16.525 12.1389 16.525 12C16.525 11.8611 16.4893 11.7246 16.4213 11.6035C16.3533 11.4824 16.2554 11.3808 16.1368 11.3085L11.2468 8.322C11.1741 8.27787 11.0909 8.25386 11.0059 8.25243C10.9208 8.251 10.8369 8.27221 10.7627 8.31387C10.6886 8.35554 10.6268 8.41616 10.5838 8.48954C10.5407 8.56293 10.518 8.64643 10.5178 8.7315L10.5178 8.73Z" fill="var(--iconPrimary)" />
</svg>
