<svg width="25" height="25" viewBox="0 0 25 25" fill="none" xmlns="http://www.w3.org/2000/svg" xmlnsXlink="http://www.w3.org/1999/xlink">
    <g opacity="0.4">
        <path fillRule="evenodd" clipRule="evenodd" d="M16.6204 5.90406C16.2909 5.33188 15.5733 5.11459 14.9818 5.40793C14.9219 5.4376 14.7469 5.57904 14.3794 6.06885C14.0352 6.52769 13.599 7.18146 12.9938 8.08923C12.9821 8.10689 12.9704 8.12433 12.959 8.14156C12.7606 8.43937 12.6052 8.67285 12.4116 8.86648C12.0275 9.25065 11.5383 9.51247 11.0056 9.61892C10.7372 9.67257 10.457 9.67243 10.0998 9.67226C10.0792 9.67225 10.0583 9.67224 10.0371 9.67224L10.0371 8.17224C10.4863 8.17224 10.6076 8.1688 10.7117 8.148C10.9538 8.09962 11.1762 7.98061 11.3508 7.80598C11.4258 7.73092 11.4961 7.63162 11.7458 7.25718L11.7602 7.23559C12.3479 6.35393 12.8072 5.66506 13.1796 5.16868C13.5318 4.69923 13.8962 4.27195 14.3153 4.0641C15.6167 3.41875 17.1955 3.89678 17.9203 5.15559C18.1537 5.5609 18.2199 6.11774 18.2526 6.7028C18.2871 7.32123 18.2871 8.14739 18.2871 9.20461L18.2871 9.23056L18.2871 12.9222C18.2871 13.3365 17.9513 13.6722 17.5371 13.6722C17.1229 13.6722 16.7871 13.3365 16.7871 12.9222L16.7871 9.23056C16.7871 8.14194 16.7868 7.35786 16.7549 6.78638C16.7209 6.17647 16.6538 5.96208 16.6204 5.90406Z" fill="var(--iconPrimary)"/>
        <path fillRule="evenodd" clipRule="evenodd" d="M16.6204 5.90406C16.2909 5.33188 15.5733 5.11459 14.9818 5.40793C14.9219 5.4376 14.7469 5.57904 14.3794 6.06885C14.0352 6.52769 13.599 7.18146 12.9938 8.08923C12.9821 8.10689 12.9704 8.12433 12.959 8.14156C12.7606 8.43937 12.6052 8.67285 12.4116 8.86648C12.0275 9.25065 11.5383 9.51247 11.0056 9.61892C10.7372 9.67257 10.457 9.67243 10.0998 9.67226C10.0792 9.67225 10.0583 9.67224 10.0371 9.67224L10.0371 8.17224C10.4863 8.17224 10.6076 8.1688 10.7117 8.148C10.9538 8.09962 11.1762 7.98061 11.3508 7.80598C11.4258 7.73092 11.4961 7.63162 11.7458 7.25718L11.7602 7.23559C12.3479 6.35393 12.8072 5.66506 13.1796 5.16868C13.5318 4.69923 13.8962 4.27195 14.3153 4.0641C15.6167 3.41875 17.1955 3.89678 17.9203 5.15559C18.1537 5.5609 18.2199 6.11774 18.2526 6.7028C18.2871 7.32123 18.2871 8.14739 18.2871 9.20461L18.2871 9.23056L18.2871 12.9222C18.2871 13.3365 17.9513 13.6722 17.5371 13.6722C17.1229 13.6722 16.7871 13.3365 16.7871 12.9222L16.7871 9.23056C16.7871 8.14194 16.7868 7.35786 16.7549 6.78638C16.7209 6.17647 16.6538 5.96208 16.6204 5.90406Z" fill="var(--iconPrimary)" fillOpacity="0.03"/>
    </g>
    <path fillRule="evenodd" clipRule="evenodd" d="M9.42136 8.1719C9.45939 8.17191 9.49799 8.17193 9.53716 8.17193L10.0372 8.17193C10.4514 8.17193 10.7872 8.50771 10.7872 8.92193C10.7872 9.33614 10.4514 9.67193 10.0372 9.67193L9.53716 9.67193C8.5589 9.67193 8.2169 9.67837 7.95482 9.74859C7.17836 9.95664 6.57188 10.5631 6.36382 11.3396C6.2936 11.6017 6.28716 11.9437 6.28716 12.9219C6.28716 13.9002 6.2936 14.2422 6.36382 14.5043C6.57188 15.2807 7.17836 15.8872 7.95482 16.0953C8.2169 16.1655 8.5589 16.1719 9.53716 16.1719L10.0288 16.1719C10.0504 16.1719 10.0717 16.1719 10.0928 16.1719C10.4569 16.1717 10.7425 16.1716 11.016 16.2273C11.5412 16.3344 12.0238 16.5926 12.4042 16.9703C12.6023 17.1669 12.7606 17.4046 12.9624 17.7077C12.9741 17.7252 12.9859 17.7429 12.9979 17.7609C13.6017 18.6667 14.0369 19.3189 14.3804 19.7767C14.7471 20.2653 14.9218 20.4065 14.9818 20.4362C15.5733 20.7296 16.291 20.5123 16.6204 19.9401C16.6538 19.8821 16.7209 19.6677 16.755 19.0578C16.7869 18.4863 16.7872 17.7022 16.7872 16.6136L16.7872 12.9219C16.7872 12.5077 17.1229 12.1719 17.5372 12.1719C17.9514 12.1719 18.2872 12.5077 18.2872 12.9219L18.2872 16.6136L18.2872 16.6396C18.2872 17.6968 18.2872 18.5229 18.2526 19.1414C18.22 19.7264 18.1537 20.2833 17.9203 20.6886C17.1955 21.9474 15.6167 22.4254 14.3154 21.7801C13.8964 21.5723 13.5324 21.1457 13.1807 20.677C12.8089 20.1816 12.3506 19.4942 11.7642 18.6146L11.7498 18.593C11.4958 18.212 11.4242 18.1111 11.3474 18.0348C11.1745 17.8631 10.9552 17.7458 10.7164 17.6971C10.6104 17.6755 10.4867 17.6719 10.0288 17.6719L9.53716 17.6719C9.49798 17.6719 9.45939 17.6719 9.42136 17.672C8.6034 17.6722 8.04525 17.6724 7.56659 17.5441C6.27249 17.1974 5.26169 16.1866 4.91494 14.8925C4.78668 14.4138 4.78686 13.8557 4.78713 13.0377C4.78715 12.9997 4.78716 12.9611 4.78716 12.9219C4.78716 12.8828 4.78715 12.8442 4.78713 12.8061C4.78686 11.9882 4.78668 11.43 4.91494 10.9514C5.26169 9.65726 6.27249 8.64646 7.56659 8.2997C8.04525 8.17145 8.6034 8.17163 9.42136 8.1719Z" fill="var(--iconPrimary)"/>
    <path fillRule="evenodd" clipRule="evenodd" d="M9.42136 8.1719C9.45939 8.17191 9.49799 8.17193 9.53716 8.17193L10.0372 8.17193C10.4514 8.17193 10.7872 8.50771 10.7872 8.92193C10.7872 9.33614 10.4514 9.67193 10.0372 9.67193L9.53716 9.67193C8.5589 9.67193 8.2169 9.67837 7.95482 9.74859C7.17836 9.95664 6.57188 10.5631 6.36382 11.3396C6.2936 11.6017 6.28716 11.9437 6.28716 12.9219C6.28716 13.9002 6.2936 14.2422 6.36382 14.5043C6.57188 15.2807 7.17836 15.8872 7.95482 16.0953C8.2169 16.1655 8.5589 16.1719 9.53716 16.1719L10.0288 16.1719C10.0504 16.1719 10.0717 16.1719 10.0928 16.1719C10.4569 16.1717 10.7425 16.1716 11.016 16.2273C11.5412 16.3344 12.0238 16.5926 12.4042 16.9703C12.6023 17.1669 12.7606 17.4046 12.9624 17.7077C12.9741 17.7252 12.9859 17.7429 12.9979 17.7609C13.6017 18.6667 14.0369 19.3189 14.3804 19.7767C14.7471 20.2653 14.9218 20.4065 14.9818 20.4362C15.5733 20.7296 16.291 20.5123 16.6204 19.9401C16.6538 19.8821 16.7209 19.6677 16.755 19.0578C16.7869 18.4863 16.7872 17.7022 16.7872 16.6136L16.7872 12.9219C16.7872 12.5077 17.1229 12.1719 17.5372 12.1719C17.9514 12.1719 18.2872 12.5077 18.2872 12.9219L18.2872 16.6136L18.2872 16.6396C18.2872 17.6968 18.2872 18.5229 18.2526 19.1414C18.22 19.7264 18.1537 20.2833 17.9203 20.6886C17.1955 21.9474 15.6167 22.4254 14.3154 21.7801C13.8964 21.5723 13.5324 21.1457 13.1807 20.677C12.8089 20.1816 12.3506 19.4942 11.7642 18.6146L11.7498 18.593C11.4958 18.212 11.4242 18.1111 11.3474 18.0348C11.1745 17.8631 10.9552 17.7458 10.7164 17.6971C10.6104 17.6755 10.4867 17.6719 10.0288 17.6719L9.53716 17.6719C9.49798 17.6719 9.45939 17.6719 9.42136 17.672C8.6034 17.6722 8.04525 17.6724 7.56659 17.5441C6.27249 17.1974 5.26169 16.1866 4.91494 14.8925C4.78668 14.4138 4.78686 13.8557 4.78713 13.0377C4.78715 12.9997 4.78716 12.9611 4.78716 12.9219C4.78716 12.8828 4.78715 12.8442 4.78713 12.8061C4.78686 11.9882 4.78668 11.43 4.91494 10.9514C5.26169 9.65726 6.27249 8.64646 7.56659 8.2997C8.04525 8.17145 8.6034 8.17163 9.42136 8.1719Z" fill="var(--iconPrimary)" fillOpacity="0.03"/>
</svg>