<svg width="25" height="25" viewBox="0 0 25 25" fill="none" xmlns="http://www.w3.org/2000/svg">
<path d="M22.1252 14.6782L22.1462 14.7402L22.1692 14.8402L22.1792 14.9402V21.4562C22.1791 21.6377 22.1132 21.813 21.9937 21.9497C21.8741 22.0863 21.7091 22.175 21.5292 22.1992L21.4292 22.2062H2.93018C2.74894 22.2062 2.57383 22.1405 2.43725 22.0214C2.30066 21.9023 2.21182 21.7377 2.18718 21.5582L2.18018 21.4562V14.9562L2.18218 14.9042L2.19218 14.8182C2.20233 14.7656 2.21808 14.7143 2.23918 14.6652L4.99918 8.64616C5.05123 8.53238 5.13093 8.43343 5.23102 8.35832C5.3311 8.28322 5.44838 8.23435 5.57218 8.21616L5.68018 8.20916L8.22018 8.20816L7.43018 9.57816L7.36318 9.70816H6.16018L4.09818 14.2062H20.2502L18.2232 9.86016L19.0852 8.36316C19.1522 8.41316 19.2102 8.47616 19.2572 8.54716L19.3102 8.64216L22.1252 14.6782ZM13.5452 2.26216L13.6372 2.30716L18.8252 5.31016C19.1532 5.50016 19.2832 5.90116 19.1442 6.24316L19.0992 6.33516L16.2922 11.2062H17.4302C17.6216 11.2042 17.8064 11.2755 17.947 11.4054C18.0875 11.5354 18.173 11.7141 18.1861 11.905C18.1991 12.096 18.1386 12.2847 18.0171 12.4325C17.8955 12.5803 17.722 12.6761 17.5322 12.7002L17.4302 12.7072L15.4282 12.7062V12.7092H11.3492L11.3462 12.7062H6.93018C6.74134 12.7044 6.56012 12.6315 6.42272 12.5019C6.28531 12.3724 6.20183 12.1958 6.18895 12.0073C6.17607 11.8189 6.23474 11.6326 6.35324 11.4856C6.47173 11.3385 6.64134 11.2416 6.82818 11.2142L6.93018 11.2072L8.75318 11.2062L8.57118 11.1012C8.41472 11.01 8.29641 10.8654 8.23799 10.694C8.17957 10.5226 8.18497 10.3359 8.25318 10.1682L8.29718 10.0762L12.6142 2.58016C12.8042 2.25116 13.2042 2.12016 13.5452 2.26016V2.26216ZM13.5352 3.98216L9.96918 10.1762L11.7472 11.2062H14.5642L17.4292 6.23316L13.5372 3.98016L13.5352 3.98216Z" fill="var(--iconPrimary)"/>
</svg>
