<svg width="22" height="22" viewBox="0 0 22 22" fill="none" xmlns="http://www.w3.org/2000/svg">
  <path fill-rule="evenodd" clip-rule="evenodd" d="M11 1.75C5.89137 1.75 1.75 5.89137 1.75 11C1.75 16.1086 5.89137 20.25 11 20.25C16.1086 20.25 20.25 16.1086 20.25 11C20.25 5.89137 16.1086 1.75 11 1.75ZM0.25 11C0.25 5.06294 5.06294 0.25 11 0.25C16.9371 0.25 21.75 5.06294 21.75 11C21.75 16.9371 16.9371 21.75 11 21.75C5.06294 21.75 0.25 16.9371 0.25 11Z" fill="var(--iconPrimary)"/>
  <path fill-rule="evenodd" clip-rule="evenodd" d="M8.21354 6.4025C8.3904 5.58631 8.61199 4.84734 8.86793 4.20748C9.20894 3.35495 9.59624 2.71536 9.98794 2.30118C10.3781 1.88858 10.7204 1.75 11 1.75C11.2796 1.75 11.6219 1.88858 12.0121 2.30118C12.4038 2.71536 12.7911 3.35495 13.1321 4.20748C13.388 4.84734 13.6096 5.58631 13.7865 6.4025C12.8962 6.30277 11.9616 6.25 11 6.25C10.0384 6.25 9.10378 6.30277 8.21354 6.4025ZM6.63641 6.63641C6.84323 5.52904 7.12744 4.51983 7.47522 3.65039C7.85806 2.69327 8.33269 1.86839 8.8981 1.27052C9.46501 0.671064 10.175 0.25 11 0.25C11.825 0.25 12.535 0.671064 13.1019 1.27052C13.6673 1.86839 14.1419 2.69327 14.5248 3.65039C14.8726 4.51983 15.1568 5.52904 15.3636 6.63641C16.471 6.84323 17.4802 7.12744 18.3496 7.47522C19.3067 7.85806 20.1316 8.33269 20.7295 8.8981C21.3289 9.46501 21.75 10.175 21.75 11C21.75 11.825 21.3289 12.535 20.7295 13.1019C20.1316 13.6673 19.3067 14.1419 18.3496 14.5248C17.4802 14.8726 16.471 15.1568 15.3636 15.3636C15.1568 16.471 14.8726 17.4802 14.5248 18.3496C14.1419 19.3067 13.6673 20.1316 13.1019 20.7295C12.535 21.3289 11.825 21.75 11 21.75C10.175 21.75 9.46501 21.3289 8.8981 20.7295C8.33269 20.1316 7.85806 19.3067 7.47522 18.3496C7.12744 17.4802 6.84323 16.471 6.63641 15.3636C5.52904 15.1568 4.51983 14.8726 3.65039 14.5248C2.69327 14.1419 1.86839 13.6673 1.27052 13.1019C0.671064 12.535 0.25 11.825 0.25 11C0.25 10.175 0.671064 9.46501 1.27052 8.8981C1.86839 8.33269 2.69327 7.85806 3.65039 7.47522C4.51983 7.12744 5.52904 6.84323 6.63641 6.63641ZM6.4025 13.7865C5.58631 13.6096 4.84734 13.388 4.20748 13.1321C3.35495 12.7911 2.71536 12.4038 2.30118 12.0121C1.88858 11.6219 1.75 11.2796 1.75 11C1.75 10.7204 1.88858 10.3781 2.30118 9.98794C2.71536 9.59624 3.35495 9.20894 4.20747 8.86793C4.84734 8.61199 5.58631 8.3904 6.4025 8.21354C6.30277 9.10378 6.25 10.0384 6.25 11C6.25 11.9616 6.30277 12.8962 6.4025 13.7865ZM7.94628 14.0537C7.81954 13.0991 7.75 12.0726 7.75 11C7.75 9.92745 7.81954 8.90086 7.94628 7.94628C8.90086 7.81954 9.92745 7.75 11 7.75C12.0726 7.75 13.0991 7.81954 14.0537 7.94628C14.1805 8.90086 14.25 9.92745 14.25 11C14.25 12.0726 14.1805 13.0991 14.0537 14.0537C13.0991 14.1805 12.0726 14.25 11 14.25C9.92745 14.25 8.90086 14.1805 7.94628 14.0537ZM8.21354 15.5975C8.3904 16.4137 8.61199 17.1527 8.86793 17.7925C9.20894 18.6451 9.59624 19.2846 9.98794 19.6988C10.3781 20.1114 10.7204 20.25 11 20.25C11.2796 20.25 11.6219 20.1114 12.0121 19.6988C12.4038 19.2846 12.7911 18.6451 13.1321 17.7925C13.388 17.1527 13.6096 16.4137 13.7865 15.5975C12.8962 15.6972 11.9616 15.75 11 15.75C10.0384 15.75 9.10378 15.6972 8.21354 15.5975ZM15.5975 13.7865C16.4137 13.6096 17.1527 13.388 17.7925 13.1321C18.6451 12.7911 19.2846 12.4038 19.6988 12.0121C20.1114 11.6219 20.25 11.2796 20.25 11C20.25 10.7204 20.1114 10.3781 19.6988 9.98794C19.2846 9.59624 18.6451 9.20894 17.7925 8.86793C17.1527 8.61199 16.4137 8.3904 15.5975 8.21354C15.6972 9.10378 15.75 10.0384 15.75 11C15.75 11.9616 15.6972 12.8962 15.5975 13.7865Z" fill="var(--iconPrimary)" opacity="0.4"/>
</svg>