<svg width="28" height="29" viewBox="0 0 28 29" fill="none" xmlns="http://www.w3.org/2000/svg">
    <path d="M22.47 4.97C22.5387 4.89631 22.6215 4.83721 22.7135 4.79622C22.8055 4.75523 22.9048 4.73319 23.0055 4.73141C23.1062 4.72963 23.2062 4.74816 23.2996 4.78588C23.393 4.8236 23.4778 4.87974 23.5491 4.95096C23.6203 5.02218 23.6764 5.10701 23.7142 5.2004C23.7519 5.29379 23.7704 5.39382 23.7686 5.49452C23.7668 5.59523 23.7448 5.69454 23.7038 5.78654C23.6628 5.87854 23.6037 5.96134 23.53 6.03L15.06 14.5L23.53 22.97C23.6037 23.0387 23.6628 23.1215 23.7038 23.2135C23.7448 23.3055 23.7668 23.4048 23.7686 23.5055C23.7704 23.6062 23.7519 23.7062 23.7142 23.7996C23.6764 23.893 23.6203 23.9778 23.5491 24.049C23.4778 24.1203 23.393 24.1764 23.2996 24.2141C23.2062 24.2518 23.1062 24.2704 23.0055 24.2686C22.9048 24.2668 22.8055 24.2448 22.7135 24.2038C22.6215 24.1628 22.5387 24.1037 22.47 24.03L14 15.56L5.53003 24.03C5.38785 24.1625 5.19981 24.2346 5.00551 24.2312C4.81121 24.2277 4.62582 24.149 4.48841 24.0116C4.35099 23.8742 4.27228 23.6888 4.26885 23.4945C4.26543 23.3002 4.33755 23.1122 4.47003 22.97L12.94 14.5L4.47003 6.03C4.33755 5.88783 4.26543 5.69978 4.26885 5.50548C4.27228 5.31118 4.35099 5.12579 4.48841 4.98838C4.62582 4.85097 4.81121 4.77225 5.00551 4.76883C5.19981 4.7654 5.38785 4.83752 5.53003 4.97L14 13.44L22.47 4.97Z" fill="var(--iconPrimary)"/>
</svg>