<svg width="28" height="28" viewBox="0 0 28 28" fill="none" xmlns="http://www.w3.org/2000/svg">
<g id="Frame 149286064">
<path id="Subtract" fill-rule="evenodd" clip-rule="evenodd" d="M9.80001 9.7998H8.40001C6.08042 9.7998 4.20001 11.6802 4.20001 13.9998V22.3998C4.20001 24.7194 6.08042 26.5998 8.40002 26.5998H19.6C21.9196 26.5998 23.8 24.7194 23.8 22.3998V13.9998C23.8 11.6802 21.9196 9.7998 19.6 9.7998H18.2V11.8998H19.6C20.7598 11.8998 21.7 12.84 21.7 13.9998V22.3998C21.7 23.5596 20.7598 24.4998 19.6 24.4998H8.40002C7.24022 24.4998 6.30001 23.5596 6.30001 22.3998V13.9998C6.30001 12.84 7.24022 11.8998 8.40001 11.8998H9.80001V9.7998Z" fill="currentColor"/>
<path id="Vector 108" d="M9.79999 6.9998L14 2.7998L18.2 6.9998" stroke="currentColor" stroke-width="2.1" stroke-linecap="round" stroke-linejoin="round"/>
<path id="Vector 109" d="M14 16.7998L14 2.7998" stroke="currentColor" stroke-width="2.1" stroke-linecap="round" stroke-linejoin="round"/>
</g>
</svg>