<svg width="28" height="19" viewBox="0 0 28 19" fill="none" xmlns="http://www.w3.org/2000/svg">
    <path d="M5.73238 4.1965C10.2986 -0.27416 17.7018 -0.27416 22.2679 4.1965L22.8176 4.73454C23.0458 4.95808 23.0458 5.32049 22.8176 5.54403L20.9375 7.3846C20.8234 7.49636 20.6384 7.49636 20.5241 7.3846L19.768 6.64417C16.5825 3.52533 11.4178 3.52533 8.23235 6.64417L7.42248 7.4371C7.30833 7.54887 7.12324 7.54887 7.00909 7.4371L5.1292 5.59655C4.90091 5.373 4.90091 5.01059 5.1292 4.78705L5.73238 4.1965ZM26.1557 8.00297L27.8288 9.64109C28.057 9.86461 28.057 10.227 27.8288 10.4506L20.2847 17.837C20.0563 18.0606 19.6862 18.0606 19.4579 17.837L14.1035 12.5946C14.0465 12.5387 13.9539 12.5387 13.8968 12.5946L8.54259 17.837C8.3143 18.0606 7.94413 18.0606 7.71582 17.837L0.171475 10.4505C-0.0568329 10.2269 -0.0568329 9.86453 0.171475 9.64099L1.84457 8.00288C2.07288 7.77934 2.44305 7.77934 2.67136 8.00288L8.0258 13.2453C8.08288 13.3012 8.17541 13.3012 8.23249 13.2453L13.5867 8.00288C13.815 7.77934 14.1851 7.77934 14.4134 8.00287C14.4134 8.00287 14.4134 8.00287 14.4135 8.00287L19.7678 13.2453C19.825 13.3012 19.9175 13.3012 19.9746 13.2453L25.3289 8.00297C25.5572 7.77945 25.9273 7.77945 26.1557 8.00297Z" fill="#3B99FC"/>
</svg>