<svg width="20" height="20" viewBox="0 -2 20 23" fill="none" xmlns="http://www.w3.org/2000/svg">
<path d="M9.00484 1C10.1051 0.999902 11.1936 1.22676 12.2022 1.6664C13.2108 2.10604 14.1179 2.74901 14.8667 3.55511C15.6156 4.36121 16.1901 5.31312 16.5544 6.35132C16.9186 7.38953 17.0648 8.49172 16.9838 9.589C16.2917 9.23983 15.5335 9.04088 14.7591 9.00518C13.9847 8.96948 13.2115 9.09785 12.4901 9.38185C11.7688 9.66586 11.1156 10.0991 10.5734 10.6532C10.0312 11.2073 9.61217 11.8697 9.34384 12.597C8.75983 12.647 8.17196 12.5681 7.62178 12.3659C7.0716 12.1638 6.57253 11.8432 6.15984 11.427C6.11355 11.3804 6.05853 11.3433 5.99792 11.318C5.93731 11.2926 5.87231 11.2795 5.80661 11.2792C5.74091 11.279 5.67581 11.2917 5.61503 11.3166C5.55424 11.3416 5.49896 11.3782 5.45234 11.4245C5.40572 11.4708 5.36868 11.5258 5.34332 11.5864C5.31796 11.647 5.30479 11.712 5.30456 11.7777C5.30433 11.8434 5.31704 11.9085 5.34197 11.9693C5.36689 12.0301 5.40355 12.0854 5.44984 12.132C5.92363 12.6101 6.48912 12.9875 7.11239 13.2417C7.73565 13.4958 8.40383 13.6215 9.07684 13.611C8.89107 14.7601 9.07196 15.9385 9.59384 16.979C8.5221 17.0568 7.44568 16.9179 6.4288 16.5706C5.41193 16.2232 4.47545 15.6746 3.67525 14.9574C2.87505 14.2402 2.22754 13.3692 1.77136 12.3963C1.31517 11.4234 1.05966 10.3685 1.02008 9.29468C0.980496 8.22085 1.15765 7.15006 1.54097 6.1462C1.92429 5.14234 2.50592 4.22599 3.25115 3.45184C3.99637 2.67769 4.88992 2.0616 5.87846 1.64035C6.86701 1.2191 7.93028 1.00132 9.00484 1ZM11.5048 6.5C11.2396 6.5 10.9853 6.60536 10.7977 6.79289C10.6102 6.98043 10.5048 7.23478 10.5048 7.5C10.5048 7.76522 10.6102 8.01957 10.7977 8.20711C10.9853 8.39464 11.2396 8.5 11.5048 8.5C11.7701 8.5 12.0244 8.39464 12.2119 8.20711C12.3995 8.01957 12.5048 7.76522 12.5048 7.5C12.5048 7.23478 12.3995 6.98043 12.2119 6.79289C12.0244 6.60536 11.7701 6.5 11.5048 6.5ZM6.50484 6.5C6.23962 6.5 5.98527 6.60536 5.79773 6.79289C5.6102 6.98043 5.50484 7.23478 5.50484 7.5C5.50484 7.76522 5.6102 8.01957 5.79773 8.20711C5.98527 8.39464 6.23962 8.5 6.50484 8.5C6.77006 8.5 7.02441 8.39464 7.21195 8.20711C7.39948 8.01957 7.50484 7.76522 7.50484 7.5C7.50484 7.23478 7.39948 6.98043 7.21195 6.79289C7.02441 6.60536 6.77006 6.5 6.50484 6.5ZM19.0048 14.5C19.0048 15.6935 18.5307 16.8381 17.6868 17.682C16.8429 18.5259 15.6983 19 14.5048 19C13.3114 19 12.1668 18.5259 11.3229 17.682C10.4789 16.8381 10.0048 15.6935 10.0048 14.5C10.0048 13.3065 10.4789 12.1619 11.3229 11.318C12.1668 10.4741 13.3114 10 14.5048 10C15.6983 10 16.8429 10.4741 17.6868 11.318C18.5307 12.1619 19.0048 13.3065 19.0048 14.5ZM15.0048 12.5C15.0048 12.3674 14.9522 12.2402 14.8584 12.1464C14.7646 12.0527 14.6374 12 14.5048 12C14.3722 12 14.2451 12.0527 14.1513 12.1464C14.0575 12.2402 14.0048 12.3674 14.0048 12.5V14H12.5048C12.3722 14 12.2451 14.0527 12.1513 14.1464C12.0575 14.2402 12.0048 14.3674 12.0048 14.5C12.0048 14.6326 12.0575 14.7598 12.1513 14.8536C12.2451 14.9473 12.3722 15 12.5048 15H14.0048V16.5C14.0048 16.6326 14.0575 16.7598 14.1513 16.8536C14.2451 16.9473 14.3722 17 14.5048 17C14.6374 17 14.7646 16.9473 14.8584 16.8536C14.9522 16.7598 15.0048 16.6326 15.0048 16.5V15H16.5048C16.6374 15 16.7646 14.9473 16.8584 14.8536C16.9522 14.7598 17.0048 14.6326 17.0048 14.5C17.0048 14.3674 16.9522 14.2402 16.8584 14.1464C16.7646 14.0527 16.6374 14 16.5048 14H15.0048V12.5Z" fill="var(--iconPrimary)" />
</svg>
