<svg width="20" height="20" viewBox="0 0 20 20" fill="none" xmlns="http://www.w3.org/2000/svg">
<path d="M17.3689 14.2874C17.0916 14.9279 16.7634 15.5175 16.3832 16.0596C15.8649 16.7986 15.4405 17.3101 15.1135 17.5941C14.6065 18.0603 14.0633 18.2991 13.4816 18.3127C13.0641 18.3127 12.5605 18.1939 11.9743 17.9528C11.3862 17.7129 10.8457 17.5941 10.3515 17.5941C9.83319 17.5941 9.27733 17.7129 8.68276 17.9528C8.08728 18.1939 7.60757 18.3195 7.24081 18.3319C6.68302 18.3557 6.12704 18.1101 5.57207 17.5941C5.21787 17.2852 4.77483 16.7556 4.24408 16.0053C3.67464 15.2041 3.20647 14.275 2.8397 13.2157C2.44691 12.0716 2.25 10.9637 2.25 9.89117C2.25 8.66253 2.51549 7.60286 3.04725 6.71485C3.46517 6.00157 4.02115 5.43891 4.717 5.02586C5.41285 4.6128 6.16472 4.40232 6.97442 4.38885C7.41746 4.38885 7.99845 4.52589 8.72044 4.79523C9.4404 5.06546 9.90268 5.20251 10.1054 5.20251C10.2569 5.20251 10.7704 5.04226 11.641 4.7228C12.4643 4.42653 13.1591 4.30386 13.7283 4.35218C15.2708 4.47666 16.4296 5.0847 17.2002 6.18014C15.8208 7.01598 15.1384 8.18667 15.1519 9.68849C15.1644 10.8583 15.5888 11.8317 16.4228 12.6046C16.8008 12.9634 17.2229 13.2406 17.6925 13.4375C17.5907 13.7329 17.4832 14.0158 17.3689 14.2874ZM13.8313 0.366954C13.8313 1.28383 13.4963 2.13991 12.8287 2.9323C12.0229 3.87429 11.0484 4.41861 9.99151 4.33272C9.97804 4.22272 9.97023 4.10695 9.97023 3.9853C9.97023 3.1051 10.3534 2.16311 11.0339 1.39291C11.3736 1.00294 11.8057 0.67869 12.3296 0.420028C12.8524 0.165225 13.347 0.0243136 13.8121 0.000183105C13.8257 0.122755 13.8313 0.245335 13.8313 0.366942V0.366954Z" fill="currentColor" />
</svg>
