<svg xmlns="http://www.w3.org/2000/svg" width="20" height="20" viewBox="0 0 20 20" fill="none">
<path d="M5.5 3C5.00916 2.99984 4.52912 3.14418 4.11976 3.41501C3.7104 3.68584 3.38982 4.07119 3.198 4.523C3.49123 4.47837 3.79072 4.49952 4.07477 4.58492C4.35882 4.67033 4.62032 4.81784 4.84033 5.01677C5.06033 5.21571 5.23333 5.46109 5.3468 5.73514C5.46027 6.00919 5.51136 6.30505 5.49637 6.60128C5.48139 6.89751 5.4007 7.1867 5.26015 7.4479C5.11961 7.7091 4.92273 7.93577 4.68377 8.11149C4.44481 8.2872 4.16976 8.40757 3.87855 8.46387C3.58733 8.52017 3.28723 8.51099 3 8.437V14.5C3 15.163 3.26339 15.7989 3.73223 16.2678C4.20107 16.7366 4.83696 17 5.5 17H9.6C9.20422 16.2262 8.99854 15.3692 9 14.5C9 13.6 9.216 12.75 9.6 12H7.5C7.36739 12 7.24021 11.9473 7.14645 11.8536C7.05268 11.7598 7 11.6326 7 11.5C7 11.3674 7.05268 11.2402 7.14645 11.1464C7.24021 11.0527 7.36739 11 7.5 11H10.257C10.7725 10.3739 11.4204 9.86975 12.1541 9.52393C12.8878 9.17811 13.6889 8.99918 14.5 9C15.4 9 16.25 9.216 17 9.6V5.5C17 4.83696 16.7366 4.20107 16.2678 3.73223C15.7989 3.26339 15.163 3 14.5 3H5.5ZM7 8.5C7 8.36739 7.05268 8.24021 7.14645 8.14645C7.24021 8.05268 7.36739 8 7.5 8H12.5C12.6326 8 12.7598 8.05268 12.8536 8.14645C12.9473 8.24021 13 8.36739 13 8.5C13 8.63261 12.9473 8.75979 12.8536 8.85355C12.7598 8.94732 12.6326 9 12.5 9H7.5C7.36739 9 7.24021 8.94732 7.14645 8.85355C7.05268 8.75979 7 8.63261 7 8.5ZM3.5 5.5C3.23478 5.5 2.98043 5.60536 2.79289 5.79289C2.60536 5.98043 2.5 6.23478 2.5 6.5C2.5 6.76522 2.60536 7.01957 2.79289 7.20711C2.98043 7.39464 3.23478 7.5 3.5 7.5C3.76522 7.5 4.01957 7.39464 4.20711 7.20711C4.39464 7.01957 4.5 6.76522 4.5 6.5C4.5 6.23478 4.39464 5.98043 4.20711 5.79289C4.01957 5.60536 3.76522 5.5 3.5 5.5ZM19 14.5C19 15.6935 18.5259 16.8381 17.682 17.682C16.8381 18.5259 15.6935 19 14.5 19C13.3065 19 12.1619 18.5259 11.318 17.682C10.4741 16.8381 10 15.6935 10 14.5C10 13.3065 10.4741 12.1619 11.318 11.318C12.1619 10.4741 13.3065 10 14.5 10C15.6935 10 16.8381 10.4741 17.682 11.318C18.5259 12.1619 19 13.3065 19 14.5ZM15 12.5C15 12.3674 14.9473 12.2402 14.8536 12.1464C14.7598 12.0527 14.6326 12 14.5 12C14.3674 12 14.2402 12.0527 14.1464 12.1464C14.0527 12.2402 14 12.3674 14 12.5V14H12.5C12.3674 14 12.2402 14.0527 12.1464 14.1464C12.0527 14.2402 12 14.3674 12 14.5C12 14.6326 12.0527 14.7598 12.1464 14.8536C12.2402 14.9473 12.3674 15 12.5 15H14V16.5C14 16.6326 14.0527 16.7598 14.1464 16.8536C14.2402 16.9473 14.3674 17 14.5 17C14.6326 17 14.7598 16.9473 14.8536 16.8536C14.9473 16.7598 15 16.6326 15 16.5V15H16.5C16.6326 15 16.7598 14.9473 16.8536 14.8536C16.9473 14.7598 17 14.6326 17 14.5C17 14.3674 16.9473 14.2402 16.8536 14.1464C16.7598 14.0527 16.6326 14 16.5 14H15V12.5Z" fill="currentColor" />
</svg>