<svg width="20" height="21" viewBox="0 0 20 21" fill="none" xmlns="http://www.w3.org/2000/svg">
    <path fillRule="evenodd" clipRule="evenodd" d="M10 18.4192C14.4183 18.4192 18 14.8375 18 10.4192C18 6.00091 14.4183 2.41919 10 2.41919C5.58172 2.41919 2 6.00091 2 10.4192C2 14.8375 5.58172 18.4192 10 18.4192ZM13.8566 8.61032C14.1002 8.27533 14.0261 7.80627 13.6911 7.56264C13.3561 7.31901 12.8871 7.39307 12.6434 7.72806L9.15969 12.5182L7.28033 10.6389C6.98744 10.346 6.51256 10.346 6.21967 10.6389C5.92678 10.9318 5.92678 11.4066 6.21967 11.6995L8.71967 14.1995C8.87477 14.3546 9.08999 14.434 9.30867 14.4169C9.52734 14.3997 9.72754 14.2877 9.85655 14.1103L13.8566 8.61032Z" fill="var(--iconPrimary)"/>
</svg>
