<svg width="20" height="21" viewBox="0 0 20 21" fill="none" xmlns="http://www.w3.org/2000/svg">
    <path d="M6 4.42401C6 3.89358 6.21071 3.38487 6.58579 3.0098C6.96086 2.63472 7.46957 2.42401 8 2.42401H14C14.5304 2.42401 15.0391 2.63472 15.4142 3.0098C15.7893 3.38487 16 3.89358 16 4.42401V14.424C16 14.9544 15.7893 15.4632 15.4142 15.8382C15.0391 16.2133 14.5304 16.424 14 16.424H8C7.46957 16.424 6.96086 16.2133 6.58579 15.8382C6.21071 15.4632 6 14.9544 6 14.424V4.42401ZM4 6.42401C4.00001 6.07295 4.09243 5.72807 4.26796 5.42404C4.4435 5.12001 4.69597 4.86754 5 4.69201V14.924C5 15.5871 5.26339 16.2229 5.73223 16.6918C6.20107 17.1606 6.83696 17.424 7.5 17.424H13.732C13.5565 17.728 13.304 17.9805 13 18.156C12.6959 18.3316 12.3511 18.424 12 18.424H7.5C6.57174 18.424 5.6815 18.0553 5.02513 17.3989C4.36875 16.7425 4 15.8523 4 14.924V6.42401Z" fill="var(--iconPrimary)"/>
</svg>