<svg width="20" height="20" viewBox="0 0 20 20" fill="none" xmlns="http://www.w3.org/2000/svg">
<g opacity="0.5">
<path d="M16.3419 13.3337C16.2966 13.2324 16.2347 13.1394 16.1586 13.0587L12.3003 9.16699C12.1408 9.03047 11.9358 8.95913 11.726 8.96723C11.5163 8.97533 11.3174 9.06228 11.169 9.21069C11.0205 9.3591 10.9336 9.55805 10.9255 9.76778C10.9174 9.97751 10.9887 10.1826 11.1253 10.342L13.5586 12.7753H7.72526C7.06222 12.7753 6.42633 12.5119 5.95749 12.0431C5.48865 11.5743 5.22526 10.9384 5.22526 10.2753V2.50033C5.22526 2.27931 5.13746 2.06735 4.98118 1.91107C4.8249 1.75479 4.61294 1.66699 4.39193 1.66699C4.17091 1.66699 3.95895 1.75479 3.80267 1.91107C3.64639 2.06735 3.55859 2.27931 3.55859 2.50033V10.3087C3.55859 11.4137 3.99758 12.4735 4.77898 13.2549C5.56038 14.0363 6.62019 14.4753 7.72526 14.4753H13.5586L11.1253 16.9087C11.0472 16.9861 10.9852 17.0783 10.9429 17.1798C10.9005 17.2814 10.8788 17.3903 10.8788 17.5003C10.8788 17.6103 10.9005 17.7193 10.9429 17.8208C10.9852 17.9224 11.0472 18.0145 11.1253 18.092C11.2031 18.1692 11.2955 18.2303 11.397 18.2718C11.4985 18.3133 11.6073 18.3343 11.7169 18.3337C11.9355 18.3327 12.145 18.2459 12.3003 18.092L16.1586 14.2337C16.2375 14.1552 16.2998 14.0616 16.3419 13.9587C16.423 13.7582 16.423 13.5341 16.3419 13.3337Z" fill="currentColor" />
</g>
</svg>
