<svg width="21" height="20" viewBox="0 0 21 20" fill="none" xmlns="http://www.w3.org/2000/svg">
<path d="M5.58496 4.5C5.58496 4.10218 5.743 3.72064 6.0243 3.43934C6.30561 3.15804 6.68714 3 7.08496 3H10.965C13.329 3 15.085 4.934 15.085 7.12C15.085 7.939 14.838 8.726 14.405 9.389C15.247 10.138 15.832 11.238 15.832 12.63C15.832 15.405 13.514 17 11.465 17H7.08496C6.68714 17 6.30561 16.842 6.0243 16.5607C5.743 16.2794 5.58496 15.8978 5.58496 15.5V4.5ZM8.58496 6V8.25H10.965C11.59 8.25 12.085 7.734 12.085 7.12C12.085 6.82296 11.967 6.53808 11.7569 6.32804C11.5469 6.118 11.262 6 10.965 6H8.58496ZM8.58496 11.25V14H11.465C11.645 14.0009 11.8234 13.9661 11.9899 13.8976C12.1564 13.829 12.3076 13.7281 12.4347 13.6006C12.5619 13.4732 12.6625 13.3218 12.7307 13.1551C12.7989 12.9885 12.8333 12.81 12.832 12.63C12.832 11.79 12.148 11.25 11.465 11.25H8.58496Z" fill="var(--iconPrimary)"/>
</svg>
