<svg width="20" height="20" viewBox="0 0 20 20" fill="none" xmlns="http://www.w3.org/2000/svg">
<path d="M12.92 2.873C13.4801 2.32581 14.2334 2.02149 15.0164 2.02605C15.7994 2.03061 16.549 2.34368 17.1027 2.89736C17.6564 3.45104 17.9694 4.20067 17.974 4.98368C17.9785 5.76668 17.6742 6.51991 17.127 7.08L16.458 7.749L12.251 3.542L12.921 2.873H12.92ZM11.544 4.25L3.54503 12.249C3.21771 12.5767 2.99052 12.9909 2.89003 13.443L2.01203 17.393C1.99367 17.4752 1.99636 17.5607 2.01986 17.6415C2.04336 17.7224 2.0869 17.796 2.14645 17.8556C2.20599 17.9151 2.27962 17.9587 2.36049 17.9822C2.44135 18.0057 2.52685 18.0084 2.60903 17.99L6.53503 17.117C7.00247 17.0129 7.43054 16.7777 7.76903 16.439L15.751 8.457L11.544 4.25V4.25Z" fill="var(--iconPrimary)"/>
</svg>
