<svg width="21" height="20" viewBox="0 0 21 20" fill="none" xmlns="http://www.w3.org/2000/svg">
<path d="M6.58255 2C6.89255 2 7.17255 2.192 7.28255 2.482L9.55255 8.421C9.57255 8.461 9.58755 8.503 9.60055 8.546L9.63755 8.645L8.84555 10.772L8.35855 9.5H4.80455L4.03255 11.521C3.96147 11.7068 3.8195 11.8567 3.63787 11.9378C3.45624 12.0189 3.24983 12.0246 3.06405 11.9535C2.87826 11.8824 2.72832 11.7405 2.64721 11.5588C2.56611 11.3772 2.56047 11.1708 2.63155 10.985L5.88155 2.482C5.93577 2.34028 6.03171 2.21833 6.15668 2.13228C6.28166 2.04622 6.42981 2.0001 6.58155 2H6.58255ZM5.37855 8H7.78455L6.58255 4.85L5.37855 8ZM13.2875 5.49C13.2342 5.34655 13.1383 5.22285 13.0126 5.1355C12.887 5.04814 12.7376 5.00133 12.5845 5.00133C12.4315 5.00133 12.2821 5.04814 12.1565 5.1355C12.0308 5.22285 11.9349 5.34655 11.8815 5.49L7.77655 16.5H7.33855C7.13964 16.5 6.94887 16.579 6.80822 16.7197C6.66757 16.8603 6.58855 17.0511 6.58855 17.25C6.58855 17.4489 6.66757 17.6397 6.80822 17.7803C6.94887 17.921 7.13964 18 7.33855 18H9.83855C10.0375 18 10.2282 17.921 10.3689 17.7803C10.5095 17.6397 10.5885 17.4489 10.5885 17.25C10.5885 17.0511 10.5095 16.8603 10.3689 16.7197C10.2282 16.579 10.0375 16.5 9.83855 16.5H9.37755L10.1245 14.497H15.0435L15.7895 16.5H15.3345C15.1356 16.5 14.9449 16.579 14.8042 16.7197C14.6636 16.8603 14.5845 17.0511 14.5845 17.25C14.5845 17.4489 14.6636 17.6397 14.8042 17.7803C14.9449 17.921 15.1356 18 15.3345 18H17.8345C18.0335 18 18.2242 17.921 18.3649 17.7803C18.5055 17.6397 18.5845 17.4489 18.5845 17.25C18.5845 17.0511 18.5055 16.8603 18.3649 16.7197C18.2242 16.579 18.0335 16.5 17.8345 16.5H17.3905L13.2865 5.49H13.2875ZM14.4845 12.997H10.6845L12.5845 7.899L14.4845 12.997V12.997Z" fill="var(--iconPrimary)"/>
</svg>
