<svg width="21" height="20" viewBox="0 0 21 20" fill="none" xmlns="http://www.w3.org/2000/svg">
<path d="M8.58496 3.25C8.58496 3.05109 8.66398 2.86032 8.80463 2.71967C8.94528 2.57902 9.13605 2.5 9.33496 2.5H16.835C17.0339 2.5 17.2246 2.57902 17.3653 2.71967C17.5059 2.86032 17.585 3.05109 17.585 3.25C17.585 3.44891 17.5059 3.63968 17.3653 3.78033C17.2246 3.92098 17.0339 4 16.835 4H13.6L9.17696 15.5H11.835C12.0339 15.5 12.2246 15.579 12.3653 15.7197C12.5059 15.8603 12.585 16.0511 12.585 16.25C12.585 16.4489 12.5059 16.6397 12.3653 16.7803C12.2246 16.921 12.0339 17 11.835 17H4.33496C4.13605 17 3.94528 16.921 3.80463 16.7803C3.66398 16.6397 3.58496 16.4489 3.58496 16.25C3.58496 16.0511 3.66398 15.8603 3.80463 15.7197C3.94528 15.579 4.13605 15.5 4.33496 15.5H7.56996L11.993 4H9.33496C9.13605 4 8.94528 3.92098 8.80463 3.78033C8.66398 3.63968 8.58496 3.44891 8.58496 3.25Z" fill="var(--iconPrimary)"/>
</svg>
