<svg width="21" height="20" viewBox="0 0 21 20" fill="none" xmlns="http://www.w3.org/2000/svg">
<path d="M14.585 6C15.6286 5.99998 16.6308 6.40779 17.3779 7.1364C18.125 7.86502 18.5577 8.85674 18.5838 9.89997C18.6099 10.9432 18.2273 11.9553 17.5176 12.7204C16.8079 13.4854 15.8273 13.9428 14.785 13.995L14.585 14H12.585C12.395 13.9999 12.2121 13.9278 12.0732 13.798C11.9344 13.6683 11.85 13.4907 11.837 13.3011C11.824 13.1115 11.8835 12.9241 12.0035 12.7767C12.1234 12.6293 12.2948 12.5329 12.483 12.507L12.585 12.5H14.585C15.2349 12.5016 15.8599 12.25 16.3274 11.7987C16.795 11.3473 17.0684 10.7316 17.0898 10.082C17.1111 9.43251 16.8786 8.80019 16.4417 8.31913C16.0047 7.83806 15.3976 7.54605 14.749 7.505L14.585 7.5H12.585C12.395 7.49994 12.2121 7.42776 12.0732 7.29803C11.9344 7.1683 11.85 6.9907 11.837 6.80112C11.824 6.61154 11.8835 6.42411 12.0035 6.2767C12.1234 6.12929 12.2948 6.0329 12.483 6.007L12.585 6H14.585ZM8.58502 6C8.77505 6.00006 8.95797 6.07224 9.09682 6.20197C9.23567 6.3317 9.3201 6.5093 9.33305 6.69888C9.346 6.88846 9.28651 7.07589 9.16659 7.2233C9.04668 7.37071 8.87528 7.4671 8.68703 7.493L8.58502 7.5H6.58502C5.93514 7.49842 5.31018 7.74997 4.84261 8.20134C4.37504 8.65271 4.10162 9.26842 4.08029 9.91795C4.05896 10.5675 4.29141 11.1998 4.72837 11.6809C5.16532 12.1619 5.77243 12.4539 6.42102 12.495L6.58502 12.5H8.58502C8.77505 12.5001 8.95797 12.5722 9.09682 12.702C9.23567 12.8317 9.3201 13.0093 9.33305 13.1989C9.346 13.3885 9.28651 13.5759 9.16659 13.7233C9.04668 13.8707 8.87528 13.9671 8.68703 13.993L8.58502 14H6.58502C5.54147 14 4.53923 13.5922 3.79215 12.8636C3.04507 12.135 2.61231 11.1433 2.58621 10.1C2.56012 9.0568 2.94275 8.04468 3.65246 7.27963C4.36218 6.51457 5.34278 6.05716 6.38503 6.005L6.58502 6H8.58502ZM6.83502 9.25H14.335C14.525 9.25006 14.708 9.32224 14.8468 9.45197C14.9857 9.5817 15.0701 9.7593 15.0831 9.94888C15.096 10.1385 15.0365 10.3259 14.9166 10.4733C14.7967 10.6207 14.6253 10.7171 14.437 10.743L14.335 10.75H6.83502C6.645 10.7499 6.46208 10.6778 6.32323 10.548C6.18438 10.4183 6.09995 10.2407 6.087 10.0511C6.07405 9.86154 6.13354 9.67411 6.25346 9.5267C6.37337 9.37929 6.54477 9.2829 6.73302 9.257L6.83502 9.25H14.335H6.83502Z" fill="var(--iconPrimary)"/>
</svg>
