<svg xmlns="http://www.w3.org/2000/svg" width="20" height="20" viewBox="0 0 20 9" fill="none">
<path d="M19.9516 5.45059L19.7536 6.48759C19.5686 7.45859 18.6606 8.11059 17.6326 8.01159L15.5866 7.81359C14.6946 7.72759 13.9346 7.09359 13.7076 6.24759L13.0766 3.89259C12.1416 3.50959 11.1116 3.33459 9.9866 3.36759C8.90318 3.39089 7.83545 3.6313 6.8466 4.07459L6.4556 6.27959C6.3066 7.11559 5.6176 7.73859 4.7436 7.82659L2.7096 8.03059C1.6946 8.13259 0.720597 7.48659 0.432597 6.52059L0.122597 5.48359C-0.184403 4.45159 0.0895973 3.36559 0.844597 2.63259C2.6246 0.902586 5.5946 0.0345861 9.7516 0.0285861C13.9146 0.0235861 16.9756 0.886586 18.9356 2.61659C19.7606 3.34459 20.1456 4.42259 19.9506 5.45059H19.9516Z" fill="currentColor"/>
</svg>