<svg width="20" height="21" viewBox="0 0 20 21" fill="none" xmlns="http://www.w3.org/2000/svg">
  <path d="M1.5 10C1.5 7.74566 2.39553 5.58365 3.98959 3.98959C5.58365 2.39553 7.74566 1.5 10 1.5C12.2543 1.5 14.4163 2.39553 16.0104 3.98959C17.6045 5.58365 18.5 7.74566 18.5 10V12H16.25C16.0511 12 15.8603 12.079 15.7197 12.2197C15.579 12.3603 15.5 12.5511 15.5 12.75V19.25C15.5 19.664 15.836 20 16.25 20H17C17.7956 20 18.5587 19.6839 19.1213 19.1213C19.6839 18.5587 20 17.7956 20 17V10C20 4.477 15.523 0 10 0C4.477 0 0 4.477 0 10V17C0 17.7956 0.316071 18.5587 0.87868 19.1213C1.44129 19.6839 2.20435 20 3 20H3.75C3.94891 20 4.13968 19.921 4.28033 19.7803C4.42098 19.6397 4.5 19.4489 4.5 19.25V12.75C4.5 12.5511 4.42098 12.3603 4.28033 12.2197C4.13968 12.079 3.94891 12 3.75 12H1.5V10ZM18.5 13.5V17C18.5 17.3978 18.342 17.7794 18.0607 18.0607C17.7794 18.342 17.3978 18.5 17 18.5V13.5H18.5ZM1.5 17V13.5H3V18.5C2.60218 18.5 2.22064 18.342 1.93934 18.0607C1.65804 17.7794 1.5 17.3978 1.5 17ZM10.75 9.75C10.75 9.55109 10.671 9.36032 10.5303 9.21967C10.3897 9.07902 10.1989 9 10 9C9.80109 9 9.61032 9.07902 9.46967 9.21967C9.32902 9.36032 9.25 9.55109 9.25 9.75V20.25C9.25 20.4489 9.32902 20.6397 9.46967 20.7803C9.61032 20.921 9.80109 21 10 21C10.1989 21 10.3897 20.921 10.5303 20.7803C10.671 20.6397 10.75 20.4489 10.75 20.25V9.75ZM6.75 12C6.94891 12 7.13968 12.079 7.28033 12.2197C7.42098 12.3603 7.5 12.5511 7.5 12.75V17.25C7.5 17.4489 7.42098 17.6397 7.28033 17.7803C7.13968 17.921 6.94891 18 6.75 18C6.55109 18 6.36032 17.921 6.21967 17.7803C6.07902 17.6397 6 17.4489 6 17.25V12.75C6 12.5511 6.07902 12.3603 6.21967 12.2197C6.36032 12.079 6.55109 12 6.75 12ZM14 12.75C14 12.5511 13.921 12.3603 13.7803 12.2197C13.6397 12.079 13.4489 12 13.25 12C13.0511 12 12.8603 12.079 12.7197 12.2197C12.579 12.3603 12.5 12.5511 12.5 12.75V17.25C12.5 17.4489 12.579 17.6397 12.7197 17.7803C12.8603 17.921 13.0511 18 13.25 18C13.4489 18 13.6397 17.921 13.7803 17.7803C13.921 17.6397 14 17.4489 14 17.25V12.75Z" fill="currentColor"/>
</svg>
