<svg width="21" height="20" viewBox="0 0 21 20" fill="none" xmlns="http://www.w3.org/2000/svg">
  <path d="M20.5 10V17C20.5 17.7652 20.2077 18.5015 19.6827 19.0583C19.1578 19.615 18.4399 19.9501 17.676 19.995L17.5 20H14.5C14.2551 20 14.0187 19.91 13.8356 19.7473C13.6526 19.5845 13.5357 19.3603 13.507 19.117L13.5 19V13C13.5 12.7551 13.59 12.5187 13.7527 12.3356C13.9155 12.1526 14.1397 12.0357 14.383 12.007L14.5 12H19V10C19 7.74566 18.1045 5.58365 16.5104 3.98959C14.9163 2.39553 12.7543 1.5 10.5 1.5C8.24566 1.5 6.08365 2.39553 4.48959 3.98959C2.89553 5.58365 2 7.74566 2 10V12H6.5C6.76522 12 7.01957 12.1054 7.20711 12.2929C7.39464 12.4804 7.5 12.7348 7.5 13V19C7.5 19.2652 7.39464 19.5196 7.20711 19.7071C7.01957 19.8946 6.76522 20 6.5 20H3.5C2.70435 20 1.94129 19.6839 1.37868 19.1213C0.816071 18.5587 0.5 17.7956 0.5 17V10C0.5 4.477 4.977 0 10.5 0C16.023 0 20.5 4.477 20.5 10V17V10ZM6 13.5H2V17C2 17.3978 2.15804 17.7794 2.43934 18.0607C2.72064 18.342 3.10218 18.5 3.5 18.5H6V13.5ZM19 13.5H15V18.5H17.5C17.8727 18.5 18.2321 18.3612 18.5081 18.1108C18.7841 17.8603 18.957 17.516 18.993 17.145L19 17V13.5Z" fill="currentColor"/>
</svg>
