<svg width="21" height="21" viewBox="0 0 21 21" fill="none" xmlns="http://www.w3.org/2000/svg">
<path d="M20.5 10.519V12.269C20.5004 13.1228 20.2095 13.9511 19.6753 14.6172C19.1412 15.2832 18.3957 15.747 17.5622 15.9319C16.7287 16.1168 15.857 16.0118 15.0913 15.6341C14.3256 15.2565 13.7117 14.6288 13.351 13.855C12.533 14.875 11.34 15.519 10 15.519C7.492 15.519 5.5 13.261 5.5 10.519C5.5 7.77698 7.492 5.51898 10 5.51898C11.159 5.51898 12.208 6.00098 13.001 6.79098L13 6.26898C13.0001 6.07896 13.0722 5.89604 13.202 5.75719C13.3317 5.61834 13.5093 5.53391 13.6989 5.52096C13.8885 5.508 14.0759 5.5675 14.2233 5.68741C14.3707 5.80733 14.4671 5.97873 14.493 6.16698L14.5 6.26898V12.269C14.4989 12.8531 14.725 13.4147 15.1306 13.8351C15.5361 14.2556 16.0892 14.5018 16.673 14.5218C17.2567 14.5418 17.8254 14.334 18.2587 13.9423C18.6921 13.5506 18.9561 13.0058 18.995 12.423L19 12.269V10.519C18.9995 8.70784 18.4205 6.94421 17.3474 5.48519C16.2743 4.02617 14.7633 2.94806 13.0345 2.40802C11.3058 1.86797 9.4497 1.89424 7.73692 2.48298C6.02414 3.07173 4.54419 4.19217 3.51282 5.68097C2.48145 7.16977 1.95259 8.94908 2.00334 10.7595C2.05408 12.5699 2.68178 14.3168 3.79492 15.7455C4.90807 17.1742 6.44845 18.21 8.19152 18.7019C9.93459 19.1938 11.7892 19.116 13.485 18.48C13.6713 18.4101 13.8778 18.4171 14.0589 18.4994C14.2401 18.5817 14.3811 18.7327 14.451 18.919C14.5209 19.1053 14.5139 19.3117 14.4316 19.4929C14.3492 19.6741 14.1983 19.8151 14.012 19.885C12.8889 20.3056 11.6993 20.5204 10.5 20.519C4.977 20.519 0.5 16.042 0.5 10.519C0.5 4.99598 4.977 0.518982 10.5 0.518982C15.93 0.518982 20.348 4.84598 20.496 10.239L20.5 10.519V12.269V10.519ZM10 7.01898C8.365 7.01898 7 8.56698 7 10.519C7 12.471 8.365 14.019 10 14.019C11.634 14.019 13 12.471 13 10.519C13 8.56698 11.634 7.01898 10 7.01898Z" fill="var(--iconPrimary)"/>
</svg>
