<svg width="21" height="21" viewBox="0 0 21 21" fill="none" xmlns="http://www.w3.org/2000/svg">
<path d="M1.78003 1.22C1.71137 1.14631 1.62857 1.08721 1.53657 1.04622C1.44457 1.00523 1.34526 0.983186 1.24455 0.981409C1.14385 0.979633 1.04382 0.998157 0.950434 1.03588C0.857046 1.0736 0.772212 1.12974 0.700993 1.20096C0.629774 1.27218 0.57363 1.35702 0.535909 1.4504C0.498188 1.54379 0.479663 1.64382 0.48144 1.74452C0.483217 1.84523 0.505259 1.94454 0.546251 2.03654C0.587243 2.12854 0.646345 2.21134 0.720032 2.28L6.50003 8.06V11C6.49995 11.727 6.69801 12.4403 7.07294 13.0632C7.44786 13.6861 7.98545 14.195 8.62793 14.5353C9.27042 14.8756 9.99349 15.0343 10.7194 14.9944C11.4453 14.9546 12.1467 14.7176 12.748 14.309L13.894 15.455C12.9871 16.135 11.8836 16.5018 10.75 16.5H10.25L10.034 16.496C8.68011 16.4403 7.40019 15.8632 6.46197 14.8854C5.52375 13.9077 4.99992 12.6051 5.00003 11.25V10.75L4.99303 10.648C4.96713 10.4598 4.87074 10.2884 4.72333 10.1684C4.57592 10.0485 4.38849 9.98902 4.19891 10.002C4.00933 10.0149 3.83173 10.0994 3.702 10.2382C3.57228 10.3771 3.50009 10.56 3.50003 10.75V11.25L3.50403 11.486C3.56204 13.148 4.23158 14.7302 5.38424 15.929C6.5369 17.1278 8.09155 17.8588 9.75003 17.982V20.25L9.75703 20.352C9.78293 20.5403 9.87933 20.7117 10.0267 20.8316C10.1741 20.9515 10.3616 21.011 10.5512 20.998C10.7407 20.9851 10.9183 20.9006 11.0481 20.7618C11.1778 20.6229 11.25 20.44 11.25 20.25L11.251 17.982C12.6074 17.8829 13.9018 17.3745 14.963 16.524L19.219 20.78C19.3604 20.9167 19.5498 20.9924 19.7465 20.9908C19.9431 20.9891 20.1313 20.9104 20.2704 20.7714C20.4095 20.6324 20.4885 20.4443 20.4903 20.2477C20.4921 20.051 20.4166 19.8615 20.28 19.72L1.78003 1.22ZM11.656 13.217C11.275 13.4157 10.8491 13.5129 10.4195 13.499C9.98997 13.4852 9.57124 13.3608 9.20375 13.138C8.83625 12.9151 8.53242 12.6013 8.32157 12.2268C8.11072 11.8523 7.99998 11.4298 8.00003 11V9.56L11.656 13.217ZM13 5V10.318L14.43 11.748C14.476 11.506 14.5 11.256 14.5 11V5C14.5006 4.02993 14.1486 3.0927 13.5097 2.36281C12.8707 1.63292 11.9882 1.16011 11.0266 1.03242C10.0649 0.904722 9.08967 1.13084 8.28234 1.66867C7.47501 2.2065 6.89064 3.01939 6.63803 3.956L8.00003 5.318V5C8.00003 4.33696 8.26342 3.70108 8.73226 3.23223C9.20111 2.76339 9.83699 2.5 10.5 2.5C11.1631 2.5 11.799 2.76339 12.2678 3.23223C12.7366 3.70108 13 4.33696 13 5ZM15.696 13.014L16.842 14.16C17.2765 13.2515 17.5013 12.257 17.5 11.25V10.75L17.493 10.648C17.4671 10.4598 17.3707 10.2884 17.2233 10.1684C17.0759 10.0485 16.8885 9.98902 16.6989 10.002C16.5093 10.0149 16.3317 10.0994 16.202 10.2382C16.0723 10.3771 16.0001 10.56 16 10.75V11.25L15.996 11.466C15.9748 11.9942 15.8736 12.5161 15.696 13.014Z" fill="currentColor"/>
</svg>
