<svg width="20" height="20" viewBox="0 0 20 20" fill="none" xmlns="http://www.w3.org/2000/svg">
<path d="M10 2C12.1217 2 14.1566 2.84285 15.6569 4.34315C17.1571 5.84344 18 7.87827 18 10C18 12.1217 17.1571 14.1566 15.6569 15.6569C14.1566 17.1571 12.1217 18 10 18C7.87827 18 5.84344 17.1571 4.34315 15.6569C2.84285 14.1566 2 12.1217 2 10C2 7.87827 2.84285 5.84344 4.34315 4.34315C5.84344 2.84285 7.87827 2 10 2V2ZM10 12.5C9.80109 12.5 9.61032 12.579 9.46967 12.7197C9.32902 12.8603 9.25 13.0511 9.25 13.25C9.25 13.4489 9.32902 13.6397 9.46967 13.7803C9.61032 13.921 9.80109 14 10 14C10.1989 14 10.3897 13.921 10.5303 13.7803C10.671 13.6397 10.75 13.4489 10.75 13.25C10.75 13.0511 10.671 12.8603 10.5303 12.7197C10.3897 12.579 10.1989 12.5 10 12.5V12.5ZM10 6C9.88297 5.99996 9.76964 6.04097 9.67974 6.11589C9.58984 6.19081 9.52906 6.29489 9.508 6.41L9.5 6.5V11L9.508 11.09C9.52887 11.2053 9.58957 11.3096 9.67949 11.3847C9.76941 11.4598 9.88284 11.5009 10 11.5009C10.1172 11.5009 10.2306 11.4598 10.3205 11.3847C10.4104 11.3096 10.4711 11.2053 10.492 11.09L10.5 11V6.5L10.492 6.41C10.4709 6.29489 10.4102 6.19081 10.3203 6.11589C10.2304 6.04097 10.117 5.99996 10 6Z" fill="var(--iconPrimary)"/>
</svg>
