<svg width="20" height="20" viewBox="0 0 20 20" fill="none" xmlns="http://www.w3.org/2000/svg">
<path d="M10 6.5C9.77019 6.5 9.54262 6.45474 9.3303 6.36679C9.11798 6.27884 8.92507 6.14994 8.76256 5.98744C8.60006 5.82493 8.47116 5.63202 8.38321 5.4197C8.29527 5.20738 8.25 4.97981 8.25 4.75C8.25 4.52019 8.29527 4.29262 8.38321 4.0803C8.47116 3.86798 8.60006 3.67507 8.76256 3.51256C8.92507 3.35006 9.11798 3.22116 9.3303 3.13321C9.54262 3.04527 9.77019 3 10 3C10.4641 3 10.9092 3.18437 11.2374 3.51256C11.5656 3.84075 11.75 4.28587 11.75 4.75C11.75 5.21413 11.5656 5.65925 11.2374 5.98744C10.9092 6.31563 10.4641 6.5 10 6.5ZM10 17C9.53587 17 9.09075 16.8156 8.76256 16.4874C8.43437 16.1592 8.25 15.7141 8.25 15.25C8.25 14.7859 8.43437 14.3408 8.76256 14.0126C9.09075 13.6844 9.53587 13.5 10 13.5C10.4641 13.5 10.9092 13.6844 11.2374 14.0126C11.5656 14.3408 11.75 14.7859 11.75 15.25C11.75 15.7141 11.5656 16.1592 11.2374 16.4874C10.9092 16.8156 10.4641 17 10 17ZM8.25 10C8.25 10.2298 8.29527 10.4574 8.38321 10.6697C8.47116 10.882 8.60006 11.0749 8.76256 11.2374C8.92507 11.3999 9.11798 11.5288 9.3303 11.6168C9.54262 11.7047 9.77019 11.75 10 11.75C10.2298 11.75 10.4574 11.7047 10.6697 11.6168C10.882 11.5288 11.0749 11.3999 11.2374 11.2374C11.3999 11.0749 11.5288 10.882 11.6168 10.6697C11.7047 10.4574 11.75 10.2298 11.75 10C11.75 9.53587 11.5656 9.09075 11.2374 8.76256C10.9092 8.43437 10.4641 8.25 10 8.25C9.53587 8.25 9.09075 8.43437 8.76256 8.76256C8.43437 9.09075 8.25 9.53587 8.25 10Z" fill="var(--iconPrimary)"/>
</svg>
