<svg width="20" height="20" viewBox="0 0 20 20" fill="none" xmlns="http://www.w3.org/2000/svg">
<path d="M11.9971 3.00601C11.9971 2.13301 10.9571 1.67901 10.3171 2.27301L6.44507 5.86601C6.35271 5.95198 6.23125 5.99984 6.10507 6.00001H3.49707C3.09925 6.00001 2.71771 6.15804 2.43641 6.43935C2.15511 6.72065 1.99707 7.10218 1.99707 7.50001V12.5C1.99707 12.8978 2.15511 13.2794 2.43641 13.5607C2.71771 13.842 3.09925 14 3.49707 14H6.10507C6.23112 13.9999 6.35255 14.0474 6.44507 14.133L10.3171 17.727C10.9571 18.32 11.9971 17.867 11.9971 16.994V3.00601ZM13.1431 7.64601C13.1895 7.59944 13.2447 7.5625 13.3054 7.53729C13.3662 7.51209 13.4313 7.49911 13.4971 7.49911C13.5628 7.49911 13.628 7.51209 13.6887 7.53729C13.7494 7.5625 13.8046 7.59944 13.8511 7.64601L15.4971 9.29301L17.1431 7.64601C17.2368 7.55212 17.364 7.49932 17.4967 7.49923C17.5624 7.49918 17.6275 7.51208 17.6882 7.53717C17.7489 7.56227 17.8041 7.59908 17.8506 7.64551C17.8971 7.69193 17.9339 7.74705 17.9591 7.80773C17.9843 7.86841 17.9973 7.93346 17.9973 7.99915C17.9974 8.06485 17.9845 8.12991 17.9594 8.19063C17.9343 8.25134 17.8975 8.30652 17.8511 8.35301L16.2041 10L17.8511 11.646C17.8988 11.6921 17.9369 11.7473 17.9631 11.8083C17.9893 11.8693 18.0031 11.9349 18.0037 12.0013C18.0043 12.0677 17.9916 12.1335 17.9665 12.195C17.9413 12.2564 17.9042 12.3123 17.8573 12.3592C17.8103 12.4062 17.7545 12.4433 17.693 12.4684C17.6316 12.4936 17.5658 12.5062 17.4994 12.5056C17.433 12.5051 17.3674 12.4913 17.3064 12.4651C17.2454 12.4389 17.1902 12.4008 17.1441 12.353L15.4971 10.707L13.8511 12.353C13.8046 12.3995 13.7495 12.4364 13.6888 12.4616C13.6282 12.4868 13.5631 12.4997 13.4974 12.4998C13.4317 12.4998 13.3667 12.4869 13.3059 12.4618C13.2452 12.4367 13.1901 12.3999 13.1436 12.3535C13.0971 12.3071 13.0602 12.252 13.035 12.1913C13.0098 12.1306 12.9968 12.0656 12.9968 11.9999C12.9967 11.9342 13.0096 11.8691 13.0347 11.8084C13.0598 11.7477 13.0966 11.6925 13.1431 11.646L14.7901 10L13.1441 8.35301C13.0503 8.25924 12.9977 8.13209 12.9977 7.99951C12.9977 7.86692 13.0503 7.73977 13.1441 7.64601H13.1431Z" fill="var(--iconPrimary)"/>
</svg>
