<svg width="16" height="16" viewBox="0 0 16 16" fill="none" xmlns="http://www.w3.org/2000/svg">
<g id="Verified tick" clip-path="url(#clip0_31684_6040)">
<path id="Vector" d="M12.3553 2.83357C12.5073 3.20109 12.7989 3.49321 13.1662 3.64573L14.4541 4.17919C14.8217 4.33143 15.1137 4.62344 15.2659 4.99098C15.4182 5.35852 15.4182 5.77149 15.2659 6.13903L14.7328 7.42599C14.5805 7.7937 14.5803 8.20708 14.7333 8.57461L15.2655 9.86119C15.3409 10.0432 15.3798 10.2384 15.3798 10.4354C15.3799 10.6325 15.3411 10.8276 15.2657 11.0097C15.1902 11.1918 15.0797 11.3572 14.9403 11.4965C14.801 11.6358 14.6355 11.7463 14.4534 11.8217L13.1665 12.3547C12.7989 12.5067 12.5068 12.7984 12.3543 13.1657L11.8208 14.4536C11.6686 14.8211 11.3766 15.1131 11.009 15.2654C10.6415 15.4176 10.2285 15.4176 9.86099 15.2654L8.57403 14.7323C8.20648 14.5804 7.79366 14.5807 7.42634 14.7331L6.13845 15.2658C5.77111 15.4177 5.3585 15.4176 4.99126 15.2655C4.62402 15.1134 4.33217 14.8217 4.17982 14.4545L3.6462 13.1663C3.49424 12.7988 3.20256 12.5066 2.83527 12.3541L1.54739 11.8207C1.18 11.6685 0.88808 11.3767 0.735782 11.0093C0.583485 10.642 0.583278 10.2292 0.735208 9.86175L1.26829 8.57478C1.42015 8.20723 1.41984 7.79441 1.26742 7.42709L0.735111 6.13828C0.659639 5.95624 0.620778 5.76111 0.620746 5.56405C0.620714 5.36698 0.659514 5.17184 0.734926 4.98978C0.81034 4.80772 0.920888 4.6423 1.06026 4.50298C1.19962 4.36365 1.36508 4.25316 1.54716 4.1778L2.83413 3.64472C3.20132 3.4929 3.49327 3.20158 3.6459 2.83472L4.17936 1.54683C4.3316 1.17929 4.62361 0.887276 4.99115 0.735035C5.3587 0.582794 5.77166 0.582794 6.1392 0.735035L7.42617 1.26811C7.79372 1.41998 8.20654 1.41967 8.57386 1.26725L9.86229 0.735862C10.2298 0.583706 10.6427 0.583738 11.0101 0.735948C11.3776 0.888159 11.6696 1.18009 11.8218 1.54753L12.3555 2.8358L12.3553 2.83357Z" fill="#7BB5DF" style="fill:#7BB5DF;fill:color(display-p3 0.4824 0.7098 0.8745);fill-opacity:1;"/>
<path id="Vector_2" fill-rule="evenodd" clip-rule="evenodd" d="M11.1333 5.90291C11.2401 5.73503 11.276 5.53157 11.2328 5.33728C11.1897 5.14299 11.0711 4.9738 10.9033 4.86691C10.7354 4.76003 10.5319 4.72422 10.3376 4.76735C10.1433 4.81048 9.97414 4.92903 9.86726 5.09691L6.93026 9.71191L5.58626 8.03191C5.46201 7.8765 5.2811 7.7768 5.08335 7.75477C4.88559 7.73273 4.68718 7.79016 4.53176 7.91441C4.37634 8.03867 4.27665 8.21957 4.25462 8.41733C4.23258 8.61508 4.29001 8.8135 4.41426 8.96891L6.41426 11.4689C6.4888 11.5622 6.58453 11.6363 6.6935 11.6852C6.80246 11.734 6.92152 11.7561 7.04075 11.7497C7.15998 11.7432 7.27595 11.7084 7.37901 11.6481C7.48207 11.5877 7.56923 11.5037 7.63326 11.4029L11.1333 5.90291Z" fill="#E4E6F0" style="fill:#E4E6F0;fill:color(display-p3 0.8946 0.9013 0.9417);fill-opacity:1;"/>
</g>
<defs>
<clipPath id="clip0_31684_6040">
<rect width="16" height="16" fill="white" style="fill:white;fill-opacity:1;"/>
</clipPath>
</defs>
</svg>
