<svg width="21" height="20" viewBox="0 0 21 20" fill="none" xmlns="http://www.w3.org/2000/svg">
<g id="preview">
<path id="Vector" d="M4.50651 17.5C4.04818 17.5 3.65568 17.3367 3.32901 17.01C3.00235 16.6833 2.83929 16.2911 2.83985 15.8333V4.16667C2.83985 3.70833 3.00318 3.31583 3.32985 2.98917C3.65651 2.6625 4.04873 2.49945 4.50651 2.5H16.1732C16.6315 2.5 17.024 2.66333 17.3507 2.99C17.6773 3.31667 17.8404 3.70889 17.8398 4.16667V15.8333C17.8398 16.2917 17.6765 16.6842 17.3498 17.0108C17.0232 17.3375 16.631 17.5006 16.1732 17.5H4.50651ZM4.50651 15.8333H16.1732V5.83333H4.50651V15.8333ZM10.3398 14.1667C9.20096 14.1667 8.18346 13.8575 7.28734 13.2392C6.39123 12.6208 5.74207 11.8189 5.33985 10.8333C5.74262 9.84722 6.39179 9.045 7.28734 8.42667C8.1829 7.80834 9.2004 7.49945 10.3398 7.5C11.4787 7.5 12.4962 7.80917 13.3923 8.4275C14.2885 9.04583 14.9376 9.84778 15.3398 10.8333C14.9371 11.8194 14.2879 12.6217 13.3923 13.24C12.4968 13.8583 11.4793 14.1672 10.3398 14.1667ZM10.3398 12.0833C9.99262 12.0833 9.69735 11.9617 9.45401 11.7183C9.21068 11.475 9.08929 11.18 9.08985 10.8333C9.08985 10.4861 9.21151 10.1908 9.45484 9.9475C9.69818 9.70417 9.99318 9.58278 10.3398 9.58333C10.6871 9.58333 10.9823 9.705 11.2257 9.94833C11.469 10.1917 11.5904 10.4867 11.5898 10.8333C11.5898 11.1806 11.4682 11.4758 11.2248 11.7192C10.9815 11.9625 10.6865 12.0839 10.3398 12.0833ZM10.3398 12.9167C10.9232 12.9167 11.4162 12.7153 11.819 12.3125C12.2218 11.9097 12.4232 11.4167 12.4232 10.8333C12.4232 10.25 12.2218 9.75695 11.819 9.35417C11.4162 8.95139 10.9232 8.75 10.3398 8.75C9.75651 8.75 9.26346 8.95139 8.86068 9.35417C8.4579 9.75695 8.25651 10.25 8.25651 10.8333C8.25651 11.4167 8.4579 11.9097 8.86068 12.3125C9.26346 12.7153 9.75651 12.9167 10.3398 12.9167Z" fill="currentColor"/>
</g>
</svg>
