<svg width="20" height="21" viewBox="0 0 20 21" fill="none" xmlns="http://www.w3.org/2000/svg">
    <path fillRule="evenodd" clipRule="evenodd" d="M18 10.5C18 14.9183 14.4183 18.5 10 18.5C5.58172 18.5 2 14.9183 2 10.5C2 6.08172 5.58172 2.5 10 2.5C14.4183 2.5 18 6.08172 18 10.5ZM8.93934 7.43931C8.64645 7.73221 8.17157 7.73221 7.87868 7.43931C7.58579 7.14642 7.58579 6.67155 7.87868 6.37865C9.05025 5.20708 10.9497 5.20708 12.1213 6.37865C13.2929 7.55023 13.2929 9.44972 12.1213 10.6213C11.7288 11.0138 11.2528 11.2756 10.75 11.4051V11.75C10.75 12.1642 10.4142 12.5 10 12.5C9.58579 12.5 9.25 12.1642 9.25 11.75V11.25C9.25 10.5297 9.81995 10.0783 10.3313 9.96322C10.5982 9.90318 10.8516 9.76969 11.0607 9.56063C11.6464 8.97485 11.6464 8.0251 11.0607 7.43931C10.4749 6.85353 9.52513 6.85353 8.93934 7.43931ZM10 15.5C10.5523 15.5 11 15.0523 11 14.5C11 13.9477 10.5523 13.5 10 13.5C9.44771 13.5 9 13.9477 9 14.5C9 15.0523 9.44771 15.5 10 15.5Z" fill="var(--iconPrimary)"/>
</svg>