<svg width="20" height="20" viewBox="0 0 21 20" fill="none" xmlns="http://www.w3.org/2000/svg">
    <path d="M4.95469 10.498L7.91769 7.53505C8.05188 7.40122 8.13044 7.22156 8.13756 7.03217C8.14468 6.84279 8.07984 6.65773 7.95608 6.51421C7.83231 6.37068 7.6588 6.27933 7.47043 6.25852C7.28206 6.23772 7.09279 6.28899 6.94069 6.40205L6.85669 6.47505L2.61469 10.717C2.48741 10.8441 2.41002 11.0126 2.39662 11.192C2.38322 11.3713 2.4347 11.5495 2.54169 11.694L2.61469 11.778L6.85669 16.021C6.99013 16.157 7.17029 16.237 7.36059 16.2449C7.55089 16.2529 7.73709 16.1881 7.88139 16.0638C8.02569 15.9395 8.11728 15.7649 8.13758 15.5755C8.15788 15.3861 8.10536 15.1961 7.99069 15.044L7.91769 14.96L4.95469 11.998H10.6447C12.6575 11.998 14.5914 11.2149 16.037 9.81439C17.4827 8.41387 18.3268 6.50585 18.3907 4.49405L18.3947 4.24805C18.3947 4.04913 18.3157 3.85837 18.175 3.71772C18.0344 3.57706 17.8436 3.49805 17.6447 3.49805C17.4458 3.49805 17.255 3.57706 17.1144 3.71772C16.9737 3.85837 16.8947 4.04913 16.8947 4.24805C16.8945 5.86569 16.2671 7.42026 15.1444 8.58489C14.0217 9.74953 12.4912 10.4335 10.8747 10.493L10.6447 10.498H4.95469L7.91769 7.53505L4.95469 10.498Z" fill="var(--iconPrimary)" />
</svg>
