<svg width="20" height="20" viewBox="0 0 20 20" fill="none" xmlns="http://www.w3.org/2000/svg">
<path d="M14.7954 18C15.2197 18 15.6267 17.8314 15.9268 17.5314C16.2268 17.2313 16.3954 16.8243 16.3954 16.4V3.6C16.3954 3.17565 16.2268 2.76869 15.9268 2.46863C15.6267 2.16857 15.2197 2 14.7954 2H5.20498C4.78063 2 4.37367 2.16857 4.07361 2.46863C3.77355 2.76869 3.60498 3.17565 3.60498 3.6V16.4C3.60498 16.8243 3.77355 17.2313 4.07361 17.5314C4.37367 17.8314 4.78063 18 5.20498 18H14.7954ZM7.60498 4.4H12.405V6H7.60498V4.4ZM11.805 9.4C11.8031 9.87688 11.6129 10.3337 11.2757 10.671C10.9386 11.0083 10.4819 11.1987 10.005 11.2008C9.01698 11.2008 8.20498 10.3888 8.20498 9.4C8.20498 8.4112 9.01698 7.6 10.005 7.6C10.4818 7.6019 10.9385 7.79215 11.2757 8.1293C11.6128 8.46646 11.8031 8.92319 11.805 9.4ZM6.40498 14.9504C6.40498 13.6192 8.02738 12.2504 10.005 12.2504C11.9826 12.2504 13.605 13.6192 13.605 14.9504V15.4008H6.40498V14.9504Z" fill="currentColor"/>
</svg>
