<svg width="20" height="17" viewBox="0 0 20 17" fill="none" xmlns="http://www.w3.org/2000/svg">
    <path d="M12.807 5.99019C12.6738 5.8425 12.4875 5.75374 12.2889 5.74343C12.0903 5.73312 11.8957 5.80209 11.748 5.93519L9.248 8.18519C9.17001 8.25551 9.10766 8.34143 9.06498 8.43738C9.0223 8.53333 9.00025 8.63717 9.00025 8.74219C9.00025 8.8472 9.0223 8.95105 9.06498 9.047C9.10766 9.14295 9.17001 9.22886 9.248 9.29919L11.748 11.5492C11.8207 11.6175 11.9064 11.6707 11.9999 11.7055C12.0934 11.7404 12.193 11.7562 12.2927 11.7521C12.3925 11.7479 12.4904 11.7239 12.5807 11.6815C12.671 11.639 12.752 11.579 12.8188 11.5048C12.8856 11.4307 12.937 11.3439 12.9698 11.2497C13.0027 11.1554 13.0164 11.0556 13.0102 10.956C13.004 10.8563 12.978 10.759 12.9336 10.6695C12.8893 10.5801 12.8275 10.5004 12.752 10.4352L11.704 9.49219H15.25C15.4489 9.49219 15.6397 9.41317 15.7803 9.27252C15.921 9.13186 16 8.9411 16 8.74219C16 8.54328 15.921 8.35251 15.7803 8.21186C15.6397 8.07121 15.4489 7.99219 15.25 7.99219H11.704L12.752 7.04919C12.8997 6.91603 12.9884 6.72966 12.9988 6.53107C13.0091 6.33249 12.9401 6.13793 12.807 5.99019ZM0 3.49219C0 2.76284 0.289731 2.06337 0.805456 1.54764C1.32118 1.03192 2.02065 0.742187 2.75 0.742188H17.25C17.9793 0.742188 18.6788 1.03192 19.1945 1.54764C19.7103 2.06337 20 2.76284 20 3.49219V13.9922C20 14.3533 19.9289 14.7109 19.7907 15.0446C19.6525 15.3782 19.4499 15.6814 19.1945 15.9367C18.9392 16.1921 18.636 16.3947 18.3024 16.5329C17.9687 16.6711 17.6111 16.7422 17.25 16.7422H2.75C2.38886 16.7422 2.03127 16.6711 1.69762 16.5329C1.36398 16.3947 1.06082 16.1921 0.805456 15.9367C0.550095 15.6814 0.347532 15.3782 0.209331 15.0446C0.0711308 14.7109 0 14.3533 0 13.9922V3.49219ZM6.998 2.24219V15.2422H17.25C17.94 15.2422 18.5 14.6822 18.5 13.9922V3.49219C18.5 2.80219 17.94 2.24219 17.25 2.24219H6.998Z" fill="var(--iconPrimary)"/>
</svg>