<svg width="20" height="17" viewBox="0 0 20 17" fill="none" xmlns="http://www.w3.org/2000/svg">
    <path d="M7.193 5.99019C7.32616 5.8425 7.51253 5.75374 7.71111 5.74343C7.9097 5.73312 8.10425 5.80209 8.252 5.93519L10.752 8.18519C10.83 8.25551 10.8923 8.34143 10.935 8.43738C10.9777 8.53333 10.9998 8.63717 10.9998 8.74219C10.9998 8.8472 10.9777 8.95105 10.935 9.047C10.8923 9.14295 10.83 9.22886 10.752 9.29919L8.252 11.5492C8.17927 11.6175 8.09363 11.6707 8.00009 11.7055C7.90656 11.7404 7.807 11.7562 7.70728 11.7521C7.60755 11.7479 7.50965 11.7239 7.41931 11.6815C7.32898 11.639 7.24803 11.579 7.1812 11.5048C7.11438 11.4307 7.06303 11.3439 7.03016 11.2497C6.99729 11.1554 6.98356 11.0556 6.98978 10.956C6.996 10.8563 7.02205 10.759 7.06639 10.6695C7.11073 10.5801 7.17247 10.5004 7.248 10.4352L8.296 9.49219H4.75C4.55109 9.49219 4.36032 9.41317 4.21967 9.27252C4.07902 9.13186 4 8.9411 4 8.74219C4 8.54328 4.07902 8.35251 4.21967 8.21186C4.36032 8.07121 4.55109 7.99219 4.75 7.99219H8.296L7.248 7.04919C7.10031 6.91603 7.01156 6.72966 7.00124 6.53107C6.99093 6.33249 7.0599 6.13793 7.193 5.99019ZM20 3.49219C20 2.76284 19.7103 2.06337 19.1945 1.54764C18.6788 1.03192 17.9793 0.742187 17.25 0.742188H2.75C2.02065 0.742188 1.32118 1.03192 0.805456 1.54764C0.289732 2.06337 0 2.76284 0 3.49219V13.9922C0 14.3533 0.0711308 14.7109 0.209332 15.0446C0.347532 15.3782 0.550095 15.6814 0.805456 15.9367C1.06082 16.1921 1.36398 16.3947 1.69762 16.5329C2.03127 16.6711 2.38886 16.7422 2.75 16.7422H17.25C17.6111 16.7422 17.9687 16.6711 18.3024 16.5329C18.636 16.3947 18.9392 16.1921 19.1945 15.9367C19.4499 15.6814 19.6525 15.3782 19.7907 15.0446C19.9289 14.7109 20 14.3533 20 13.9922V3.49219ZM13.002 2.24219V15.2422H2.75C2.06 15.2422 1.5 14.6822 1.5 13.9922V3.49219C1.5 2.80219 2.06 2.24219 2.75 2.24219H13.002Z" fill="var(--iconPrimary)"/>
</svg>