<svg width="20" height="20" viewBox="0 0 20 20" fill="none" xmlns="http://www.w3.org/2000/svg">
<g id="spark">
<path id="Vector" opacity="0.2" d="M16.25 11.25C16.2505 12.8801 15.6142 14.4459 14.4767 15.6135C13.3392 16.7811 11.7905 17.458 10.1609 17.5C10.9615 17.4587 11.7156 17.1113 12.2673 16.5297C12.819 15.9481 13.1261 15.1767 13.125 14.375C13.125 11.25 10 9.375 10 9.375C10 9.375 6.875 11.25 6.875 14.375C6.87394 15.1767 7.18099 15.9481 7.73268 16.5297C8.28436 17.1113 9.03847 17.4587 9.83906 17.5C8.20951 17.458 6.66084 16.7811 5.52332 15.6135C4.3858 14.4459 3.74946 12.8801 3.75 11.25C3.75 5.625 10 1.875 10 1.875C10 1.875 16.25 5.625 16.25 11.25Z" fill="currentColor" />
<path id="Vector_2" d="M13.5773 4.02182C12.6058 2.99799 11.5125 2.09701 10.3219 1.33901C10.2247 1.28061 10.1134 1.24976 10 1.24976C9.8866 1.24976 9.77533 1.28061 9.67812 1.33901C8.4875 2.09701 7.39421 2.99799 6.42266 4.02182C4.26484 6.28745 3.125 8.78667 3.125 11.2499C3.125 13.0733 3.84933 14.822 5.13864 16.1113C6.42795 17.4006 8.17664 18.1249 10 18.1249C11.8234 18.1249 13.572 17.4006 14.8614 16.1113C16.1507 14.822 16.875 13.0733 16.875 11.2499C16.875 8.78667 15.7352 6.28745 13.5773 4.02182ZM7.5 14.3749C7.5 12.2132 9.26016 10.6812 10 10.1328C10.7406 10.6796 12.5 12.2132 12.5 14.3749C12.5 15.038 12.2366 15.6739 11.7678 16.1427C11.2989 16.6116 10.663 16.8749 10 16.8749C9.33696 16.8749 8.70107 16.6116 8.23223 16.1427C7.76339 15.6739 7.5 15.038 7.5 14.3749ZM13.5367 15.6195C13.6779 15.2197 13.7501 14.7989 13.75 14.3749C13.75 10.9374 10.4617 8.92261 10.3219 8.83901C10.2247 8.78061 10.1134 8.74976 10 8.74976C9.8866 8.74976 9.77533 8.78061 9.67812 8.83901C9.53828 8.92261 6.25 10.9374 6.25 14.3749C6.24994 14.7989 6.32206 15.2197 6.46328 15.6195C5.81123 15.0931 5.28525 14.4275 4.9239 13.6714C4.56256 12.9153 4.375 12.0879 4.375 11.2499C4.375 8.56167 5.96875 6.31636 7.30625 4.90698C8.12175 4.05266 9.02461 3.28623 10 2.62026C10.9755 3.28603 11.8784 4.05248 12.6937 4.90698C15.1164 7.46089 15.625 9.76557 15.625 11.2499C15.625 12.0879 15.4374 12.9153 15.0761 13.6714C14.7148 14.4275 14.1888 15.0931 13.5367 15.6195Z" fill="currentColor" />
<g id="Vector_3">
<path d="M13.3744 1.71694C13.2766 1.81473 13.2217 1.94735 13.2217 2.08564C13.2217 2.22392 13.2766 2.35655 13.3744 2.45433C13.4722 2.55211 13.6048 2.60705 13.7431 2.60705H14.7859V3.64986C14.7859 3.78815 14.8408 3.92077 14.9386 4.01856C15.0364 4.11634 15.169 4.17127 15.3073 4.17127C15.4456 4.17127 15.5782 4.11634 15.676 4.01856C15.7738 3.92077 15.8287 3.78815 15.8287 3.64986V2.60705H16.8715C17.0098 2.60705 17.1425 2.55211 17.2402 2.45433C17.338 2.35655 17.393 2.22392 17.393 2.08564C17.393 1.94735 17.338 1.81473 17.2402 1.71694C17.1425 1.61916 17.0098 1.56423 16.8715 1.56423H15.8287V0.521409C15.8287 0.383123 15.7738 0.2505 15.676 0.152717C15.5782 0.054934 15.4456 0 15.3073 0C15.169 0 15.0364 0.054934 14.9386 0.152717C14.8408 0.2505 14.7859 0.383123 14.7859 0.521409V1.56423H13.7431C13.6048 1.56423 13.4722 1.61916 13.3744 1.71694Z" fill="currentColor" />
<path d="M19.8473 5.58278C19.9451 5.485 20 5.35238 20 5.21409C20 5.07581 19.9451 4.94318 19.8473 4.8454C19.7495 4.74762 19.6169 4.69268 19.4786 4.69268H18.9572V4.17127C18.9572 4.03299 18.9022 3.90037 18.8045 3.80258C18.7067 3.7048 18.5741 3.64986 18.4358 3.64986C18.2975 3.64986 18.1649 3.7048 18.0671 3.80258C17.9693 3.90037 17.9144 4.03299 17.9144 4.17127V4.69268H17.393C17.2547 4.69268 17.122 4.74762 17.0243 4.8454C16.9265 4.94318 16.8715 5.07581 16.8715 5.21409C16.8715 5.35238 16.9265 5.485 17.0243 5.58278C17.122 5.68057 17.2547 5.7355 17.393 5.7355H17.9144V6.25691C17.9144 6.3952 17.9693 6.52782 18.0671 6.6256C18.1649 6.72339 18.2975 6.77832 18.4358 6.77832C18.5741 6.77832 18.7067 6.72339 18.8045 6.6256C18.9022 6.52782 18.9572 6.3952 18.9572 6.25691V5.7355H19.4786C19.6169 5.7355 19.7495 5.68057 19.8473 5.58278Z" fill="currentColor" />
</g>
</g>
</svg>
