<svg width="21" height="21" viewBox="0 0 21 21" fill="none" xmlns="http://www.w3.org/2000/svg">
<path d="M10.5 2.75598C14.9184 2.75598 18.5 6.33758 18.5 10.756C18.5 15.1744 14.9184 18.756 10.5 18.756C6.0816 18.756 2.5 15.1744 2.5 10.756C2.5 6.33758 6.0816 2.75598 10.5 2.75598ZM9.9344 7.92718L7.6712 10.1904C7.52122 10.3404 7.43697 10.5438 7.43697 10.756C7.43697 10.9681 7.52122 11.1716 7.6712 11.3216L9.9344 13.5848C10.0844 13.7348 10.2879 13.819 10.5 13.819C10.7121 13.819 10.9156 13.7348 11.0656 13.5848L13.3288 11.3216C13.4788 11.1716 13.563 10.9681 13.563 10.756C13.563 10.5438 13.4788 10.3404 13.3288 10.1904L11.0656 7.92718C10.9156 7.7772 10.7121 7.69295 10.5 7.69295C10.2879 7.69295 10.0844 7.7772 9.9344 7.92718Z" fill="currentColor"/>
</svg>
