<svg width="429" height="416" viewBox="0 0 429 416" fill="none" xmlns="http://www.w3.org/2000/svg">
<g filter="url(#filter0_diii_36312_928)">
<mask id="path-1-inside-1_36312_928" fill="white">
<path d="M216.463 404C326.92 404 416.463 314.457 416.463 204C416.463 93.5431 326.92 4 216.463 4C106.006 4 16.4629 93.5431 16.4629 204C16.4629 239.571 25.749 272.973 42.0291 301.914C44.9357 307.081 45.1002 313.407 42.136 318.541L6.8989 379.574C0.740511 390.24 8.43851 403.574 20.7553 403.574H203.299C207.65 403.856 212.04 404 216.463 404Z"/>
</mask>
<path d="M216.463 404C326.92 404 416.463 314.457 416.463 204C416.463 93.5431 326.92 4 216.463 4C106.006 4 16.4629 93.5431 16.4629 204C16.4629 239.571 25.749 272.973 42.0291 301.914C44.9357 307.081 45.1002 313.407 42.136 318.541L6.8989 379.574C0.740511 390.24 8.43851 403.574 20.7553 403.574H203.299C207.65 403.856 212.04 404 216.463 404Z" fill="url(#paint0_linear_36312_928)" style=""/>
<path d="M203.299 403.574L203.623 398.584L203.461 398.574H203.299V403.574ZM42.0291 301.914L37.6713 304.365L42.0291 301.914ZM42.136 318.541L46.4662 321.041L42.136 318.541ZM411.463 204C411.463 311.696 324.158 399 216.463 399V409C329.681 409 421.463 317.218 421.463 204H411.463ZM216.463 9C324.158 9 411.463 96.3045 411.463 204H421.463C421.463 90.7816 329.681 -1 216.463 -1V9ZM21.4629 204C21.4629 96.3045 108.767 9 216.463 9V-1C103.245 -1 11.4629 90.7816 11.4629 204H21.4629ZM46.3869 299.462C30.5169 271.25 21.4629 238.69 21.4629 204H11.4629C11.4629 240.451 20.9811 274.695 37.6713 304.365L46.3869 299.462ZM11.229 382.074L46.4662 321.041L37.8059 316.041L2.56878 377.074L11.229 382.074ZM203.299 398.574H20.7553V408.574H203.299V398.574ZM216.463 399C212.148 399 207.867 398.86 203.623 398.584L202.975 408.563C207.434 408.853 211.932 409 216.463 409V399ZM2.56878 377.074C-5.51411 391.074 4.58951 408.574 20.7553 408.574V398.574C12.2875 398.574 6.99514 389.407 11.229 382.074L2.56878 377.074ZM37.6713 304.365C39.7784 308.111 39.8211 312.551 37.8059 316.041L46.4662 321.041C50.3794 314.263 50.093 306.05 46.3869 299.462L37.6713 304.365Z" fill="white" fill-opacity="0.5" style="fill:white;fill-opacity:0.5;" mask="url(#path-1-inside-1_36312_928)"/>
</g>
<path fill-rule="evenodd" clip-rule="evenodd" d="M318.165 127.906C338.513 132.116 356.697 143.517 371.803 158.031C376.654 162.692 377.514 170.029 374.391 175.987V175.987C369.196 185.898 355.69 187.531 346.799 180.738C336.471 172.847 325.33 167.269 313.823 164.888C301.649 162.368 288.441 163.289 274.49 169.634C264.18 174.324 251.021 171.111 246.744 160.623V160.623C243.901 153.652 245.923 145.521 252.257 141.452C274.513 127.154 296.991 123.524 318.165 127.906Z" fill="#5C9AD5" style="fill:#5C9AD5;fill:color(display-p3 0.3608 0.6039 0.8353);fill-opacity:1;"/>
<path fill-rule="evenodd" clip-rule="evenodd" d="M123.311 127.917C102.964 132.128 84.7799 143.528 69.6737 158.043C64.8225 162.704 63.9625 170.04 67.0857 175.999V175.999C72.2803 185.909 85.7864 187.542 94.6777 180.749C105.005 172.859 116.146 167.281 127.653 164.9C139.827 162.38 153.036 163.301 166.986 169.646C177.297 174.336 190.455 171.123 194.733 160.635V160.635C197.576 153.664 195.553 145.533 189.219 141.464C166.964 127.166 144.485 123.536 123.311 127.917Z" fill="#5C9AD5" style="fill:#5C9AD5;fill:color(display-p3 0.3608 0.6039 0.8353);fill-opacity:1;"/>
<defs>
<filter id="filter0_diii_36312_928" x="-52.2686" y="-4" width="480.731" height="420" filterUnits="userSpaceOnUse" color-interpolation-filters="sRGB">
<feFlood flood-opacity="0" result="BackgroundImageFix"/>
<feColorMatrix in="SourceAlpha" type="matrix" values="0 0 0 0 0 0 0 0 0 0 0 0 0 0 0 0 0 0 127 0" result="hardAlpha"/>
<feOffset dx="4" dy="4"/>
<feGaussianBlur stdDeviation="4"/>
<feComposite in2="hardAlpha" operator="out"/>
<feColorMatrix type="matrix" values="0 0 0 0 0.243697 0 0 0 0 0.392514 0 0 0 0 0.534131 0 0 0 0.5 0"/>
<feBlend mode="normal" in2="BackgroundImageFix" result="effect1_dropShadow_36312_928"/>
<feBlend mode="normal" in="SourceGraphic" in2="effect1_dropShadow_36312_928" result="shape"/>
<feColorMatrix in="SourceAlpha" type="matrix" values="0 0 0 0 0 0 0 0 0 0 0 0 0 0 0 0 0 0 127 0" result="hardAlpha"/>
<feOffset dx="-64"/>
<feGaussianBlur stdDeviation="28.5"/>
<feComposite in2="hardAlpha" operator="arithmetic" k2="-1" k3="1"/>
<feColorMatrix type="matrix" values="0 0 0 0 0.360784 0 0 0 0 0.603922 0 0 0 0 0.835294 0 0 0 1 0"/>
<feBlend mode="normal" in2="shape" result="effect2_innerShadow_36312_928"/>
<feColorMatrix in="SourceAlpha" type="matrix" values="0 0 0 0 0 0 0 0 0 0 0 0 0 0 0 0 0 0 127 0" result="hardAlpha"/>
<feOffset dx="-32" dy="-8"/>
<feGaussianBlur stdDeviation="4"/>
<feComposite in2="hardAlpha" operator="arithmetic" k2="-1" k3="1"/>
<feColorMatrix type="matrix" values="0 0 0 0 0.360784 0 0 0 0 0.603922 0 0 0 0 0.835294 0 0 0 1 0"/>
<feBlend mode="normal" in2="effect2_innerShadow_36312_928" result="effect3_innerShadow_36312_928"/>
<feColorMatrix in="SourceAlpha" type="matrix" values="0 0 0 0 0 0 0 0 0 0 0 0 0 0 0 0 0 0 127 0" result="hardAlpha"/>
<feOffset dx="24" dy="16"/>
<feGaussianBlur stdDeviation="4"/>
<feComposite in2="hardAlpha" operator="arithmetic" k2="-1" k3="1"/>
<feColorMatrix type="matrix" values="0 0 0 0 0.974805 0 0 0 0 0.987715 0 0 0 0 1 0 0 0 0.5 0"/>
<feBlend mode="normal" in2="effect3_innerShadow_36312_928" result="effect4_innerShadow_36312_928"/>
</filter>
<linearGradient id="paint0_linear_36312_928" x1="416.463" y1="204" x2="25.4477" y2="204" gradientUnits="userSpaceOnUse">
<stop stop-color="#5C9AD5" style="stop-color:#5C9AD5;stop-color:color(display-p3 0.3608 0.6039 0.8353);stop-opacity:1;"/>
<stop offset="0.5" stop-color="#C6DCF0" style="stop-color:#C6DCF0;stop-color:color(display-p3 0.7782 0.8626 0.9429);stop-opacity:1;"/>
<stop offset="0.5" stop-color="white" style="stop-color:white;stop-opacity:1;"/>
<stop offset="1" stop-color="white" style="stop-color:white;stop-opacity:1;"/>
</linearGradient>
</defs>
</svg>
