<svg width="25" height="24" viewBox="0 0 25 24" fill="none" xmlns="http://www.w3.org/2000/svg">
<g clip-path="url(#clip0_32675_41610)">
<path opacity="0.2" d="M19.7188 6V7.5H17.4688C17.0709 7.5 16.6894 7.65804 16.4081 7.93934C16.1268 8.22064 15.9688 8.60218 15.9688 9V16.5H4.71875C4.32093 16.5 3.93939 16.342 3.65809 16.0607C3.37679 15.7794 3.21875 15.3978 3.21875 15V6C3.21875 5.60218 3.37679 5.22064 3.65809 4.93934C3.93939 4.65804 4.32093 4.5 4.71875 4.5H18.2188C18.6166 4.5 18.9981 4.65804 19.2794 4.93934C19.5607 5.22064 19.7188 5.60218 19.7188 6Z" fill="#717171" style="fill:#717171;fill:color(display-p3 0.4431 0.4431 0.4431);fill-opacity:1;"/>
<path d="M21.9688 6.75H20.4688V6C20.4688 5.40326 20.2317 4.83097 19.8097 4.40901C19.3878 3.98705 18.8155 3.75 18.2188 3.75H4.71875C4.12201 3.75 3.54972 3.98705 3.12776 4.40901C2.7058 4.83097 2.46875 5.40326 2.46875 6V15C2.46875 15.5967 2.7058 16.169 3.12776 16.591C3.54972 17.0129 4.12201 17.25 4.71875 17.25H15.2188V18C15.2188 18.5967 15.4558 19.169 15.8778 19.591C16.2997 20.0129 16.872 20.25 17.4688 20.25H21.9688C22.5655 20.25 23.1378 20.0129 23.5597 19.591C23.9817 19.169 24.2188 18.5967 24.2188 18V9C24.2188 8.40326 23.9817 7.83097 23.5597 7.40901C23.1378 6.98705 22.5655 6.75 21.9688 6.75ZM4.71875 15.75C4.51984 15.75 4.32907 15.671 4.18842 15.5303C4.04777 15.3897 3.96875 15.1989 3.96875 15V6C3.96875 5.80109 4.04777 5.61032 4.18842 5.46967C4.32907 5.32902 4.51984 5.25 4.71875 5.25H18.2188C18.4177 5.25 18.6084 5.32902 18.7491 5.46967C18.8897 5.61032 18.9688 5.80109 18.9688 6V6.75H17.4688C16.872 6.75 16.2997 6.98705 15.8778 7.40901C15.4558 7.83097 15.2188 8.40326 15.2188 9V15.75H4.71875ZM22.7188 18C22.7188 18.1989 22.6397 18.3897 22.4991 18.5303C22.3584 18.671 22.1677 18.75 21.9688 18.75H17.4688C17.2698 18.75 17.0791 18.671 16.9384 18.5303C16.7978 18.3897 16.7188 18.1989 16.7188 18V9C16.7188 8.80109 16.7978 8.61032 16.9384 8.46967C17.0791 8.32902 17.2698 8.25 17.4688 8.25H21.9688C22.1677 8.25 22.3584 8.32902 22.4991 8.46967C22.6397 8.61032 22.7188 8.80109 22.7188 9V18ZM13.7188 19.5C13.7188 19.6989 13.6397 19.8897 13.4991 20.0303C13.3584 20.171 13.1677 20.25 12.9688 20.25H9.21875C9.01984 20.25 8.82907 20.171 8.68842 20.0303C8.54777 19.8897 8.46875 19.6989 8.46875 19.5C8.46875 19.3011 8.54777 19.1103 8.68842 18.9697C8.82907 18.829 9.01984 18.75 9.21875 18.75H12.9688C13.1677 18.75 13.3584 18.829 13.4991 18.9697C13.6397 19.1103 13.7188 19.3011 13.7188 19.5ZM21.2188 10.5C21.2188 10.6989 21.1397 10.8897 20.9991 11.0303C20.8584 11.171 20.6677 11.25 20.4688 11.25H18.9688C18.7698 11.25 18.5791 11.171 18.4384 11.0303C18.2978 10.8897 18.2188 10.6989 18.2188 10.5C18.2188 10.3011 18.2978 10.1103 18.4384 9.96967C18.5791 9.82902 18.7698 9.75 18.9688 9.75H20.4688C20.6677 9.75 20.8584 9.82902 20.9991 9.96967C21.1397 10.1103 21.2188 10.3011 21.2188 10.5Z" fill="#717171" style="fill:#717171;fill:color(display-p3 0.4431 0.4431 0.4431);fill-opacity:1;"/>
</g>
<defs>
<clipPath id="clip0_32675_41610">
<rect width="24" height="24" fill="white" style="fill:white;fill-opacity:1;" transform="translate(0.96875)"/>
</clipPath>
</defs>
</svg>
