<svg width="61" height="60" viewBox="0 0 61 60" fill="none" xmlns="http://www.w3.org/2000/svg">
<g clip-path="url(#clip0_32675_41589)">
<rect opacity="0.2" x="6.98682" y="6.43359" width="47.133" height="47.133" rx="11" fill="url(#paint0_linear_32675_41589)" style=""/>
</g>
<path d="M24.4687 52.5C18.8687 52.5 16.0688 52.5 13.9288 51.41C12.0472 50.4513 10.5175 48.9215 9.55875 47.04C8.46875 44.9 8.46875 42.1 8.46875 36.5M53.4688 36.5C53.4688 42.1 53.4687 44.9 52.3787 47.04C51.42 48.9215 49.8903 50.4513 48.0087 51.41C45.8687 52.5 43.0688 52.5 37.4688 52.5M37.4688 7.5C43.0688 7.5 45.8687 7.5 48.0087 8.59C49.8903 9.54872 51.42 11.0785 52.3787 12.96C53.4687 15.1 53.4688 17.9 53.4688 23.5M24.4687 7.5C18.8687 7.5 16.0688 7.5 13.9288 8.59C12.0472 9.54872 10.5175 11.0785 9.55875 12.96C8.46875 15.1 8.46875 17.9 8.46875 23.5" stroke="url(#paint1_linear_32675_41589)" style="" stroke-width="3.75" stroke-linecap="round" stroke-linejoin="round"/>
<path fill-rule="evenodd" clip-rule="evenodd" d="M42.3569 17.183C44.7741 17.6832 46.9325 19.0436 48.7219 20.7731C49.2542 21.2877 49.2958 22.1141 48.8657 22.7167C48.2802 23.5372 47.0889 23.5982 46.3238 22.9418C44.9447 21.7585 43.4239 20.9213 41.8448 20.5945C40.2212 20.2585 38.4416 20.4412 36.5559 21.4809C35.667 21.9711 34.4986 21.7476 34.0156 20.8548C33.6401 20.1606 33.8102 19.2871 34.4701 18.854C37.132 17.1068 39.8236 16.6587 42.3569 17.183Z" fill="#181818" style="fill:#181818;fill:color(display-p3 0.0941 0.0941 0.0941);fill-opacity:1;"/>
<path fill-rule="evenodd" clip-rule="evenodd" d="M19.2632 17.183C16.846 17.6832 14.6876 19.0436 12.8982 20.7731C12.3659 21.2877 12.3243 22.1141 12.7544 22.7167C13.34 23.5372 14.5312 23.5982 15.2963 22.9418C16.6755 21.7585 18.1962 20.9213 19.7754 20.5945C21.3989 20.2585 23.1785 20.4412 25.0642 21.4809C25.9531 21.9711 27.1215 21.7476 27.6045 20.8548C27.9801 20.1606 27.8099 19.2871 27.1501 18.854C24.4881 17.1068 21.7965 16.6587 19.2632 17.183Z" fill="#181818" style="fill:#181818;fill:color(display-p3 0.0941 0.0941 0.0941);fill-opacity:1;"/>
<path d="M29.7124 37.0195H32.2124V27.0195" stroke="url(#paint2_linear_32675_41589)" style="" stroke-width="3.75" stroke-linecap="round" stroke-linejoin="round"/>
<defs>
<linearGradient id="paint0_linear_32675_41589" x1="30.5533" y1="6.43359" x2="30.5533" y2="53.5666" gradientUnits="userSpaceOnUse">
<stop stop-color="#4072BE" style="stop-color:#4072BE;stop-color:color(display-p3 0.2510 0.4471 0.7451);stop-opacity:1;"/>
</linearGradient>
<linearGradient id="paint1_linear_32675_41589" x1="30.9688" y1="7.5" x2="30.9688" y2="52.5" gradientUnits="userSpaceOnUse">
<stop stop-color="#A0BCE1" style="stop-color:#A0BCE1;stop-color:color(display-p3 0.6275 0.7373 0.8824);stop-opacity:1;"/>
<stop offset="1" stop-color="#181818" style="stop-color:#181818;stop-color:color(display-p3 0.0941 0.0941 0.0941);stop-opacity:1;"/>
</linearGradient>
<linearGradient id="paint2_linear_32675_41589" x1="30.9624" y1="27.0195" x2="30.9624" y2="37.0195" gradientUnits="userSpaceOnUse">
<stop stop-color="#A0BCE1" style="stop-color:#A0BCE1;stop-color:color(display-p3 0.6275 0.7373 0.8824);stop-opacity:1;"/>
<stop offset="1" stop-color="#181818" style="stop-color:#181818;stop-color:color(display-p3 0.0941 0.0941 0.0941);stop-opacity:1;"/>
</linearGradient>
<clipPath id="clip0_32675_41589">
<rect width="23.75" height="47.5" fill="white" style="fill:white;fill-opacity:1;" transform="translate(7.21875 6.25)"/>
</clipPath>
</defs>
</svg>
