<svg width="61" height="60" viewBox="0 0 61 60" fill="none" xmlns="http://www.w3.org/2000/svg">
<path opacity="0.2" d="M53.4688 30C53.4688 34.4501 52.1492 38.8002 49.6768 42.5003C47.2045 46.2004 43.6905 49.0843 39.5791 50.7873C35.4678 52.4903 30.9438 52.9358 26.5792 52.0677C22.2147 51.1995 18.2055 49.0566 15.0589 45.9099C11.9122 42.7632 9.76926 38.7541 8.90109 34.3895C8.03292 30.025 8.4785 25.501 10.1815 21.3896C11.8844 17.2783 14.7683 13.7643 18.4684 11.2919C22.1685 8.8196 26.5187 7.5 30.9688 7.5C36.9361 7.5 42.6591 9.87053 46.8787 14.0901C51.0982 18.3097 53.4688 24.0326 53.4688 30Z" fill="url(#paint0_linear_32675_41596)" style=""/>
<path d="M17.8439 30C17.8573 34.9183 16.7208 39.7716 14.5251 44.1727C14.4203 44.4008 14.2708 44.6056 14.0853 44.7749C13.8998 44.9442 13.6823 45.0745 13.4455 45.1581C13.2087 45.2417 12.9576 45.2768 12.707 45.2615C12.4563 45.2462 12.2113 45.1807 11.9865 45.069C11.7617 44.9572 11.5616 44.8013 11.3981 44.6108C11.2346 44.4202 11.1111 44.1987 11.0348 43.9595C10.9586 43.7202 10.9312 43.4681 10.9542 43.2181C10.9772 42.9681 11.0502 42.7252 11.1689 42.5039C13.1048 38.6208 14.1065 34.3389 14.0939 30C14.0895 27.4698 14.6563 24.9712 15.752 22.6905C16.8476 20.4099 18.444 18.4059 20.422 16.8281C20.8102 16.5173 21.306 16.3735 21.8002 16.4282C22.2945 16.4829 22.7468 16.7317 23.0576 17.1199C23.3684 17.5081 23.5122 18.0039 23.4575 18.4981C23.4028 18.9924 23.154 19.4447 22.7658 19.7555C21.227 20.9823 19.9851 22.5408 19.1329 24.3147C18.2806 26.0886 17.84 28.032 17.8439 30ZM30.9689 28.125C30.4716 28.125 29.9947 28.3225 29.6431 28.6742C29.2914 29.0258 29.0939 29.5027 29.0939 30C29.0935 37.305 27.2387 44.4903 23.7033 50.8828C23.4621 51.3179 23.4036 51.831 23.5408 52.3093C23.6779 52.7875 23.9994 53.1916 24.4345 53.4328C24.8696 53.674 25.3827 53.7324 25.861 53.5953C26.3392 53.4582 26.7433 53.1367 26.9845 52.7016C30.8273 45.7522 32.8433 37.9411 32.8439 30C32.8439 29.5027 32.6463 29.0258 32.2947 28.6742C31.9431 28.3225 31.4662 28.125 30.9689 28.125ZM30.9689 20.625C28.4825 20.625 26.0979 21.6127 24.3398 23.3709C22.5816 25.129 21.5939 27.5136 21.5939 30C21.5939 30.4973 21.7914 30.9742 22.1431 31.3258C22.4947 31.6775 22.9716 31.875 23.4689 31.875C23.9662 31.875 24.4431 31.6775 24.7947 31.3258C25.1463 30.9742 25.3439 30.4973 25.3439 30C25.3439 28.5082 25.9365 27.0774 26.9914 26.0225C28.0463 24.9676 29.477 24.375 30.9689 24.375C32.4607 24.375 33.8915 24.9676 34.9464 26.0225C36.0013 27.0774 36.5939 28.5082 36.5939 30C36.6133 37.4554 34.9712 44.8214 31.7869 51.5625C31.6817 51.7858 31.6217 52.0276 31.61 52.2741C31.5983 52.5207 31.6354 52.7671 31.7189 52.9993C31.8025 53.2315 31.931 53.445 32.0971 53.6276C32.2631 53.8101 32.4636 53.9582 32.6869 54.0633C32.9102 54.1684 33.152 54.2285 33.3985 54.2401C33.645 54.2518 33.8914 54.2148 34.1236 54.1312C34.3559 54.0476 34.5693 53.9191 34.7519 53.7531C34.9345 53.587 35.0825 53.3866 35.1876 53.1633C38.6056 45.921 40.367 38.0082 40.3439 30C40.3439 27.5136 39.3562 25.129 37.598 23.3709C35.8399 21.6127 33.4553 20.625 30.9689 20.625ZM30.9689 5.625C24.5063 5.63182 18.3104 8.20209 13.7407 12.7718C9.17098 17.3415 6.60071 23.5374 6.59389 30C6.59737 32.3414 6.20105 34.6662 5.42201 36.8742C5.25635 37.3432 5.28379 37.8588 5.49829 38.3076C5.71278 38.7564 6.09676 39.1015 6.56576 39.2672C7.03476 39.4328 7.55036 39.4054 7.99912 39.1909C8.44789 38.9764 8.79307 38.5924 8.95873 38.1234C9.87859 35.514 10.347 32.7668 10.3439 30C10.3439 24.5299 12.5169 19.2839 16.3848 15.4159C20.2527 11.548 25.4988 9.375 30.9689 9.375C36.439 9.375 41.685 11.548 45.553 15.4159C49.4209 19.2839 51.5939 24.5299 51.5939 30C51.5948 34.284 51.1796 38.558 50.354 42.7617C50.3063 43.0033 50.3066 43.252 50.355 43.4935C50.4033 43.735 50.4988 43.9646 50.6359 44.1692C50.773 44.3738 50.9491 44.5493 51.1541 44.6859C51.3591 44.8224 51.589 44.9172 51.8306 44.9648C51.9503 44.988 52.072 44.9998 52.1939 45C52.6278 44.9995 53.0481 44.8486 53.3832 44.573C53.7182 44.2973 53.9473 43.914 54.0314 43.4883C54.9045 39.0453 55.3441 34.528 55.3439 30C55.3364 23.5376 52.766 17.3421 48.1964 12.7725C43.6268 8.20291 37.4313 5.63244 30.9689 5.625ZM23.0939 35.6648C22.6076 35.5681 22.1028 35.6679 21.6899 35.9424C21.277 36.217 20.9897 36.6438 20.8908 37.1297C20.13 40.8742 18.7678 44.4707 16.8572 47.7797C16.6085 48.2105 16.5412 48.7224 16.67 49.2028C16.7988 49.6832 17.1131 50.0928 17.5439 50.3414C17.9747 50.59 18.4866 50.6574 18.967 50.5286C19.4474 50.3998 19.857 50.0855 20.1056 49.6547C22.2171 45.9955 23.721 42.0181 24.5587 37.8773C24.608 37.6359 24.6092 37.3871 24.5622 37.1451C24.5152 36.9032 24.421 36.6729 24.285 36.4674C24.1489 36.2619 23.9737 36.0853 23.7693 35.9476C23.5649 35.8098 23.3354 35.7138 23.0939 35.6648ZM30.9689 13.125C30.2637 13.1251 29.5593 13.169 28.8595 13.2563C28.3753 13.3289 27.9388 13.5881 27.6432 13.9784C27.3476 14.3687 27.2164 14.8592 27.2776 15.3449C27.3388 15.8307 27.5876 16.2732 27.9708 16.578C28.354 16.8827 28.8412 17.0255 29.3283 16.9758C31.1754 16.7461 33.0503 16.9114 34.8288 17.4606C36.6073 18.0099 38.2488 18.9307 39.6447 20.162C41.0407 21.3933 42.1592 22.907 42.9262 24.603C43.6932 26.299 44.0912 28.1386 44.0939 30C44.0933 32.4288 43.9431 34.8553 43.6439 37.2656C43.611 37.5107 43.6269 37.76 43.6908 37.9989C43.7546 38.2378 43.8651 38.4618 44.0158 38.6579C44.1666 38.8539 44.3546 39.0182 44.5691 39.1413C44.7837 39.2644 45.0204 39.3438 45.2658 39.375C45.3435 39.3843 45.4218 39.389 45.5001 39.3891C45.9561 39.3881 46.3961 39.221 46.7378 38.919C47.0795 38.617 47.2994 38.2009 47.3564 37.7484C47.6726 35.1825 47.8291 32.5994 47.8251 30.0141C47.8239 25.5409 46.0486 21.2507 42.8887 18.0846C39.7287 14.9185 35.4421 13.1349 30.9689 13.125ZM44.5462 43.1836C44.3077 43.1219 44.0593 43.1078 43.8154 43.1422C43.5714 43.1766 43.3366 43.2587 43.1244 43.3838C42.9121 43.509 42.7266 43.6747 42.5785 43.8716C42.4304 44.0685 42.3225 44.2927 42.2611 44.5312C41.9189 45.8648 41.5228 47.2031 41.0892 48.5156C40.9305 48.9859 40.9648 49.4999 41.1845 49.9449C41.4041 50.39 41.7913 50.7298 42.2611 50.8898C42.4535 50.9553 42.6555 50.9886 42.8587 50.9883C43.2516 50.988 43.6344 50.8643 43.9532 50.6347C44.272 50.4051 44.5106 50.0811 44.6353 49.7086C45.104 48.3211 45.5236 46.8961 45.8892 45.4781C45.952 45.2396 45.9672 44.991 45.9338 44.7466C45.9004 44.5022 45.8191 44.2668 45.6946 44.0538C45.57 43.8409 45.4047 43.6546 45.208 43.5057C45.0114 43.3568 44.7873 43.2481 44.5486 43.1859L44.5462 43.1836Z" fill="url(#paint1_linear_32675_41596)" style=""/>
<defs>
<linearGradient id="paint0_linear_32675_41596" x1="30.9688" y1="7.5" x2="30.9688" y2="52.5" gradientUnits="userSpaceOnUse">
<stop stop-color="#4072BE" style="stop-color:#4072BE;stop-color:color(display-p3 0.2510 0.4471 0.7451);stop-opacity:1;"/>
</linearGradient>
<linearGradient id="paint1_linear_32675_41596" x1="30.3294" y1="5.625" x2="30.3294" y2="54.2422" gradientUnits="userSpaceOnUse">
<stop stop-color="#A0BCE1" style="stop-color:#A0BCE1;stop-color:color(display-p3 0.6275 0.7373 0.8824);stop-opacity:1;"/>
<stop offset="1" stop-color="#181818" style="stop-color:#181818;stop-color:color(display-p3 0.0941 0.0941 0.0941);stop-opacity:1;"/>
</linearGradient>
</defs>
</svg>
