<svg width="25" height="24" viewBox="0 0 25 24" fill="none" xmlns="http://www.w3.org/2000/svg">
<path opacity="0.2" d="M22.7188 9.22125C22.5997 12.8362 19.5941 15.75 15.9772 15.75C15.1126 15.7523 14.2557 15.5877 13.4534 15.2653L12.2188 16.5H9.96875V18.75H7.71875V21H4.71875C4.51984 21 4.32907 20.921 4.18842 20.7803C4.04777 20.6397 3.96875 20.4489 3.96875 20.25V17.5603C3.96884 17.3617 4.04774 17.1712 4.18813 17.0306L9.70344 11.5153C9.38103 10.7131 9.21645 9.85616 9.21875 8.99156C9.21875 5.37469 12.1325 2.36906 15.7475 2.25375C16.671 2.22296 17.5909 2.3821 18.4504 2.72131C19.3099 3.06052 20.0905 3.57257 20.7441 4.22575C21.3976 4.87892 21.9101 5.65932 22.2497 6.51861C22.5894 7.37789 22.749 8.29776 22.7188 9.22125Z" fill="#717171" style="fill:#717171;fill:color(display-p3 0.4431 0.4431 0.4431);fill-opacity:1;"/>
<path d="M21.2722 3.69649C20.0809 2.50353 18.5224 1.74675 16.8482 1.54826C15.174 1.34978 13.4817 1.72117 12.0445 2.6025C10.6073 3.48384 9.50893 4.82371 8.92668 6.4059C8.34443 7.9881 8.31224 9.72032 8.83532 11.3231L3.65845 16.4999C3.51855 16.6387 3.40764 16.8039 3.33216 16.9859C3.25667 17.168 3.21813 17.3632 3.21876 17.5602V20.2499C3.21876 20.6478 3.37679 21.0293 3.6581 21.3106C3.9394 21.5919 4.32093 21.7499 4.71876 21.7499H7.71876C7.91767 21.7499 8.10844 21.6709 8.24909 21.5303C8.38974 21.3896 8.46876 21.1988 8.46876 20.9999V19.4999H9.96876C10.1677 19.4999 10.3584 19.4209 10.4991 19.2803C10.6397 19.1396 10.7188 18.9488 10.7188 18.7499V17.2499H12.2188C12.3173 17.25 12.4148 17.2307 12.5059 17.193C12.5969 17.1554 12.6797 17.1002 12.7494 17.0306L13.6456 16.1334C14.3958 16.3774 15.1799 16.5011 15.9688 16.4999H15.9781C17.4607 16.4981 18.9095 16.057 20.1415 15.2321C21.3735 14.4073 22.3334 13.2359 22.8999 11.8658C23.4664 10.4957 23.6142 8.9884 23.3245 7.53438C23.0347 6.08036 22.3206 4.74482 21.2722 3.69649ZM21.9688 9.19681C21.8666 12.3927 19.1797 14.9962 15.9791 14.9999H15.9688C15.2095 15.0012 14.457 14.8577 13.7516 14.5771C13.6136 14.5172 13.4607 14.5002 13.313 14.5283C13.1652 14.5564 13.0292 14.6283 12.9228 14.7346L11.9084 15.7499H9.96876C9.76985 15.7499 9.57908 15.8289 9.43843 15.9696C9.29778 16.1103 9.21876 16.301 9.21876 16.4999V17.9999H7.71876C7.51985 17.9999 7.32908 18.0789 7.18843 18.2196C7.04778 18.3603 6.96876 18.551 6.96876 18.7499V20.2499H4.71876V17.5602L10.2341 12.0459C10.3404 11.9395 10.4123 11.8035 10.4404 11.6557C10.4685 11.5079 10.4515 11.3551 10.3916 11.2171C10.1101 10.5093 9.96657 9.75417 9.96876 8.99243C9.96876 5.79181 12.5759 3.10493 15.7719 3.00274C16.5928 2.97535 17.4107 3.1168 18.1747 3.41835C18.9387 3.7199 19.6327 4.17512 20.2137 4.7558C20.7946 5.33649 21.2502 6.03027 21.5521 6.79418C21.854 7.55809 21.9958 8.37585 21.9688 9.19681ZM18.9688 7.12493C18.9688 7.34744 18.9028 7.56494 18.7792 7.74995C18.6555 7.93495 18.4798 8.07915 18.2743 8.1643C18.0687 8.24944 17.8425 8.27172 17.6243 8.22831C17.4061 8.18491 17.2056 8.07776 17.0483 7.92043C16.8909 7.76309 16.7838 7.56264 16.7404 7.34441C16.697 7.12618 16.7192 6.89998 16.8044 6.69441C16.8895 6.48885 17.0337 6.31314 17.2187 6.18953C17.4037 6.06591 17.6213 5.99993 17.8438 5.99993C18.1421 5.99993 18.4283 6.11846 18.6393 6.32944C18.8502 6.54041 18.9688 6.82656 18.9688 7.12493Z" fill="#717171" style="fill:#717171;fill:color(display-p3 0.4431 0.4431 0.4431);fill-opacity:1;"/>
</svg>
