<svg width="25" height="24" viewBox="0 0 25 24" fill="none" xmlns="http://www.w3.org/2000/svg">
<path opacity="0.2" d="M21.2188 12.75C21.2188 14.3817 20.7349 15.9768 19.8284 17.3335C18.9219 18.6902 17.6334 19.7476 16.1259 20.372C14.6184 20.9964 12.9596 21.1598 11.3593 20.8415C9.75892 20.5232 8.28891 19.7374 7.13512 18.5836C5.98134 17.4298 5.1956 15.9598 4.87728 14.3595C4.55895 12.7592 4.72232 11.1004 5.34675 9.59286C5.97117 8.08537 7.02859 6.7969 8.3853 5.89038C9.742 4.98385 11.3371 4.5 12.9688 4.5C15.1568 4.5 17.2552 5.36919 18.8024 6.91637C20.3496 8.46354 21.2188 10.562 21.2188 12.75Z" fill="#717171" style="fill:#717171;fill:color(display-p3 0.4431 0.4431 0.4431);fill-opacity:1;"/>
<path d="M12.9688 3.75C11.1887 3.75 9.44866 4.27784 7.96862 5.26677C6.48858 6.25571 5.33503 7.66131 4.65384 9.30585C3.97265 10.9504 3.79442 12.76 4.14169 14.5058C4.48895 16.2516 5.34612 17.8553 6.60479 19.114C7.86347 20.3726 9.46711 21.2298 11.2129 21.5771C12.9588 21.9243 14.7684 21.7461 16.4129 21.0649C18.0574 20.3837 19.463 19.2302 20.452 17.7501C21.4409 16.2701 21.9688 14.53 21.9688 12.75C21.966 10.3639 21.0169 8.07629 19.3297 6.38905C17.6425 4.70182 15.3549 3.75273 12.9688 3.75ZM12.9688 20.25C11.4854 20.25 10.0353 19.8101 8.80198 18.986C7.56861 18.1619 6.60731 16.9906 6.03966 15.6201C5.472 14.2497 5.32348 12.7417 5.61286 11.2868C5.90225 9.83197 6.61656 8.49559 7.66545 7.4467C8.71435 6.39781 10.0507 5.6835 11.5056 5.39411C12.9604 5.10472 14.4684 5.25325 15.8389 5.8209C17.2093 6.38856 18.3807 7.34986 19.2048 8.58322C20.0289 9.81659 20.4688 11.2666 20.4688 12.75C20.4665 14.7384 19.6756 16.6448 18.2696 18.0508C16.8636 19.4569 14.9572 20.2478 12.9688 20.25ZM17.2494 8.46938C17.3191 8.53903 17.3744 8.62175 17.4122 8.7128C17.4499 8.80384 17.4693 8.90144 17.4693 9C17.4693 9.09856 17.4499 9.19616 17.4122 9.28721C17.3744 9.37825 17.3191 9.46097 17.2494 9.53063L13.4994 13.2806C13.4297 13.3503 13.347 13.4056 13.2559 13.4433C13.1649 13.481 13.0673 13.5004 12.9688 13.5004C12.8702 13.5004 12.7726 13.481 12.6816 13.4433C12.5905 13.4056 12.5078 13.3503 12.4381 13.2806C12.3684 13.2109 12.3132 13.1282 12.2755 13.0372C12.2377 12.9461 12.2183 12.8485 12.2183 12.75C12.2183 12.6515 12.2377 12.5539 12.2755 12.4628C12.3132 12.3718 12.3684 12.2891 12.4381 12.2194L16.1881 8.46938C16.2578 8.39964 16.3405 8.34432 16.4315 8.30658C16.5226 8.26884 16.6202 8.24941 16.7188 8.24941C16.8173 8.24941 16.9149 8.26884 17.006 8.30658C17.097 8.34432 17.1797 8.39964 17.2494 8.46938ZM9.96875 1.5C9.96875 1.30109 10.0478 1.11032 10.1884 0.96967C10.3291 0.829018 10.5198 0.75 10.7188 0.75H15.2188C15.4177 0.75 15.6084 0.829018 15.7491 0.96967C15.8897 1.11032 15.9688 1.30109 15.9688 1.5C15.9688 1.69891 15.8897 1.88968 15.7491 2.03033C15.6084 2.17098 15.4177 2.25 15.2188 2.25H10.7188C10.5198 2.25 10.3291 2.17098 10.1884 2.03033C10.0478 1.88968 9.96875 1.69891 9.96875 1.5Z" fill="#717171" style="fill:#717171;fill:color(display-p3 0.4431 0.4431 0.4431);fill-opacity:1;"/>
</svg>
