<svg width="659" height="139" viewBox="0 0 659 139" fill="none" xmlns="http://www.w3.org/2000/svg">
<rect x="0.254883" width="658" height="139" rx="32" fill="var(--text-primary)" fill-opacity="0.03" />
<path d="M85.8013 38.6364V75H79.214V45.0462H79.0009L70.4959 50.4794V44.4425L79.5336 38.6364H85.8013ZM93.5343 75V70.2415L106.159 57.8658C107.366 56.6465 108.372 55.5634 109.177 54.6165C109.982 53.6695 110.586 52.7521 110.988 51.8643C111.391 50.9766 111.592 50.0296 111.592 49.0234C111.592 47.8752 111.331 46.8928 110.811 46.076C110.29 45.2474 109.574 44.6082 108.662 44.1584C107.751 43.7086 106.715 43.4837 105.555 43.4837C104.359 43.4837 103.312 43.7322 102.412 44.2294C101.512 44.7147 100.814 45.4072 100.317 46.3068C99.8316 47.2064 99.589 48.2777 99.589 49.5206H93.3212C93.3212 47.2124 93.848 45.206 94.9015 43.5014C95.955 41.7969 97.405 40.477 99.2516 39.5419C101.11 38.6068 103.241 38.1392 105.644 38.1392C108.082 38.1392 110.225 38.5949 112.071 39.5064C113.918 40.4178 115.35 41.6667 116.368 43.2528C117.398 44.839 117.913 46.6501 117.913 48.6861C117.913 50.0473 117.652 51.3849 117.132 52.6989C116.611 54.0128 115.693 55.4687 114.379 57.0668C113.077 58.6648 111.249 60.6001 108.893 62.8729L102.625 69.2472V69.4957H118.463V75H93.5343ZM123.16 75V47.7273H129.303V52.3615H129.623C130.191 50.799 131.132 49.5798 132.446 48.7038C133.76 47.8161 135.329 47.3722 137.151 47.3722C138.998 47.3722 140.555 47.822 141.821 48.7216C143.1 49.6094 143.999 50.8227 144.52 52.3615H144.804C145.408 50.8464 146.426 49.639 147.858 48.7393C149.302 47.8279 151.013 47.3722 152.99 47.3722C155.499 47.3722 157.547 48.1652 159.133 49.7514C160.719 51.3376 161.512 53.6518 161.512 56.6939V75H155.067V57.6882C155.067 55.9955 154.617 54.7585 153.718 53.9773C152.818 53.1842 151.717 52.7876 150.415 52.7876C148.864 52.7876 147.651 53.273 146.775 54.2436C145.911 55.2024 145.479 56.4512 145.479 57.9901V75H139.176V57.4219C139.176 56.0133 138.749 54.8887 137.897 54.0483C137.057 53.2079 135.956 52.7876 134.595 52.7876C133.671 52.7876 132.831 53.0244 132.073 53.4979C131.316 53.9595 130.712 54.6165 130.262 55.4688C129.812 56.3092 129.588 57.2917 129.588 58.4162V75H123.16Z" fill="#D51007" />
<path d="M21.4288 109V97.9818H23.9108V99.854H24.0399C24.2695 99.2228 24.6496 98.7302 25.1805 98.3763C25.7113 98.0177 26.3449 97.8384 27.0814 97.8384C27.8274 97.8384 28.4563 98.0201 28.968 98.3835C29.4844 98.7422 29.8479 99.2324 30.0583 99.854H30.1731C30.417 99.2419 30.8282 98.7541 31.4069 98.3907C31.9903 98.0225 32.6813 97.8384 33.48 97.8384C34.4938 97.8384 35.3211 98.1588 35.9619 98.7996C36.6027 99.4404 36.9231 100.375 36.9231 101.604V109H34.3192V102.006C34.3192 101.322 34.1375 100.822 33.7741 100.507C33.4106 100.186 32.9659 100.026 32.4398 100.026C31.8134 100.026 31.3232 100.222 30.9693 100.614C30.6202 101.002 30.4457 101.506 30.4457 102.128V109H27.8991V101.898C27.8991 101.329 27.727 100.875 27.3827 100.536C27.0431 100.196 26.5984 100.026 26.0484 100.026C25.6754 100.026 25.3359 100.122 25.0298 100.313C24.7238 100.5 24.4799 100.765 24.2981 101.109C24.1164 101.449 24.0256 101.846 24.0256 102.3V109H21.4288ZM43.7576 109.215C42.6817 109.215 41.7491 108.978 40.9601 108.505C40.171 108.032 39.5589 107.369 39.1237 106.518C38.6933 105.667 38.4781 104.672 38.4781 103.534C38.4781 102.396 38.6933 101.399 39.1237 100.543C39.5589 99.6867 40.171 99.0219 40.9601 98.5485C41.7491 98.0751 42.6817 97.8384 43.7576 97.8384C44.8336 97.8384 45.7662 98.0751 46.5552 98.5485C47.3443 99.0219 47.954 99.6867 48.3844 100.543C48.8196 101.399 49.0372 102.396 49.0372 103.534C49.0372 104.672 48.8196 105.667 48.3844 106.518C47.954 107.369 47.3443 108.032 46.5552 108.505C45.7662 108.978 44.8336 109.215 43.7576 109.215ZM43.772 107.135C44.3554 107.135 44.8432 106.975 45.2353 106.654C45.6275 106.329 45.9192 105.894 46.1105 105.349C46.3066 104.804 46.4046 104.196 46.4046 103.527C46.4046 102.852 46.3066 102.243 46.1105 101.698C45.9192 101.148 45.6275 100.71 45.2353 100.385C44.8432 100.06 44.3554 99.8971 43.772 99.8971C43.1742 99.8971 42.6769 100.06 42.28 100.385C41.8878 100.71 41.5937 101.148 41.3976 101.698C41.2063 102.243 41.1107 102.852 41.1107 103.527C41.1107 104.196 41.2063 104.804 41.3976 105.349C41.5937 105.894 41.8878 106.329 42.28 106.654C42.6769 106.975 43.1742 107.135 43.772 107.135ZM53.2319 102.544V109H50.6352V97.9818H53.1172V99.854H53.2463C53.4997 99.2371 53.9038 98.747 54.4586 98.3835C55.0181 98.0201 55.7091 97.8384 56.5316 97.8384C57.292 97.8384 57.9543 98.0009 58.5186 98.3261C59.0877 98.6513 59.5277 99.1224 59.8385 99.7393C60.1542 100.356 60.3096 101.105 60.3048 101.985V109H57.7081V102.386C57.7081 101.65 57.5168 101.074 57.1342 100.657C56.7564 100.241 56.2328 100.033 55.5632 100.033C55.1089 100.033 54.7048 100.134 54.351 100.335C54.0019 100.531 53.7269 100.815 53.526 101.188C53.33 101.561 53.2319 102.013 53.2319 102.544ZM67.8405 97.9818V99.9903H61.5065V97.9818H67.8405ZM63.0702 95.342H65.667V105.686C65.667 106.035 65.7196 106.303 65.8248 106.489C65.9348 106.671 66.0782 106.795 66.2552 106.862C66.4321 106.929 66.6282 106.963 66.8434 106.963C67.006 106.963 67.1542 106.951 67.2881 106.927C67.4268 106.903 67.532 106.881 67.6038 106.862L68.0413 108.892C67.9027 108.94 67.7042 108.993 67.446 109.05C67.1925 109.108 66.8817 109.141 66.5134 109.151C65.863 109.17 65.2772 109.072 64.756 108.857C64.2347 108.637 63.821 108.297 63.515 107.838C63.2137 107.379 63.0655 106.805 63.0702 106.116V95.342ZM72.2397 102.544V109H69.6429V94.3091H72.1823V99.854H72.3114C72.5696 99.2324 72.9689 98.7422 73.5093 98.3835C74.0545 98.0201 74.7479 97.8384 75.5896 97.8384C76.3547 97.8384 77.0218 97.9986 77.5909 98.319C78.16 98.6394 78.6 99.108 78.9108 99.7249C79.2264 100.342 79.3843 101.095 79.3843 101.985V109H76.7875V102.386C76.7875 101.645 76.5962 101.069 76.2137 100.657C75.8359 100.241 75.305 100.033 74.6212 100.033C74.1621 100.033 73.7508 100.134 73.3874 100.335C73.0287 100.531 72.7466 100.815 72.5409 101.188C72.3401 101.561 72.2397 102.013 72.2397 102.544ZM84.0219 94.3091V109H81.4252V94.3091H84.0219ZM87.7002 113.132C87.3463 113.132 87.0187 113.103 86.7174 113.046C86.4209 112.993 86.1842 112.931 86.0073 112.859L86.6098 110.836C86.9876 110.946 87.3248 110.999 87.6213 110.994C87.9178 110.989 88.1784 110.896 88.4032 110.714C88.6327 110.537 88.8264 110.241 88.9842 109.825L89.2066 109.23L85.2111 97.9818H87.9656L90.5049 106.303H90.6197L93.1662 97.9818H95.928L91.5164 110.334C91.3107 110.918 91.0382 111.417 90.6986 111.833C90.3591 112.254 89.943 112.575 89.4505 112.795C88.9627 113.019 88.3793 113.132 87.7002 113.132ZM104.694 109.222C103.996 109.222 103.367 109.098 102.807 108.849C102.253 108.596 101.813 108.223 101.488 107.73C101.167 107.238 101.007 106.63 101.007 105.908C101.007 105.287 101.122 104.773 101.351 104.366C101.581 103.96 101.894 103.634 102.291 103.39C102.688 103.147 103.135 102.962 103.632 102.838C104.134 102.709 104.653 102.616 105.189 102.558C105.835 102.491 106.358 102.432 106.76 102.379C107.162 102.322 107.453 102.236 107.635 102.121C107.822 102.001 107.915 101.817 107.915 101.568V101.525C107.915 100.985 107.755 100.567 107.434 100.27C107.114 99.9736 106.652 99.8254 106.05 99.8254C105.414 99.8254 104.909 99.964 104.536 100.241C104.168 100.519 103.919 100.846 103.79 101.224L101.366 100.88C101.557 100.21 101.873 99.6508 102.312 99.2013C102.752 98.747 103.29 98.4074 103.926 98.1827C104.562 97.9531 105.265 97.8384 106.035 97.8384C106.566 97.8384 107.095 97.9005 107.621 98.0249C108.147 98.1492 108.627 98.3548 109.063 98.6418C109.498 98.9239 109.847 99.3089 110.11 99.7967C110.378 100.284 110.512 100.894 110.512 101.626V109H108.015V107.486H107.929C107.771 107.792 107.549 108.079 107.262 108.347C106.98 108.61 106.624 108.823 106.193 108.986C105.768 109.143 105.268 109.222 104.694 109.222ZM105.368 107.314C105.89 107.314 106.341 107.211 106.724 107.006C107.107 106.795 107.401 106.518 107.606 106.174C107.817 105.829 107.922 105.454 107.922 105.048V103.749C107.841 103.816 107.702 103.878 107.506 103.936C107.315 103.993 107.099 104.043 106.86 104.086C106.621 104.129 106.385 104.168 106.15 104.201C105.916 104.235 105.713 104.263 105.54 104.287C105.153 104.34 104.806 104.426 104.5 104.545C104.194 104.665 103.953 104.832 103.776 105.048C103.599 105.258 103.51 105.531 103.51 105.865C103.51 106.343 103.685 106.705 104.034 106.948C104.383 107.192 104.828 107.314 105.368 107.314ZM117.323 109.215C116.223 109.215 115.278 108.974 114.489 108.491C113.705 108.008 113.1 107.341 112.674 106.489C112.254 105.633 112.043 104.648 112.043 103.534C112.043 102.415 112.258 101.427 112.689 100.571C113.119 99.7106 113.727 99.0411 114.511 98.5629C115.3 98.0799 116.232 97.8384 117.308 97.8384C118.203 97.8384 118.994 98.0033 119.683 98.3333C120.376 98.6585 120.929 99.12 121.34 99.7178C121.751 100.311 121.985 101.004 122.043 101.798H119.561C119.46 101.267 119.221 100.825 118.843 100.471C118.47 100.112 117.971 99.933 117.344 99.933C116.813 99.933 116.347 100.076 115.945 100.363C115.544 100.646 115.231 101.052 115.006 101.583C114.786 102.114 114.676 102.75 114.676 103.491C114.676 104.242 114.786 104.887 115.006 105.428C115.226 105.963 115.534 106.377 115.931 106.669C116.333 106.956 116.804 107.099 117.344 107.099C117.727 107.099 118.069 107.027 118.37 106.884C118.676 106.736 118.932 106.523 119.138 106.245C119.343 105.968 119.484 105.631 119.561 105.234H122.043C121.981 106.014 121.751 106.705 121.354 107.307C120.957 107.905 120.417 108.374 119.733 108.713C119.049 109.048 118.246 109.215 117.323 109.215ZM129.071 97.9818V99.9903H122.737V97.9818H129.071ZM124.301 95.342H126.897V105.686C126.897 106.035 126.95 106.303 127.055 106.489C127.165 106.671 127.309 106.795 127.486 106.862C127.663 106.929 127.859 106.963 128.074 106.963C128.236 106.963 128.385 106.951 128.519 106.927C128.657 106.903 128.762 106.881 128.834 106.862L129.272 108.892C129.133 108.94 128.935 108.993 128.676 109.05C128.423 109.108 128.112 109.141 127.744 109.151C127.094 109.17 126.508 109.072 125.986 108.857C125.465 108.637 125.052 108.297 124.745 107.838C124.444 107.379 124.296 106.805 124.301 106.116V95.342ZM130.637 109V97.9818H133.233V109H130.637ZM131.942 96.418C131.531 96.418 131.177 96.2817 130.881 96.0092C130.584 95.7318 130.436 95.3994 130.436 95.0121C130.436 94.6199 130.584 94.2876 130.881 94.015C131.177 93.7376 131.531 93.5989 131.942 93.5989C132.358 93.5989 132.712 93.7376 133.004 94.015C133.3 94.2876 133.449 94.6199 133.449 95.0121C133.449 95.3994 133.3 95.7318 133.004 96.0092C132.712 96.2817 132.358 96.418 131.942 96.418ZM145.139 97.9818L141.216 109H138.346L134.423 97.9818H137.191L139.724 106.167H139.838L142.378 97.9818H145.139ZM150.833 109.215C149.729 109.215 148.775 108.986 147.971 108.527C147.173 108.063 146.558 107.408 146.128 106.561C145.697 105.71 145.482 104.708 145.482 103.555C145.482 102.422 145.697 101.427 146.128 100.571C146.563 99.7106 147.17 99.0411 147.95 98.5629C148.729 98.0799 149.645 97.8384 150.697 97.8384C151.376 97.8384 152.017 97.9483 152.62 98.1683C153.227 98.3835 153.762 98.7183 154.226 99.1726C154.695 99.6269 155.063 100.206 155.331 100.909C155.599 101.607 155.733 102.439 155.733 103.405V104.201H146.702V102.451H153.244C153.239 101.953 153.131 101.511 152.921 101.124C152.71 100.732 152.416 100.423 152.038 100.198C151.665 99.9736 151.23 99.8612 150.733 99.8612C150.202 99.8612 149.736 99.9903 149.334 100.249C148.932 100.502 148.619 100.837 148.394 101.253C148.174 101.664 148.062 102.116 148.057 102.609V104.137C148.057 104.777 148.174 105.327 148.409 105.786C148.643 106.241 148.971 106.59 149.392 106.834C149.812 107.073 150.305 107.192 150.869 107.192C151.247 107.192 151.589 107.14 151.895 107.035C152.201 106.925 152.466 106.764 152.691 106.554C152.916 106.343 153.086 106.083 153.201 105.772L155.625 106.045C155.472 106.685 155.18 107.245 154.75 107.723C154.324 108.197 153.779 108.565 153.114 108.828C152.45 109.086 151.689 109.215 150.833 109.215ZM168.751 104.366V97.9818H171.347V109H168.83V107.042H168.715C168.466 107.659 168.057 108.163 167.488 108.555C166.924 108.947 166.228 109.143 165.401 109.143C164.679 109.143 164.04 108.983 163.486 108.663C162.936 108.338 162.505 107.867 162.194 107.25C161.884 106.628 161.728 105.877 161.728 104.997V97.9818H164.325V104.596C164.325 105.294 164.516 105.849 164.899 106.26C165.281 106.671 165.783 106.877 166.405 106.877C166.788 106.877 167.158 106.783 167.517 106.597C167.876 106.41 168.17 106.133 168.399 105.765C168.634 105.392 168.751 104.926 168.751 104.366ZM182.12 100.894L179.753 101.152C179.686 100.913 179.569 100.689 179.401 100.478C179.239 100.268 179.019 100.098 178.742 99.9688C178.464 99.8397 178.125 99.7751 177.723 99.7751C177.183 99.7751 176.728 99.8923 176.36 100.127C175.997 100.361 175.817 100.665 175.822 101.038C175.817 101.358 175.934 101.619 176.173 101.82C176.417 102.02 176.819 102.185 177.379 102.314L179.258 102.716C180.301 102.941 181.075 103.297 181.582 103.785C182.094 104.273 182.352 104.911 182.357 105.7C182.352 106.394 182.149 107.006 181.747 107.537C181.35 108.063 180.798 108.474 180.09 108.77C179.382 109.067 178.569 109.215 177.651 109.215C176.303 109.215 175.217 108.933 174.394 108.369C173.572 107.8 173.082 107.008 172.924 105.994L175.456 105.75C175.571 106.248 175.815 106.623 176.188 106.877C176.561 107.13 177.046 107.257 177.644 107.257C178.261 107.257 178.756 107.13 179.129 106.877C179.507 106.623 179.696 106.31 179.696 105.937C179.696 105.621 179.574 105.361 179.33 105.155C179.091 104.949 178.718 104.792 178.211 104.682L176.331 104.287C175.274 104.067 174.493 103.697 173.986 103.175C173.479 102.649 173.228 101.985 173.232 101.181C173.228 100.502 173.412 99.9138 173.785 99.4165C174.163 98.9143 174.686 98.527 175.356 98.2544C176.03 97.977 176.807 97.8384 177.687 97.8384C178.978 97.8384 179.994 98.1133 180.736 98.6633C181.482 99.2132 181.943 99.9569 182.12 100.894ZM188.77 109.215C187.665 109.215 186.711 108.986 185.908 108.527C185.109 108.063 184.495 107.408 184.064 106.561C183.634 105.71 183.419 104.708 183.419 103.555C183.419 102.422 183.634 101.427 184.064 100.571C184.499 99.7106 185.107 99.0411 185.886 98.5629C186.666 98.0799 187.582 97.8384 188.634 97.8384C189.313 97.8384 189.953 97.9483 190.556 98.1683C191.163 98.3835 191.699 98.7183 192.163 99.1726C192.632 99.6269 193 100.206 193.268 100.909C193.535 101.607 193.669 102.439 193.669 103.405V104.201H184.638V102.451H191.18C191.175 101.953 191.068 101.511 190.857 101.124C190.647 100.732 190.353 100.423 189.975 100.198C189.602 99.9736 189.167 99.8612 188.669 99.8612C188.139 99.8612 187.672 99.9903 187.271 100.249C186.869 100.502 186.556 100.837 186.331 101.253C186.111 101.664 185.999 102.116 185.994 102.609V104.137C185.994 104.777 186.111 105.327 186.345 105.786C186.58 106.241 186.907 106.59 187.328 106.834C187.749 107.073 188.241 107.192 188.806 107.192C189.184 107.192 189.525 107.14 189.832 107.035C190.138 106.925 190.403 106.764 190.628 106.554C190.853 106.343 191.022 106.083 191.137 105.772L193.562 106.045C193.409 106.685 193.117 107.245 192.687 107.723C192.261 108.197 191.716 108.565 191.051 108.828C190.386 109.086 189.626 109.215 188.77 109.215ZM195.26 109V97.9818H197.778V99.8182H197.893C198.094 99.1821 198.438 98.692 198.926 98.3477C199.418 97.9986 199.98 97.824 200.611 97.824C200.755 97.824 200.915 97.8312 201.092 97.8455C201.274 97.8551 201.424 97.8718 201.544 97.8957V100.284C201.434 100.246 201.259 100.213 201.02 100.184C200.786 100.151 200.559 100.134 200.339 100.134C199.865 100.134 199.44 100.237 199.062 100.442C198.689 100.643 198.395 100.923 198.18 101.282C197.964 101.64 197.857 102.054 197.857 102.523V109H195.26ZM211.371 100.894L209.004 101.152C208.937 100.913 208.82 100.689 208.653 100.478C208.49 100.268 208.27 100.098 207.993 99.9688C207.715 99.8397 207.376 99.7751 206.974 99.7751C206.434 99.7751 205.98 99.8923 205.611 100.127C205.248 100.361 205.069 100.665 205.073 101.038C205.069 101.358 205.186 101.619 205.425 101.82C205.669 102.02 206.07 102.185 206.63 102.314L208.509 102.716C209.552 102.941 210.327 103.297 210.833 103.785C211.345 104.273 211.603 104.911 211.608 105.7C211.603 106.394 211.4 107.006 210.998 107.537C210.602 108.063 210.049 108.474 209.341 108.77C208.634 109.067 207.821 109.215 206.903 109.215C205.554 109.215 204.468 108.933 203.646 108.369C202.823 107.8 202.333 107.008 202.175 105.994L204.707 105.75C204.822 106.248 205.066 106.623 205.439 106.877C205.812 107.13 206.298 107.257 206.895 107.257C207.512 107.257 208.007 107.13 208.38 106.877C208.758 106.623 208.947 106.31 208.947 105.937C208.947 105.621 208.825 105.361 208.581 105.155C208.342 104.949 207.969 104.792 207.462 104.682L205.583 104.287C204.526 104.067 203.744 103.697 203.237 103.175C202.73 102.649 202.479 101.985 202.484 101.181C202.479 100.502 202.663 99.9138 203.036 99.4165C203.414 98.9143 203.938 98.527 204.607 98.2544C205.281 97.977 206.058 97.8384 206.938 97.8384C208.23 97.8384 209.246 98.1133 209.987 98.6633C210.733 99.2132 211.195 99.9569 211.371 100.894Z" fill="currentColor" />
<path d="M272.871 75V70.2415L285.495 57.8658C286.703 56.6465 287.709 55.5634 288.514 54.6165C289.319 53.6695 289.923 52.7521 290.325 51.8643C290.727 50.9766 290.929 50.0296 290.929 49.0234C290.929 47.8752 290.668 46.8928 290.147 46.076C289.627 45.2474 288.91 44.6082 287.999 44.1584C287.088 43.7086 286.052 43.4837 284.892 43.4837C283.696 43.4837 282.649 43.7322 281.749 44.2294C280.849 44.7147 280.151 45.4072 279.654 46.3068C279.169 47.2064 278.926 48.2777 278.926 49.5206H272.658C272.658 47.2124 273.185 45.206 274.238 43.5014C275.292 41.7969 276.742 40.477 278.589 39.5419C280.447 38.6068 282.578 38.1392 284.981 38.1392C287.419 38.1392 289.562 38.5949 291.408 39.5064C293.255 40.4178 294.687 41.6667 295.705 43.2528C296.735 44.839 297.25 46.6501 297.25 48.6861C297.25 50.0473 296.989 51.3849 296.468 52.6989C295.948 54.0128 295.03 55.4687 293.716 57.0668C292.414 58.6648 290.585 60.6001 288.23 62.8729L281.962 69.2472V69.4957H297.8V75H272.871ZM306.456 75.3906C305.379 75.3906 304.456 75.0118 303.687 74.2543C302.917 73.4967 302.538 72.5734 302.55 71.4844C302.538 70.419 302.917 69.5076 303.687 68.75C304.456 67.9924 305.379 67.6136 306.456 67.6136C307.498 67.6136 308.404 67.9924 309.173 68.75C309.954 69.5076 310.351 70.419 310.363 71.4844C310.351 72.2064 310.161 72.8634 309.794 73.4553C309.439 74.0471 308.966 74.5206 308.374 74.8757C307.794 75.219 307.155 75.3906 306.456 75.3906ZM314.771 68.2528V63.0149L330.201 38.6364H334.568V46.0938H331.905L321.518 62.5533V62.8374H343.056V68.2528H314.771ZM332.118 75V66.6548L332.189 64.3111V38.6364H338.404V75H332.118ZM347.3 75V47.7273H353.443V52.3615H353.763C354.331 50.799 355.272 49.5798 356.586 48.7038C357.9 47.8161 359.468 47.3722 361.291 47.3722C363.138 47.3722 364.694 47.822 365.961 48.7216C367.239 49.6094 368.139 50.8227 368.66 52.3615H368.944C369.547 50.8464 370.565 49.639 371.998 48.7393C373.442 47.8279 375.152 47.3722 377.129 47.3722C379.639 47.3722 381.686 48.1652 383.273 49.7514C384.859 51.3376 385.652 53.6518 385.652 56.6939V75H379.207V57.6882C379.207 55.9955 378.757 54.7585 377.857 53.9773C376.958 53.1842 375.857 52.7876 374.555 52.7876C373.004 52.7876 371.791 53.273 370.915 54.2436C370.051 55.2024 369.619 56.4512 369.619 57.9901V75H363.315V57.4219C363.315 56.0133 362.889 54.8887 362.037 54.0483C361.196 53.2079 360.096 52.7876 358.734 52.7876C357.811 52.7876 356.971 53.0244 356.213 53.4979C355.455 53.9595 354.852 54.6165 354.402 55.4688C353.952 56.3092 353.727 57.2917 353.727 58.4162V75H347.3Z" fill="#D51007" />
<path d="M254.63 109.194C253.764 109.194 252.99 108.971 252.306 108.527C251.622 108.082 251.081 107.436 250.685 106.59C250.288 105.743 250.089 104.715 250.089 103.505C250.089 102.281 250.29 101.248 250.692 100.406C251.098 99.5599 251.646 98.9215 252.334 98.4911C253.023 98.0559 253.791 97.8384 254.637 97.8384C255.283 97.8384 255.813 97.9483 256.23 98.1683C256.646 98.3835 256.976 98.6442 257.219 98.9502C257.463 99.2515 257.652 99.536 257.786 99.8038H257.894V94.3091H260.498V109H257.944V107.264H257.786C257.652 107.532 257.459 107.816 257.205 108.118C256.952 108.414 256.617 108.668 256.201 108.878C255.785 109.088 255.261 109.194 254.63 109.194ZM255.354 107.063C255.904 107.063 256.373 106.915 256.76 106.618C257.148 106.317 257.442 105.899 257.643 105.363C257.844 104.828 257.944 104.203 257.944 103.491C257.944 102.778 257.844 102.159 257.643 101.633C257.447 101.107 257.155 100.698 256.768 100.406C256.385 100.115 255.914 99.9688 255.354 99.9688C254.776 99.9688 254.293 100.119 253.905 100.421C253.518 100.722 253.226 101.138 253.03 101.669C252.834 102.2 252.736 102.807 252.736 103.491C252.736 104.18 252.834 104.794 253.03 105.334C253.231 105.87 253.525 106.293 253.913 106.604C254.305 106.91 254.785 107.063 255.354 107.063ZM265.829 109.222C265.131 109.222 264.502 109.098 263.943 108.849C263.388 108.596 262.948 108.223 262.623 107.73C262.302 107.238 262.142 106.63 262.142 105.908C262.142 105.287 262.257 104.773 262.487 104.366C262.716 103.96 263.029 103.634 263.426 103.39C263.823 103.147 264.27 102.962 264.768 102.838C265.27 102.709 265.789 102.616 266.324 102.558C266.97 102.491 267.494 102.432 267.895 102.379C268.297 102.322 268.589 102.236 268.77 102.121C268.957 102.001 269.05 101.817 269.05 101.568V101.525C269.05 100.985 268.89 100.567 268.57 100.27C268.249 99.9736 267.788 99.8254 267.185 99.8254C266.549 99.8254 266.045 99.964 265.672 100.241C265.303 100.519 265.055 100.846 264.925 101.224L262.501 100.88C262.692 100.21 263.008 99.6508 263.448 99.2013C263.888 98.747 264.426 98.4074 265.062 98.1827C265.698 97.9531 266.401 97.8384 267.171 97.8384C267.702 97.8384 268.23 97.9005 268.756 98.0249C269.282 98.1492 269.763 98.3548 270.198 98.6418C270.633 98.9239 270.982 99.3089 271.245 99.7967C271.513 100.284 271.647 100.894 271.647 101.626V109H269.151V107.486H269.064C268.907 107.792 268.684 108.079 268.397 108.347C268.115 108.61 267.759 108.823 267.329 108.986C266.903 109.143 266.403 109.222 265.829 109.222ZM266.504 107.314C267.025 107.314 267.477 107.211 267.859 107.006C268.242 106.795 268.536 106.518 268.742 106.174C268.952 105.829 269.057 105.454 269.057 105.048V103.749C268.976 103.816 268.837 103.878 268.641 103.936C268.45 103.993 268.235 104.043 267.996 104.086C267.757 104.129 267.52 104.168 267.285 104.201C267.051 104.235 266.848 104.263 266.676 104.287C266.288 104.34 265.942 104.426 265.636 104.545C265.33 104.665 265.088 104.832 264.911 105.048C264.734 105.258 264.646 105.531 264.646 105.865C264.646 106.343 264.82 106.705 265.169 106.948C265.518 107.192 265.963 107.314 266.504 107.314ZM273.652 109V97.9818H276.249V109H273.652ZM274.957 96.418C274.546 96.418 274.192 96.2817 273.896 96.0092C273.599 95.7318 273.451 95.3994 273.451 95.0121C273.451 94.6199 273.599 94.2876 273.896 94.015C274.192 93.7376 274.546 93.5989 274.957 93.5989C275.374 93.5989 275.727 93.7376 276.019 94.015C276.316 94.2876 276.464 94.6199 276.464 95.0121C276.464 95.3994 276.316 95.7318 276.019 96.0092C275.727 96.2817 275.374 96.418 274.957 96.418ZM280.91 94.3091V109H278.313V94.3091H280.91ZM284.588 113.132C284.234 113.132 283.906 113.103 283.605 113.046C283.309 112.993 283.072 112.931 282.895 112.859L283.498 110.836C283.875 110.946 284.213 110.999 284.509 110.994C284.806 110.989 285.066 110.896 285.291 110.714C285.52 110.537 285.714 110.241 285.872 109.825L286.094 109.23L282.099 97.9818H284.853L287.393 106.303H287.507L290.054 97.9818H292.816L288.404 110.334C288.198 110.918 287.926 111.417 287.586 111.833C287.247 112.254 286.831 112.575 286.338 112.795C285.85 113.019 285.267 113.132 284.588 113.132ZM301.582 109.222C300.884 109.222 300.255 109.098 299.695 108.849C299.14 108.596 298.7 108.223 298.375 107.73C298.055 107.238 297.895 106.63 297.895 105.908C297.895 105.287 298.009 104.773 298.239 104.366C298.469 103.96 298.782 103.634 299.179 103.39C299.576 103.147 300.023 102.962 300.52 102.838C301.022 102.709 301.541 102.616 302.077 102.558C302.722 102.491 303.246 102.432 303.648 102.379C304.049 102.322 304.341 102.236 304.523 102.121C304.709 102.001 304.803 101.817 304.803 101.568V101.525C304.803 100.985 304.642 100.567 304.322 100.27C304.002 99.9736 303.54 99.8254 302.937 99.8254C302.301 99.8254 301.797 99.964 301.424 100.241C301.056 100.519 300.807 100.846 300.678 101.224L298.253 100.88C298.445 100.21 298.76 99.6508 299.2 99.2013C299.64 98.747 300.178 98.4074 300.814 98.1827C301.45 97.9531 302.153 97.8384 302.923 97.8384C303.454 97.8384 303.982 97.9005 304.508 98.0249C305.034 98.1492 305.515 98.3548 305.95 98.6418C306.385 98.9239 306.735 99.3089 306.998 99.7967C307.265 100.284 307.399 100.894 307.399 101.626V109H304.903V107.486H304.817C304.659 107.792 304.437 108.079 304.15 108.347C303.868 108.61 303.511 108.823 303.081 108.986C302.655 109.143 302.156 109.222 301.582 109.222ZM302.256 107.314C302.777 107.314 303.229 107.211 303.612 107.006C303.994 106.795 304.288 106.518 304.494 106.174C304.705 105.829 304.81 105.454 304.81 105.048V103.749C304.728 103.816 304.59 103.878 304.394 103.936C304.202 103.993 303.987 104.043 303.748 104.086C303.509 104.129 303.272 104.168 303.038 104.201C302.804 104.235 302.6 104.263 302.428 104.287C302.041 104.34 301.694 104.426 301.388 104.545C301.082 104.665 300.841 104.832 300.664 105.048C300.487 105.258 300.398 105.531 300.398 105.865C300.398 106.343 300.573 106.705 300.922 106.948C301.271 107.192 301.716 107.314 302.256 107.314ZM314.21 109.215C313.111 109.215 312.166 108.974 311.377 108.491C310.593 108.008 309.988 107.341 309.562 106.489C309.141 105.633 308.931 104.648 308.931 103.534C308.931 102.415 309.146 101.427 309.577 100.571C310.007 99.7106 310.614 99.0411 311.399 98.5629C312.188 98.0799 313.12 97.8384 314.196 97.8384C315.09 97.8384 315.882 98.0033 316.57 98.3333C317.264 98.6585 317.816 99.12 318.228 99.7178C318.639 100.311 318.873 101.004 318.93 101.798H316.449C316.348 101.267 316.109 100.825 315.731 100.471C315.358 100.112 314.858 99.933 314.232 99.933C313.701 99.933 313.235 100.076 312.833 100.363C312.431 100.646 312.118 101.052 311.893 101.583C311.674 102.114 311.564 102.75 311.564 103.491C311.564 104.242 311.674 104.887 311.893 105.428C312.113 105.963 312.422 106.377 312.819 106.669C313.221 106.956 313.692 107.099 314.232 107.099C314.615 107.099 314.956 107.027 315.258 106.884C315.564 106.736 315.82 106.523 316.025 106.245C316.231 105.968 316.372 105.631 316.449 105.234H318.93C318.868 106.014 318.639 106.705 318.242 107.307C317.845 107.905 317.305 108.374 316.621 108.713C315.937 109.048 315.133 109.215 314.21 109.215ZM325.959 97.9818V99.9903H319.625V97.9818H325.959ZM321.188 95.342H323.785V105.686C323.785 106.035 323.838 106.303 323.943 106.489C324.053 106.671 324.196 106.795 324.373 106.862C324.55 106.929 324.746 106.963 324.962 106.963C325.124 106.963 325.272 106.951 325.406 106.927C325.545 106.903 325.65 106.881 325.722 106.862L326.16 108.892C326.021 108.94 325.822 108.993 325.564 109.05C325.311 109.108 325 109.141 324.632 109.151C323.981 109.17 323.395 109.072 322.874 108.857C322.353 108.637 321.939 108.297 321.633 107.838C321.332 107.379 321.184 106.805 321.188 106.116V95.342ZM327.524 109V97.9818H330.121V109H327.524ZM328.83 96.418C328.419 96.418 328.065 96.2817 327.768 96.0092C327.472 95.7318 327.324 95.3994 327.324 95.0121C327.324 94.6199 327.472 94.2876 327.768 94.015C328.065 93.7376 328.419 93.5989 328.83 93.5989C329.246 93.5989 329.6 93.7376 329.892 94.015C330.188 94.2876 330.336 94.6199 330.336 95.0121C330.336 95.3994 330.188 95.7318 329.892 96.0092C329.6 96.2817 329.246 96.418 328.83 96.418ZM342.027 97.9818L338.103 109H335.234L331.31 97.9818H334.079L336.611 106.167H336.726L339.265 97.9818H342.027ZM347.721 109.215C346.616 109.215 345.662 108.986 344.859 108.527C344.06 108.063 343.446 107.408 343.015 106.561C342.585 105.71 342.37 104.708 342.37 103.555C342.37 102.422 342.585 101.427 343.015 100.571C343.451 99.7106 344.058 99.0411 344.837 98.5629C345.617 98.0799 346.533 97.8384 347.585 97.8384C348.264 97.8384 348.905 97.9483 349.507 98.1683C350.115 98.3835 350.65 98.7183 351.114 99.1726C351.583 99.6269 351.951 100.206 352.219 100.909C352.487 101.607 352.62 102.439 352.62 103.405V104.201H343.589V102.451H350.131C350.127 101.953 350.019 101.511 349.809 101.124C349.598 100.732 349.304 100.423 348.926 100.198C348.553 99.9736 348.118 99.8612 347.621 99.8612C347.09 99.8612 346.624 99.9903 346.222 100.249C345.82 100.502 345.507 100.837 345.282 101.253C345.062 101.664 344.95 102.116 344.945 102.609V104.137C344.945 104.777 345.062 105.327 345.297 105.786C345.531 106.241 345.858 106.59 346.279 106.834C346.7 107.073 347.193 107.192 347.757 107.192C348.135 107.192 348.477 107.14 348.783 107.035C349.089 106.925 349.354 106.764 349.579 106.554C349.804 106.343 349.974 106.083 350.088 105.772L352.513 106.045C352.36 106.685 352.068 107.245 351.638 107.723C351.212 108.197 350.667 108.565 350.002 108.828C349.337 109.086 348.577 109.215 347.721 109.215ZM365.638 104.366V97.9818H368.235V109H365.717V107.042H365.603C365.354 107.659 364.945 108.163 364.376 108.555C363.812 108.947 363.116 109.143 362.289 109.143C361.566 109.143 360.928 108.983 360.373 108.663C359.823 108.338 359.393 107.867 359.082 107.25C358.771 106.628 358.616 105.877 358.616 104.997V97.9818H361.213V104.596C361.213 105.294 361.404 105.849 361.786 106.26C362.169 106.671 362.671 106.877 363.293 106.877C363.675 106.877 364.046 106.783 364.405 106.597C364.763 106.41 365.057 106.133 365.287 105.765C365.521 105.392 365.638 104.926 365.638 104.366ZM379.008 100.894L376.641 101.152C376.574 100.913 376.457 100.689 376.289 100.478C376.127 100.268 375.907 100.098 375.629 99.9688C375.352 99.8397 375.012 99.7751 374.611 99.7751C374.07 99.7751 373.616 99.8923 373.248 100.127C372.884 100.361 372.705 100.665 372.71 101.038C372.705 101.358 372.822 101.619 373.061 101.82C373.305 102.02 373.707 102.185 374.266 102.314L376.146 102.716C377.188 102.941 377.963 103.297 378.47 103.785C378.982 104.273 379.24 104.911 379.245 105.7C379.24 106.394 379.037 107.006 378.635 107.537C378.238 108.063 377.686 108.474 376.978 108.77C376.27 109.067 375.457 109.215 374.539 109.215C373.19 109.215 372.105 108.933 371.282 108.369C370.46 107.8 369.97 107.008 369.812 105.994L372.344 105.75C372.459 106.248 372.703 106.623 373.076 106.877C373.449 107.13 373.934 107.257 374.532 107.257C375.149 107.257 375.644 107.13 376.017 106.877C376.394 106.623 376.583 106.31 376.583 105.937C376.583 105.621 376.461 105.361 376.217 105.155C375.978 104.949 375.605 104.792 375.098 104.682L373.219 104.287C372.162 104.067 371.38 103.697 370.873 103.175C370.366 102.649 370.115 101.985 370.12 101.181C370.115 100.502 370.299 99.9138 370.672 99.4165C371.05 98.9143 371.574 98.527 372.243 98.2544C372.918 97.977 373.695 97.8384 374.575 97.8384C375.866 97.8384 376.882 98.1133 377.623 98.6633C378.369 99.2132 378.831 99.9569 379.008 100.894ZM385.658 109.215C384.553 109.215 383.599 108.986 382.796 108.527C381.997 108.063 381.382 107.408 380.952 106.561C380.522 105.71 380.306 104.708 380.306 103.555C380.306 102.422 380.522 101.427 380.952 100.571C381.387 99.7106 381.994 99.0411 382.774 98.5629C383.553 98.0799 384.469 97.8384 385.521 97.8384C386.2 97.8384 386.841 97.9483 387.444 98.1683C388.051 98.3835 388.587 98.7183 389.051 99.1726C389.519 99.6269 389.888 100.206 390.155 100.909C390.423 101.607 390.557 102.439 390.557 103.405V104.201H381.526V102.451H388.068C388.063 101.953 387.956 101.511 387.745 101.124C387.535 100.732 387.241 100.423 386.863 100.198C386.49 99.9736 386.055 99.8612 385.557 99.8612C385.026 99.8612 384.56 99.9903 384.158 100.249C383.757 100.502 383.444 100.837 383.219 101.253C382.999 101.664 382.886 102.116 382.882 102.609V104.137C382.882 104.777 382.999 105.327 383.233 105.786C383.467 106.241 383.795 106.59 384.216 106.834C384.637 107.073 385.129 107.192 385.694 107.192C386.071 107.192 386.413 107.14 386.719 107.035C387.025 106.925 387.291 106.764 387.516 106.554C387.74 106.343 387.91 106.083 388.025 105.772L390.449 106.045C390.296 106.685 390.005 107.245 389.574 107.723C389.149 108.197 388.603 108.565 387.939 108.828C387.274 109.086 386.514 109.215 385.658 109.215ZM392.148 109V97.9818H394.666V99.8182H394.78C394.981 99.1821 395.326 98.692 395.813 98.3477C396.306 97.9986 396.868 97.824 397.499 97.824C397.643 97.824 397.803 97.8312 397.98 97.8455C398.161 97.8551 398.312 97.8718 398.432 97.8957V100.284C398.322 100.246 398.147 100.213 397.908 100.184C397.674 100.151 397.447 100.134 397.227 100.134C396.753 100.134 396.327 100.237 395.95 100.442C395.577 100.643 395.283 100.923 395.067 101.282C394.852 101.64 394.745 102.054 394.745 102.523V109H392.148ZM408.259 100.894L405.892 101.152C405.825 100.913 405.708 100.689 405.541 100.478C405.378 100.268 405.158 100.098 404.881 99.9688C404.603 99.8397 404.264 99.7751 403.862 99.7751C403.322 99.7751 402.867 99.8923 402.499 100.127C402.136 100.361 401.956 100.665 401.961 101.038C401.956 101.358 402.073 101.619 402.313 101.82C402.556 102.02 402.958 102.185 403.518 102.314L405.397 102.716C406.44 102.941 407.214 103.297 407.721 103.785C408.233 104.273 408.491 104.911 408.496 105.7C408.491 106.394 408.288 107.006 407.886 107.537C407.489 108.063 406.937 108.474 406.229 108.77C405.521 109.067 404.708 109.215 403.79 109.215C402.442 109.215 401.356 108.933 400.534 108.369C399.711 107.8 399.221 107.008 399.063 105.994L401.595 105.75C401.71 106.248 401.954 106.623 402.327 106.877C402.7 107.13 403.185 107.257 403.783 107.257C404.4 107.257 404.895 107.13 405.268 106.877C405.646 106.623 405.835 106.31 405.835 105.937C405.835 105.621 405.713 105.361 405.469 105.155C405.23 104.949 404.857 104.792 404.35 104.682L402.47 104.287C401.413 104.067 400.632 103.697 400.125 103.175C399.618 102.649 399.367 101.985 399.371 101.181C399.367 100.502 399.551 99.9138 399.924 99.4165C400.302 98.9143 400.825 98.527 401.495 98.2544C402.169 97.977 402.946 97.8384 403.826 97.8384C405.117 97.8384 406.134 98.1133 406.875 98.6633C407.621 99.2132 408.082 99.9569 408.259 100.894Z" fill="currentColor" />
<path d="M495.193 38.6364V75H488.606V45.0462H488.392L479.888 50.4794V44.4425L488.925 38.6364H495.193ZM516.367 75.6925C513.443 75.6925 510.934 74.9527 508.839 73.473C506.755 71.9815 505.151 69.8331 504.027 67.0277C502.914 64.2105 502.358 60.8191 502.358 56.8537C502.37 52.8883 502.932 49.5147 504.044 46.733C505.169 43.9394 506.773 41.8087 508.856 40.3409C510.951 38.8731 513.455 38.1392 516.367 38.1392C519.279 38.1392 521.782 38.8731 523.878 40.3409C525.973 41.8087 527.577 43.9394 528.689 46.733C529.814 49.5265 530.376 52.9001 530.376 56.8537C530.376 60.831 529.814 64.2282 528.689 67.0455C527.577 69.8509 525.973 71.9934 523.878 73.473C521.794 74.9527 519.291 75.6925 516.367 75.6925ZM516.367 70.1349C518.64 70.1349 520.433 69.0163 521.747 66.7791C523.073 64.5301 523.736 61.2216 523.736 56.8537C523.736 53.9654 523.434 51.5388 522.83 49.5739C522.226 47.6089 521.374 46.1293 520.273 45.1349C519.172 44.1288 517.87 43.6257 516.367 43.6257C514.106 43.6257 512.319 44.7502 511.005 46.9993C509.691 49.2365 509.028 52.5213 509.016 56.8537C509.004 59.7538 509.294 62.1922 509.886 64.169C510.49 66.1458 511.342 67.6373 512.443 68.6435C513.544 69.6378 514.852 70.1349 516.367 70.1349ZM548.092 75.4972C546.352 75.4853 544.654 75.1835 542.996 74.5916C541.339 73.9879 539.848 73.0114 538.522 71.6619C537.196 70.3007 536.143 68.4955 535.361 66.2464C534.58 63.9856 534.195 61.1861 534.207 57.848C534.207 54.7348 534.539 51.959 535.202 49.5206C535.864 47.0821 536.817 45.0225 538.06 43.3416C539.303 41.6489 540.801 40.3587 542.552 39.4709C544.316 38.5831 546.287 38.1392 548.465 38.1392C550.75 38.1392 552.774 38.589 554.538 39.4886C556.313 40.3883 557.745 41.6193 558.834 43.1818C559.923 44.7325 560.598 46.4844 560.859 48.4375H554.378C554.046 47.0407 553.366 45.928 552.336 45.0994C551.318 44.259 550.028 43.8388 548.465 43.8388C545.944 43.8388 544.003 44.9337 542.641 47.1236C541.292 49.3134 540.611 52.3201 540.599 56.1435H540.848C541.428 55.1018 542.18 54.2081 543.103 53.4624C544.026 52.7166 545.068 52.1425 546.228 51.7401C547.4 51.3258 548.637 51.1186 549.939 51.1186C552.07 51.1186 553.981 51.6276 555.674 52.6456C557.378 53.6636 558.728 55.0663 559.722 56.8537C560.717 58.6293 561.208 60.6652 561.196 62.9616C561.208 65.3527 560.663 67.5012 559.562 69.407C558.462 71.3009 556.929 72.7924 554.964 73.8814C552.999 74.9704 550.708 75.509 548.092 75.4972ZM548.057 70.1705C549.347 70.1705 550.501 69.8568 551.519 69.2294C552.537 68.602 553.342 67.7557 553.934 66.6903C554.526 65.625 554.816 64.4295 554.804 63.1037C554.816 61.8016 554.532 60.6238 553.952 59.5703C553.383 58.5168 552.596 57.6823 551.59 57.0668C550.584 56.4512 549.436 56.1435 548.146 56.1435C547.187 56.1435 546.293 56.3269 545.464 56.6939C544.636 57.0608 543.914 57.5698 543.298 58.2209C542.683 58.8601 542.197 59.6058 541.842 60.4581C541.499 61.2985 541.321 62.1982 541.31 63.157C541.321 64.4235 541.617 65.5895 542.197 66.6548C542.777 67.7202 543.576 68.5724 544.594 69.2116C545.612 69.8509 546.766 70.1705 548.057 70.1705ZM565.768 75V47.7273H571.912V52.3615H572.231C572.8 50.799 573.741 49.5798 575.055 48.7038C576.369 47.8161 577.937 47.3722 579.76 47.3722C581.606 47.3722 583.163 47.822 584.43 48.7216C585.708 49.6094 586.608 50.8227 587.128 52.3615H587.413C588.016 50.8464 589.034 49.639 590.467 48.7393C591.911 47.8279 593.621 47.3722 595.598 47.3722C598.107 47.3722 600.155 48.1652 601.741 49.7514C603.328 51.3376 604.121 53.6518 604.121 56.6939V75H597.675V57.6882C597.675 55.9955 597.226 54.7585 596.326 53.9773C595.426 53.1842 594.325 52.7876 593.023 52.7876C591.473 52.7876 590.259 53.273 589.383 54.2436C588.519 55.2024 588.087 56.4512 588.087 57.9901V75H581.784V57.4219C581.784 56.0133 581.358 54.8887 580.506 54.0483C579.665 53.2079 578.564 52.7876 577.203 52.7876C576.28 52.7876 575.439 53.0244 574.682 53.4979C573.924 53.9595 573.32 54.6165 572.871 55.4688C572.421 56.3092 572.196 57.2917 572.196 58.4162V75H565.768Z" fill="#D51007" />
<path d="M465.894 109.194C465.028 109.194 464.254 108.971 463.57 108.527C462.886 108.082 462.346 107.436 461.949 106.59C461.552 105.743 461.353 104.715 461.353 103.505C461.353 102.281 461.554 101.248 461.956 100.406C462.362 99.5599 462.91 98.9215 463.598 98.4911C464.287 98.0559 465.055 97.8384 465.901 97.8384C466.547 97.8384 467.078 97.9483 467.494 98.1683C467.91 98.3835 468.24 98.6442 468.483 98.9502C468.727 99.2515 468.916 99.536 469.05 99.8038H469.158V94.3091H471.762V109H469.208V107.264H469.05C468.916 107.532 468.723 107.816 468.469 108.118C468.216 108.414 467.881 108.668 467.465 108.878C467.049 109.088 466.525 109.194 465.894 109.194ZM466.618 107.063C467.168 107.063 467.637 106.915 468.024 106.618C468.412 106.317 468.706 105.899 468.907 105.363C469.108 104.828 469.208 104.203 469.208 103.491C469.208 102.778 469.108 102.159 468.907 101.633C468.711 101.107 468.419 100.698 468.032 100.406C467.649 100.115 467.178 99.9688 466.618 99.9688C466.04 99.9688 465.557 100.119 465.169 100.421C464.782 100.722 464.49 101.138 464.294 101.669C464.098 102.2 464 102.807 464 103.491C464 104.18 464.098 104.794 464.294 105.334C464.495 105.87 464.789 106.293 465.177 106.604C465.569 106.91 466.049 107.063 466.618 107.063ZM477.093 109.222C476.395 109.222 475.766 109.098 475.207 108.849C474.652 108.596 474.212 108.223 473.887 107.73C473.567 107.238 473.406 106.63 473.406 105.908C473.406 105.287 473.521 104.773 473.751 104.366C473.98 103.96 474.293 103.634 474.69 103.39C475.087 103.147 475.534 102.962 476.032 102.838C476.534 102.709 477.053 102.616 477.588 102.558C478.234 102.491 478.758 102.432 479.159 102.379C479.561 102.322 479.853 102.236 480.034 102.121C480.221 102.001 480.314 101.817 480.314 101.568V101.525C480.314 100.985 480.154 100.567 479.834 100.27C479.513 99.9736 479.052 99.8254 478.449 99.8254C477.813 99.8254 477.309 99.964 476.936 100.241C476.567 100.519 476.319 100.846 476.19 101.224L473.765 100.88C473.956 100.21 474.272 99.6508 474.712 99.2013C475.152 98.747 475.69 98.4074 476.326 98.1827C476.962 97.9531 477.665 97.8384 478.435 97.8384C478.966 97.8384 479.494 97.9005 480.02 98.0249C480.546 98.1492 481.027 98.3548 481.462 98.6418C481.897 98.9239 482.246 99.3089 482.509 99.7967C482.777 100.284 482.911 100.894 482.911 101.626V109H480.415V107.486H480.329C480.171 107.792 479.948 108.079 479.661 108.347C479.379 108.61 479.023 108.823 478.593 108.986C478.167 109.143 477.667 109.222 477.093 109.222ZM477.768 107.314C478.289 107.314 478.741 107.211 479.123 107.006C479.506 106.795 479.8 106.518 480.006 106.174C480.216 105.829 480.321 105.454 480.321 105.048V103.749C480.24 103.816 480.101 103.878 479.905 103.936C479.714 103.993 479.499 104.043 479.26 104.086C479.021 104.129 478.784 104.168 478.55 104.201C478.315 104.235 478.112 104.263 477.94 104.287C477.552 104.34 477.206 104.426 476.9 104.545C476.594 104.665 476.352 104.832 476.175 105.048C475.998 105.258 475.91 105.531 475.91 105.865C475.91 106.343 476.084 106.705 476.433 106.948C476.783 107.192 477.227 107.314 477.768 107.314ZM484.916 109V97.9818H487.513V109H484.916ZM486.222 96.418C485.81 96.418 485.456 96.2817 485.16 96.0092C484.863 95.7318 484.715 95.3994 484.715 95.0121C484.715 94.6199 484.863 94.2876 485.16 94.015C485.456 93.7376 485.81 93.5989 486.222 93.5989C486.638 93.5989 486.991 93.7376 487.283 94.015C487.58 94.2876 487.728 94.6199 487.728 95.0121C487.728 95.3994 487.58 95.7318 487.283 96.0092C486.991 96.2817 486.638 96.418 486.222 96.418ZM492.174 94.3091V109H489.577V94.3091H492.174ZM495.852 113.132C495.498 113.132 495.171 113.103 494.869 113.046C494.573 112.993 494.336 112.931 494.159 112.859L494.762 110.836C495.139 110.946 495.477 110.999 495.773 110.994C496.07 110.989 496.33 110.896 496.555 110.714C496.785 110.537 496.978 110.241 497.136 109.825L497.358 109.23L493.363 97.9818H496.117L498.657 106.303H498.772L501.318 97.9818H504.08L499.668 110.334C499.463 110.918 499.19 111.417 498.85 111.833C498.511 112.254 498.095 112.575 497.602 112.795C497.114 113.019 496.531 113.132 495.852 113.132ZM515.177 97.9818V99.9903H508.843V97.9818H515.177ZM510.407 95.342H513.004V105.686C513.004 106.035 513.056 106.303 513.161 106.489C513.271 106.671 513.415 106.795 513.592 106.862C513.769 106.929 513.965 106.963 514.18 106.963C514.343 106.963 514.491 106.951 514.625 106.927C514.763 106.903 514.869 106.881 514.94 106.862L515.378 108.892C515.239 108.94 515.041 108.993 514.783 109.05C514.529 109.108 514.218 109.141 513.85 109.151C513.2 109.17 512.614 109.072 512.093 108.857C511.571 108.637 511.158 108.297 510.852 107.838C510.55 107.379 510.402 106.805 510.407 106.116V95.342ZM516.743 109V97.9818H519.261V99.8182H519.375C519.576 99.1821 519.921 98.692 520.408 98.3477C520.901 97.9986 521.463 97.824 522.094 97.824C522.238 97.824 522.398 97.8312 522.575 97.8455C522.756 97.8551 522.907 97.8718 523.027 97.8957V100.284C522.917 100.246 522.742 100.213 522.503 100.184C522.269 100.151 522.042 100.134 521.822 100.134C521.348 100.134 520.922 100.237 520.545 100.442C520.172 100.643 519.878 100.923 519.662 101.282C519.447 101.64 519.34 102.054 519.34 102.523V109H516.743ZM527.119 109.222C526.421 109.222 525.792 109.098 525.233 108.849C524.678 108.596 524.238 108.223 523.913 107.73C523.592 107.238 523.432 106.63 523.432 105.908C523.432 105.287 523.547 104.773 523.776 104.366C524.006 103.96 524.319 103.634 524.716 103.39C525.113 103.147 525.56 102.962 526.058 102.838C526.56 102.709 527.079 102.616 527.614 102.558C528.26 102.491 528.783 102.432 529.185 102.379C529.587 102.322 529.878 102.236 530.06 102.121C530.247 102.001 530.34 101.817 530.34 101.568V101.525C530.34 100.985 530.18 100.567 529.859 100.27C529.539 99.9736 529.077 99.8254 528.475 99.8254C527.839 99.8254 527.334 99.964 526.961 100.241C526.593 100.519 526.344 100.846 526.215 101.224L523.791 100.88C523.982 100.21 524.298 99.6508 524.738 99.2013C525.178 98.747 525.716 98.4074 526.352 98.1827C526.988 97.9531 527.691 97.8384 528.461 97.8384C528.991 97.8384 529.52 97.9005 530.046 98.0249C530.572 98.1492 531.053 98.3548 531.488 98.6418C531.923 98.9239 532.272 99.3089 532.535 99.7967C532.803 100.284 532.937 100.894 532.937 101.626V109H530.44V107.486H530.354C530.197 107.792 529.974 108.079 529.687 108.347C529.405 108.61 529.049 108.823 528.618 108.986C528.193 109.143 527.693 109.222 527.119 109.222ZM527.793 107.314C528.315 107.314 528.767 107.211 529.149 107.006C529.532 106.795 529.826 106.518 530.032 106.174C530.242 105.829 530.347 105.454 530.347 105.048V103.749C530.266 103.816 530.127 103.878 529.931 103.936C529.74 103.993 529.525 104.043 529.285 104.086C529.046 104.129 528.81 104.168 528.575 104.201C528.341 104.235 528.138 104.263 527.966 104.287C527.578 104.34 527.232 104.426 526.925 104.545C526.619 104.665 526.378 104.832 526.201 105.048C526.024 105.258 525.936 105.531 525.936 105.865C525.936 106.343 526.11 106.705 526.459 106.948C526.808 107.192 527.253 107.314 527.793 107.314ZM537.539 102.544V109H534.942V97.9818H537.424V99.854H537.553C537.806 99.2371 538.21 98.747 538.765 98.3835C539.325 98.0201 540.016 97.8384 540.838 97.8384C541.599 97.8384 542.261 98.0009 542.825 98.3261C543.394 98.6513 543.834 99.1224 544.145 99.7393C544.461 100.356 544.616 101.105 544.611 101.985V109H542.015V102.386C542.015 101.65 541.823 101.074 541.441 100.657C541.063 100.241 540.539 100.033 539.87 100.033C539.416 100.033 539.011 100.134 538.658 100.335C538.308 100.531 538.033 100.815 537.833 101.188C537.637 101.561 537.539 102.013 537.539 102.544ZM555.354 100.894L552.986 101.152C552.919 100.913 552.802 100.689 552.635 100.478C552.472 100.268 552.252 100.098 551.975 99.9688C551.698 99.8397 551.358 99.7751 550.956 99.7751C550.416 99.7751 549.962 99.8923 549.593 100.127C549.23 100.361 549.051 100.665 549.055 101.038C549.051 101.358 549.168 101.619 549.407 101.82C549.651 102.02 550.052 102.185 550.612 102.314L552.491 102.716C553.534 102.941 554.309 103.297 554.816 103.785C555.327 104.273 555.585 104.911 555.59 105.7C555.585 106.394 555.382 107.006 554.981 107.537C554.584 108.063 554.031 108.474 553.323 108.77C552.616 109.067 551.803 109.215 550.885 109.215C549.536 109.215 548.45 108.933 547.628 108.369C546.805 107.8 546.315 107.008 546.157 105.994L548.69 105.75C548.804 106.248 549.048 106.623 549.421 106.877C549.794 107.13 550.28 107.257 550.877 107.257C551.494 107.257 551.989 107.13 552.362 106.877C552.74 106.623 552.929 106.31 552.929 105.937C552.929 105.621 552.807 105.361 552.563 105.155C552.324 104.949 551.951 104.792 551.444 104.682L549.565 104.287C548.508 104.067 547.726 103.697 547.219 103.175C546.712 102.649 546.461 101.985 546.466 101.181C546.461 100.502 546.645 99.9138 547.018 99.4165C547.396 98.9143 547.92 98.527 548.589 98.2544C549.263 97.977 550.041 97.8384 550.92 97.8384C552.212 97.8384 553.228 98.1133 553.969 98.6633C554.715 99.2132 555.177 99.9569 555.354 100.894ZM560.296 109.222C559.598 109.222 558.969 109.098 558.41 108.849C557.855 108.596 557.415 108.223 557.09 107.73C556.769 107.238 556.609 106.63 556.609 105.908C556.609 105.287 556.724 104.773 556.953 104.366C557.183 103.96 557.496 103.634 557.893 103.39C558.29 103.147 558.737 102.962 559.234 102.838C559.737 102.709 560.255 102.616 560.791 102.558C561.437 102.491 561.96 102.432 562.362 102.379C562.764 102.322 563.055 102.236 563.237 102.121C563.424 102.001 563.517 101.817 563.517 101.568V101.525C563.517 100.985 563.357 100.567 563.036 100.27C562.716 99.9736 562.254 99.8254 561.652 99.8254C561.016 99.8254 560.511 99.964 560.138 100.241C559.77 100.519 559.521 100.846 559.392 101.224L556.968 100.88C557.159 100.21 557.475 99.6508 557.915 99.2013C558.355 98.747 558.893 98.4074 559.529 98.1827C560.165 97.9531 560.868 97.8384 561.637 97.8384C562.168 97.8384 562.697 97.9005 563.223 98.0249C563.749 98.1492 564.229 98.3548 564.665 98.6418C565.1 98.9239 565.449 99.3089 565.712 99.7967C565.98 100.284 566.114 100.894 566.114 101.626V109H563.617V107.486H563.531C563.373 107.792 563.151 108.079 562.864 108.347C562.582 108.61 562.226 108.823 561.795 108.986C561.37 109.143 560.87 109.222 560.296 109.222ZM560.97 107.314C561.492 107.314 561.944 107.211 562.326 107.006C562.709 106.795 563.003 106.518 563.208 106.174C563.419 105.829 563.524 105.454 563.524 105.048V103.749C563.443 103.816 563.304 103.878 563.108 103.936C562.917 103.993 562.702 104.043 562.462 104.086C562.223 104.129 561.987 104.168 561.752 104.201C561.518 104.235 561.315 104.263 561.143 104.287C560.755 104.34 560.408 104.426 560.102 104.545C559.796 104.665 559.555 104.832 559.378 105.048C559.201 105.258 559.112 105.531 559.112 105.865C559.112 106.343 559.287 106.705 559.636 106.948C559.985 107.192 560.43 107.314 560.97 107.314ZM572.925 109.215C571.825 109.215 570.88 108.974 570.091 108.491C569.307 108.008 568.702 107.341 568.277 106.489C567.856 105.633 567.645 104.648 567.645 103.534C567.645 102.415 567.86 101.427 568.291 100.571C568.721 99.7106 569.329 99.0411 570.113 98.5629C570.902 98.0799 571.834 97.8384 572.91 97.8384C573.805 97.8384 574.596 98.0033 575.285 98.3333C575.978 98.6585 576.531 99.12 576.942 99.7178C577.353 100.311 577.587 101.004 577.645 101.798H575.163C575.062 101.267 574.823 100.825 574.446 100.471C574.073 100.112 573.573 99.933 572.946 99.933C572.416 99.933 571.949 100.076 571.548 100.363C571.146 100.646 570.833 101.052 570.608 101.583C570.388 102.114 570.278 102.75 570.278 103.491C570.278 104.242 570.388 104.887 570.608 105.428C570.828 105.963 571.136 106.377 571.533 106.669C571.935 106.956 572.406 107.099 572.946 107.099C573.329 107.099 573.671 107.027 573.972 106.884C574.278 106.736 574.534 106.523 574.74 106.245C574.945 105.968 575.086 105.631 575.163 105.234H577.645C577.583 106.014 577.353 106.705 576.956 107.307C576.559 107.905 576.019 108.374 575.335 108.713C574.651 109.048 573.848 109.215 572.925 109.215ZM584.673 97.9818V99.9903H578.339V97.9818H584.673ZM579.903 95.342H582.5V105.686C582.5 106.035 582.552 106.303 582.657 106.489C582.767 106.671 582.911 106.795 583.088 106.862C583.265 106.929 583.461 106.963 583.676 106.963C583.839 106.963 583.987 106.951 584.121 106.927C584.259 106.903 584.365 106.881 584.436 106.862L584.874 108.892C584.735 108.94 584.537 108.993 584.278 109.05C584.025 109.108 583.714 109.141 583.346 109.151C582.696 109.17 582.11 109.072 581.589 108.857C581.067 108.637 580.654 108.297 580.348 107.838C580.046 107.379 579.898 106.805 579.903 106.116V95.342ZM586.239 109V97.9818H588.835V109H586.239ZM587.544 96.418C587.133 96.418 586.779 96.2817 586.483 96.0092C586.186 95.7318 586.038 95.3994 586.038 95.0121C586.038 94.6199 586.186 94.2876 586.483 94.015C586.779 93.7376 587.133 93.5989 587.544 93.5989C587.96 93.5989 588.314 93.7376 588.606 94.015C588.902 94.2876 589.051 94.6199 589.051 95.0121C589.051 95.3994 588.902 95.7318 588.606 96.0092C588.314 96.2817 587.96 96.418 587.544 96.418ZM595.706 109.215C594.63 109.215 593.697 108.978 592.908 108.505C592.119 108.032 591.507 107.369 591.072 106.518C590.641 105.667 590.426 104.672 590.426 103.534C590.426 102.396 590.641 101.399 591.072 100.543C591.507 99.6867 592.119 99.0219 592.908 98.5485C593.697 98.0751 594.63 97.8384 595.706 97.8384C596.782 97.8384 597.714 98.0751 598.503 98.5485C599.292 99.0219 599.902 99.6867 600.333 100.543C600.768 101.399 600.985 102.396 600.985 103.534C600.985 104.672 600.768 105.667 600.333 106.518C599.902 107.369 599.292 108.032 598.503 108.505C597.714 108.978 596.782 109.215 595.706 109.215ZM595.72 107.135C596.304 107.135 596.791 106.975 597.184 106.654C597.576 106.329 597.867 105.894 598.059 105.349C598.255 104.804 598.353 104.196 598.353 103.527C598.353 102.852 598.255 102.243 598.059 101.698C597.867 101.148 597.576 100.71 597.184 100.385C596.791 100.06 596.304 99.8971 595.72 99.8971C595.122 99.8971 594.625 100.06 594.228 100.385C593.836 100.71 593.542 101.148 593.346 101.698C593.155 102.243 593.059 102.852 593.059 103.527C593.059 104.196 593.155 104.804 593.346 105.349C593.542 105.894 593.836 106.329 594.228 106.654C594.625 106.975 595.122 107.135 595.72 107.135ZM605.18 102.544V109H602.583V97.9818H605.065V99.854H605.194C605.448 99.2371 605.852 98.747 606.407 98.3835C606.966 98.0201 607.657 97.8384 608.48 97.8384C609.24 97.8384 609.903 98.0009 610.467 98.3261C611.036 98.6513 611.476 99.1224 611.787 99.7393C612.102 100.356 612.258 101.105 612.253 101.985V109H609.656V102.386C609.656 101.65 609.465 101.074 609.082 100.657C608.705 100.241 608.181 100.033 607.511 100.033C607.057 100.033 606.653 100.134 606.299 100.335C605.95 100.531 605.675 100.815 605.474 101.188C605.278 101.561 605.18 102.013 605.18 102.544ZM622.995 100.894L620.628 101.152C620.561 100.913 620.444 100.689 620.276 100.478C620.114 100.268 619.894 100.098 619.617 99.9688C619.339 99.8397 619 99.7751 618.598 99.7751C618.058 99.7751 617.603 99.8923 617.235 100.127C616.872 100.361 616.692 100.665 616.697 101.038C616.692 101.358 616.809 101.619 617.048 101.82C617.292 102.02 617.694 102.185 618.254 102.314L620.133 102.716C621.176 102.941 621.95 103.297 622.457 103.785C622.969 104.273 623.227 104.911 623.232 105.7C623.227 106.394 623.024 107.006 622.622 107.537C622.225 108.063 621.673 108.474 620.965 108.77C620.257 109.067 619.444 109.215 618.526 109.215C617.178 109.215 616.092 108.933 615.269 108.369C614.447 107.8 613.957 107.008 613.799 105.994L616.331 105.75C616.446 106.248 616.69 106.623 617.063 106.877C617.436 107.13 617.921 107.257 618.519 107.257C619.136 107.257 619.631 107.13 620.004 106.877C620.382 106.623 620.571 106.31 620.571 105.937C620.571 105.621 620.449 105.361 620.205 105.155C619.966 104.949 619.593 104.792 619.086 104.682L617.206 104.287C616.149 104.067 615.368 103.697 614.861 103.175C614.354 102.649 614.103 101.985 614.107 101.181C614.103 100.502 614.287 99.9138 614.66 99.4165C615.038 98.9143 615.561 98.527 616.231 98.2544C616.905 97.977 617.682 97.8384 618.562 97.8384C619.853 97.8384 620.869 98.1133 621.611 98.6633C622.357 99.2132 622.818 99.9569 622.995 100.894Z" fill="currentColor" />
</svg>
