<svg width="103" height="103" viewBox="0 0 103 103" fill="none" xmlns="http://www.w3.org/2000/svg">
<path d="M51.1631 0.686523C79.3304 0.686523 102.163 23.5192 102.163 51.6865C102.163 79.8538 79.3304 102.687 51.1631 102.687C22.9958 102.687 0.163086 79.8538 0.163086 51.6865C0.163086 23.5192 22.9958 0.686523 51.1631 0.686523ZM51.1631 72.0865C49.8105 72.0865 48.5133 72.6238 47.5568 73.5803C46.6004 74.5367 46.0631 75.8339 46.0631 77.1865C46.0631 78.5391 46.6004 79.8363 47.5568 80.7928C48.5133 81.7492 49.8105 82.2865 51.1631 82.2865C52.5157 82.2865 53.8129 81.7492 54.7693 80.7928C55.7258 79.8363 56.2631 78.5391 56.2631 77.1865C56.2631 75.8339 55.7258 74.5367 54.7693 73.5803C53.8129 72.6238 52.5157 72.0865 51.1631 72.0865ZM51.1631 23.6365C46.2599 23.6365 41.5575 25.5843 38.0904 29.0514C34.6234 32.5185 32.6756 37.2208 32.6756 42.124C32.6756 43.4766 33.2129 44.7738 34.1693 45.7303C35.1258 46.6867 36.423 47.224 37.7756 47.224C39.1282 47.224 40.4254 46.6867 41.3818 45.7303C42.3383 44.7738 42.8756 43.4766 42.8756 42.124C42.8773 40.6197 43.2884 39.1442 44.0648 37.8558C44.8413 36.5673 45.9538 35.5145 47.283 34.8102C48.6123 34.1059 50.1082 33.7767 51.6103 33.8579C53.1124 33.9391 54.5641 34.4276 55.8097 35.271C57.0554 36.1145 58.0479 37.281 58.681 38.6457C59.3141 40.0103 59.5638 41.5215 59.4033 43.0172C59.2429 44.513 58.6783 45.9368 57.7702 47.1361C56.8622 48.3354 55.6448 49.265 54.2486 49.825C50.801 51.202 46.0631 54.7312 46.0631 60.6115V61.8865C46.0631 63.2391 46.6004 64.5363 47.5568 65.4928C48.5133 66.4492 49.8105 66.9865 51.1631 66.9865C52.5157 66.9865 53.8129 66.4492 54.7693 65.4928C55.7258 64.5363 56.2631 63.2391 56.2631 61.8865C56.2631 60.6421 56.5181 60.0199 57.5942 59.4895L58.0379 59.2855C62.02 57.6836 65.3209 54.7463 67.3746 50.9772C69.4284 47.2081 70.107 42.842 69.2942 38.6274C68.4814 34.4128 66.2279 30.6121 62.9198 27.877C59.6118 25.1419 55.4554 23.6428 51.1631 23.6365Z" fill="currentColor"/>
</svg>
