<svg width="40" height="40" viewBox="0 0 41 39" fill="none" xmlns="http://www.w3.org/2000/svg">
    <circle cx="21.7509" cy="19.4792" r="17.3954" stroke="currentColor" stroke-width="2.50782"/>
    <path fill-rule="evenodd" clip-rule="evenodd" d="M21.5654 2.47534C12.1747 2.47534 4.56201 10.088 4.56201 19.4787C4.56201 28.8694 12.1747 36.4821 21.5654 36.4821H21.7512V2.47534H21.5654ZM6.98108 18.3024C8.52346 16.5927 10.4872 15.1933 12.7323 14.7287C15.0216 14.255 17.4739 14.7815 19.8687 16.6912L18.6179 18.2598C16.6438 16.6857 14.7898 16.3517 13.1388 16.6933C11.4436 17.0441 9.83311 18.1361 8.47073 19.6462L6.98108 18.3024Z" fill="currentColor"/>
    <path fill-rule="evenodd" clip-rule="evenodd" d="M30.9641 14.7277C33.2092 15.1923 35.1729 16.5917 36.7153 18.3014L35.2257 19.6453C33.8633 18.1351 32.2528 17.0432 30.5576 16.6924C28.9067 16.3507 27.0526 16.6847 25.0785 18.2588L23.8277 16.6902C26.2226 14.7805 28.6748 14.254 30.9641 14.7277Z" fill="currentColor"/>
    <path d="M11.4086 20.0116L21.8663 38.125H0.950828L11.4086 20.0116Z" fill="currentColor"/>
</svg>