<svg width="48" height="48" viewBox="0 0 48 48" fill="none" xmlns="http://www.w3.org/2000/svg">
<g clip-path="url(#clip0_36751_205972)">
<path d="M47.26 9.33317C46.336 7.74517 44.636 6.6665 42.6667 6.6665H24V9.33317H47.26ZM0 33.3332H48V35.9998H0V33.3332ZM24 22.6665H48V25.3332H24V22.6665ZM24 17.3332H48V19.9998H24V17.3332ZM0 27.9998H48V30.6665H0V27.9998ZM5.33333 41.3332H42.6667C44.636 41.3332 46.336 40.2545 47.26 38.6665H0.74C1.664 40.2545 3.364 41.3332 5.33333 41.3332ZM24 11.9998H48V14.6665H24V11.9998Z" fill="#B22334" style="fill:#B22334;fill:color(display-p3 0.6980 0.1373 0.2039);fill-opacity:1;"/>
<path d="M0.0906667 36.9055C0.112889 37.0299 0.139111 37.1531 0.169333 37.2748C0.204889 37.4082 0.245778 37.5397 0.292 37.6695C0.410667 38.0148 0.554667 38.3482 0.736 38.6602L0.74 38.6668H47.26L47.2627 38.6615C47.4434 38.348 47.5917 38.017 47.7053 37.6735C47.7919 37.4229 47.8596 37.1662 47.908 36.9055C47.9627 36.6122 48 36.3108 48 36.0002H0C0 36.3108 0.0373333 36.6108 0.0906667 36.9055ZM0 30.6668H48V33.3335H0V30.6668ZM0 25.3335V28.0002H48V25.3335H24H0ZM24 20.0002H48V22.6668H24V20.0002ZM24 14.6668H48V17.3335H24V14.6668ZM0.170667 10.7255C0.204 10.5895 0.250667 10.4602 0.293333 10.3295C0.247328 10.4599 0.206408 10.592 0.170667 10.7255ZM24 12.0002H48C48 11.6895 47.9627 11.3882 47.908 11.0935C47.8613 10.8323 47.7931 10.5754 47.704 10.3255C47.5902 9.98057 47.4414 9.64818 47.26 9.3335H24V12.0002Z" fill="#EEEEEE" style="fill:#EEEEEE;fill:color(display-p3 0.9333 0.9333 0.9333);fill-opacity:1;"/>
<path d="M24 6.6665H5.33333C3.91885 6.6665 2.56229 7.22841 1.5621 8.2286C0.561903 9.22879 0 10.5853 0 11.9998L0 25.3332H24V6.6665Z" fill="#3C3B6E" style="fill:#3C3B6E;fill:color(display-p3 0.2353 0.2314 0.4314);fill-opacity:1;"/>
<path d="M2.66797 10.3015L3.49197 10.9002L3.1773 11.8668L3.99997 11.2695L4.82397 11.8668L4.5093 10.9002L5.3333 10.3015H4.31464L3.99997 9.3335L3.68664 10.3015H2.66797ZM5.33464 12.9682L6.15864 13.5668L5.84397 14.5335L6.66664 13.9362L7.49064 14.5335L7.17597 13.5668L7.99997 12.9682H6.9813L6.66664 12.0002L6.3533 12.9682H5.33464ZM10.668 12.9682L11.492 13.5668L11.1773 14.5335L12 13.9362L12.824 14.5335L12.5093 13.5668L13.3333 12.9682H12.3146L12 12.0002L11.6866 12.9682H10.668ZM16.0013 12.9682L16.8253 13.5668L16.5106 14.5335L17.3333 13.9362L18.1573 14.5335L17.8426 13.5668L18.6666 12.9682H17.648L17.3333 12.0002L17.02 12.9682H16.0013ZM5.33464 18.3015L6.15864 18.9002L5.84397 19.8668L6.66664 19.2695L7.49064 19.8668L7.17597 18.9002L7.99997 18.3015H6.9813L6.66664 17.3335L6.3533 18.3015H5.33464ZM10.668 18.3015L11.492 18.9002L11.1773 19.8668L12 19.2695L12.824 19.8668L12.5093 18.9002L13.3333 18.3015H12.3146L12 17.3335L11.6866 18.3015H10.668ZM16.0013 18.3015L16.8253 18.9002L16.5106 19.8668L17.3333 19.2695L18.1573 19.8668L17.8426 18.9002L18.6666 18.3015H17.648L17.3333 17.3335L17.02 18.3015H16.0013ZM8.0013 10.3015L8.8253 10.9002L8.51064 11.8668L9.3333 11.2695L10.1573 11.8668L9.84264 10.9002L10.6666 10.3015H9.64797L9.3333 9.3335L9.01997 10.3015H8.0013ZM13.3346 10.3015L14.1586 10.9002L13.844 11.8668L14.6666 11.2695L15.4906 11.8668L15.176 10.9002L16 10.3015H14.9813L14.6666 9.3335L14.3533 10.3015H13.3346ZM18.668 10.3015L19.492 10.9002L19.1773 11.8668L20 11.2695L20.824 11.8668L20.5093 10.9002L21.3333 10.3015H20.3146L20 9.3335L19.6866 10.3015H18.668ZM2.66797 15.6348L3.49197 16.2335L3.1773 17.2002L3.99997 16.6028L4.82397 17.2002L4.5093 16.2335L5.3333 15.6348H4.31464L3.99997 14.6668L3.68664 15.6348H2.66797ZM8.51064 17.2002L9.3333 16.6028L10.1573 17.2002L9.84264 16.2335L10.6666 15.6348H9.64797L9.3333 14.6668L9.01997 15.6348H8.0013L8.8253 16.2335L8.51064 17.2002ZM13.3346 15.6348L14.1586 16.2335L13.844 17.2002L14.6666 16.6028L15.4906 17.2002L15.176 16.2335L16 15.6348H14.9813L14.6666 14.6668L14.3533 15.6348H13.3346ZM18.668 15.6348L19.492 16.2335L19.1773 17.2002L20 16.6028L20.824 17.2002L20.5093 16.2335L21.3333 15.6348H20.3146L20 14.6668L19.6866 15.6348H18.668ZM2.66797 20.9682L3.49197 21.5668L3.1773 22.5335L3.99997 21.9362L4.82397 22.5335L4.5093 21.5668L5.3333 20.9682H4.31464L3.99997 20.0002L3.68664 20.9682H2.66797ZM8.51064 22.5335L9.3333 21.9362L10.1573 22.5335L9.84264 21.5668L10.6666 20.9682H9.64797L9.3333 20.0002L9.01997 20.9682H8.0013L8.8253 21.5668L8.51064 22.5335ZM13.3346 20.9682L14.1586 21.5668L13.844 22.5335L14.6666 21.9362L15.4906 22.5335L15.176 21.5668L16 20.9682H14.9813L14.6666 20.0002L14.3533 20.9682H13.3346ZM18.668 20.9682L19.492 21.5668L19.1773 22.5335L20 21.9362L20.824 22.5335L20.5093 21.5668L21.3333 20.9682H20.3146L20 20.0002L19.6866 20.9682H18.668Z" fill="white" style="fill:white;fill-opacity:1;"/>
</g>
<defs>
<clipPath id="clip0_36751_205972">
<rect width="48" height="48" fill="white" style="fill:white;fill-opacity:1;"/>
</clipPath>
</defs>
</svg>
