<svg width="48" height="48" viewBox="0 0 48 48" fill="none" xmlns="http://www.w3.org/2000/svg">
    <path d="M20 2.3094C22.4752 0.880339 25.5248 0.880339 28 2.3094L40.7846 9.6906C43.2598 11.1197 44.7846 13.7607 44.7846 16.6188V31.3812C44.7846 34.2393 43.2598 36.8803 40.7846 38.3094L28 45.6906C25.5248 47.1197 22.4752 47.1197 20 45.6906L7.21539 38.3094C4.74018 36.8803 3.21539 34.2393 3.21539 31.3812V16.6188C3.21539 13.7607 4.74018 11.1197 7.21539 9.6906L20 2.3094Z" fill="#373737"/>
    <path opacity="0.4" fill-rule="evenodd" clip-rule="evenodd" d="M22 18.25C21.5858 18.25 21.25 18.5858 21.25 19C21.25 19.4142 21.5858 19.75 22 19.75L30 19.75C30.4142 19.75 30.75 19.4142 30.75 19C30.75 18.5858 30.4142 18.25 30 18.25H22ZM21.25 24C21.25 23.5858 21.5858 23.25 22 23.25L30 23.25C30.4142 23.25 30.75 23.5858 30.75 24C30.75 24.4142 30.4142 24.75 30 24.75L22 24.75C21.5858 24.75 21.25 24.4142 21.25 24ZM21.25 29C21.25 28.5858 21.5858 28.25 22 28.25L30 28.25C30.4142 28.25 30.75 28.5858 30.75 29C30.75 29.4142 30.4142 29.75 30 29.75L22 29.75C21.5858 29.75 21.25 29.4142 21.25 29Z" fill="var(--iconPrimary)"/>
    <path fill-rule="evenodd" clip-rule="evenodd" d="M22 13.25H21.9664H21.9664C20.5947 13.25 19.5193 13.25 18.6549 13.3206C17.7748 13.3925 17.0477 13.5414 16.3896 13.8767C15.3076 14.428 14.428 15.3076 13.8767 16.3896C13.5414 17.0477 13.3925 17.7748 13.3206 18.6549C13.25 19.5193 13.25 20.5947 13.25 21.9664V22V26V26.0336V26.0336C13.25 27.4053 13.25 28.4807 13.3206 29.3451C13.3925 30.2252 13.5414 30.9523 13.8767 31.6104C14.428 32.6924 15.3076 33.572 16.3896 34.1233C17.0477 34.4586 17.7748 34.6075 18.6549 34.6794C19.5193 34.75 20.5947 34.75 21.9664 34.75H22H26H26.0336H26.0336H26.0337H26.0337C27.4054 34.75 28.4808 34.75 29.3451 34.6794C30.2252 34.6075 30.9523 34.4586 31.6104 34.1233C32.6924 33.572 33.572 32.6924 34.1233 31.6104C34.4586 30.9523 34.6075 30.2252 34.6794 29.3451C34.75 28.4807 34.75 27.4053 34.75 26.0336V26V22V21.9664V21.9664V21.9663V21.9663C34.75 20.5946 34.75 19.5192 34.6794 18.6549C34.6075 17.7748 34.4586 17.0477 34.1233 16.3896C33.572 15.3076 32.6924 14.428 31.6104 13.8767C30.9523 13.5414 30.2252 13.3925 29.3451 13.3206C28.4807 13.25 27.4053 13.25 26.0336 13.25H26H22ZM17.0705 15.2132C17.482 15.0036 17.9897 14.88 18.7771 14.8156C19.5732 14.7506 20.5875 14.75 22 14.75L26 14.75C27.4125 14.75 28.4268 14.7506 29.2229 14.8156C30.0103 14.88 30.518 15.0036 30.9295 15.2132C31.7291 15.6207 32.3793 16.2709 32.7868 17.0705C32.9964 17.482 33.12 17.9897 33.1844 18.7771C33.2494 19.5732 33.25 20.5875 33.25 22V26C33.25 27.4125 33.2494 28.4268 33.1844 29.2229C33.12 30.0103 32.9964 30.518 32.7868 30.9295C32.3793 31.7291 31.7292 32.3793 30.9295 32.7868C30.518 32.9964 30.0103 33.12 29.2229 33.1844C28.4268 33.2494 27.4125 33.25 26 33.25H22C20.5875 33.25 19.5732 33.2494 18.7771 33.1844C17.9897 33.12 17.482 32.9964 17.0705 32.7868C16.2709 32.3793 15.6207 31.7292 15.2132 30.9295C15.0036 30.518 14.88 30.0103 14.8156 29.2229C14.7506 28.4268 14.75 27.4125 14.75 26L14.75 22C14.75 20.5875 14.7506 19.5732 14.8156 18.7771C14.88 17.9897 15.0036 17.482 15.2132 17.0705C15.6207 16.2709 16.2709 15.6207 17.0705 15.2132ZM18 20C18.5523 20 19 19.5523 19 19C19 18.4477 18.5523 18 18 18C17.4477 18 17 18.4477 17 19C17 19.5523 17.4477 20 18 20ZM19 24C19 24.5523 18.5523 25 18 25C17.4477 25 17 24.5523 17 24C17 23.4477 17.4477 23 18 23C18.5523 23 19 23.4477 19 24ZM18 30C18.5523 30 19 29.5523 19 29C19 28.4477 18.5523 28 18 28C17.4477 28 17 28.4477 17 29C17 29.5523 17.4477 30 18 30Z" fill="#F9F9F9"/>
</svg>