<svg width="16" height="16" viewBox="0 0 16 16" fill="none" xmlns="http://www.w3.org/2000/svg">
<path d="M8.5 5.00008H7.5V8.00008H3.5C3.23478 8.00008 2.98043 7.89472 2.79289 7.70718C2.60536 7.51965 2.5 7.26529 2.5 7.00008V6.00008C2.5 5.73486 2.60536 5.48051 2.79289 5.29297C2.98043 5.10543 3.23478 5.00008 3.5 5.00008H4.768C4.51993 4.57052 4.44034 4.0641 4.54469 3.57916C4.64904 3.09422 4.92987 2.66536 5.33267 2.37585C5.73546 2.08634 6.23147 1.95685 6.72437 2.01252C7.21728 2.06818 7.67192 2.30503 8 2.67708C8.32808 2.30503 8.78272 2.06818 9.27563 2.01252C9.76853 1.95685 10.2645 2.08634 10.6673 2.37585C11.0701 2.66536 11.351 3.09422 11.4553 3.57916C11.5597 4.0641 11.4801 4.57052 11.232 5.00008H12.5C12.7652 5.00008 13.0196 5.10543 13.2071 5.29297C13.3946 5.48051 13.5 5.73486 13.5 6.00008V7.00008C13.5 7.26529 13.3946 7.51965 13.2071 7.70718C13.0196 7.89472 12.7652 8.00008 12.5 8.00008H8.5V5.00008ZM5.5 4.00008C5.5 4.26529 5.60536 4.51965 5.79289 4.70718C5.98043 4.89472 6.23478 5.00008 6.5 5.00008H7.5V4.00008C7.5 3.73486 7.39464 3.48051 7.20711 3.29297C7.01957 3.10543 6.76522 3.00008 6.5 3.00008C6.23478 3.00008 5.98043 3.10543 5.79289 3.29297C5.60536 3.48051 5.5 3.73486 5.5 4.00008V4.00008ZM8.5 5.00008H9.5C9.69778 5.00008 9.89112 4.94143 10.0556 4.83155C10.22 4.72166 10.3482 4.56549 10.4239 4.38276C10.4996 4.20003 10.5194 3.99897 10.4808 3.80499C10.4422 3.611 10.347 3.43282 10.2071 3.29297C10.0673 3.15312 9.88907 3.05788 9.69509 3.01929C9.50111 2.98071 9.30004 3.00051 9.11732 3.0762C8.93459 3.15188 8.77841 3.28006 8.66853 3.44451C8.55865 3.60896 8.5 3.80229 8.5 4.00008V5.00008ZM12.5 9.00008H8.5V14.0001H10.5C11.0304 14.0001 11.5391 13.7894 11.9142 13.4143C12.2893 13.0392 12.5 12.5305 12.5 12.0001V9.00008ZM7.5 14.0001V9.00008H3.5V12.0001C3.5 12.5305 3.71071 13.0392 4.08579 13.4143C4.46086 13.7894 4.96957 14.0001 5.5 14.0001H7.5Z" fill="var(--iconPrimary)"/>
</svg>
