<svg width="12" height="12" viewBox="0 0 12 12" fill="none" xmlns="http://www.w3.org/2000/svg">
<g clip-path="url(#clip0_29777_211935)">
<path d="M9.62993 6.97016L7.96326 6.00016L9.5866 5.04683C9.74197 4.96131 9.87281 4.83736 9.9666 4.68683C10.0839 4.49632 10.1339 4.27198 10.1086 4.04971C10.0833 3.82743 9.98426 3.62004 9.82723 3.4607C9.6702 3.30137 9.46428 3.19929 9.24239 3.17079C9.0205 3.14229 8.79546 3.18902 8.60326 3.3035L6.99993 4.2535V2.3335C6.99993 2.06828 6.89457 1.81393 6.70704 1.62639C6.5195 1.43885 6.26515 1.3335 5.99993 1.3335C5.73471 1.3335 5.48036 1.43885 5.29282 1.62639C5.10529 1.81393 4.99993 2.06828 4.99993 2.3335V4.2535L3.38326 3.3035C3.26961 3.22687 3.14142 3.17442 3.00665 3.14942C2.87188 3.12441 2.73341 3.12738 2.59984 3.15813C2.46626 3.18889 2.34044 3.24678 2.23017 3.3282C2.11991 3.40963 2.02756 3.51285 1.95887 3.63147C1.89017 3.75008 1.8466 3.88155 1.83084 4.01771C1.81509 4.15387 1.8275 4.29182 1.8673 4.42298C1.9071 4.55415 1.97344 4.67573 2.06219 4.78018C2.15095 4.88463 2.26024 4.96972 2.38326 5.03016L4.04993 6.00016L2.39993 6.9535C2.24455 7.03901 2.11372 7.16297 2.01993 7.3135C1.90427 7.504 1.85557 7.72769 1.88155 7.94903C1.90753 8.17038 2.00671 8.37671 2.16334 8.53525C2.31997 8.6938 2.52508 8.79548 2.74609 8.82415C2.96711 8.85281 3.19136 8.80683 3.38326 8.6935L4.99993 7.74683V9.6335C4.99205 9.84658 5.05249 10.0566 5.17242 10.2329C5.29236 10.4092 5.46551 10.5426 5.6666 10.6135C5.81774 10.6669 5.97951 10.6833 6.13827 10.6611C6.29704 10.6389 6.44815 10.5789 6.57886 10.4861C6.70957 10.3933 6.81606 10.2704 6.88934 10.1278C6.96262 9.98524 7.00055 9.82714 6.99993 9.66683V7.74683L8.6166 8.69683C8.73025 8.77346 8.85844 8.8259 8.99321 8.85091C9.12797 8.87592 9.26645 8.87295 9.40002 8.84219C9.5336 8.81144 9.65942 8.75355 9.76969 8.67212C9.87995 8.5907 9.9723 8.48747 10.041 8.36886C10.1097 8.25025 10.1533 8.11878 10.169 7.98261C10.1848 7.84645 10.1724 7.70851 10.1326 7.57734C10.0928 7.44618 10.0264 7.32459 9.93766 7.22014C9.84891 7.11569 9.73962 7.0306 9.6166 6.97016H9.62993Z" fill="currentColor" />
</g>
<defs>
<clipPath id="clip0_29777_211935">
<rect width="12" height="12" fill="white" style="fill:white;fill-opacity:1;"/>
</clipPath>
</defs>
</svg>
