<svg width="16" height="16" viewBox="0 0 16 16" fill="none" xmlns="http://www.w3.org/2000/svg">
<path d="M10 4H13C13.1326 4 13.2598 4.05268 13.3536 4.14645C13.4473 4.24021 13.5 4.36739 13.5 4.5C13.5 4.63261 13.4473 4.75979 13.3536 4.85355C13.2598 4.94732 13.1326 5 13 5H12.447L11.695 11.776C11.6271 12.3875 11.336 12.9525 10.8775 13.3629C10.419 13.7732 9.8253 14.0001 9.21 14H6.79C6.1747 14.0001 5.58098 13.7732 5.12249 13.3629C4.664 12.9525 4.37293 12.3875 4.305 11.776L3.552 5H3C2.86739 5 2.74021 4.94732 2.64645 4.85355C2.55268 4.75979 2.5 4.63261 2.5 4.5C2.5 4.36739 2.55268 4.24021 2.64645 4.14645C2.74021 4.05268 2.86739 4 3 4H6C6 3.46957 6.21071 2.96086 6.58579 2.58579C6.96086 2.21071 7.46957 2 8 2C8.53043 2 9.03914 2.21071 9.41421 2.58579C9.78929 2.96086 10 3.46957 10 4V4ZM8 3C7.73478 3 7.48043 3.10536 7.29289 3.29289C7.10536 3.48043 7 3.73478 7 4H9C9 3.73478 8.89464 3.48043 8.70711 3.29289C8.51957 3.10536 8.26522 3 8 3V3ZM6.5 7V11C6.5 11.1326 6.55268 11.2598 6.64645 11.3536C6.74021 11.4473 6.86739 11.5 7 11.5C7.13261 11.5 7.25979 11.4473 7.35355 11.3536C7.44732 11.2598 7.5 11.1326 7.5 11V7C7.5 6.86739 7.44732 6.74021 7.35355 6.64645C7.25979 6.55268 7.13261 6.5 7 6.5C6.86739 6.5 6.74021 6.55268 6.64645 6.64645C6.55268 6.74021 6.5 6.86739 6.5 7ZM9 6.5C8.86739 6.5 8.74021 6.55268 8.64645 6.64645C8.55268 6.74021 8.5 6.86739 8.5 7V11C8.5 11.1326 8.55268 11.2598 8.64645 11.3536C8.74021 11.4473 8.86739 11.5 9 11.5C9.13261 11.5 9.25979 11.4473 9.35355 11.3536C9.44732 11.2598 9.5 11.1326 9.5 11V7C9.5 6.86739 9.44732 6.74021 9.35355 6.64645C9.25979 6.55268 9.13261 6.5 9 6.5Z" fill="var(--iconPrimary)"/>
</svg>
