<svg width="16" height="16" viewBox="0 0 16 16" fill="none" xmlns="http://www.w3.org/2000/svg">
<path d="M10.4706 9.76471H13.2941C13.6845 9.76471 14 10.0802 14 10.4706V13.2941C14 13.6845 13.6845 14 13.2941 14H9.76471C5.47647 14 2 10.5235 2 6.23529V2.70588C2 2.31553 2.31624 2 2.70588 2H5.52941C5.91976 2 6.23529 2.31553 6.23529 2.70588V5.52941C6.23529 5.91976 5.91976 6.23529 5.52941 6.23529H4.82353C4.868 9.01506 6.94118 11.1765 9.76471 11.1765V10.4706C9.76471 10.0802 10.0802 9.76471 10.4706 9.76471Z" fill="var(--iconPrimary)"/>
</svg>
