<svg width="16" height="16" viewBox="0 0 16 16" fill="none" xmlns="http://www.w3.org/2000/svg">
<path d="M4.5 2C3.83696 2 3.20107 2.26339 2.73223 2.73223C2.26339 3.20107 2 3.83696 2 4.5V11.5C2 12.163 2.26339 12.7989 2.73223 13.2678C3.20107 13.7366 3.83696 14 4.5 14H11.5C12.163 14 12.7989 13.7366 13.2678 13.2678C13.7366 12.7989 14 12.163 14 11.5V4.5C14 3.83696 13.7366 3.20107 13.2678 2.73223C12.7989 2.26339 12.163 2 11.5 2H4.5ZM10.854 6.854L7.354 10.354C7.30755 10.4006 7.25238 10.4375 7.19163 10.4627C7.13089 10.4879 7.06577 10.5009 7 10.5009C6.93423 10.5009 6.86911 10.4879 6.80837 10.4627C6.74762 10.4375 6.69245 10.4006 6.646 10.354L5.146 8.854C5.09951 8.80751 5.06264 8.75232 5.03748 8.69158C5.01232 8.63084 4.99937 8.56574 4.99937 8.5C4.99937 8.43426 5.01232 8.36916 5.03748 8.30842C5.06264 8.24768 5.09951 8.19249 5.146 8.146C5.23989 8.05211 5.36722 7.99937 5.5 7.99937C5.56574 7.99937 5.63084 8.01232 5.69158 8.03748C5.75232 8.06264 5.80751 8.09951 5.854 8.146L7 9.293L10.146 6.146C10.2399 6.05211 10.3672 5.99937 10.5 5.99937C10.6328 5.99937 10.7601 6.05211 10.854 6.146C10.9479 6.23989 11.0006 6.36722 11.0006 6.5C11.0006 6.63278 10.9479 6.76011 10.854 6.854V6.854Z" fill="var(--iconPrimary)"/>
</svg>
