<svg width="16" height="16" viewBox="0 0 16 16" fill="none" xmlns="http://www.w3.org/2000/svg">
<path d="M8 2C8.78793 2 9.56815 2.15519 10.2961 2.45672C11.0241 2.75825 11.6855 3.20021 12.2426 3.75736C12.7998 4.31451 13.2417 4.97595 13.5433 5.7039C13.8448 6.43185 14 7.21207 14 8C14 8.78793 13.8448 9.56815 13.5433 10.2961C13.2417 11.0241 12.7998 11.6855 12.2426 12.2426C11.6855 12.7998 11.0241 13.2417 10.2961 13.5433C9.56815 13.8448 8.78793 14 8 14C6.4087 14 4.88258 13.3679 3.75736 12.2426C2.63214 11.1174 2 9.5913 2 8C2 6.4087 2.63214 4.88258 3.75736 3.75736C4.88258 2.63214 6.4087 2 8 2V2ZM10.12 6.164L7.25 9.042L5.854 7.646C5.80751 7.59951 5.75232 7.56264 5.69158 7.53748C5.63084 7.51232 5.56574 7.49937 5.5 7.49937C5.43426 7.49937 5.36916 7.51232 5.30842 7.53748C5.24768 7.56264 5.19249 7.59951 5.146 7.646C5.09951 7.69249 5.06264 7.74768 5.03748 7.80842C5.01232 7.86916 4.99937 7.93426 4.99937 8C4.99937 8.06574 5.01232 8.13084 5.03748 8.19158C5.06264 8.25232 5.09951 8.30751 5.146 8.354L6.896 10.104C6.94245 10.1506 6.99762 10.1875 7.05837 10.2127C7.11911 10.2379 7.18423 10.2509 7.25 10.2509C7.31577 10.2509 7.38089 10.2379 7.44163 10.2127C7.50238 10.1875 7.55755 10.1506 7.604 10.104L10.828 6.87C10.919 6.77557 10.9692 6.6492 10.9679 6.5181C10.9665 6.38699 10.9138 6.26166 10.8209 6.16908C10.7281 6.0765 10.6026 6.0241 10.4715 6.02315C10.3404 6.0222 10.2142 6.07278 10.12 6.164Z" fill="var(--iconPrimary)"/>
</svg>
