<svg width="16" height="16" viewBox="-4 -2 16 16" fill="none" xmlns="http://www.w3.org/2000/svg">
    <path d="M1.52539 3C1.72237 3 1.91743 2.9612 2.09942 2.88582C2.2814 2.81044 2.44676 2.69995 2.58605 2.56066C2.72534 2.42137 2.83583 2.25601 2.91121 2.07403C2.98659 1.89204 3.02539 1.69698 3.02539 1.5C3.02539 1.30302 2.98659 1.10796 2.91121 0.925975C2.83583 0.743986 2.72534 0.578628 2.58605 0.43934C2.44676 0.300052 2.2814 0.189563 2.09942 0.114181C1.91743 0.0387987 1.72237 -2.93527e-09 1.52539 0C1.12757 5.92805e-09 0.746035 0.158035 0.46473 0.43934C0.183426 0.720644 0.0253906 1.10218 0.0253906 1.5C0.0253906 1.89782 0.183426 2.27936 0.46473 2.56066C0.746035 2.84196 1.12757 3 1.52539 3V3ZM1.52539 7.5C1.92322 7.5 2.30475 7.34196 2.58605 7.06066C2.86736 6.77936 3.02539 6.39782 3.02539 6C3.02539 5.60218 2.86736 5.22064 2.58605 4.93934C2.30475 4.65804 1.92322 4.5 1.52539 4.5C1.12757 4.5 0.746035 4.65804 0.46473 4.93934C0.183426 5.22064 0.0253906 5.60218 0.0253906 6C0.0253906 6.39782 0.183426 6.77936 0.46473 7.06066C0.746035 7.34196 1.12757 7.5 1.52539 7.5V7.5ZM3.02539 10.5C3.02539 10.697 2.98659 10.892 2.91121 11.074C2.83583 11.256 2.72534 11.4214 2.58605 11.5607C2.44676 11.6999 2.2814 11.8104 2.09942 11.8858C1.91743 11.9612 1.72237 12 1.52539 12C1.32841 12 1.13335 11.9612 0.951365 11.8858C0.769377 11.8104 0.604018 11.6999 0.46473 11.5607C0.325442 11.4214 0.214953 11.256 0.139571 11.074C0.0641891 10.892 0.0253906 10.697 0.0253906 10.5C0.0253906 10.1022 0.183426 9.72064 0.46473 9.43934C0.746035 9.15804 1.12757 9 1.52539 9C1.92322 9 2.30475 9.15804 2.58605 9.43934C2.86736 9.72064 3.02539 10.1022 3.02539 10.5V10.5ZM6.52539 3C6.72237 3 6.91743 2.9612 7.09942 2.88582C7.2814 2.81044 7.44676 2.69995 7.58605 2.56066C7.72534 2.42137 7.83583 2.25601 7.91121 2.07403C7.98659 1.89204 8.02539 1.69698 8.02539 1.5C8.02539 1.30302 7.98659 1.10796 7.91121 0.925975C7.83583 0.743986 7.72534 0.578628 7.58605 0.43934C7.44676 0.300052 7.2814 0.189563 7.09942 0.114181C6.91743 0.0387987 6.72237 -2.93527e-09 6.52539 0C6.12757 5.92805e-09 5.74603 0.158035 5.46473 0.43934C5.18343 0.720644 5.02539 1.10218 5.02539 1.5C5.02539 1.89782 5.18343 2.27936 5.46473 2.56066C5.74603 2.84196 6.12757 3 6.52539 3V3ZM8.02539 6C8.02539 6.39782 7.86736 6.77936 7.58605 7.06066C7.30475 7.34196 6.92322 7.5 6.52539 7.5C6.12757 7.5 5.74603 7.34196 5.46473 7.06066C5.18343 6.77936 5.02539 6.39782 5.02539 6C5.02539 5.60218 5.18343 5.22064 5.46473 4.93934C5.74603 4.65804 6.12757 4.5 6.52539 4.5C6.92322 4.5 7.30475 4.65804 7.58605 4.93934C7.86736 5.22064 8.02539 5.60218 8.02539 6V6ZM6.52539 12C6.72237 12 6.91743 11.9612 7.09942 11.8858C7.2814 11.8104 7.44676 11.6999 7.58605 11.5607C7.72534 11.4214 7.83583 11.256 7.91121 11.074C7.98659 10.892 8.02539 10.697 8.02539 10.5C8.02539 10.303 7.98659 10.108 7.91121 9.92597C7.83583 9.74399 7.72534 9.57863 7.58605 9.43934C7.44676 9.30005 7.2814 9.18956 7.09942 9.11418C6.91743 9.0388 6.72237 9 6.52539 9C6.12757 9 5.74603 9.15804 5.46473 9.43934C5.18343 9.72064 5.02539 10.1022 5.02539 10.5C5.02539 10.8978 5.18343 11.2794 5.46473 11.5607C5.74603 11.842 6.12757 12 6.52539 12V12Z" fill="var(--iconPrimary)"/>
</svg>