<svg width="16" height="16" viewBox="0 0 16 16" fill="none" xmlns="http://www.w3.org/2000/svg">
<path d="M10.7329 2.56C11.092 2.20103 11.579 1.99942 12.0868 1.99951C12.5946 1.99961 13.0815 2.2014 13.4404 2.5605C13.7994 2.91961 14.001 3.4066 14.0009 3.91436C14.0008 4.42211 13.799 4.90903 13.4399 5.268L12.7069 6L9.99794 3.294L10.7319 2.56H10.7329ZM9.29294 4.001L3.33694 9.955C3.15616 10.1359 3.0199 10.3564 2.93894 10.599L2.02494 13.342C1.99574 13.43 1.9916 13.5244 2.01297 13.6147C2.03434 13.7049 2.08039 13.7874 2.14596 13.853C2.21153 13.9186 2.29405 13.9646 2.38429 13.986C2.47452 14.0073 2.56893 14.0032 2.65694 13.974L5.39994 13.06C5.64294 12.98 5.86294 12.843 6.04394 12.662L11.9999 6.708L9.29194 4.001H9.29294Z" fill="var(--iconPrimary)"/>
</svg>
