<svg width="16" height="16" viewBox="0 0 16 16" fill="none" xmlns="http://www.w3.org/2000/svg">
<path d="M2.98388 8.625V8.628C2.96704 8.69151 2.93785 8.75109 2.89797 8.80331C2.85809 8.85553 2.80831 8.89938 2.75147 8.93235C2.69463 8.96532 2.63185 8.98677 2.56672 8.99546C2.50159 9.00415 2.43538 8.99991 2.37188 8.983C1.94088 8.869 2.01688 8.372 2.01688 8.372L2.03488 8.31C2.03488 8.31 2.06088 8.226 2.08188 8.165C2.33851 7.44549 2.71628 6.77516 3.19888 6.183C4.09588 5.089 5.60489 4 7.99989 4C10.3949 4 11.9039 5.089 12.8019 6.183C13.2845 6.77516 13.6623 7.44549 13.9189 8.165C13.9404 8.22684 13.9604 8.28919 13.9789 8.352L13.9819 8.365V8.369L13.9829 8.371C14.0146 8.49827 13.995 8.6329 13.9284 8.74588C13.8618 8.85886 13.7535 8.94114 13.6267 8.97498C13.5 9.00883 13.3651 8.99153 13.251 8.92681C13.1369 8.86209 13.0528 8.75513 13.0169 8.629L13.0159 8.625L13.0079 8.6C12.9512 8.42299 12.8844 8.24938 12.8079 8.08C12.6041 7.62678 12.3419 7.20217 12.0279 6.817C11.2859 5.912 10.0439 5 7.99989 5C5.95589 5 4.71488 5.912 3.97188 6.817C3.56439 7.31748 3.24484 7.88352 3.02688 8.491C3.01453 8.52711 3.00286 8.56345 2.99189 8.6L2.98388 8.625V8.625ZM5.49988 9.5C5.49988 8.83696 5.76328 8.20107 6.23212 7.73223C6.70096 7.26339 7.33684 7 7.99989 7C8.66293 7 9.29881 7.26339 9.76765 7.73223C10.2365 8.20107 10.4999 8.83696 10.4999 9.5C10.4999 10.163 10.2365 10.7989 9.76765 11.2678C9.29881 11.7366 8.66293 12 7.99989 12C7.33684 12 6.70096 11.7366 6.23212 11.2678C5.76328 10.7989 5.49988 10.163 5.49988 9.5Z" fill="var(--iconPrimary)"/>
</svg>
