<svg width="16" height="16" viewBox="0 0 18 18" fill="none" xmlns="http://www.w3.org/2000/svg">
  <path d="M0.259277 1.61426C0.259277 1.28274 0.390973 0.964795 0.625394 0.730374C0.859814 0.495954 1.17776 0.364258 1.50928 0.364258H4.00928C4.3408 0.364258 4.65874 0.495954 4.89316 0.730374C5.12758 0.964795 5.25928 1.28274 5.25928 1.61426V4.11426C5.25928 4.44578 5.12758 4.76372 4.89316 4.99814C4.65874 5.23256 4.3408 5.36426 4.00928 5.36426H1.50928C1.17776 5.36426 0.859814 5.23256 0.625394 4.99814C0.390973 4.76372 0.259277 4.44578 0.259277 4.11426V1.61426ZM6.50928 1.61426C6.50928 1.28274 6.64097 0.964795 6.87539 0.730374C7.10981 0.495954 7.42776 0.364258 7.75928 0.364258H10.2593C10.5908 0.364258 10.9087 0.495954 11.1432 0.730374C11.3776 0.964795 11.5093 1.28274 11.5093 1.61426V4.11426C11.5093 4.44578 11.3776 4.76372 11.1432 4.99814C10.9087 5.23256 10.5908 5.36426 10.2593 5.36426H7.75928C7.42776 5.36426 7.10981 5.23256 6.87539 4.99814C6.64097 4.76372 6.50928 4.44578 6.50928 4.11426V1.61426ZM12.7593 1.61426C12.7593 1.28274 12.891 0.964795 13.1254 0.730374C13.3598 0.495954 13.6778 0.364258 14.0093 0.364258H16.5093C16.8408 0.364258 17.1587 0.495954 17.3932 0.730374C17.6276 0.964795 17.7593 1.28274 17.7593 1.61426V4.11426C17.7593 4.44578 17.6276 4.76372 17.3932 4.99814C17.1587 5.23256 16.8408 5.36426 16.5093 5.36426H14.0093C13.6778 5.36426 13.3598 5.23256 13.1254 4.99814C12.891 4.76372 12.7593 4.44578 12.7593 4.11426V1.61426ZM0.259277 7.86426C0.259277 7.53274 0.390973 7.2148 0.625394 6.98037C0.859814 6.74595 1.17776 6.61426 1.50928 6.61426H4.00928C4.3408 6.61426 4.65874 6.74595 4.89316 6.98037C5.12758 7.2148 5.25928 7.53274 5.25928 7.86426V10.3643C5.25928 10.6958 5.12758 11.0137 4.89316 11.2481C4.65874 11.4826 4.3408 11.6143 4.00928 11.6143H1.50928C1.17776 11.6143 0.859814 11.4826 0.625394 11.2481C0.390973 11.0137 0.259277 10.6958 0.259277 10.3643V7.86426ZM6.50928 7.86426C6.50928 7.53274 6.64097 7.2148 6.87539 6.98037C7.10981 6.74595 7.42776 6.61426 7.75928 6.61426H10.2593C10.5908 6.61426 10.9087 6.74595 11.1432 6.98037C11.3776 7.2148 11.5093 7.53274 11.5093 7.86426V10.3643C11.5093 10.6958 11.3776 11.0137 11.1432 11.2481C10.9087 11.4826 10.5908 11.6143 10.2593 11.6143H7.75928C7.42776 11.6143 7.10981 11.4826 6.87539 11.2481C6.64097 11.0137 6.50928 10.6958 6.50928 10.3643V7.86426ZM12.7593 7.86426C12.7593 7.53274 12.891 7.2148 13.1254 6.98037C13.3598 6.74595 13.6778 6.61426 14.0093 6.61426H16.5093C16.8408 6.61426 17.1587 6.74595 17.3932 6.98037C17.6276 7.2148 17.7593 7.53274 17.7593 7.86426V10.3643C17.7593 10.6958 17.6276 11.0137 17.3932 11.2481C17.1587 11.4826 16.8408 11.6143 16.5093 11.6143H14.0093C13.6778 11.6143 13.3598 11.4826 13.1254 11.2481C12.891 11.0137 12.7593 10.6958 12.7593 10.3643V7.86426ZM0.259277 14.1143C0.259277 13.7827 0.390973 13.4648 0.625394 13.2304C0.859814 12.996 1.17776 12.8643 1.50928 12.8643H4.00928C4.3408 12.8643 4.65874 12.996 4.89316 13.2304C5.12758 13.4648 5.25928 13.7827 5.25928 14.1143V16.6143C5.25928 16.9458 5.12758 17.2637 4.89316 17.4981C4.65874 17.7326 4.3408 17.8643 4.00928 17.8643H1.50928C1.17776 17.8643 0.859814 17.7326 0.625394 17.4981C0.390973 17.2637 0.259277 16.9458 0.259277 16.6143V14.1143ZM6.50928 14.1143C6.50928 13.7827 6.64097 13.4648 6.87539 13.2304C7.10981 12.996 7.42776 12.8643 7.75928 12.8643H10.2593C10.5908 12.8643 10.9087 12.996 11.1432 13.2304C11.3776 13.4648 11.5093 13.7827 11.5093 14.1143V16.6143C11.5093 16.9458 11.3776 17.2637 11.1432 17.4981C10.9087 17.7326 10.5908 17.8643 10.2593 17.8643H7.75928C7.42776 17.8643 7.10981 17.7326 6.87539 17.4981C6.64097 17.2637 6.50928 16.9458 6.50928 16.6143V14.1143ZM12.7593 14.1143C12.7593 13.7827 12.891 13.4648 13.1254 13.2304C13.3598 12.996 13.6778 12.8643 14.0093 12.8643H16.5093C16.8408 12.8643 17.1587 12.996 17.3932 13.2304C17.6276 13.4648 17.7593 13.7827 17.7593 14.1143V16.6143C17.7593 16.9458 17.6276 17.2637 17.3932 17.4981C17.1587 17.7326 16.8408 17.8643 16.5093 17.8643H14.0093C13.6778 17.8643 13.3598 17.7326 13.1254 17.4981C12.891 17.2637 12.7593 16.9458 12.7593 16.6143V14.1143Z" fill="var(--iconPrimary)"/>
</svg>