<svg width="16" height="16" viewBox="0 0 16 16" fill="none" xmlns="http://www.w3.org/2000/svg">
    <path d="M6.9478 2.07469C6.28036 1.9438 5.59098 1.97886 4.94025 2.17676C4.28952 2.37466 3.69736 2.72936 3.2158 3.20969C2.70215 3.72107 2.33212 4.35862 2.1429 5.05829C1.95367 5.75797 1.95192 6.49512 2.1378 7.19569C2.3239 7.03505 2.54779 6.92438 2.78842 6.87405C3.02905 6.82373 3.27853 6.83541 3.51341 6.908C3.74828 6.9806 3.96084 7.11171 4.13112 7.28904C4.30139 7.46636 4.42379 7.68406 4.4868 7.92169C4.68316 7.8933 4.88326 7.90559 5.07467 7.95781C5.26608 8.01003 5.4447 8.10105 5.59945 8.22522C5.75419 8.34939 5.88174 8.50405 5.97418 8.6796C6.06663 8.85515 6.12198 9.04784 6.1368 9.24569C6.48278 9.27024 6.80833 9.41859 7.05386 9.66357C7.29939 9.90855 7.44847 10.2338 7.4738 10.5797C7.74992 10.5991 8.01464 10.6975 8.23638 10.8632C8.45812 11.0289 8.62753 11.2549 8.72439 11.5142C8.82126 11.7735 8.84151 12.0551 8.78271 12.3256C8.72392 12.5961 8.58857 12.844 8.3928 13.0397L8.1578 13.2737L8.8488 13.9267C8.94105 14.0141 9.06379 14.0619 9.19083 14.06C9.31788 14.0582 9.43916 14.0067 9.5288 13.9167C9.6117 13.8333 9.66193 13.723 9.67038 13.6057C9.67882 13.4885 9.6449 13.3721 9.5748 13.2777L9.5368 13.2397C9.51988 13.2228 9.50418 13.2048 9.4898 13.1857L9.3888 13.0837C9.29494 12.9896 9.24224 12.8621 9.24224 12.7292C9.24224 12.5963 9.29494 12.4688 9.3888 12.3747C9.43506 12.3283 9.49 12.2916 9.55049 12.2665C9.61098 12.2414 9.67582 12.2285 9.7413 12.2285C9.80678 12.2285 9.87163 12.2414 9.93211 12.2665C9.9926 12.2916 10.0475 12.3283 10.0938 12.3747L10.2338 12.5147C10.2638 12.5447 10.2918 12.5747 10.3178 12.6067L10.3928 12.6827C10.4367 12.7269 10.4889 12.762 10.5464 12.7859C10.6039 12.8099 10.6655 12.8222 10.7278 12.8222C10.7901 12.8222 10.8517 12.8099 10.9092 12.7859C10.9667 12.762 11.0189 12.7269 11.0628 12.6827C11.1518 12.5933 11.2017 12.4723 11.2017 12.3462C11.2017 12.2201 11.1518 12.0991 11.0628 12.0097L10.9128 11.8597C10.8648 11.8116 10.8271 11.7543 10.802 11.6912C10.7769 11.6281 10.7649 11.5606 10.7668 11.4927C10.7666 11.3939 10.7957 11.2973 10.8504 11.215C10.9051 11.1328 10.9829 11.0685 11.074 11.0304C11.1652 10.9924 11.2656 10.9821 11.3625 11.001C11.4595 11.0199 11.5486 11.0671 11.6188 11.1367L11.7318 11.2507C11.7805 11.2996 11.8384 11.3385 11.9021 11.365C11.9659 11.3915 12.0343 11.4051 12.1033 11.4051C12.1723 11.4051 12.2407 11.3915 12.3045 11.365C12.3682 11.3385 12.4261 11.2996 12.4748 11.2507C12.5731 11.1516 12.6282 11.0177 12.6282 10.8782C12.6282 10.7387 12.5731 10.6048 12.4748 10.5057L12.4498 10.4797C12.4185 10.4524 12.3881 10.4241 12.3588 10.3947L11.5838 9.61669C11.4902 9.52262 11.4377 9.39535 11.4377 9.26269C11.4377 9.13002 11.4902 9.00275 11.5838 8.90869C11.6301 8.86219 11.6851 8.82528 11.7457 8.8001C11.8062 8.77493 11.8712 8.76196 11.9368 8.76196C12.0024 8.76196 12.0674 8.77493 12.1279 8.8001C12.1885 8.82528 12.2435 8.86219 12.2898 8.90869L13.0178 9.63869C13.0351 9.65227 13.0514 9.66697 13.0668 9.68269L13.1268 9.74269C13.2817 9.8689 13.478 9.93305 13.6776 9.9227C13.8771 9.91235 14.0658 9.82824 14.2068 9.68669C14.3584 9.53433 14.4435 9.32813 14.4435 9.11319C14.4435 8.89824 14.3584 8.69204 14.2068 8.53969L13.4688 7.79869C13.4588 7.79007 13.4491 7.78106 13.4398 7.77169L10.4478 4.72969H9.6818L7.9698 6.03169C7.1418 6.66169 5.9598 6.50169 5.3288 5.67369C5.17867 5.47699 5.06881 5.25262 5.0055 5.01341C4.94218 4.77421 4.92666 4.52486 4.95982 4.27965C4.99298 4.03444 5.07417 3.79818 5.19874 3.58438C5.32331 3.37058 5.48882 3.18345 5.6858 3.03369L6.9478 2.07369V2.07469ZM10.6578 3.72969C10.7241 3.72983 10.7898 3.74316 10.8509 3.76892C10.912 3.79467 10.9674 3.83232 11.0138 3.87969L13.7098 6.61969C13.9019 6.23985 14.0151 5.82505 14.0425 5.40029C14.07 4.97553 14.0112 4.5496 13.8696 4.14819C13.7281 3.74677 13.5067 3.37817 13.2189 3.06461C12.931 2.75104 12.5827 2.49901 12.1948 2.32369C11.8611 2.1321 11.4826 2.03206 11.0978 2.03369H8.6478C8.63235 2.04838 8.61599 2.06207 8.5988 2.07469L6.2918 3.82969C6.19933 3.89983 6.1216 3.98753 6.06309 4.08777C6.00458 4.188 5.96642 4.2988 5.95082 4.41381C5.93521 4.52882 5.94246 4.64579 5.97214 4.75799C6.00182 4.8702 6.05336 4.97544 6.1238 5.06769C6.26617 5.25442 6.47684 5.37701 6.70953 5.40851C6.94223 5.44001 7.17791 5.37785 7.3648 5.23569L9.2108 3.83169C9.29764 3.76565 9.4037 3.72983 9.5128 3.72969H10.6578ZM6.3468 10.9987L5.6898 11.6537C5.60619 11.7371 5.49291 11.7839 5.3748 11.7839C5.2567 11.7839 5.14341 11.7371 5.0598 11.6537C4.97826 11.5726 4.93142 11.4631 4.92918 11.3481C4.92694 11.2332 4.96948 11.1219 5.0478 11.0377L5.0608 11.0247L5.7168 10.3697L5.7288 10.3587C5.8134 10.2806 5.92488 10.2381 6.04001 10.2402C6.15514 10.2422 6.26504 10.2886 6.3468 10.3697C6.38831 10.4109 6.42126 10.4599 6.44375 10.5138C6.46623 10.5678 6.47781 10.6257 6.47781 10.6842C6.47781 10.7427 6.46623 10.8006 6.44375 10.8545C6.42126 10.9085 6.38831 10.9575 6.3468 10.9987ZM6.3978 12.9877C6.48141 13.0711 6.5947 13.1179 6.7128 13.1179C6.83091 13.1179 6.94419 13.0711 7.0278 12.9877L7.6848 12.3327C7.7316 12.2862 7.76742 12.2298 7.78963 12.1676C7.81184 12.1055 7.81988 12.0391 7.81317 11.9735C7.80646 11.9078 7.78517 11.8445 7.75085 11.7881C7.71653 11.7318 7.67005 11.6838 7.6148 11.6477C7.52913 11.5914 7.42667 11.5663 7.32467 11.5767C7.22268 11.5871 7.12737 11.6323 7.0548 11.7047L6.3978 12.3597C6.35644 12.4009 6.32362 12.4498 6.30122 12.5037C6.27882 12.5576 6.2673 12.6153 6.2673 12.6737C6.2673 12.732 6.27882 12.7898 6.30122 12.8437C6.32362 12.8976 6.35644 12.9465 6.3978 12.9877ZM3.4128 8.59069L2.7568 9.24569C2.67319 9.3291 2.55991 9.37595 2.4418 9.37595C2.3237 9.37595 2.21041 9.3291 2.1268 9.24569C2.04526 9.16464 1.99842 9.05506 1.99618 8.94011C1.99394 8.82517 2.03648 8.71385 2.1148 8.62969L2.1278 8.61669L2.7838 7.96169L2.7958 7.95069C2.88036 7.87276 2.99175 7.83051 3.10671 7.83275C3.22168 7.83498 3.33134 7.88154 3.4128 7.96269C3.45416 8.00385 3.48698 8.05278 3.50938 8.10667C3.53178 8.16055 3.54331 8.21833 3.54331 8.27669C3.54331 8.33504 3.53178 8.39282 3.50938 8.44671C3.48698 8.50059 3.45416 8.54952 3.4128 8.59069ZM4.8898 9.70369L4.2338 10.3577C4.15019 10.4411 4.03691 10.4879 3.9188 10.4879C3.8007 10.4879 3.68741 10.4411 3.6038 10.3577C3.52255 10.2767 3.4759 10.1673 3.47366 10.0526C3.47142 9.9379 3.51377 9.8268 3.5918 9.74269L3.6048 9.72969L4.2608 9.07469L4.2728 9.06269C4.35736 8.98476 4.46875 8.94251 4.58371 8.94475C4.69868 8.94698 4.80834 8.99354 4.8898 9.07469C4.93131 9.11587 4.96426 9.16486 4.98675 9.21884C5.00923 9.27282 5.02081 9.33071 5.02081 9.38919C5.02081 9.44766 5.00923 9.50556 4.98675 9.55953C4.96426 9.61351 4.93131 9.66251 4.8898 9.70369Z" fill="var(--iconPrimary)"/>
</svg>