<svg width="16" height="16" viewBox="0 0 16 16" fill="none" xmlns="http://www.w3.org/2000/svg">
<path d="M4.5 2C3.83696 2 3.20107 2.26339 2.73223 2.73223C2.26339 3.20107 2 3.83696 2 4.5V11.5C2 12.01 2.152 12.483 2.414 12.879L6.798 8.495C7.11681 8.17624 7.54917 7.99716 8 7.99716C8.45083 7.99716 8.88319 8.17624 9.202 8.495L13.586 12.879C13.8568 12.4701 14.0008 11.9904 14 11.5V4.5C14 3.83696 13.7366 3.20107 13.2678 2.73223C12.7989 2.26339 12.163 2 11.5 2H4.5ZM11.5 5.502C11.5 5.76775 11.3944 6.02261 11.2065 6.21052C11.0186 6.39843 10.7637 6.504 10.498 6.504C10.2323 6.504 9.97739 6.39843 9.78948 6.21052C9.60157 6.02261 9.496 5.76775 9.496 5.502C9.496 5.23625 9.60157 4.98139 9.78948 4.79348C9.97739 4.60557 10.2323 4.5 10.498 4.5C10.7637 4.5 11.0186 4.60557 11.2065 4.79348C11.3944 4.98139 11.5 5.23625 11.5 5.502V5.502ZM12.879 13.586L8.495 9.202C8.43 9.13699 8.35283 9.08542 8.26789 9.05024C8.18296 9.01506 8.09193 8.99695 8 8.99695C7.90807 8.99695 7.81704 9.01506 7.73211 9.05024C7.64717 9.08542 7.57 9.13699 7.505 9.202L3.121 13.586C3.517 13.848 3.991 14 4.5 14H11.5C12.01 14 12.483 13.848 12.879 13.586V13.586Z" fill="var(--iconPrimary)"/>
</svg>
