<svg width="16" height="16" viewBox="0 0 16 16" fill="none" xmlns="http://www.w3.org/2000/svg">
<path d="M4.83 3.31002C5.24409 2.89161 5.73768 2.56025 6.28174 2.33544C6.82581 2.11064 7.40934 1.99694 7.998 2.00102C9.18628 1.99683 10.3291 2.45767 11.182 3.28502C11.5988 3.68713 11.9305 4.16897 12.1572 4.70188C12.384 5.23479 12.5012 5.80787 12.502 6.38702C12.502 7.68002 11.917 8.83002 10.883 9.82502L10.577 11H5.466L5.236 10.037C4.154 8.90702 3.556 7.81902 3.5 6.58202V6.54402C3.54 5.24802 4.033 4.12102 4.831 3.31102L4.83 3.31002ZM5.704 12L5.937 12.978L5.945 13C6.045 13.297 6.237 13.544 6.479 13.717C6.73 13.897 7.037 13.999 7.361 13.999H7.363L8.746 13.995L8.767 13.993C9.07577 13.9669 9.36903 13.8465 9.607 13.648C9.838 13.454 10.013 13.188 10.087 12.874L10.316 12H5.704V12Z" fill="var(--iconPrimary)"/>
</svg>
