<svg width="16" height="16" viewBox="0 0 16 16" fill="none" xmlns="http://www.w3.org/2000/svg">
<path d="M7.832 1.755L8 1.75C8.70029 1.74997 9.37421 2.01709 9.8843 2.49689C10.3944 2.97669 10.7022 3.63302 10.745 4.332L10.75 4.5V5H11.5C11.8978 5 12.2794 5.15804 12.5607 5.43934C12.842 5.72064 13 6.10218 13 6.5V12.5C13 12.8978 12.842 13.2794 12.5607 13.5607C12.2794 13.842 11.8978 14 11.5 14H4.5C4.10218 14 3.72064 13.842 3.43934 13.5607C3.15804 13.2794 3 12.8978 3 12.5V6.5C3 6.10218 3.15804 5.72064 3.43934 5.43934C3.72064 5.15804 4.10218 5 4.5 5H5.25V4.5C5.24997 3.79971 5.51709 3.12579 5.99689 2.6157C6.47669 2.10561 7.13302 1.79778 7.832 1.755L8 1.75L7.832 1.755ZM8 8.5C7.73478 8.5 7.48043 8.60536 7.29289 8.79289C7.10536 8.98043 7 9.23478 7 9.5C7 9.76522 7.10536 10.0196 7.29289 10.2071C7.48043 10.3946 7.73478 10.5 8 10.5C8.26522 10.5 8.51957 10.3946 8.70711 10.2071C8.89464 10.0196 9 9.76522 9 9.5C9 9.23478 8.89464 8.98043 8.70711 8.79289C8.51957 8.60536 8.26522 8.5 8 8.5V8.5ZM8.128 3.256L8 3.25C7.69054 3.24986 7.39203 3.36451 7.16223 3.57177C6.93244 3.77903 6.78769 4.06417 6.756 4.372L6.75 4.5V5H9.25V4.5C9.25014 4.19054 9.13549 3.89203 8.92823 3.66223C8.72097 3.43244 8.43583 3.28769 8.128 3.256L8 3.25L8.128 3.256V3.256Z" fill="var(--iconPrimary)"/>
</svg>
