<svg width="16" height="16" viewBox="0 0 16 16" fill="none" xmlns="http://www.w3.org/2000/svg">
<path d="M7.99995 1.75C8.82071 1.75 9.63344 1.91166 10.3917 2.22575C11.15 2.53984 11.839 3.00022 12.4194 3.58058C12.9997 4.16095 13.4601 4.84994 13.7742 5.60823C14.0883 6.36651 14.25 7.17924 14.25 8C14.25 9.807 13.014 11.25 11.5 11.25C10.772 11.25 10.228 10.96 9.85795 10.446C9.62191 10.7028 9.33452 10.907 9.01443 11.0455C8.69434 11.184 8.34871 11.2537 7.99995 11.25C6.30995 11.25 5.24995 9.733 5.24995 8C5.24995 6.267 6.30995 4.75 7.99995 4.75C8.47631 4.74565 8.944 4.87749 9.34795 5.13C9.4246 4.99259 9.54263 4.88286 9.68524 4.8164C9.82786 4.74994 9.9878 4.73015 10.1423 4.75983C10.2968 4.78951 10.438 4.86717 10.5459 4.98174C10.6537 5.09631 10.7227 5.24197 10.743 5.398L10.75 5.5V8C10.75 9.243 11.031 9.75 11.5 9.75C12.13 9.75 12.75 9.026 12.75 8C12.7496 7.01066 12.4403 6.04612 11.8653 5.24104C11.2902 4.43597 10.4782 3.83053 9.54246 3.50925C8.60674 3.18797 7.59405 3.16689 6.64576 3.44895C5.69748 3.731 4.86093 4.30211 4.2529 5.08256C3.64487 5.86301 3.2957 6.81384 3.25415 7.80231C3.21259 8.79078 3.48072 9.76755 4.0211 10.5963C4.56148 11.425 5.34715 12.0643 6.26841 12.425C7.18968 12.7856 8.20056 12.8496 9.15995 12.608L9.43795 12.528L9.63295 12.462C9.81144 12.3967 10.0081 12.4015 10.1831 12.4756C10.3582 12.5497 10.4986 12.6874 10.5759 12.8611C10.6532 13.0347 10.6618 13.2312 10.5998 13.4109C10.5378 13.5906 10.4099 13.74 10.242 13.829L10.149 13.871L9.89195 13.958C9.0327 14.2303 8.12471 14.3135 7.23028 14.2019C6.33585 14.0904 5.47613 13.7866 4.71009 13.3116C3.94406 12.8366 3.28984 12.2015 2.7923 11.4499C2.29476 10.6983 1.96569 9.84793 1.82764 8.9572C1.68959 8.06647 1.74585 7.15641 1.99254 6.28946C2.23923 5.42251 2.67052 4.61918 3.25683 3.93456C3.84314 3.24994 4.5706 2.70025 5.38931 2.32317C6.20801 1.9461 7.09859 1.75057 7.99995 1.75V1.75ZM7.99995 6.25C7.27695 6.25 6.74995 7.004 6.74995 8C6.74995 8.996 7.27695 9.75 7.99995 9.75C8.72295 9.75 9.24995 8.996 9.24995 8C9.24995 7.004 8.72295 6.25 7.99995 6.25Z" fill="var(--iconPrimary)"/>
</svg>
