<svg width="16" height="16" viewBox="0 0 16 16" fill="none" xmlns="http://www.w3.org/2000/svg">
<path d="M8 2C7.33696 2 6.70107 2.26339 6.23223 2.73223C5.76339 3.20107 5.5 3.83696 5.5 4.5V8C5.5 8.66304 5.76339 9.29893 6.23223 9.76777C6.70107 10.2366 7.33696 10.5 8 10.5C8.66304 10.5 9.29893 10.2366 9.76777 9.76777C10.2366 9.29893 10.5 8.66304 10.5 8V4.5C10.5 3.83696 10.2366 3.20107 9.76777 2.73223C9.29893 2.26339 8.66304 2 8 2V2ZM4 7.5C4.13261 7.5 4.25979 7.55268 4.35355 7.64645C4.44732 7.74021 4.5 7.86739 4.5 8C4.5 8.92826 4.86875 9.8185 5.52513 10.4749C6.1815 11.1313 7.07174 11.5 8 11.5C8.92826 11.5 9.8185 11.1313 10.4749 10.4749C11.1313 9.8185 11.5 8.92826 11.5 8C11.5 7.86739 11.5527 7.74021 11.6464 7.64645C11.7402 7.55268 11.8674 7.5 12 7.5C12.1326 7.5 12.2598 7.55268 12.3536 7.64645C12.4473 7.74021 12.5 7.86739 12.5 8C12.5002 9.10705 12.0923 10.1753 11.3544 11.0005C10.6164 11.8258 9.60019 12.35 8.5 12.473V13.5C8.5 13.6326 8.44732 13.7598 8.35355 13.8536C8.25979 13.9473 8.13261 14 8 14C7.86739 14 7.74021 13.9473 7.64645 13.8536C7.55268 13.7598 7.5 13.6326 7.5 13.5V12.473C6.39981 12.35 5.38356 11.8258 4.64561 11.0005C3.90766 10.1753 3.49979 9.10705 3.5 8C3.5 7.86739 3.55268 7.74021 3.64645 7.64645C3.74021 7.55268 3.86739 7.5 4 7.5Z" fill="var(--iconPrimary)"/>
</svg>
