<svg width="16" height="16" viewBox="0 0 16 16" fill="none" xmlns="http://www.w3.org/2000/svg">
<path d="M10.8089 11.516L14.1459 14.854C14.1924 14.9005 14.2476 14.9374 14.3083 14.9625C14.3691 14.9877 14.4342 15.0007 14.4999 15.0007C14.5656 15.0007 14.6307 14.9877 14.6915 14.9625C14.7522 14.9374 14.8074 14.9005 14.8539 14.854C14.9004 14.8075 14.9373 14.7523 14.9624 14.6916C14.9876 14.6309 15.0005 14.5658 15.0005 14.5C15.0005 14.4343 14.9876 14.3692 14.9624 14.3084C14.9373 14.2477 14.9004 14.1925 14.8539 14.146L1.8539 1.14602C1.80741 1.09953 1.75222 1.06266 1.69148 1.0375C1.63074 1.01234 1.56564 0.99939 1.4999 0.99939C1.43416 0.99939 1.36906 1.01234 1.30832 1.0375C1.24758 1.06266 1.19239 1.09953 1.1459 1.14602C1.09941 1.19251 1.06253 1.2477 1.03738 1.30844C1.01222 1.36918 0.999268 1.43428 0.999268 1.50002C0.999268 1.56577 1.01222 1.63087 1.03738 1.6916C1.06253 1.75234 1.09941 1.80753 1.1459 1.85402L5.4999 6.20702V8.00002C5.49977 8.45179 5.62206 8.89516 5.85377 9.28298C6.08548 9.67081 6.41795 9.98859 6.81583 10.2026C7.21372 10.4165 7.66215 10.5187 8.11346 10.4982C8.56476 10.4776 9.00207 10.3352 9.3789 10.086L10.0959 10.803C9.57569 11.192 8.95749 11.4286 8.31048 11.4862C7.66348 11.5439 7.0132 11.4203 6.43242 11.1294C5.85163 10.8385 5.36326 10.3917 5.02196 9.83902C4.68066 9.28634 4.4999 8.64959 4.4999 8.00002C4.4999 7.86741 4.44722 7.74024 4.35345 7.64647C4.25968 7.5527 4.13251 7.50002 3.9999 7.50002C3.86729 7.50002 3.74011 7.5527 3.64635 7.64647C3.55258 7.74024 3.4999 7.86741 3.4999 8.00002C3.49969 9.10707 3.90756 10.1753 4.64551 11.0006C5.38346 11.8258 6.39971 12.35 7.4999 12.473V13.5C7.4999 13.6326 7.55258 13.7598 7.64635 13.8536C7.74011 13.9473 7.86729 14 7.9999 14C8.13251 14 8.25968 13.9473 8.35345 13.8536C8.44722 13.7598 8.4999 13.6326 8.4999 13.5V12.473C9.34477 12.3795 10.1456 12.0476 10.8089 11.516V11.516ZM12.0599 9.94002L11.2959 9.17602C11.4279 8.80902 11.4989 8.41302 11.4989 8.00002C11.4989 7.86741 11.5516 7.74024 11.6453 7.64647C11.7391 7.5527 11.8663 7.50002 11.9989 7.50002C12.1315 7.50002 12.2587 7.5527 12.3525 7.64647C12.4462 7.74024 12.4989 7.86741 12.4989 8.00002C12.4989 8.69502 12.3419 9.35302 12.0599 9.94002ZM10.4739 8.35402L5.6819 3.56002C5.89936 3.02171 6.29741 2.57586 6.80772 2.299C7.31803 2.02214 7.90879 1.93152 8.47863 2.0427C9.04846 2.15387 9.56184 2.45991 9.93066 2.90829C10.2995 3.35667 10.5007 3.91944 10.4999 4.50002V8.00002C10.4999 8.12002 10.4919 8.23802 10.4749 8.35402H10.4739Z" fill="var(--iconPrimary)"/>
</svg>
