<svg width="16" height="16" viewBox="0 0 16 16" fill="none" xmlns="http://www.w3.org/2000/svg">
<path d="M8 2C8.78793 2 9.56815 2.15519 10.2961 2.45672C11.0241 2.75825 11.6855 3.20021 12.2426 3.75736C12.7998 4.31451 13.2417 4.97595 13.5433 5.7039C13.8448 6.43185 14 7.21207 14 8C14 8.78793 13.8448 9.56815 13.5433 10.2961C13.2417 11.0241 12.7998 11.6855 12.2426 12.2426C11.6855 12.7998 11.0241 13.2417 10.2961 13.5433C9.56815 13.8448 8.78793 14 8 14C6.4087 14 4.88258 13.3679 3.75736 12.2426C2.63214 11.1174 2 9.5913 2 8C2 6.4087 2.63214 4.88258 3.75736 3.75736C4.88258 2.63214 6.4087 2 8 2V2ZM8 10C7.80109 10 7.61032 10.079 7.46967 10.2197C7.32902 10.3603 7.25 10.5511 7.25 10.75C7.25 10.9489 7.32902 11.1397 7.46967 11.2803C7.61032 11.421 7.80109 11.5 8 11.5C8.19891 11.5 8.38968 11.421 8.53033 11.2803C8.67098 11.1397 8.75 10.9489 8.75 10.75C8.75 10.5511 8.67098 10.3603 8.53033 10.2197C8.38968 10.079 8.19891 10 8 10ZM8 4.5C7.88297 4.49996 7.76964 4.54097 7.67974 4.61589C7.58984 4.69081 7.52906 4.79489 7.508 4.91L7.5 5V8.5L7.508 8.59C7.52887 8.70528 7.58957 8.80957 7.67949 8.88468C7.76941 8.95978 7.88284 9.00092 8 9.00092C8.11716 9.00092 8.23059 8.95978 8.32051 8.88468C8.41043 8.80957 8.47113 8.70528 8.492 8.59L8.5 8.5V5L8.492 4.91C8.47094 4.79489 8.41016 4.69081 8.32026 4.61589C8.23036 4.54097 8.11703 4.49996 8 4.5V4.5Z" fill="var(--iconPrimary)"/>
</svg>
