<svg width="18" height="17" viewBox="0 0 18 17" fill="none" xmlns="http://www.w3.org/2000/svg">
<path d="M3.5 3.75C3.5 3.15326 3.73705 2.58097 4.15901 2.15901C4.58097 1.73705 5.15326 1.5 5.75 1.5C6.34674 1.5 6.91903 1.73705 7.34099 2.15901C7.76295 2.58097 8 3.15326 8 3.75C8 4.34674 7.76295 4.91903 7.34099 5.34099C6.91903 5.76295 6.34674 6 5.75 6C5.15326 6 4.58097 5.76295 4.15901 5.34099C3.73705 4.91903 3.5 4.34674 3.5 3.75ZM5.75 0.5C4.88805 0.5 4.0614 0.84241 3.4519 1.4519C2.84241 2.0614 2.5 2.88805 2.5 3.75C2.5 4.61195 2.84241 5.4386 3.4519 6.0481C4.0614 6.65759 4.88805 7 5.75 7C6.61195 7 7.4386 6.65759 8.0481 6.0481C8.65759 5.4386 9 4.61195 9 3.75C9 2.88805 8.65759 2.0614 8.0481 1.4519C7.4386 0.84241 6.61195 0.5 5.75 0.5ZM0.5 10C0.5 9.46957 0.710714 8.96086 1.08579 8.58579C1.46086 8.21071 1.96957 8 2.5 8H9C9.34825 7.99972 9.69054 8.09037 9.993 8.263C9.716 8.493 9.462 8.749 9.235 9.028C9.15804 9.00945 9.07916 9.00005 9 9H2.5C2.23478 9 1.98043 9.10536 1.79289 9.29289C1.60536 9.48043 1.5 9.73478 1.5 10V10.078L1.507 10.161C1.56118 10.6404 1.73219 11.0991 2.005 11.497C2.492 12.201 3.513 13 5.75 13C6.704 13 7.437 12.855 8.002 12.633C8.01 12.983 8.051 13.323 8.122 13.653C7.477 13.87 6.696 14 5.75 14C3.237 14 1.883 13.08 1.182 12.066C0.812824 11.5283 0.582633 10.9074 0.512 10.259C0.506024 10.2008 0.502022 10.1425 0.5 10.084V10ZM12 4.5C12 4.10218 12.158 3.72064 12.4393 3.43934C12.7206 3.15804 13.1022 3 13.5 3C13.8978 3 14.2794 3.15804 14.5607 3.43934C14.842 3.72064 15 4.10218 15 4.5C15 4.89782 14.842 5.27936 14.5607 5.56066C14.2794 5.84196 13.8978 6 13.5 6C13.1022 6 12.7206 5.84196 12.4393 5.56066C12.158 5.27936 12 4.89782 12 4.5ZM13.5 2C12.837 2 12.2011 2.26339 11.7322 2.73223C11.2634 3.20107 11 3.83696 11 4.5C11 5.16304 11.2634 5.79893 11.7322 6.26777C12.2011 6.73661 12.837 7 13.5 7C14.163 7 14.7989 6.73661 15.2678 6.26777C15.7366 5.79893 16 5.16304 16 4.5C16 3.83696 15.7366 3.20107 15.2678 2.73223C14.7989 2.26339 14.163 2 13.5 2ZM18 12.5C18 13.6935 17.5259 14.8381 16.682 15.682C15.8381 16.5259 14.6935 17 13.5 17C12.3065 17 11.1619 16.5259 10.318 15.682C9.47411 14.8381 9 13.6935 9 12.5C9 11.3065 9.47411 10.1619 10.318 9.31802C11.1619 8.47411 12.3065 8 13.5 8C14.6935 8 15.8381 8.47411 16.682 9.31802C17.5259 10.1619 18 11.3065 18 12.5ZM14 10.5C14 10.3674 13.9473 10.2402 13.8536 10.1464C13.7598 10.0527 13.6326 10 13.5 10C13.3674 10 13.2402 10.0527 13.1464 10.1464C13.0527 10.2402 13 10.3674 13 10.5V12H11.5C11.3674 12 11.2402 12.0527 11.1464 12.1464C11.0527 12.2402 11 12.3674 11 12.5C11 12.6326 11.0527 12.7598 11.1464 12.8536C11.2402 12.9473 11.3674 13 11.5 13H13V14.5C13 14.6326 13.0527 14.7598 13.1464 14.8536C13.2402 14.9473 13.3674 15 13.5 15C13.6326 15 13.7598 14.9473 13.8536 14.8536C13.9473 14.7598 14 14.6326 14 14.5V13H15.5C15.6326 13 15.7598 12.9473 15.8536 12.8536C15.9473 12.7598 16 12.6326 16 12.5C16 12.3674 15.9473 12.2402 15.8536 12.1464C15.7598 12.0527 15.6326 12 15.5 12H14V10.5Z" fill="var(--iconPrimary)"/>
</svg>
