<svg width="16" height="16" viewBox="0 0 16 16" fill="none" xmlns="http://www.w3.org/2000/svg">
  <path d="M16.6738 8.92188C16.6738 11.0436 15.831 13.0784 14.3307 14.5787C12.8304 16.079 10.7956 16.9219 8.67383 16.9219C6.5521 16.9219 4.51726 16.079 3.01697 14.5787C1.51668 13.0784 0.673828 11.0436 0.673828 8.92188C0.673828 6.80014 1.51668 4.76531 3.01697 3.26502C4.51726 1.76473 6.5521 0.921875 8.67383 0.921875C10.7956 0.921875 12.8304 1.76473 14.3307 3.26502C15.831 4.76531 16.6738 6.80014 16.6738 8.92188ZM14.6738 8.92188C14.6738 7.62587 14.2638 6.42587 13.5638 5.44487L5.19683 13.8129C6.09447 14.4512 7.15048 14.83 8.24915 14.908C9.34782 14.986 10.4468 14.76 11.4255 14.2548C12.4043 13.7497 13.2251 12.9849 13.7981 12.0442C14.3711 11.1035 14.674 10.0233 14.6738 8.92188ZM12.1498 4.03187C10.9941 3.20988 9.5846 2.82384 8.17134 2.94224C6.75808 3.06064 5.43244 3.67583 4.42961 4.67866C3.42678 5.68149 2.8116 7.00712 2.6932 8.42039C2.5748 9.83365 2.96084 11.2432 3.78283 12.3989L12.1508 4.03087L12.1498 4.03187Z" fill="var(--iconPrimary)"/>
</svg>