<svg width="17" height="17" viewBox="0 0 17 17" fill="none" xmlns="http://www.w3.org/2000/svg">
    <path d="M11.6667 8.6748C12.0645 8.6748 12.446 8.83284 12.7273 9.11414C13.0086 9.39545 13.1667 9.77698 13.1667 10.1748V10.6748C13.1667 12.6458 11.3067 14.6748 8.16666 14.6748C5.02666 14.6748 3.16666 12.6458 3.16666 10.6748V10.1748C3.16666 9.77698 3.32469 9.39545 3.606 9.11414C3.8873 8.83284 4.26883 8.6748 4.66666 8.6748H11.6667ZM8.16666 2.1748C8.896 2.1748 9.59548 2.46454 10.1112 2.98026C10.6269 3.49599 10.9167 4.19546 10.9167 4.9248C10.9167 5.65415 10.6269 6.35362 10.1112 6.86935C9.59548 7.38507 8.896 7.6748 8.16666 7.6748C7.43731 7.6748 6.73784 7.38507 6.22211 6.86935C5.70639 6.35362 5.41666 5.65415 5.41666 4.9248C5.41666 4.19546 5.70639 3.49599 6.22211 2.98026C6.73784 2.46454 7.43731 2.1748 8.16666 2.1748Z" fill="#4D4D4D"/>
</svg>
