<svg width="16" height="16" viewBox="0 0 16 16" fill="none" xmlns="http://www.w3.org/2000/svg">
<path d="M4.31 8.00403L6.566 5.74803C6.70019 5.6142 6.77875 5.43454 6.78587 5.24515C6.79299 5.05577 6.72815 4.87071 6.60439 4.72719C6.48062 4.58366 6.30711 4.49231 6.11874 4.4715C5.93037 4.4507 5.74111 4.50198 5.589 4.61503L5.505 4.68803L1.969 8.22303L1.901 8.30203L1.861 8.36203L1.811 8.45603L1.778 8.54703L1.763 8.61503L1.753 8.67703L1.75 8.77103L1.754 8.83003L1.769 8.92403L1.799 9.02403L1.846 9.12203L1.881 9.17703C1.90696 9.21534 1.93642 9.25117 1.969 9.28403L1.901 9.20503C1.92182 9.2329 1.94454 9.2593 1.969 9.28403L5.505 12.819C5.639 12.952 5.81821 13.0295 6.00686 13.0362C6.19551 13.0428 6.37973 12.9781 6.52275 12.8549C6.66577 12.7317 6.75707 12.5591 6.77844 12.3715C6.7998 12.184 6.74965 11.9952 6.638 11.843L6.566 11.759L4.31 9.50403H8C11.651 9.50403 14.132 7.42703 14.246 4.46603L14.25 4.25403C14.25 4.05512 14.171 3.86435 14.0303 3.7237C13.8897 3.58305 13.6989 3.50403 13.5 3.50403C13.3011 3.50403 13.1103 3.58305 12.9697 3.7237C12.829 3.86435 12.75 4.05512 12.75 4.25403C12.75 6.38203 11.058 7.91103 8.257 8.00003L8 8.00403H4.31L6.566 5.74803L4.31 8.00403Z" fill="var(--iconPrimary)"/>
</svg>
