<svg width="16" height="16" viewBox="0 0 16 16" fill="none" xmlns="http://www.w3.org/2000/svg">
<path d="M2.26696 6.15302C2.52944 5.34747 2.95993 4.60682 3.52996 3.98002C3.57716 3.92827 3.63862 3.89163 3.70659 3.87473C3.77456 3.85783 3.84602 3.86141 3.91196 3.88502L5.27196 4.36902C5.36857 4.40327 5.47144 4.41619 5.57352 4.40691C5.6756 4.39762 5.77445 4.36634 5.86329 4.31523C5.95213 4.26411 6.02885 4.19436 6.08817 4.11078C6.1475 4.02719 6.18802 3.93176 6.20696 3.83102L6.46696 2.41502C6.47964 2.3462 6.51244 2.28268 6.56121 2.23249C6.60998 2.18229 6.67253 2.14768 6.74096 2.13302C7.57172 1.9568 8.43021 1.9568 9.26096 2.13302C9.40096 2.16302 9.50896 2.27402 9.53496 2.41502L9.79496 3.83102C9.81359 3.93192 9.85392 4.02757 9.91317 4.11133C9.97242 4.1951 10.0492 4.26499 10.1381 4.31616C10.227 4.36733 10.326 4.39856 10.4282 4.40769C10.5304 4.41682 10.6334 4.40363 10.73 4.36902L12.09 3.88502C12.1559 3.86141 12.2274 3.85783 12.2953 3.87473C12.3633 3.89163 12.4248 3.92827 12.472 3.98002C13.0415 4.60698 13.4717 5.34761 13.734 6.15302C13.7556 6.21963 13.7569 6.29117 13.7376 6.35851C13.7184 6.42584 13.6795 6.48591 13.626 6.53102L12.524 7.46202C12.4455 7.52801 12.3824 7.61036 12.3392 7.7033C12.2959 7.79623 12.2735 7.89751 12.2735 8.00002C12.2735 8.10254 12.2959 8.20382 12.3392 8.29675C12.3824 8.38969 12.4455 8.47204 12.524 8.53802L13.626 9.46902C13.736 9.56202 13.778 9.71102 13.734 9.84702C13.4718 10.6525 13.0417 11.3932 12.472 12.02C12.4248 12.0718 12.3633 12.1084 12.2953 12.1253C12.2274 12.1422 12.1559 12.1386 12.09 12.115L10.73 11.631C10.6334 11.5968 10.5305 11.5839 10.4284 11.5931C10.3263 11.6024 10.2275 11.6337 10.1386 11.6848C10.0498 11.7359 9.97308 11.8057 9.91375 11.8893C9.85443 11.9729 9.8139 12.0683 9.79496 12.169L9.53496 13.585C9.52234 13.654 9.48943 13.7177 9.44045 13.7679C9.39147 13.8182 9.32864 13.8527 9.25996 13.867C8.42954 14.0432 7.57139 14.0432 6.74096 13.867C6.67235 13.8525 6.60958 13.818 6.56062 13.7678C6.51166 13.7176 6.47871 13.654 6.46596 13.585L6.20696 12.169C6.18834 12.0681 6.148 11.9725 6.08876 11.8887C6.02951 11.8049 5.95276 11.7351 5.86383 11.6839C5.7749 11.6327 5.67591 11.6015 5.57371 11.5924C5.47151 11.5832 5.36855 11.5964 5.27196 11.631L3.91196 12.115C3.84602 12.1386 3.77456 12.1422 3.70659 12.1253C3.63862 12.1084 3.57716 12.0718 3.52996 12.02C2.96029 11.3931 2.53014 10.6525 2.26796 9.84702C2.24632 9.78042 2.24504 9.70888 2.26428 9.64154C2.28351 9.57421 2.3224 9.51414 2.37596 9.46902L3.47796 8.53802C3.55626 8.47194 3.6192 8.38956 3.66237 8.29664C3.70554 8.20371 3.7279 8.10249 3.7279 8.00002C3.7279 7.89756 3.70554 7.79634 3.66237 7.70341C3.6192 7.61049 3.55626 7.52811 3.47796 7.46202L2.37596 6.53102C2.3224 6.48591 2.28351 6.42584 2.26428 6.35851C2.24504 6.29117 2.24632 6.21963 2.26796 6.15302H2.26696ZM6.24996 8.00002C6.24996 8.46415 6.43434 8.90927 6.76253 9.23746C7.09071 9.56565 7.53583 9.75002 7.99996 9.75002C8.46409 9.75002 8.90921 9.56565 9.2374 9.23746C9.56559 8.90927 9.74996 8.46415 9.74996 8.00002C9.74996 7.5359 9.56559 7.09078 9.2374 6.76259C8.90921 6.4344 8.46409 6.25002 7.99996 6.25002C7.53583 6.25002 7.09071 6.4344 6.76253 6.76259C6.43434 7.09078 6.24996 7.5359 6.24996 8.00002V8.00002Z" fill="var(--iconPrimary)"/>
</svg>
