<svg width="16" height="16" viewBox="0 0 16 16" fill="none" xmlns="http://www.w3.org/2000/svg">
<path d="M9.02991 11.03L6.27991 13.78C6.13928 13.9205 5.94866 13.9993 5.74991 13.9993C5.55116 13.9993 5.36053 13.9205 5.21991 13.78L2.46991 11.03C2.39622 10.9613 2.33712 10.8785 2.29613 10.7865C2.25514 10.6945 2.23309 10.5952 2.23132 10.4945C2.22954 10.3938 2.24807 10.2938 2.28579 10.2004C2.32351 10.107 2.37965 10.0222 2.45087 9.95096C2.52209 9.87974 2.60692 9.8236 2.70031 9.78588C2.7937 9.74816 2.89373 9.72963 2.99443 9.73141C3.09513 9.73318 3.19445 9.75523 3.28645 9.79622C3.37845 9.83721 3.46125 9.89631 3.52991 9.97L4.99991 11.44V2.75C4.99991 2.55109 5.07893 2.36032 5.21958 2.21967C5.36023 2.07902 5.551 2 5.74991 2C5.94882 2 6.13959 2.07902 6.28024 2.21967C6.42089 2.36032 6.49991 2.55109 6.49991 2.75V11.44L7.96991 9.97C8.11208 9.83752 8.30013 9.7654 8.49443 9.76882C8.68873 9.77225 8.87412 9.85097 9.01153 9.98838C9.14894 10.1258 9.22766 10.3112 9.23108 10.5055C9.23451 10.6998 9.16239 10.8878 9.02991 11.03ZM8.49991 2C8.301 2 8.11023 2.07902 7.96958 2.21967C7.82893 2.36032 7.74991 2.55109 7.74991 2.75C7.74991 2.94891 7.82893 3.13968 7.96958 3.28033C8.11023 3.42098 8.301 3.5 8.49991 3.5H13.4999C13.6988 3.5 13.8896 3.42098 14.0302 3.28033C14.1709 3.13968 14.2499 2.94891 14.2499 2.75C14.2499 2.55109 14.1709 2.36032 14.0302 2.21967C13.8896 2.07902 13.6988 2 13.4999 2H8.49991ZM8.49991 4.5C8.301 4.5 8.11023 4.57902 7.96958 4.71967C7.82893 4.86032 7.74991 5.05109 7.74991 5.25C7.74991 5.44891 7.82893 5.63968 7.96958 5.78033C8.11023 5.92098 8.301 6 8.49991 6H11.4999C11.6988 6 11.8896 5.92098 12.0302 5.78033C12.1709 5.63968 12.2499 5.44891 12.2499 5.25C12.2499 5.05109 12.1709 4.86032 12.0302 4.71967C11.8896 4.57902 11.6988 4.5 11.4999 4.5H8.49991ZM8.49991 7C8.301 7 8.11023 7.07902 7.96958 7.21967C7.82893 7.36032 7.74991 7.55109 7.74991 7.75C7.74991 7.94891 7.82893 8.13968 7.96958 8.28033C8.11023 8.42098 8.301 8.5 8.49991 8.5H9.49991C9.69882 8.5 9.88959 8.42098 10.0302 8.28033C10.1709 8.13968 10.2499 7.94891 10.2499 7.75C10.2499 7.55109 10.1709 7.36032 10.0302 7.21967C9.88959 7.07902 9.69882 7 9.49991 7H8.49991Z" fill="var(--iconPrimary)"/>
</svg>
