<svg width="16" height="16" viewBox="0 0 15 17" fill="none" xmlns="http://www.w3.org/2000/svg">
  <path d="M1.75928 0.114258C1.36145 0.114258 0.979922 0.272293 0.698617 0.553598C0.417313 0.834902 0.259277 1.21643 0.259277 1.61426V2.61426C0.259277 3.01208 0.417313 3.39361 0.698617 3.67492C0.979922 3.95622 1.36145 4.11426 1.75928 4.11426H12.7593C13.1571 4.11426 13.5386 3.95622 13.8199 3.67492C14.1012 3.39361 14.2593 3.01208 14.2593 2.61426V1.61426C14.2593 1.21643 14.1012 0.834902 13.8199 0.553598C13.5386 0.272293 13.1571 0.114258 12.7593 0.114258H1.75928ZM1.75928 6.11426C1.36145 6.11426 0.979922 6.27229 0.698617 6.5536C0.417313 6.8349 0.259277 7.21643 0.259277 7.61426V8.61426C0.259277 9.01208 0.417313 9.39361 0.698617 9.67492C0.979922 9.95622 1.36145 10.1143 1.75928 10.1143H12.7593C13.1571 10.1143 13.5386 9.95622 13.8199 9.67492C14.1012 9.39361 14.2593 9.01208 14.2593 8.61426V7.61426C14.2593 7.21643 14.1012 6.8349 13.8199 6.5536C13.5386 6.27229 13.1571 6.11426 12.7593 6.11426H1.75928ZM1.75928 12.1143C1.36145 12.1143 0.979922 12.2723 0.698617 12.5536C0.417313 12.8349 0.259277 13.2164 0.259277 13.6143V14.6143C0.259277 15.0121 0.417313 15.3936 0.698617 15.6749C0.979922 15.9562 1.36145 16.1143 1.75928 16.1143H12.7593C13.1571 16.1143 13.5386 15.9562 13.8199 15.6749C14.1012 15.3936 14.2593 15.0121 14.2593 14.6143V13.6143C14.2593 13.2164 14.1012 12.8349 13.8199 12.5536C13.5386 12.2723 13.1571 12.1143 12.7593 12.1143H1.75928Z" fill="var(--iconPrimary)"/>
</svg>
