<svg width="16" height="16" viewBox="0 0 16 16" fill="none" xmlns="http://www.w3.org/2000/svg">
<path d="M9.626 5.07003C8.34242 5.27592 7.17346 5.93038 6.327 6.91703C5.79313 6.78229 5.31197 6.49045 4.94577 6.07927C4.57958 5.66808 4.3452 5.15647 4.27295 4.61062C4.2007 4.06476 4.29392 3.50979 4.54054 3.0175C4.78715 2.5252 5.17582 2.11824 5.65626 1.84926C6.1367 1.58028 6.6868 1.46165 7.2354 1.50873C7.78399 1.55582 8.30584 1.76644 8.73342 2.11335C9.161 2.46026 9.47465 2.92749 9.63378 3.45461C9.79291 3.98173 9.7902 4.54447 9.626 5.07003ZM5.6 8.00003C5.216 8.75003 5 9.60003 5 10.5C5 11.81 5.458 13.012 6.222 13.957C3.555 13.653 2 11.803 2 10V9.50003C2 9.1022 2.15804 8.72067 2.43934 8.43937C2.72064 8.15806 3.10218 8.00003 3.5 8.00003H5.6ZM10.5 15C11.0909 15 11.6761 14.8836 12.2221 14.6575C12.768 14.4313 13.2641 14.0999 13.682 13.682C14.0998 13.2641 14.4313 12.7681 14.6575 12.2221C14.8836 11.6761 15 11.091 15 10.5C15 9.90908 14.8836 9.32392 14.6575 8.77795C14.4313 8.23199 14.0998 7.73591 13.682 7.31805C13.2641 6.90018 12.768 6.56871 12.2221 6.34257C11.6761 6.11642 11.0909 6.00003 10.5 6.00003C9.30653 6.00003 8.16193 6.47413 7.31802 7.31805C6.47411 8.16196 6 9.30655 6 10.5C6 11.6935 6.47411 12.8381 7.31802 13.682C8.16193 14.5259 9.30653 15 10.5 15V15ZM8.379 10H12.621C12.7536 10 12.8808 10.0527 12.9746 10.1465C13.0683 10.2402 13.121 10.3674 13.121 10.5C13.121 10.6326 13.0683 10.7598 12.9746 10.8536C12.8808 10.9473 12.7536 11 12.621 11H8.38C8.24739 11 8.12021 10.9473 8.02645 10.8536C7.93268 10.7598 7.88 10.6326 7.88 10.5C7.88 10.3674 7.93268 10.2402 8.02645 10.1465C8.12021 10.0527 8.24739 10 8.38 10H8.379Z" fill="var(--iconPrimary)"/>
</svg>
