<svg width="16" height="16" viewBox="0 0 16 16" fill="none" xmlns="http://www.w3.org/2000/svg">
<path d="M11.334 2.06401L11.411 2.21701L11.987 3.75001C12.032 3.87001 12.127 3.96601 12.248 4.01101L13.728 4.56701C14.378 4.81001 14.727 5.50401 14.554 6.16101L14.512 6.29101L13.824 7.81401C13.7976 7.87209 13.7839 7.93518 13.7839 7.99901C13.7839 8.06284 13.7976 8.12593 13.824 8.18401L14.478 9.62401C14.6149 9.92586 14.635 10.2677 14.5345 10.5835C14.4341 10.8993 14.2201 11.1667 13.934 11.334L13.781 11.411L12.248 11.987C12.1886 12.0095 12.1347 12.0445 12.0899 12.0895C12.0451 12.1345 12.0103 12.1885 11.988 12.248L11.432 13.728C11.3156 14.0387 11.0881 14.2952 10.7934 14.4478C10.4988 14.6004 10.158 14.6382 9.83704 14.554L9.70704 14.512L8.18404 13.824C8.12596 13.7975 8.06288 13.7838 7.99904 13.7838C7.93521 13.7838 7.87213 13.7975 7.81404 13.824L6.37504 14.478C6.0732 14.6148 5.73136 14.635 5.41554 14.5345C5.09973 14.434 4.83234 14.2201 4.66504 13.934L4.58804 13.781L4.01104 12.248C3.98851 12.1886 3.95358 12.1347 3.90858 12.0899C3.86357 12.045 3.80953 12.0103 3.75004 11.988L2.27004 11.432C1.95932 11.3156 1.70283 11.088 1.55024 10.7934C1.39765 10.4987 1.35981 10.158 1.44404 9.83701L1.48604 9.70701L2.17504 8.18401C2.20146 8.12591 2.21512 8.06283 2.21512 7.99901C2.21512 7.93519 2.20146 7.87211 2.17504 7.81401L1.52004 6.37501C1.38312 6.07328 1.36284 5.73153 1.46313 5.41573C1.56341 5.09992 1.77713 4.83247 2.06304 4.66501L2.21604 4.58801L3.75004 4.01001C3.80962 3.9876 3.86373 3.95272 3.90874 3.90771C3.95375 3.8627 3.98863 3.80859 4.01104 3.74901L4.56704 2.26901C4.68344 1.9585 4.91084 1.70218 5.20527 1.54961C5.49969 1.39704 5.84024 1.35906 6.16104 1.44301L6.29104 1.48501L7.81404 2.17401C7.87214 2.20043 7.93522 2.21409 7.99904 2.21409C8.06287 2.21409 8.12595 2.20043 8.18404 2.17401L9.62404 1.52001C9.92577 1.38309 10.2675 1.36281 10.5833 1.46309C10.8991 1.56337 11.1666 1.7771 11.334 2.06301V2.06401ZM10.164 5.70501L6.97704 9.34501L5.81504 8.18301C5.73062 8.10223 5.61792 8.05772 5.50108 8.059C5.38424 8.06029 5.27255 8.10728 5.18993 8.1899C5.10731 8.27252 5.06032 8.38421 5.05904 8.50105C5.05775 8.61789 5.10226 8.73059 5.18304 8.81501L6.68304 10.315C6.72633 10.3582 6.77803 10.392 6.83492 10.4145C6.89181 10.4369 6.9527 10.4474 7.01381 10.4453C7.07492 10.4432 7.13497 10.4287 7.19022 10.4025C7.24547 10.3763 7.29476 10.339 7.33504 10.293L10.835 6.29301C10.9063 6.20305 10.9402 6.08912 10.9298 5.97482C10.9194 5.86053 10.8654 5.75462 10.779 5.67905C10.6926 5.60347 10.5805 5.56401 10.4658 5.56885C10.3512 5.57368 10.2428 5.62243 10.163 5.70501H10.164Z" fill="var(--iconPrimary)"/>
</svg>
