<svg width="16" height="16" viewBox="0 0 16 16" fill="none" xmlns="http://www.w3.org/2000/svg">
<path d="M2 3.5C2 3.10218 2.15804 2.72064 2.43934 2.43934C2.72064 2.15804 3.10218 2 3.5 2H11C11.5304 2 12.0391 2.21071 12.4142 2.58579C12.7893 2.96086 13 3.46957 13 4V4.268C13.304 4.44353 13.5565 4.696 13.732 5.00003C13.9076 5.30406 14 5.64894 14 6V12C14 12.5304 13.7893 13.0391 13.4142 13.4142C13.0391 13.7893 12.5304 14 12 14H4.5C3.83696 14 3.20107 13.7366 2.73223 13.2678C2.26339 12.7989 2 12.163 2 11.5V3.5ZM3 3.5C3 3.63261 3.05268 3.75979 3.14645 3.85355C3.24021 3.94732 3.36739 4 3.5 4H12C12 3.73478 11.8946 3.48043 11.7071 3.29289C11.5196 3.10536 11.2652 3 11 3H3.5C3.36739 3 3.24021 3.05268 3.14645 3.14645C3.05268 3.24021 3 3.36739 3 3.5ZM10.5 8C10.3674 8 10.2402 8.05268 10.1464 8.14645C10.0527 8.24021 10 8.36739 10 8.5C10 8.63261 10.0527 8.75979 10.1464 8.85355C10.2402 8.94732 10.3674 9 10.5 9H11.5C11.6326 9 11.7598 8.94732 11.8536 8.85355C11.9473 8.75979 12 8.63261 12 8.5C12 8.36739 11.9473 8.24021 11.8536 8.14645C11.7598 8.05268 11.6326 8 11.5 8H10.5Z" fill="var(--iconPrimary)"/>
</svg>
