<svg width="16" height="16" viewBox="0 0 16 16" fill="none" xmlns="http://www.w3.org/2000/svg">
<path d="M2.56403 12.257L7.56503 3.25701C7.60446 3.18619 7.66052 3.12602 7.72837 3.08168C7.79623 3.03734 7.87384 3.01017 7.95453 3.00249C8.03522 2.99482 8.11657 3.00687 8.19157 3.03762C8.26656 3.06837 8.33296 3.11689 8.38503 3.17901L8.43903 3.25701L13.441 12.257C13.4799 12.3268 13.5015 12.4049 13.504 12.4848C13.5064 12.5646 13.4897 12.6439 13.4553 12.716C13.4208 12.7881 13.3695 12.8508 13.3058 12.899C13.2421 12.9472 13.1678 12.9795 13.089 12.993L13.004 13H3.00003C2.92011 13.0002 2.84131 12.9812 2.77024 12.9446C2.69917 12.908 2.6379 12.8549 2.59158 12.7898C2.54525 12.7247 2.51521 12.6494 2.50398 12.5703C2.49275 12.4911 2.50066 12.4105 2.52703 12.335L2.56303 12.257L7.56403 3.25701L2.56303 12.257H2.56403ZM8.00203 9.87701C7.80312 9.87701 7.61236 9.95602 7.4717 10.0967C7.33105 10.2373 7.25203 10.4281 7.25203 10.627C7.25203 10.8259 7.33105 11.0167 7.4717 11.1573C7.61236 11.298 7.80312 11.377 8.00203 11.377C8.20095 11.377 8.39171 11.298 8.53236 11.1573C8.67302 11.0167 8.75203 10.8259 8.75203 10.627C8.75203 10.4281 8.67302 10.2373 8.53236 10.0967C8.39171 9.95602 8.20095 9.87701 8.00203 9.87701ZM8.00203 6.87701C7.85208 6.87681 7.70705 6.93054 7.59341 7.02839C7.47977 7.12624 7.40511 7.26168 7.38303 7.41001L7.37703 7.50201L7.37603 8.50001L7.38203 8.59201C7.40364 8.74063 7.47803 8.8765 7.59161 8.97476C7.70519 9.07302 7.85035 9.1271 8.00053 9.1271C8.15072 9.1271 8.29588 9.07302 8.40946 8.97476C8.52303 8.8765 8.59743 8.74063 8.61903 8.59201L8.62603 8.50001V7.50301L8.62003 7.41101C8.59798 7.26285 8.52346 7.12754 8.41004 7.02972C8.29661 6.93189 8.15182 6.87805 8.00203 6.87801V6.87701Z" fill="var(--iconPrimary)"/>
</svg>
