<svg xmlns="http://www.w3.org/2000/svg" width="113" height="113" viewBox="0 0 113 113" fill="none">
    <g clip-path="url(#clip0_23911_84389)">
    <path d="M79.005 29.3859L23.5998 44.2316C19.0099 45.4615 16.2861 50.1794 17.5159 54.7693L26.4234 88.0124C27.6533 92.6023 32.3711 95.3261 36.961 94.0963L92.3662 79.2505C96.9561 78.0206 99.68 73.3028 98.4501 68.7129L89.5426 35.4698C88.3128 30.8799 83.5949 28.156 79.005 29.3859Z" stroke="currentColor" stroke-width="5.73596" stroke-linejoin="round" />
    <path d="M78.2024 29.6012L76.8106 24.407C76.4688 23.1332 75.8501 21.9504 74.9986 20.9432C74.1471 19.936 73.0838 19.1292 71.8846 18.5802C70.6854 18.0313 69.3798 17.7538 68.0609 17.7675C66.7421 17.7812 65.4425 18.0859 64.255 18.6597L20.7419 38.6604C18.8629 39.5684 17.3596 41.1036 16.4913 43.0013C15.623 44.899 15.4442 47.0403 15.9857 49.0557L18.259 57.5396" stroke="currentColor" stroke-width="5.73596" stroke-linejoin="round" />
    <path d="M78.8603 62.0852C77.7644 62.3788 76.6062 62.3409 75.5319 61.9763C74.4577 61.6116 73.5157 60.9366 72.825 60.0365C72.1344 59.1365 71.7262 58.0519 71.652 56.9199C71.5778 55.7878 71.841 54.6592 72.4082 53.6767C72.9754 52.6943 73.8213 51.902 74.8387 51.4003C75.8562 50.8985 76.9996 50.7097 78.1244 50.8578C79.2491 51.0059 80.3047 51.4842 81.1577 52.2322C82.0106 52.9802 82.6226 53.9643 82.9162 55.0601C83.3099 56.5296 83.1038 58.0952 82.3432 59.4127C81.5825 60.7302 80.3297 61.6915 78.8603 62.0852Z" fill="currentColor" />
    </g>
    <defs>
    <clipPath id="clip0_23911_84389">
        <rect width="91.7754" height="91.7754" fill="currentColor" transform="translate(0.298828 23.7532) rotate(-15)" />
    </clipPath>
    </defs>
</svg>