<svg width="119" height="156" viewBox="0 0 119 156" fill="none" xmlns="http://www.w3.org/2000/svg">
    <g clip-path="url(#clip0_9887_4024)">
        <path d="M44.895 149.29V143.157L39.5834 140.092V133.96L34.2717 130.895V126.439L59.3043 140.538L44.895 149.29Z" fill="url(#paint0_linear_9887_4024)"/>
        <path d="M53.9927 149.735V143.603L64.616 149.735V155.868L53.9927 149.735Z" fill="#F2DCC2"/>
        <path d="M53.9927 143.603L59.3043 140.538L69.9249 146.668L64.616 149.735L53.9927 143.603Z" fill="#4449B3"/>
        <path d="M64.6158 119.075L85.857 106.81L96.4776 112.942L75.2364 125.208L64.6158 119.075Z" fill="#4449B3"/>
        <path d="M59.3043 140.538V134.405L69.9249 140.538V146.668L59.3043 140.538Z" fill="#F2DCC2"/>
        <path d="M64.6158 131.337V119.075L75.2364 125.208V137.47L64.6158 131.337Z" fill="#F2DCC2"/>
        <path d="M64.6158 155.868V149.735L69.9248 146.667V140.538L75.2364 137.47V125.208L96.4776 112.942V137.47L64.6158 155.868Z" fill="#191919"/>
        <path d="M18.342 91.0369L28.9626 84.9043L50.2038 97.1667L71.4477 84.9043L82.0683 91.0369L50.2038 109.432L18.342 91.0369Z" fill="#4449B3"/>
        <path d="M82.0685 91.0369V103.299L60.8273 115.564V127.83L55.5156 130.894V137.027L50.204 140.092V109.432L82.0685 91.0369Z" fill="#191919"/>
        <path d="M18.342 91.0369V103.299L39.5832 115.564V127.83L44.8949 130.894V137.027L50.2038 140.092V109.432L18.342 91.0369Z" fill="#F2DCC2"/>
        <path d="M44.8949 143.157L39.5832 140.092L28.9626 146.225L34.2716 149.29L44.8949 143.157Z" fill="#4449B3"/>
        <path d="M39.5834 133.96L34.2717 130.895L23.6511 137.027L28.9628 140.092L39.5834 133.96Z" fill="#4449B3"/>
        <path d="M34.2716 118.629L13.0304 106.367L2.40979 112.497L23.651 124.762L34.2716 118.629Z" fill="#4449B3"/>
        <path d="M39.5832 140.092V133.959L28.9626 140.092V146.225L39.5832 140.092Z" fill="#191919"/>
        <path d="M34.2717 130.895V118.63L23.6511 124.762V137.027L34.2717 130.895Z" fill="#191919"/>
        <path d="M34.2716 155.422V149.29L28.9626 146.225V140.092L23.651 137.027V124.762L2.40979 112.497V137.027L34.2716 155.422Z" fill="#F2DCC2"/>
        <path d="M34.2743 75.7043V81.8369L50.2038 91.0344V84.9045L34.2743 75.7043Z" fill="#F2DCC2"/>
        <path d="M66.1362 75.7069V81.8395L50.204 91.037V84.9044L66.1362 75.7069Z" fill="#191919"/>
        <path d="M34.2743 75.7042L50.2038 66.5067L66.1361 75.7069L50.2038 84.9044L34.2743 75.7042Z" fill="#4449B3"/>
        <path d="M34.2717 155.422L44.895 149.289V143.157L34.2717 149.289V155.422Z" fill="#191919"/>
        <path d="M69.9249 140.538L75.2366 137.47L64.616 131.337L59.3043 134.405L69.9249 140.538Z" fill="#4449B3"/>
        <path d="M96.4453 137.47L118.956 125.018L96.4453 112.942V137.47Z" fill="url(#paint1_linear_9887_4024)"/>
        <path d="M50.2042 60.5715C55.8506 60.5715 60.4279 55.9943 60.4279 50.3479C60.4279 44.7015 55.8506 40.1243 50.2042 40.1243C44.5579 40.1243 39.9806 44.7015 39.9806 50.3479C39.9806 55.9943 44.5579 60.5715 50.2042 60.5715Z" fill="#F6DABE"/>
        <path style="mix-blend-mode:lighten" d="M50.2043 99.8325C77.5338 99.8325 99.6888 77.6775 99.6888 50.348C99.6888 23.0185 77.5338 0.863525 50.2043 0.863525C22.8748 0.863525 0.719849 23.0185 0.719849 50.348C0.719849 77.6775 22.8748 99.8325 50.2043 99.8325Z" fill="url(#paint2_radial_9887_4024)"/>
    </g>
    <defs>
        <linearGradient id="paint0_linear_9887_4024" x1="39.4727" y1="146.16" x2="46.8663" y2="133.355" gradientUnits="userSpaceOnUse">
            <stop stop-color="#191919"/>
            <stop offset="0.41" stop-color="#191919" stop-opacity="0"/>
        </linearGradient>
        <linearGradient id="paint1_linear_9887_4024" x1="96.8801" y1="137.721" x2="107.9" y2="118.637" gradientUnits="userSpaceOnUse">
            <stop stop-color="#191919"/>
            <stop offset="0.41" stop-color="#191919" stop-opacity="0"/>
        </linearGradient>
        <radialGradient id="paint2_radial_9887_4024" cx="0" cy="0" r="1" gradientUnits="userSpaceOnUse" gradientTransform="translate(50.811 49.8304) rotate(148.62) scale(49.4459)">
            <stop offset="0.1" stop-color="#4D4D4D" stop-opacity="0"/>
            <stop offset="0.11" stop-color="#685854" stop-opacity="0.08"/>
            <stop offset="0.13" stop-color="#9B6D61" stop-opacity="0.23"/>
            <stop offset="0.14" stop-color="#C37D6C" stop-opacity="0.35"/>
            <stop offset="0.15" stop-color="#E08973" stop-opacity="0.43"/>
            <stop offset="0.17" stop-color="#F19078" stop-opacity="0.48"/>
            <stop offset="0.18" stop-color="#F7937A" stop-opacity="0.5"/>
            <stop offset="0.39" stop-color="#F7937A" stop-opacity="0.3"/>
            <stop offset="0.58" stop-color="#F7937A" stop-opacity="0.14"/>
            <stop offset="0.74" stop-color="#F7937A" stop-opacity="0.04"/>
            <stop offset="0.83" stop-color="#F7937A" stop-opacity="0"/>
        </radialGradient>
        <clipPath id="clip0_9887_4024">
            <rect width="118.242" height="155.013" fill="white" transform="translate(0.713379 0.854248)"/>
        </clipPath>
    </defs>
</svg>
