<svg width="32" height="33" viewBox="0 0 32 33" fill="none" xmlns="http://www.w3.org/2000/svg">
<path d="M12.556 9.43796C14.093 7.04096 15.003 4.82696 15.477 3.26096C15.659 2.66096 16.427 2.41596 16.883 2.84596C23.756 9.32696 26.003 14.276 26.45 19.994C26.778 25.525 24.06 30.447 16.763 30.447C9.91297 30.447 4.85597 25.666 5.54297 18.087C5.95497 13.559 7.71597 10.108 9.12297 8.05396C9.56097 7.41496 10.474 7.40596 10.979 7.99396L12.238 9.45996C12.325 9.56096 12.484 9.54996 12.556 9.43796Z" fill="url(#paint0_radial_29663_17686)" style=""/>
<path d="M12.556 9.43796C14.093 7.04096 15.003 4.82696 15.477 3.26096C15.659 2.66096 16.427 2.41596 16.883 2.84596C23.756 9.32696 26.003 14.276 26.45 19.994C26.778 25.525 24.06 30.447 16.763 30.447C9.91297 30.447 4.85597 25.666 5.54297 18.087C5.95497 13.559 7.71597 10.108 9.12297 8.05396C9.56097 7.41496 10.474 7.40596 10.979 7.99396L12.238 9.45996C12.325 9.56096 12.484 9.54996 12.556 9.43796Z" fill="url(#paint1_radial_29663_17686)" style=""/>
<path d="M12.556 9.43796C14.093 7.04096 15.003 4.82696 15.477 3.26096C15.659 2.66096 16.427 2.41596 16.883 2.84596C23.756 9.32696 26.003 14.276 26.45 19.994C26.778 25.525 24.06 30.447 16.763 30.447C9.91297 30.447 4.85597 25.666 5.54297 18.087C5.95497 13.559 7.71597 10.108 9.12297 8.05396C9.56097 7.41496 10.474 7.40596 10.979 7.99396L12.238 9.45996C12.325 9.56096 12.484 9.54996 12.556 9.43796Z" fill="url(#paint2_linear_29663_17686)" style=""/>
<path d="M12.556 9.43796C14.093 7.04096 15.003 4.82696 15.477 3.26096C15.659 2.66096 16.427 2.41596 16.883 2.84596C23.756 9.32696 26.003 14.276 26.45 19.994C26.778 25.525 24.06 30.447 16.763 30.447C9.91297 30.447 4.85597 25.666 5.54297 18.087C5.95497 13.559 7.71597 10.108 9.12297 8.05396C9.56097 7.41496 10.474 7.40596 10.979 7.99396L12.238 9.45996C12.325 9.56096 12.484 9.54996 12.556 9.43796Z" fill="url(#paint3_radial_29663_17686)" style=""/>
<path d="M12.556 9.43796C14.093 7.04096 15.003 4.82696 15.477 3.26096C15.659 2.66096 16.427 2.41596 16.883 2.84596C23.756 9.32696 26.003 14.276 26.45 19.994C26.778 25.525 24.06 30.447 16.763 30.447C9.91297 30.447 4.85597 25.666 5.54297 18.087C5.95497 13.559 7.71597 10.108 9.12297 8.05396C9.56097 7.41496 10.474 7.40596 10.979 7.99396L12.238 9.45996C12.325 9.56096 12.484 9.54996 12.556 9.43796Z" fill="url(#paint4_radial_29663_17686)" style=""/>
<path d="M12.556 9.43796C14.093 7.04096 15.003 4.82696 15.477 3.26096C15.659 2.66096 16.427 2.41596 16.883 2.84596C23.756 9.32696 26.003 14.276 26.45 19.994C26.778 25.525 24.06 30.447 16.763 30.447C9.91297 30.447 4.85597 25.666 5.54297 18.087C5.95497 13.559 7.71597 10.108 9.12297 8.05396C9.56097 7.41496 10.474 7.40596 10.979 7.99396L12.238 9.45996C12.325 9.56096 12.484 9.54996 12.556 9.43796Z" fill="url(#paint5_radial_29663_17686)" style=""/>
<path d="M12.556 9.43796C14.093 7.04096 15.003 4.82696 15.477 3.26096C15.659 2.66096 16.427 2.41596 16.883 2.84596C23.756 9.32696 26.003 14.276 26.45 19.994C26.778 25.525 24.06 30.447 16.763 30.447C9.91297 30.447 4.85597 25.666 5.54297 18.087C5.95497 13.559 7.71597 10.108 9.12297 8.05396C9.56097 7.41496 10.474 7.40596 10.979 7.99396L12.238 9.45996C12.325 9.56096 12.484 9.54996 12.556 9.43796Z" fill="url(#paint6_radial_29663_17686)" style=""/>
<path d="M12.556 9.43796C14.093 7.04096 15.003 4.82696 15.477 3.26096C15.659 2.66096 16.427 2.41596 16.883 2.84596C23.756 9.32696 26.003 14.276 26.45 19.994C26.778 25.525 24.06 30.447 16.763 30.447C9.91297 30.447 4.85597 25.666 5.54297 18.087C5.95497 13.559 7.71597 10.108 9.12297 8.05396C9.56097 7.41496 10.474 7.40596 10.979 7.99396L12.238 9.45996C12.325 9.56096 12.484 9.54996 12.556 9.43796Z" fill="url(#paint7_radial_29663_17686)" style=""/>
<g filter="url(#filter0_i_29663_17686)">
<path d="M10.1804 20.3807C11.4824 17.2807 14.1554 13.8517 15.9604 11.9907C16.2051 11.7403 16.5385 11.596 16.8886 11.5889C17.2387 11.5818 17.5776 11.7124 17.8323 11.9527C21.2934 15.1417 22.3353 18.0247 23.2193 21.3807C24.1393 24.8727 23.2193 30.4987 16.2983 30.4987C10.3384 30.4987 8.27235 24.9207 10.1804 20.3807Z" fill="url(#paint8_radial_29663_17686)" style=""/>
<path d="M10.1804 20.3807C11.4824 17.2807 14.1554 13.8517 15.9604 11.9907C16.2051 11.7403 16.5385 11.596 16.8886 11.5889C17.2387 11.5818 17.5776 11.7124 17.8323 11.9527C21.2934 15.1417 22.3353 18.0247 23.2193 21.3807C24.1393 24.8727 23.2193 30.4987 16.2983 30.4987C10.3384 30.4987 8.27235 24.9207 10.1804 20.3807Z" fill="url(#paint9_radial_29663_17686)" style=""/>
<path d="M10.1804 20.3807C11.4824 17.2807 14.1554 13.8517 15.9604 11.9907C16.2051 11.7403 16.5385 11.596 16.8886 11.5889C17.2387 11.5818 17.5776 11.7124 17.8323 11.9527C21.2934 15.1417 22.3353 18.0247 23.2193 21.3807C24.1393 24.8727 23.2193 30.4987 16.2983 30.4987C10.3384 30.4987 8.27235 24.9207 10.1804 20.3807Z" fill="url(#paint10_radial_29663_17686)" style=""/>
</g>
<path d="M10.1804 20.3798C11.4824 17.2798 14.1554 13.8508 15.9604 11.9898C16.2051 11.7394 16.5385 11.5952 16.8886 11.588C17.2387 11.5809 17.5776 11.7116 17.8323 11.9518C21.2934 15.1408 22.3353 18.0238 23.2193 21.3798C24.1393 24.8718 23.2193 30.4978 16.2983 30.4978C10.3384 30.4978 8.27235 24.9198 10.1804 20.3798Z" fill="url(#paint11_linear_29663_17686)" style=""/>
<path d="M10.1804 20.3798C11.4824 17.2798 14.1554 13.8508 15.9604 11.9898C16.2051 11.7394 16.5385 11.5952 16.8886 11.588C17.2387 11.5809 17.5776 11.7116 17.8323 11.9518C21.2933 15.1408 22.3353 18.0238 23.2193 21.3798C24.1393 24.8718 23.2193 30.4978 16.2983 30.4978C10.3384 30.4978 8.27235 24.9198 10.1804 20.3798Z" fill="url(#paint12_radial_29663_17686)" style=""/>
<g filter="url(#filter1_f_29663_17686)">
<path d="M11.8155 12.0428C14.1305 8.65281 15.4855 4.98481 15.8985 4.08081C15.2955 8.71481 13.5385 12.1088 10.2305 16.4788C7.5845 19.9748 7.10649 22.9668 7.12949 23.6958C6.30249 18.1338 8.9205 16.2798 11.8155 12.0428Z" fill="url(#paint13_linear_29663_17686)" style=""/>
</g>
<g filter="url(#filter2_f_29663_17686)">
<path d="M9.81531 8.37769C8.51531 9.99169 5.93131 14.4677 5.99531 19.4617C7.27531 14.3397 10.2703 12.7257 9.81531 8.37769Z" fill="url(#paint14_linear_29663_17686)" style=""/>
</g>
<defs>
<filter id="filter0_i_29663_17686" x="9.49219" y="11.5886" width="14.5254" height="18.91" filterUnits="userSpaceOnUse" color-interpolation-filters="sRGB">
<feFlood flood-opacity="0" result="BackgroundImageFix"/>
<feBlend mode="normal" in="SourceGraphic" in2="BackgroundImageFix" result="shape"/>
<feColorMatrix in="SourceAlpha" type="matrix" values="0 0 0 0 0 0 0 0 0 0 0 0 0 0 0 0 0 0 127 0" result="hardAlpha"/>
<feOffset dx="0.5"/>
<feGaussianBlur stdDeviation="0.25"/>
<feComposite in2="hardAlpha" operator="arithmetic" k2="-1" k3="1"/>
<feColorMatrix type="matrix" values="0 0 0 0 0.952941 0 0 0 0 0.615686 0 0 0 0 0.364706 0 0 0 1 0"/>
<feBlend mode="normal" in2="shape" result="effect1_innerShadow_29663_17686"/>
</filter>
<filter id="filter1_f_29663_17686" x="5.72461" y="2.83081" width="11.4238" height="22.115" filterUnits="userSpaceOnUse" color-interpolation-filters="sRGB">
<feFlood flood-opacity="0" result="BackgroundImageFix"/>
<feBlend mode="normal" in="SourceGraphic" in2="BackgroundImageFix" result="shape"/>
<feGaussianBlur stdDeviation="0.625" result="effect1_foregroundBlur_29663_17686"/>
</filter>
<filter id="filter2_f_29663_17686" x="4.49414" y="6.87769" width="6.86719" height="14.084" filterUnits="userSpaceOnUse" color-interpolation-filters="sRGB">
<feFlood flood-opacity="0" result="BackgroundImageFix"/>
<feBlend mode="normal" in="SourceGraphic" in2="BackgroundImageFix" result="shape"/>
<feGaussianBlur stdDeviation="0.75" result="effect1_foregroundBlur_29663_17686"/>
</filter>
<radialGradient id="paint0_radial_29663_17686" cx="0" cy="0" r="1" gradientUnits="userSpaceOnUse" gradientTransform="translate(24.0024 20.2231) rotate(-179.474) scale(17.0988 25.7861)">
<stop stop-color="#FF953D" style="stop-color:#FF953D;stop-color:color(display-p3 1.0000 0.5843 0.2392);stop-opacity:1;"/>
<stop offset="1" stop-color="#FF5141" style="stop-color:#FF5141;stop-color:color(display-p3 1.0000 0.3176 0.2549);stop-opacity:1;"/>
</radialGradient>
<radialGradient id="paint1_radial_29663_17686" cx="0" cy="0" r="1" gradientUnits="userSpaceOnUse" gradientTransform="translate(10.3732 16.157) rotate(-157.937) scale(10.3441 17.8495)">
<stop stop-color="#CE5327" style="stop-color:#CE5327;stop-color:color(display-p3 0.8078 0.3255 0.1529);stop-opacity:1;"/>
<stop offset="1" stop-color="#CE5327" stop-opacity="0" style="stop-color:none;stop-opacity:0;"/>
</radialGradient>
<linearGradient id="paint2_linear_29663_17686" x1="18.337" y1="30.447" x2="18.337" y2="25.349" gradientUnits="userSpaceOnUse">
<stop stop-color="#FF7583" style="stop-color:#FF7583;stop-color:color(display-p3 1.0000 0.4588 0.5137);stop-opacity:1;"/>
<stop offset="1" stop-color="#FF7583" stop-opacity="0" style="stop-color:none;stop-opacity:0;"/>
</linearGradient>
<radialGradient id="paint3_radial_29663_17686" cx="0" cy="0" r="1" gradientUnits="userSpaceOnUse" gradientTransform="translate(4.95851 14.8945) rotate(24.015) scale(3.10465 25.6991)">
<stop stop-color="#FFAA7B" style="stop-color:#FFAA7B;stop-color:color(display-p3 1.0000 0.6667 0.4824);stop-opacity:1;"/>
<stop offset="1" stop-color="#FFAA7B" stop-opacity="0" style="stop-color:none;stop-opacity:0;"/>
</radialGradient>
<radialGradient id="paint4_radial_29663_17686" cx="0" cy="0" r="1" gradientUnits="userSpaceOnUse" gradientTransform="translate(9.31097 6.75296) rotate(77.3197) scale(3.84035 4.79188)">
<stop stop-color="#FF5E47" style="stop-color:#FF5E47;stop-color:color(display-p3 1.0000 0.3686 0.2784);stop-opacity:1;"/>
<stop offset="1" stop-color="#FF5E47" stop-opacity="0" style="stop-color:none;stop-opacity:0;"/>
</radialGradient>
<radialGradient id="paint5_radial_29663_17686" cx="0" cy="0" r="1" gradientUnits="userSpaceOnUse" gradientTransform="translate(16.43 1.86896) rotate(87.8819) scale(10.1374 9.38321)">
<stop stop-color="#FF2F3C" style="stop-color:#FF2F3C;stop-color:color(display-p3 1.0000 0.1843 0.2353);stop-opacity:1;"/>
<stop offset="1" stop-color="#FF2F3C" stop-opacity="0" style="stop-color:none;stop-opacity:0;"/>
</radialGradient>
<radialGradient id="paint6_radial_29663_17686" cx="0" cy="0" r="1" gradientUnits="userSpaceOnUse" gradientTransform="translate(13.901 5.30296) rotate(25.3283) scale(2.29895 4.61352)">
<stop stop-color="#FF846C" style="stop-color:#FF846C;stop-color:color(display-p3 1.0000 0.5176 0.4235);stop-opacity:1;"/>
<stop offset="1" stop-color="#FF846C" stop-opacity="0" style="stop-color:none;stop-opacity:0;"/>
</radialGradient>
<radialGradient id="paint7_radial_29663_17686" cx="0" cy="0" r="1" gradientUnits="userSpaceOnUse" gradientTransform="translate(12.459 8.71296) rotate(113.224) scale(2.27837 0.522106)">
<stop stop-color="#FFA682" style="stop-color:#FFA682;stop-color:color(display-p3 1.0000 0.6510 0.5098);stop-opacity:1;"/>
<stop offset="1" stop-color="#FFA682" stop-opacity="0" style="stop-color:none;stop-opacity:0;"/>
</radialGradient>
<radialGradient id="paint8_radial_29663_17686" cx="0" cy="0" r="1" gradientUnits="userSpaceOnUse" gradientTransform="translate(21.2063 24.88) rotate(-168.558) scale(10.0291 12.4891)">
<stop stop-color="#FFDA2F" style="stop-color:#FFDA2F;stop-color:color(display-p3 1.0000 0.8549 0.1843);stop-opacity:1;"/>
<stop offset="1" stop-color="#FF8E41" style="stop-color:#FF8E41;stop-color:color(display-p3 1.0000 0.5569 0.2549);stop-opacity:1;"/>
</radialGradient>
<radialGradient id="paint9_radial_29663_17686" cx="0" cy="0" r="1" gradientUnits="userSpaceOnUse" gradientTransform="translate(12.4024 9.0957) rotate(69.044) scale(14.1425 12.2879)">
<stop stop-color="#FD5639" style="stop-color:#FD5639;stop-color:color(display-p3 0.9922 0.3373 0.2235);stop-opacity:1;"/>
<stop offset="1" stop-color="#FE5533" stop-opacity="0" style="stop-color:none;stop-opacity:0;"/>
</radialGradient>
<radialGradient id="paint10_radial_29663_17686" cx="0" cy="0" r="1" gradientUnits="userSpaceOnUse" gradientTransform="translate(19.2413 21.1327) rotate(174.239) scale(9.79866 23.9914)">
<stop offset="0.628" stop-color="#D7812D" stop-opacity="0" style="stop-color:none;stop-opacity:0;"/>
<stop offset="1" stop-color="#D7812D" style="stop-color:#D7812D;stop-color:color(display-p3 0.8431 0.5059 0.1765);stop-opacity:1;"/>
</radialGradient>
<linearGradient id="paint11_linear_29663_17686" x1="16.5054" y1="11.1148" x2="16.5054" y2="14.7618" gradientUnits="userSpaceOnUse">
<stop stop-color="#F95131" style="stop-color:#F95131;stop-color:color(display-p3 0.9765 0.3176 0.1922);stop-opacity:1;"/>
<stop offset="1" stop-color="#F95131" stop-opacity="0" style="stop-color:none;stop-opacity:0;"/>
</linearGradient>
<radialGradient id="paint12_radial_29663_17686" cx="0" cy="0" r="1" gradientUnits="userSpaceOnUse" gradientTransform="translate(22.9883 19.3059) rotate(143.063) scale(16.0546 11.6174)">
<stop offset="0.772" stop-color="#F18A52" stop-opacity="0" style="stop-color:none;stop-opacity:0;"/>
<stop offset="1" stop-color="#F18A52" style="stop-color:#F18A52;stop-color:color(display-p3 0.9451 0.5412 0.3216);stop-opacity:1;"/>
</radialGradient>
<linearGradient id="paint13_linear_29663_17686" x1="14.9975" y1="4.75881" x2="7.6565" y2="23.2358" gradientUnits="userSpaceOnUse">
<stop stop-color="#FF7558" style="stop-color:#FF7558;stop-color:color(display-p3 1.0000 0.4588 0.3451);stop-opacity:1;"/>
<stop offset="1" stop-color="#F38758" style="stop-color:#F38758;stop-color:color(display-p3 0.9529 0.5294 0.3451);stop-opacity:1;"/>
</linearGradient>
<linearGradient id="paint14_linear_29663_17686" x1="9.54231" y1="8.64769" x2="5.58331" y2="19.9827" gradientUnits="userSpaceOnUse">
<stop stop-color="#FF815B" style="stop-color:#FF815B;stop-color:color(display-p3 1.0000 0.5059 0.3569);stop-opacity:1;"/>
<stop offset="1" stop-color="#FF9C6D" style="stop-color:#FF9C6D;stop-color:color(display-p3 1.0000 0.6118 0.4275);stop-opacity:1;"/>
</linearGradient>
</defs>
</svg>
