<svg width="18" height="17" viewBox="0 0 18 17" fill="none" xmlns="http://www.w3.org/2000/svg">
    <path d="M0 2.57407C0.626745 2.1033 1.4058 1.82434 2.25 1.82434H15.75C16.5942 1.82434 17.3733 2.1033 18 2.57407C17.9999 1.33155 16.9926 0.324341 15.75 0.324341H2.25C1.00745 0.324341 0.000148416 1.33155 0 2.57407Z" fill="var(--iconPrimary)"/>
    <path d="M0 5.57407C0.626745 5.1033 1.4058 4.82434 2.25 4.82434H15.75C16.5942 4.82434 17.3733 5.1033 18 5.57407C17.9999 4.33155 16.9926 3.32434 15.75 3.32434H2.25C1.00745 3.32434 0.000148416 4.33155 0 5.57407Z" fill="var(--iconPrimary)"/>
    <path d="M6 6.32434C6.55228 6.32434 7 6.77206 7 7.32434C7 8.42891 7.89543 9.32434 9 9.32434C10.1046 9.32434 11 8.42891 11 7.32434C11 6.77206 11.4477 6.32434 12 6.32434H15.75C16.9926 6.32434 18 7.3317 18 8.57434V14.0743C18 15.317 16.9926 16.3243 15.75 16.3243H2.25C1.00736 16.3243 0 15.317 0 14.0743V8.57434C0 7.3317 1.00736 6.32434 2.25 6.32434H6Z" fill="var(--iconPrimary)"/>
</svg>
