<svg width="12" height="12" viewBox="0 0 12 12" fill="none" xmlns="http://www.w3.org/2000/svg">
    <path fill-rule="evenodd" clip-rule="evenodd" d="M8.7001 0.600098C7.20893 0.600098 6.0001 1.80893 6.0001 3.3001V5.4001H1.8001C1.13736 5.4001 0.600098 5.93736 0.600098 6.6001V10.2001C0.600098 10.8628 1.13736 11.4001 1.8001 11.4001H7.8001C8.46284 11.4001 9.0001 10.8628 9.0001 10.2001V6.6001C9.0001 5.93736 8.46284 5.4001 7.8001 5.4001H6.9001V3.3001C6.9001 2.30599 7.70599 1.5001 8.7001 1.5001C9.69421 1.5001 10.5001 2.30599 10.5001 3.3001V4.9501C10.5001 5.19863 10.7016 5.4001 10.9501 5.4001C11.1986 5.4001 11.4001 5.19863 11.4001 4.9501V3.3001C11.4001 1.80893 10.1913 0.600098 8.7001 0.600098Z" fill="var(--iconPrimary)"/>
</svg> 