<svg width="372" height="148" viewBox="0 0 372 148" fill="none" xmlns="http://www.w3.org/2000/svg">
<path fill-rule="evenodd" clip-rule="evenodd" d="M339.572 114.078H356.791V96.8585H339.572V114.078Z" fill="#1EC6C6"/>
<path fill-rule="evenodd" clip-rule="evenodd" d="M322.348 131.307H339.567V114.088H322.348V131.307Z" fill="#1EC6C6"/>
<path fill-rule="evenodd" clip-rule="evenodd" d="M269.997 45.2597H305.162V28.0905H269.997V45.2597ZM305.162 45.2597V62.4289H287.167V79.598H305.162V62.4289H322.331V45.2597H305.162ZM305.162 79.598V96.7672H269.997V113.937H305.162V96.7672H322.331V79.598H305.162Z" fill="currentColor"/>
<path fill-rule="evenodd" clip-rule="evenodd" d="M34.4133 58.1098C32.088 58.1098 30.0579 57.8232 28.3238 57.2514C26.5883 56.6797 25.1307 55.914 23.9503 54.9543C22.7684 53.9946 21.8739 52.9336 21.2652 51.7706C20.6566 50.6083 20.3323 49.4373 20.2961 48.2554C20.2961 47.9232 20.4069 47.6561 20.6283 47.4528C20.8498 47.2501 21.127 47.1481 21.4592 47.1481H24.1717C24.5039 47.1481 24.8086 47.2313 25.0851 47.3971C25.3616 47.5635 25.5736 47.887 25.722 48.3661C26.0904 49.6949 26.7265 50.7284 27.6312 51.4666C28.5351 52.2048 29.5875 52.7122 30.7874 52.9886C31.9859 53.2658 33.1953 53.4041 34.4133 53.4041C36.9602 53.4041 39.0264 52.7947 40.6136 51.5773C42.2 50.3593 42.9939 48.5695 42.9939 46.2072C42.9939 43.808 42.2745 42.0921 40.835 41.0586C39.3955 40.0258 37.4031 39.5083 34.8563 39.5083H29.5969C29.2278 39.5083 28.9231 39.3976 28.6835 39.1761C28.4425 38.9547 28.3238 38.642 28.3238 38.2353V36.7408C28.3238 36.4086 28.3875 36.1227 28.5178 35.8824C28.6466 35.6429 28.7848 35.4308 28.9325 35.2455L39.6727 23.5094H23.3409C22.9718 23.5094 22.6678 23.3987 22.4275 23.1772C22.1873 22.9558 22.0678 22.6424 22.0678 22.2357V20.1318C22.0678 19.7265 22.1873 19.4037 22.4275 19.1634C22.6678 18.9239 22.9718 18.8037 23.3409 18.8037H45.43C45.836 18.8037 46.1588 18.9239 46.3991 19.1634C46.6387 19.4037 46.7588 19.7265 46.7588 20.1318V22.1249C46.7588 22.384 46.6937 22.6149 46.5648 22.8168C46.4353 23.0209 46.2971 23.2142 46.1494 23.3987L35.4649 35.3013L36.3508 35.3563C38.7869 35.4308 40.9183 35.8737 42.745 36.685C44.5724 37.4978 45.9924 38.7057 47.0078 40.311C48.0224 41.9162 48.5305 43.9369 48.5305 46.373C48.5305 48.846 47.9211 50.9499 46.7031 52.6839C45.4858 54.4195 43.8154 55.7569 41.6934 56.6978C39.5707 57.6394 37.144 58.1098 34.4133 58.1098Z" fill="currentColor"/>
<path fill-rule="evenodd" clip-rule="evenodd" d="M73.6396 58.1099C70.2438 58.1099 67.4292 57.4824 65.1972 56.2274C62.9637 54.9732 61.2753 53.2196 60.131 50.968C58.9868 48.7172 58.3601 46.0966 58.2493 43.1068C58.2124 41.5942 58.1936 39.9709 58.1936 38.2354C58.1936 36.5013 58.2124 34.8403 58.2493 33.2524C58.3601 30.2634 58.9868 27.6428 60.131 25.3912C61.2753 23.1411 62.9637 21.3875 65.1972 20.1318C67.4292 18.8776 70.2438 18.2501 73.6396 18.2501C76.1864 18.2501 78.4191 18.6011 80.3385 19.3017C82.2571 20.0037 83.8536 20.9446 85.1267 22.125C86.4005 23.3069 87.3688 24.6262 88.0332 26.0838C88.6976 27.5422 89.066 29.0454 89.1405 30.5956C89.1767 30.9278 89.0761 31.2043 88.8366 31.4257C88.5956 31.6472 88.3104 31.7579 87.9782 31.7579H84.9327C84.6013 31.7579 84.3147 31.666 84.0751 31.4815C83.8341 31.2969 83.6597 30.9647 83.5489 30.4849C82.9215 27.6059 81.7497 25.6322 80.0338 24.5611C78.3178 23.4914 76.1864 22.9558 73.6396 22.9558C70.6498 22.9558 68.2875 23.7954 66.5535 25.4744C64.8187 27.1542 63.8959 29.8393 63.7852 33.5296C63.6744 36.5563 63.6744 39.656 63.7852 42.8304C63.8959 46.5214 64.8187 49.2065 66.5535 50.8855C68.2875 52.5646 70.6498 53.4041 73.6396 53.4041C76.1864 53.4041 78.3178 52.8693 80.0338 51.7989C81.7497 50.7285 82.9215 48.7534 83.5489 45.8751C83.6597 45.396 83.8341 45.0638 84.0751 44.8785C84.3147 44.694 84.6013 44.6013 84.9327 44.6013H87.9782C88.3104 44.6013 88.5956 44.7041 88.8366 44.906C89.0761 45.1094 89.1767 45.3764 89.1405 45.7086C89.066 47.2589 88.6976 48.7729 88.0332 50.2486C87.3688 51.7251 86.4005 53.0538 85.1267 54.235C83.8536 55.4161 82.2571 56.357 80.3385 57.0575C78.4191 57.7588 76.1864 58.1099 73.6396 58.1099Z" fill="currentColor"/>
<path fill-rule="evenodd" clip-rule="evenodd" d="M107.629 53.8469C109.918 53.8469 111.744 53.1188 113.111 51.6605C114.475 50.2022 115.214 48.0715 115.325 45.2663C115.362 44.7119 115.38 44.0121 115.38 43.1624C115.38 42.3134 115.362 41.6121 115.325 41.0585C115.214 38.254 114.475 36.1226 113.111 34.6643C111.744 33.2067 109.918 32.4779 107.629 32.4779C105.341 32.4779 103.506 33.2067 102.122 34.6643C100.738 36.1226 100.008 38.254 99.9346 41.0585C99.8977 41.6121 99.8796 42.3134 99.8796 43.1624C99.8796 44.0121 99.8977 44.7119 99.9346 45.2663C100.008 48.0715 100.738 50.2022 102.122 51.6605C103.506 53.1188 105.341 53.8469 107.629 53.8469ZM107.629 58.1097C104.825 58.1097 102.481 57.5741 100.599 56.5044C98.7173 55.434 97.2777 53.9489 96.2812 52.0477C95.2846 50.1472 94.7309 47.9788 94.6202 45.5428C94.5833 44.916 94.5652 44.1126 94.5652 43.1349C94.5652 42.1571 94.5833 41.3726 94.6202 40.782C94.7309 38.3097 95.2933 36.1313 96.3087 34.2489C97.3233 32.3671 98.7723 30.8915 100.655 29.8203C102.536 28.7506 104.862 28.2144 107.629 28.2144C110.398 28.2144 112.724 28.7506 114.605 29.8203C116.488 30.8915 117.935 32.3671 118.952 34.2489C119.965 36.1313 120.529 38.3097 120.64 40.782C120.676 41.3726 120.695 42.1571 120.695 43.1349C120.695 44.1126 120.676 44.916 120.64 45.5428C120.529 47.9788 119.976 50.1472 118.979 52.0477C117.982 53.9489 116.543 55.434 114.66 56.5044C112.779 57.5741 110.434 58.1097 107.629 58.1097Z" fill="currentColor"/>
<path fill-rule="evenodd" clip-rule="evenodd" d="M128.888 57.5561C128.518 57.5561 128.214 57.4367 127.974 57.1964C127.734 56.9568 127.615 56.6521 127.615 56.283V30.0418C127.615 29.6735 127.734 29.3688 127.974 29.1285C128.214 28.8889 128.518 28.7688 128.888 28.7688H131.379C131.748 28.7688 132.052 28.8889 132.293 29.1285C132.532 29.3688 132.652 29.6735 132.652 30.0418V31.9793C133.501 30.8358 134.572 29.9224 135.864 29.2392C137.156 28.5567 138.705 28.2144 140.514 28.2144C144.684 28.1789 147.636 29.8754 149.371 33.3081C150.22 31.7578 151.456 30.5217 153.081 29.5989C154.704 28.6769 156.549 28.2144 158.616 28.2144C160.535 28.2144 162.279 28.6581 163.848 29.5432C165.416 30.4298 166.652 31.7672 167.557 33.557C168.461 35.3475 168.914 37.5897 168.914 40.2834V56.283C168.914 56.6521 168.794 56.9568 168.554 57.1964C168.313 57.4367 168.008 57.5561 167.64 57.5561H165.039C164.669 57.5561 164.364 57.4367 164.125 57.1964C163.885 56.9568 163.765 56.6521 163.765 56.283V40.7821C163.765 38.7151 163.47 37.0918 162.879 35.9099C162.289 34.7295 161.495 33.8986 160.499 33.4188C159.502 32.9397 158.413 32.6994 157.233 32.6994C156.272 32.6994 155.295 32.9397 154.299 33.4188C153.302 33.8986 152.48 34.7295 151.835 35.9099C151.189 37.0918 150.866 38.7151 150.866 40.7821V56.283C150.866 56.6521 150.746 56.9568 150.506 57.1964C150.266 57.4367 149.961 57.5561 149.593 57.5561H146.991C146.622 57.5561 146.317 57.4367 146.078 57.1964C145.837 56.9568 145.718 56.6521 145.718 56.283V40.7821C145.718 38.7151 145.404 37.0918 144.776 35.9099C144.149 34.7295 143.338 33.8986 142.341 33.4188C141.344 32.9397 140.293 32.6994 139.186 32.6994C138.225 32.6994 137.248 32.9397 136.252 33.4188C135.255 33.8986 134.433 34.7295 133.788 35.9099C133.142 37.0918 132.819 38.697 132.819 40.7263V56.283C132.819 56.6521 132.699 56.9568 132.459 57.1964C132.219 57.4367 131.914 57.5561 131.546 57.5561H128.888Z" fill="currentColor"/>
<path fill-rule="evenodd" clip-rule="evenodd" d="M178.103 57.5561C177.733 57.5561 177.428 57.4367 177.189 57.1964C176.948 56.9568 176.829 56.6521 176.829 56.283V30.0418C176.829 29.6735 176.948 29.3688 177.189 29.1285C177.428 28.8889 177.733 28.7688 178.103 28.7688H180.594C180.962 28.7688 181.267 28.8889 181.507 29.1285C181.747 29.3688 181.867 29.6735 181.867 30.0418V31.9793C182.716 30.8358 183.786 29.9224 185.078 29.2392C186.37 28.5567 187.919 28.2144 189.728 28.2144C193.898 28.1789 196.85 29.8754 198.587 33.3081C199.435 31.7578 200.671 30.5217 202.296 29.5989C203.919 28.6769 205.764 28.2144 207.831 28.2144C209.75 28.2144 211.494 28.6581 213.063 29.5432C214.631 30.4298 215.867 31.7672 216.773 33.557C217.676 35.3475 218.129 37.5897 218.129 40.2834V56.283C218.129 56.6521 218.009 56.9568 217.769 57.1964C217.528 57.4367 217.223 57.5561 216.855 57.5561H214.253C213.883 57.5561 213.579 57.4367 213.34 57.1964C213.099 56.9568 212.979 56.6521 212.979 56.283V40.7821C212.979 38.7151 212.684 37.0918 212.094 35.9099C211.503 34.7295 210.711 33.8986 209.714 33.4188C208.717 32.9397 207.628 32.6994 206.447 32.6994C205.487 32.6994 204.51 32.9397 203.513 33.4188C202.516 33.8986 201.695 34.7295 201.049 35.9099C200.403 37.0918 200.08 38.7151 200.08 40.7821V56.283C200.08 56.6521 199.96 56.9568 199.721 57.1964C199.48 57.4367 199.176 57.5561 198.807 57.5561H196.205C195.836 57.5561 195.532 57.4367 195.292 57.1964C195.052 56.9568 194.932 56.6521 194.932 56.283V40.7821C194.932 38.7151 194.618 37.0918 193.991 35.9099C193.363 34.7295 192.552 33.8986 191.555 33.4188C190.559 32.9397 189.507 32.6994 188.4 32.6994C187.44 32.6994 186.463 32.9397 185.466 33.4188C184.469 33.8986 183.647 34.7295 183.002 35.9099C182.356 37.0918 182.033 38.697 182.033 40.7263V56.283C182.033 56.6521 181.913 56.9568 181.674 57.1964C181.433 57.4367 181.129 57.5561 180.76 57.5561H178.103Z" fill="currentColor"/>
<path fill-rule="evenodd" clip-rule="evenodd" d="M235.235 53.9576C236.748 53.9576 238.132 53.6348 239.387 52.9893C240.641 52.3437 241.629 51.3377 242.348 49.972C243.068 48.6063 243.428 46.8904 243.428 44.8234V43.2731L237.006 44.214C234.385 44.5838 232.411 45.2019 231.083 46.0689C229.754 46.9367 229.089 48.0339 229.089 49.3626C229.089 50.3969 229.394 51.2545 230.003 51.937C230.612 52.6202 231.387 53.1275 232.328 53.4597C233.269 53.7919 234.238 53.9576 235.235 53.9576ZM234.072 58.1097C232.226 58.1097 230.547 57.7406 229.035 57.0024C227.52 56.2649 226.302 55.2683 225.38 54.0134C224.458 52.7591 223.997 51.3377 223.997 49.7506C223.997 47.2037 225.029 45.1744 227.097 43.6603C229.163 42.1477 231.858 41.1511 235.18 40.6713L243.428 39.509V37.903C243.428 36.1313 242.92 34.7475 241.906 33.7509C240.89 32.7544 239.238 32.2564 236.951 32.2564C235.327 32.2564 233.998 32.5886 232.964 33.253C231.932 33.9174 231.211 34.7663 230.806 35.7998C230.584 36.3528 230.197 36.63 229.643 36.63H227.152C226.746 36.63 226.441 36.5105 226.238 36.2703C226.035 36.03 225.934 35.7441 225.934 35.4119C225.934 34.8583 226.146 34.1758 226.57 33.3637C226.994 32.5524 227.651 31.7585 228.536 30.9827C229.422 30.2083 230.557 29.5533 231.94 29.0177C233.325 28.4829 235.013 28.2151 237.006 28.2151C239.221 28.2151 241.084 28.5017 242.598 29.0734C244.111 29.6459 245.3 30.4109 246.168 31.3706C247.035 32.331 247.663 33.4187 248.051 34.6368C248.438 35.8548 248.633 37.0917 248.633 38.3459V56.283C248.633 56.6521 248.512 56.9568 248.272 57.1964C248.032 57.4366 247.727 57.556 247.359 57.556H244.812C244.406 57.556 244.093 57.4366 243.871 57.1964C243.65 56.9568 243.539 56.6521 243.539 56.283V53.9026C243.059 54.5663 242.413 55.2227 241.601 55.8676C240.789 56.5139 239.774 57.0494 238.557 57.4728C237.338 57.8969 235.844 58.1097 234.072 58.1097Z" fill="currentColor"/>
<path fill-rule="evenodd" clip-rule="evenodd" d="M33.5416 114.392C30.3572 114.392 27.8986 113.805 26.1646 112.628C24.4298 111.452 23.35 109.807 22.923 107.696C22.4952 105.586 22.6588 103.128 23.4115 100.325C23.811 98.9066 24.259 97.3846 24.7562 95.7569C25.2541 94.1314 25.7462 92.5739 26.2362 91.0852C27.1973 88.2829 28.5362 85.8258 30.2551 83.7147C31.9725 81.6043 34.0583 79.9599 36.5118 78.7831C38.9653 77.6071 41.7835 77.0179 44.9679 77.0179C47.3555 77.0179 49.3487 77.3472 50.9467 78.0044C52.5454 78.6623 53.7722 79.5452 54.6276 80.6518C55.4824 81.7599 56.0136 82.9967 56.2184 84.3631C56.4225 85.7303 56.3378 87.1408 55.9629 88.5941C55.9021 88.9053 55.7277 89.1651 55.4397 89.3721C55.1502 89.5805 54.8505 89.684 54.5401 89.684H51.6842C51.3737 89.684 51.132 89.5979 50.9597 89.4242C50.7868 89.252 50.718 88.9408 50.752 88.4899C50.9887 85.7903 50.456 83.9398 49.154 82.9359C47.8513 81.9328 46.0065 81.4306 43.6189 81.4306C40.8159 81.4306 38.3602 82.218 36.2527 83.7921C34.1438 85.3677 32.5096 87.8856 31.3487 91.345C30.3767 94.1835 29.488 97.0893 28.6817 100.065C27.7271 103.527 27.8226 106.043 28.9683 107.619C30.1133 109.193 32.0876 109.98 34.8906 109.98C37.2782 109.98 39.4306 109.478 41.3456 108.475C43.2621 107.471 44.926 105.62 46.3401 102.92C46.5819 102.471 46.8402 102.161 47.1196 101.986C47.3975 101.813 47.6921 101.727 48.0026 101.727H50.8584C51.1689 101.727 51.4085 101.822 51.5756 102.012C51.7414 102.202 51.7595 102.454 51.6306 102.765C51.1161 104.218 50.3366 105.637 49.2915 107.021C48.245 108.406 46.9553 109.652 45.4232 110.758C43.891 111.867 42.1237 112.749 40.124 113.406C38.1228 114.063 35.9292 114.392 33.5416 114.392Z" fill="#1EC6C6"/>
<path fill-rule="evenodd" clip-rule="evenodd" d="M72.7629 110.452C74.1814 110.452 75.5717 110.15 76.9338 109.544C78.2952 108.939 79.5089 107.995 80.5756 106.715C81.6424 105.435 82.4704 103.826 83.0631 101.887L83.5082 100.434L77.2168 101.316C74.6533 101.663 72.6254 102.243 71.1309 103.056C69.6371 103.869 68.6992 104.898 68.3177 106.144C68.021 107.114 68.0608 107.918 68.4364 108.557C68.8113 109.199 69.3932 109.673 70.1806 109.985C70.9673 110.297 71.8286 110.452 72.7629 110.452ZM70.4824 114.345C68.7513 114.345 67.2835 113.999 66.0763 113.307C64.8691 112.615 64.0122 111.681 63.5078 110.504C63.0019 109.328 62.9766 107.995 63.4311 106.507C64.1613 104.119 65.7123 102.217 68.084 100.797C70.4557 99.3782 73.2681 98.4446 76.5191 97.9945L84.5873 96.9038L85.0476 95.3991C85.5549 93.7374 85.4761 92.4398 84.8102 91.5054C84.1437 90.5718 82.7382 90.1036 80.5923 90.1036C79.0696 90.1036 77.7292 90.4155 76.5698 91.0386C75.4104 91.6611 74.4919 92.4579 73.8152 93.427C73.449 93.9459 73.0061 94.205 72.4872 94.205H70.1517C69.7696 94.205 69.5191 94.0928 69.3983 93.867C69.2767 93.6426 69.2637 93.3741 69.3585 93.0629C69.5177 92.544 69.9121 91.9042 70.5432 91.1421C71.1729 90.3815 72.016 89.6368 73.0683 88.9101C74.1207 88.1835 75.3727 87.5691 76.8238 87.0675C78.2749 86.5667 79.9344 86.3148 81.8031 86.3148C83.8795 86.3148 85.5441 86.5833 86.8005 87.1189C88.0547 87.6566 88.9514 88.3746 89.4899 89.2742C90.0269 90.1738 90.3041 91.1942 90.3186 92.3363C90.3323 93.4776 90.1594 94.6378 89.7997 95.8138L84.6582 112.633C84.5519 112.979 84.3528 113.264 84.059 113.489C83.7644 113.714 83.4453 113.826 83.0993 113.826H80.711C80.3303 113.826 80.0712 113.714 79.9315 113.489C79.7933 113.264 79.7759 112.979 79.8823 112.633L80.5648 110.4C79.9243 111.024 79.1304 111.638 78.1844 112.243C77.2378 112.849 76.1326 113.351 74.869 113.749C73.6061 114.146 72.1434 114.345 70.4824 114.345Z" fill="#1EC6C6"/>
<path fill-rule="evenodd" clip-rule="evenodd" d="M114.24 110.141C116.039 110.141 117.57 109.751 118.827 108.973C120.086 108.194 121.133 107.174 121.971 105.91C122.806 104.648 123.481 103.289 123.995 101.835C124.336 100.832 124.643 99.8282 124.915 98.8251C125.29 97.3711 125.445 96.0134 125.382 94.7498C125.319 93.4876 124.895 92.4664 124.112 91.6877C123.33 90.9089 122.037 90.5195 120.239 90.5195C118.543 90.5195 117.046 90.9176 115.747 91.713C114.448 92.5098 113.36 93.5216 112.483 94.7498C111.605 95.9787 110.937 97.2336 110.476 98.5132C110.272 99.0676 110.054 99.7247 109.822 100.485C109.588 101.247 109.399 101.923 109.253 102.51C108.918 103.722 108.838 104.916 109.015 106.092C109.191 107.269 109.7 108.238 110.541 108.999C111.38 109.76 112.613 110.141 114.24 110.141ZM99.0941 123.689C98.7481 123.689 98.4963 123.575 98.34 123.352C98.1836 123.126 98.1583 122.841 98.2647 122.495L108.802 88.0277C108.908 87.6818 109.107 87.3966 109.402 87.1715C109.695 86.9472 110.015 86.8336 110.362 86.8336H112.749C113.095 86.8336 113.346 86.9472 113.502 87.1715C113.658 87.3966 113.683 87.6818 113.577 88.0277L112.879 90.3118C114.059 89.1698 115.458 88.2181 117.075 87.4574C118.69 86.696 120.538 86.3146 122.614 86.3146C124.552 86.3146 126.104 86.6439 127.271 87.3011C128.436 87.959 129.285 88.8578 129.819 90.0006C130.352 91.142 130.622 92.4396 130.627 93.8936C130.632 95.3469 130.416 96.9036 129.977 98.5653C129.843 99.119 129.681 99.7066 129.49 100.33C129.3 100.954 129.101 101.542 128.899 102.095C128.332 103.722 127.598 105.27 126.7 106.741C125.8 108.212 124.737 109.51 123.511 110.634C122.284 111.758 120.885 112.659 119.312 113.333C117.738 114.008 115.982 114.346 114.044 114.346C112.037 114.346 110.464 113.973 109.325 113.23C108.185 112.485 107.351 111.56 106.826 110.452L103.144 122.495C103.038 122.841 102.847 123.126 102.57 123.352C102.294 123.575 101.983 123.689 101.637 123.689H99.0941Z" fill="#1EC6C6"/>
<path fill-rule="evenodd" clip-rule="evenodd" d="M150.011 81.7984C149.664 81.7984 149.413 81.687 149.257 81.4611C149.1 81.2368 149.076 80.9509 149.181 80.605L150.038 77.8019C150.144 77.4567 150.346 77.1622 150.646 76.919C150.944 76.678 151.267 76.5564 151.614 76.5564H154.884C155.229 76.5564 155.486 76.678 155.655 76.919C155.822 77.1622 155.853 77.4567 155.748 77.8019L154.891 80.605C154.786 80.9509 154.577 81.2368 154.266 81.4611C153.954 81.687 153.626 81.7984 153.281 81.7984H150.011ZM140.633 113.826C140.287 113.826 140.035 113.714 139.879 113.489C139.723 113.264 139.698 112.979 139.805 112.632L147.327 88.0276C147.433 87.6817 147.632 87.3965 147.926 87.1714C148.219 86.9471 148.54 86.8342 148.886 86.8342H151.378C151.723 86.8342 151.974 86.9471 152.131 87.1714C152.287 87.3965 152.313 87.6817 152.207 88.0276L144.684 112.632C144.578 112.979 144.378 113.264 144.085 113.489C143.79 113.714 143.47 113.826 143.125 113.826H140.633Z" fill="#1EC6C6"/>
<path fill-rule="evenodd" clip-rule="evenodd" d="M172.349 113.826C170.411 113.826 168.951 113.454 167.967 112.71C166.982 111.966 166.424 110.911 166.287 109.544C166.151 108.177 166.369 106.559 166.941 104.69L171.13 90.9866H167.082C166.735 90.9866 166.484 90.8744 166.329 90.6493C166.172 90.4242 166.147 90.1391 166.253 89.7931L166.792 88.0279C166.898 87.682 167.097 87.3968 167.391 87.171C167.685 86.9467 168.005 86.8338 168.352 86.8338H172.4L175.05 78.1649C175.156 77.8197 175.355 77.5345 175.65 77.3087C175.943 77.0843 176.263 76.9714 176.609 76.9714H179.049C179.394 76.9714 179.645 77.0843 179.803 77.3087C179.958 77.5345 179.983 77.8197 179.878 78.1649L177.227 86.8338H183.664C184.044 86.8338 184.305 86.9467 184.444 87.171C184.582 87.3968 184.599 87.682 184.492 88.0279L183.953 89.7931C183.847 90.1391 183.657 90.4242 183.38 90.6493C183.103 90.8744 182.775 90.9866 182.395 90.9866H175.957L171.88 104.327C171.382 105.954 171.268 107.234 171.535 108.169C171.803 109.102 172.646 109.569 174.066 109.569H177.233C177.578 109.569 177.829 109.682 177.986 109.907C178.142 110.132 178.167 110.419 178.061 110.764L177.49 112.633C177.384 112.979 177.184 113.264 176.89 113.489C176.596 113.714 176.277 113.826 175.931 113.826H172.349Z" fill="#1EC6C6"/>
<path fill-rule="evenodd" clip-rule="evenodd" d="M201.567 110.452C202.985 110.452 204.376 110.15 205.738 109.544C207.099 108.939 208.313 107.995 209.38 106.715C210.446 105.435 211.275 103.826 211.867 101.887L212.312 100.434L206.021 101.316C203.457 101.663 201.429 102.243 199.935 103.056C198.441 103.869 197.503 104.898 197.122 106.144C196.826 107.114 196.865 107.918 197.24 108.557C197.616 109.199 198.197 109.673 198.984 109.985C199.772 110.297 200.632 110.452 201.567 110.452ZM199.286 114.345C197.555 114.345 196.087 113.999 194.88 113.307C193.672 112.615 192.816 111.681 192.312 110.504C191.805 109.328 191.78 107.995 192.235 106.507C192.965 104.119 194.516 102.217 196.888 100.797C199.26 99.3782 202.071 98.4446 205.323 97.9945L213.391 96.9038L213.851 95.3991C214.36 93.7374 214.28 92.4398 213.614 91.5054C212.948 90.5718 211.542 90.1036 209.396 90.1036C207.873 90.1036 206.532 90.4155 205.374 91.0386C204.214 91.6611 203.296 92.4579 202.619 93.427C202.252 93.9459 201.81 94.205 201.291 94.205H198.956C198.573 94.205 198.323 94.0928 198.203 93.867C198.08 93.6426 198.067 93.3741 198.162 93.0629C198.322 92.544 198.716 91.9042 199.347 91.1421C199.977 90.3815 200.819 89.6368 201.872 88.9101C202.925 88.1835 204.177 87.5691 205.628 87.0675C207.079 86.5667 208.739 86.3148 210.608 86.3148C212.684 86.3148 214.348 86.5833 215.604 87.1189C216.859 87.6566 217.755 88.3746 218.293 89.2742C218.831 90.1738 219.108 91.1942 219.122 92.3363C219.136 93.4776 218.963 94.6378 218.604 95.8138L213.462 112.633C213.356 112.979 213.157 113.264 212.862 113.489C212.568 113.714 212.249 113.826 211.903 113.826H209.515C209.134 113.826 208.875 113.714 208.736 113.489C208.597 113.264 208.58 112.979 208.686 112.633L209.369 110.4C208.728 111.024 207.935 111.638 206.989 112.243C206.042 112.849 204.936 113.351 203.673 113.749C202.409 114.146 200.947 114.345 199.286 114.345Z" fill="#1EC6C6"/>
<path fill-rule="evenodd" clip-rule="evenodd" d="M231.628 113.826C231.281 113.826 231.03 113.714 230.874 113.489C230.718 113.264 230.692 112.979 230.799 112.633L241.336 78.1649C241.442 77.8197 241.641 77.5345 241.935 77.3087C242.229 77.0843 242.549 76.9714 242.895 76.9714H245.334C245.716 76.9714 245.975 77.0843 246.114 77.3087C246.253 77.5345 246.269 77.8197 246.164 78.1649L235.626 112.633C235.52 112.979 235.329 113.264 235.052 113.489C234.776 113.714 234.448 113.826 234.067 113.826H231.628Z" fill="#1EC6C6"/>
</svg>
