<svg width="372" height="320" viewBox="0 0 372 320" fill="none" xmlns="http://www.w3.org/2000/svg">
<path fill-rule="evenodd" clip-rule="evenodd" d="M48.9736 100.156L116.148 103.162L143.345 163.666L104.976 218.961L37.4357 214.631L9.74658 149.076L48.9736 100.156ZM98.2217 135.032L49.5377 156.329L91.1595 188.55L98.2217 135.032ZM92.5853 124.36L53.6788 107.587L45.506 142.853L92.5853 124.36ZM82.7238 196.657L40.44 166.426L41.4628 207.391L82.7238 196.657ZM136.591 163.532L107.777 134.257L100.172 190.552L136.591 163.532ZM92.6376 203.242L56.9767 212.574L98.9137 215.263L92.6376 203.242ZM130.96 176.815L99.7441 200.098L105.947 212.235L130.96 176.815ZM116.195 111.616L110.132 124.078L132.699 147.047L116.195 111.616ZM108.641 105.652L69.0112 104.042L101.701 118.358L108.641 105.652ZM43.1865 111.415L15.4288 146.51L33.9871 150.445L43.1865 111.415ZM32.8681 157.329L14.2203 153.376L33.6778 199.273L32.8681 157.329Z" fill="currentColor"/>
<path fill-rule="evenodd" clip-rule="evenodd" d="M170.555 157.358H172L182.351 143.72L185.299 146.041L175.296 158.75L187.034 172.969L184.085 175.465L171.885 160.549H170.555V174.71H166.681V144.474H170.555V157.358Z" fill="currentColor"/>
<path fill-rule="evenodd" clip-rule="evenodd" d="M201.838 144.474H205.712V171.228H221.497V174.711H201.838V144.474Z" fill="currentColor"/>
<path fill-rule="evenodd" clip-rule="evenodd" d="M235.781 144.474H254.573V147.957H239.655V157.011H251.971V160.492H239.655V171.229H254.573V174.712H235.781V144.474Z" fill="currentColor"/>
<path d="M270.013 144.474H280.247C285.278 144.474 289.268 146.854 289.268 152.715C289.268 156.429 286.781 160.086 283.139 161.188L290.54 173.434L287.186 175.465L279.496 161.768H273.887V174.711H270.013V144.474ZM278.975 158.287C282.733 158.287 285.22 156.14 285.22 152.715C285.22 149.988 283.601 147.957 280.131 147.957H273.886V158.287H278.975Z" fill="currentColor"/>
<path d="M324.136 159.621C324.136 162.059 323.962 175.233 313.438 175.233C308.581 175.233 302.741 171.751 302.741 159.621C302.741 147.55 308.465 143.952 313.438 143.952C318.237 143.952 324.136 147.434 324.136 159.621ZM306.789 159.621C306.789 164.032 307.599 171.577 313.438 171.577C319.278 171.577 320.088 164.032 320.088 159.621C320.088 155.153 319.278 147.608 313.438 147.608C307.599 147.608 306.789 155.153 306.789 159.621Z" fill="currentColor"/>
<path fill-rule="evenodd" clip-rule="evenodd" d="M341.83 165.135C342.581 168.85 344.374 171.577 348.422 171.577C351.602 171.577 354.088 169.836 354.088 166.47C354.088 162.755 350.966 161.827 348.017 160.608C343.623 158.751 339.459 157.59 339.459 151.903C339.459 146.796 343.565 143.952 348.306 143.952C353.336 143.952 356.285 146.854 357.5 151.555L353.799 152.657C353.105 149.698 351.544 147.608 348.248 147.608C345.762 147.608 343.333 148.885 343.333 151.613C343.333 154.456 345.067 155.269 347.381 156.313L353.799 159.157C356.516 160.666 357.962 163.104 357.962 166.237C357.962 171.983 353.972 175.233 348.421 175.233C342.813 175.233 339.285 171.634 338.36 166.237L341.83 165.135Z" fill="currentColor"/>
</svg>
