<svg width="372" height="320" viewBox="0 0 372 320" fill="none" xmlns="http://www.w3.org/2000/svg">
<g clip-path="url(#clip0_36362_852)">
<g mask="url(#mask0_36362_852)">
<path d="M165.79 160.06C166.029 171.327 163.644 183.548 158.279 195.233C150.41 212.163 138.069 224.742 121.019 232.135C96.8154 242.567 72.0154 242.627 47.6327 233.029C26.1116 224.563 11.8039 208.885 4.76929 186.767C-1.3711 167.452 -1.84802 148.136 5.36544 128.94C12.2212 110.758 24.5616 97.3442 42.0289 89.2365C65.1597 78.3865 89.4231 76.9557 113.746 84.6461C146.415 94.9596 166.446 124.052 165.79 160.06ZM39.7039 160.536C39.8827 162.146 40.0616 165.246 40.4789 168.286C42.1481 179.613 46.9174 189.39 55.7404 196.783C74.5789 212.581 103.671 208.825 117.86 188.675C126.981 175.679 128.829 161.192 125.014 146.05C116.25 111.354 75.652 103.723 53.4154 124.708C43.5789 133.948 39.8827 145.871 39.7039 160.536Z" fill="currentColor"/>
<path d="M160.604 84.5269C172.169 84.5269 183.198 84.4077 194.227 84.5865C197.506 84.6461 198.758 87.4481 199.712 90.1308C203.885 101.577 207.998 113.083 212.171 124.588C220.1 146.408 228.029 168.287 236.017 190.106C236.256 190.762 236.494 191.417 236.971 192.55C239.356 185.933 241.621 179.733 243.887 173.533C253.842 145.99 263.798 118.448 273.813 90.9058C274.41 89.2365 275.244 87.6269 276.258 86.1961C276.794 85.4211 277.987 84.5865 278.94 84.5865C290.267 84.4673 301.535 84.5269 313.279 84.5269C312.504 86.6135 311.848 88.3423 311.192 90.0711C293.308 136.273 275.423 182.475 257.539 228.677C257.062 229.988 256.525 231.24 255.869 232.492C254.677 234.758 252.829 236.129 250.146 236.129C241.025 236.069 231.844 236.129 222.723 235.95C219.385 235.89 217.06 234.162 215.748 230.883C197.804 183.608 179.8 136.392 161.796 89.1769C161.26 87.6865 161.021 86.1365 160.604 84.5269Z" fill="currentColor"/>
<path d="M347.438 132.339C333.846 132.517 322.698 122.085 322.579 109.089C322.519 96.152 334.144 84.825 347.677 84.7654C361.15 84.6462 371.762 94.9001 371.94 108.194C372.119 122.323 362.163 132.16 347.438 132.339Z" fill="#4C4297"/>
</g>
</g>
<defs>
<clipPath id="clip0_36362_852">
<rect width="372" height="160.365" fill="white" transform="translate(0 79.8173)"/>
</clipPath>
</defs>
</svg>
